<svg width="1440" height="174" viewBox="0 0 1440 174" fill="none" xmlns="http://www.w3.org/2000/svg">
<path opacity="0.48" d="M-296.584 140.624L-294.715 139.911L-295.206 138.624H-296.584V140.624ZM-357.368 140.624V138.624H-358.746L-359.237 139.911L-357.368 140.624ZM-367.808 168V170H-366.43L-365.939 168.713L-367.808 168ZM-407.48 168L-409.327 167.232L-410.478 170H-407.48V168ZM-340.2 6.29599V4.29599H-341.534L-342.047 5.5277L-340.2 6.29599ZM-313.52 6.29599L-311.673 5.52996L-312.184 4.29599H-313.52V6.29599ZM-246.472 168V170H-243.478L-244.625 167.234L-246.472 168ZM-286.144 168L-288.013 168.713L-287.522 170H-286.144V168ZM-309.112 107.216V109.216H-306.218L-307.241 106.509L-309.112 107.216ZM-326.744 60.584L-324.873 59.8766L-326.732 54.9613L-328.612 59.8685L-326.744 60.584ZM-344.608 107.216L-346.476 106.501L-347.516 109.216H-344.608V107.216ZM-296.584 138.624H-357.368V142.624H-296.584V138.624ZM-359.237 139.911L-369.677 167.287L-365.939 168.713L-355.499 141.337L-359.237 139.911ZM-367.808 166H-407.48V170H-367.808V166ZM-405.633 168.768L-338.353 7.06429L-342.047 5.5277L-409.327 167.232L-405.633 168.768ZM-340.2 8.29599H-313.52V4.29599H-340.2V8.29599ZM-315.367 7.06203L-248.319 168.766L-244.625 167.234L-311.673 5.52996L-315.367 7.06203ZM-246.472 166H-286.144V170H-246.472V166ZM-284.275 167.287L-294.715 139.911L-298.453 141.337L-288.013 168.713L-284.275 167.287ZM-307.241 106.509L-324.873 59.8766L-328.615 61.2913L-310.983 107.923L-307.241 106.509ZM-328.612 59.8685L-346.476 106.501L-342.74 107.931L-324.876 61.2995L-328.612 59.8685ZM-344.608 109.216H-309.112V105.216H-344.608V109.216ZM-119.553 168L-121.283 169.005L-120.704 170H-119.553V168ZM-156.906 103.736L-155.176 102.731L-155.755 101.736H-156.906V103.736ZM-169.434 103.736V101.736H-171.434V103.736H-169.434ZM-169.434 168V170H-167.434V168H-169.434ZM-205.626 168H-207.626V170H-205.626V168ZM-205.626 6.29599V4.29599H-207.626V6.29599H-205.626ZM-99.8335 82.392L-101.524 81.3227L-99.8335 82.392ZM-120.714 99.328L-121.467 97.4754L-123.681 98.3759L-122.404 100.396L-120.714 99.328ZM-77.3295 168V170H-73.7003L-75.6387 166.932L-77.3295 168ZM-135.098 67.544L-134.259 69.3599L-135.098 67.544ZM-140.202 40.4L-140.498 42.3779L-140.202 40.4ZM-169.434 39.704V37.704H-171.434V39.704H-169.434ZM-169.434 70.328H-171.434V72.328H-169.434V70.328ZM-117.824 166.995L-155.176 102.731L-158.635 104.741L-121.283 169.005L-117.824 166.995ZM-156.906 101.736H-165.954V105.736H-156.906V101.736ZM-165.954 101.736H-169.434V105.736H-165.954V101.736ZM-171.434 103.736V168H-167.434V103.736H-171.434ZM-169.434 166H-205.626V170H-169.434V166ZM-203.626 168V6.29599H-207.626V168H-203.626ZM-205.626 8.29599H-148.786V4.29599H-205.626V8.29599ZM-148.786 8.29599C-130.307 8.29599 -116.822 12.2351 -107.974 19.7669C-99.1875 27.2462 -94.6415 38.5574 -94.6415 54.088H-90.6415C-90.6415 37.7572 -95.4528 25.1724 -105.381 16.721C-115.248 8.32219 -129.834 4.29599 -148.786 4.29599V8.29599ZM-94.6415 54.088C-94.6415 65.0976 -96.9778 74.1374 -101.524 81.3227L-98.1433 83.4613C-93.0998 75.4893 -90.6415 65.6598 -90.6415 54.088H-94.6415ZM-101.524 81.3227C-106.073 88.5143 -112.688 93.9043 -121.467 97.4754L-119.96 101.181C-110.488 97.3277 -103.183 91.427 -98.1433 83.4613L-101.524 81.3227ZM-122.404 100.396L-79.0204 169.068L-75.6387 166.932L-119.023 98.2598L-122.404 100.396ZM-77.3295 166H-119.553V170H-77.3295V166ZM-152.497 72.328C-144.807 72.328 -138.667 71.3944 -134.259 69.3599L-135.936 65.7281C-139.57 67.4056 -145.031 68.328 -152.497 68.328V72.328ZM-134.259 69.3599C-129.185 67.0178 -127.065 61.6681 -127.065 54.552H-131.065C-131.065 61.0465 -132.967 64.3582 -135.936 65.7281L-134.259 69.3599ZM-127.065 54.552C-127.065 49.6505 -128.204 45.6251 -130.899 42.9298L-133.728 45.7582C-132.092 47.3935 -131.065 50.1734 -131.065 54.552H-127.065ZM-130.899 42.9298C-133.374 40.4549 -136.398 38.9481 -139.905 38.4221L-140.498 42.3779C-137.818 42.7798 -135.584 43.9024 -133.728 45.7582L-130.899 42.9298ZM-139.905 38.4221C-143.138 37.9371 -147.348 37.704 -152.497 37.704V41.704C-147.439 41.704 -143.452 41.9348 -140.498 42.3779L-139.905 38.4221ZM-152.497 37.704H-169.434V41.704H-152.497V37.704ZM-171.434 39.704V70.328H-167.434V39.704H-171.434ZM-169.434 72.328H-152.497V68.328H-169.434V72.328ZM-5.5817 39.704H-3.5817V37.704H-5.5817V39.704ZM-52.9097 39.704H-54.9097V41.704H-52.9097V39.704ZM-52.9097 6.29599V4.29599H-54.9097V6.29599H-52.9097ZM78.4023 6.29599H80.4023V4.29599H78.4023V6.29599ZM78.4023 39.704V41.704H80.4023V39.704H78.4023ZM31.3063 39.704V37.704H29.3063V39.704H31.3063ZM31.3063 168V170H33.3063V168H31.3063ZM-5.5817 168H-7.5817V170H-5.5817V168ZM-5.5817 37.704H-52.9097V41.704H-5.5817V37.704ZM-50.9097 39.704V6.29599H-54.9097V39.704H-50.9097ZM-52.9097 8.29599H78.4023V4.29599H-52.9097V8.29599ZM76.4023 6.29599V39.704H80.4023V6.29599H76.4023ZM78.4023 37.704H31.3063V41.704H78.4023V37.704ZM29.3063 39.704V168H33.3063V39.704H29.3063ZM31.3063 166H-5.5817V170H31.3063V166ZM-3.5817 168V39.704H-7.5817V168H-3.5817ZM121.476 6.29599V4.29599H119.476V6.29599H121.476ZM157.9 6.29599H159.9V4.29599H157.9V6.29599ZM157.9 168V170H159.9V168H157.9ZM121.476 168H119.476V170H121.476V168ZM121.476 8.29599H157.9V4.29599H121.476V8.29599ZM155.9 6.29599V168H159.9V6.29599H155.9ZM157.9 166H121.476V170H157.9V166ZM123.476 168V6.29599H119.476V168H123.476ZM237.204 165.216L236.359 167.028L236.371 167.034L236.384 167.04L237.204 165.216ZM214.237 147.352L212.659 148.582L212.666 148.59L212.672 148.597L214.237 147.352ZM202.868 120.44L202.383 118.5L200.619 118.941L200.891 120.74L202.868 120.44ZM239.06 111.392L241.054 111.226L240.858 108.881L238.575 109.452L239.06 111.392ZM248.108 132.272L249.432 130.772L248.108 132.272ZM284.068 134.592L282.849 133.007L284.068 134.592ZM283.604 110.928L282.377 112.507L282.409 112.532L282.442 112.555L283.604 110.928ZM261.565 99.56L262.326 97.7106L262.32 97.7081L261.565 99.56ZM233.724 85.408L232.573 87.043L232.585 87.0518L232.598 87.0605L233.724 85.408ZM218.876 69.4L217.088 70.2944L217.097 70.313L217.107 70.3315L218.876 69.4ZM220.964 24.16L219.283 23.0766L219.275 23.0899L219.266 23.1034L220.964 24.16ZM239.524 7.91998L238.658 6.11749L238.651 6.12079L238.644 6.12415L239.524 7.91998ZM297.524 10.008L296.487 11.7176L296.493 11.7216L296.5 11.7256L297.524 10.008ZM318.404 33.44L319.462 35.1375L320.998 34.1802L320.199 32.5563L318.404 33.44ZM288.245 52.232L286.401 53.0081L287.311 55.1698L289.302 53.9295L288.245 52.232ZM278.732 39.008L277.452 40.5444L277.487 40.5732L277.522 40.6003L278.732 39.008ZM255.3 38.08L256.589 39.6098V39.6098L255.3 38.08ZM257.156 58.264L258.384 56.6853V56.6853L257.156 58.264ZM280.357 69.864L279.618 71.7227L279.622 71.7243L280.357 69.864ZM307.732 83.32L306.623 84.9841L306.632 84.9901L306.641 84.996L307.732 83.32ZM321.885 98.168L320.096 99.0624L320.111 99.0926L320.127 99.1222L321.885 98.168ZM318.636 145.96L320.325 147.032L320.33 147.024L320.334 147.017L318.636 145.96ZM297.524 164.752L296.63 162.963L296.618 162.969L297.524 164.752ZM267.828 169.48C256.948 169.48 247.024 167.441 238.025 163.392L236.384 167.04C245.945 171.343 256.436 173.48 267.828 173.48V169.48ZM238.05 163.404C229.034 159.196 221.63 153.429 215.801 146.107L212.672 148.597C218.907 156.432 226.815 162.575 236.359 167.028L238.05 163.404ZM215.813 146.122C210.004 138.674 206.344 130.028 204.846 120.14L200.891 120.74C202.486 131.268 206.405 140.564 212.659 148.582L215.813 146.122ZM203.354 122.38L239.546 113.332L238.575 109.452L202.383 118.5L203.354 122.38ZM237.067 111.558C237.869 121.179 241.026 128.69 246.785 133.772L249.432 130.772C244.673 126.574 241.799 120.165 241.054 111.226L237.067 111.558ZM246.785 133.772C252.477 138.793 259.783 141.232 268.524 141.232V137.232C260.562 137.232 254.258 135.031 249.432 130.772L246.785 133.772ZM268.524 141.232C275.195 141.232 280.837 139.601 285.288 136.177L282.849 133.007C279.257 135.77 274.537 137.232 268.524 137.232V141.232ZM285.288 136.177C289.883 132.642 292.1 127.523 292.1 121.136H288.1C288.1 126.504 286.296 130.355 282.849 133.007L285.288 136.177ZM292.1 121.136C292.1 116.529 289.38 112.596 284.767 109.301L282.442 112.555C286.49 115.447 288.1 118.319 288.1 121.136H292.1ZM284.832 109.349C280.428 105.923 272.864 102.05 262.326 97.7106L260.803 101.409C271.299 105.731 278.429 109.437 282.377 112.507L284.832 109.349ZM262.32 97.7081C250.634 92.9414 241.495 88.2857 234.851 83.7555L232.598 87.0605C239.564 91.8103 248.986 96.5893 260.809 101.412L262.32 97.7081ZM234.876 83.773C228.266 79.1155 223.56 74.0038 220.646 68.4685L217.107 70.3315C220.38 76.5509 225.573 82.1112 232.573 87.043L234.876 83.773ZM220.665 68.5056C217.898 62.9708 216.469 56.1793 216.469 48.056H212.469C212.469 56.6367 213.978 64.0745 217.088 70.2944L220.665 68.5056ZM216.469 48.056C216.469 39.4223 218.548 31.8299 222.663 25.2166L219.266 23.1034C214.72 30.4101 212.469 38.7483 212.469 48.056H216.469ZM222.646 25.2434C226.922 18.6082 232.823 13.4325 240.405 9.71583L238.644 6.12415C230.45 10.1408 223.978 15.7918 219.283 23.0766L222.646 25.2434ZM240.391 9.72249C248.119 6.00705 257.094 4.12 267.365 4.12V0.119995C256.6 0.119995 247.015 2.09959 238.658 6.11749L240.391 9.72249ZM267.365 4.12C278.492 4.12 288.177 6.67258 296.487 11.7176L298.562 8.29841C289.549 2.82607 279.127 0.119995 267.365 0.119995V4.12ZM296.5 11.7256C304.944 16.7623 311.655 24.2627 316.61 34.3237L320.199 32.5563C314.946 21.892 307.737 13.771 298.549 8.29035L296.5 11.7256ZM317.347 31.7425L287.187 50.5345L289.302 53.9295L319.462 35.1375L317.347 31.7425ZM290.088 51.4559C287.518 45.3539 284.162 40.6226 279.943 37.4157L277.522 40.6003C281.036 43.2707 284.021 47.3554 286.401 53.0081L290.088 51.4559ZM280.013 37.4715C275.958 34.0921 271.333 32.368 266.204 32.368V36.368C270.356 36.368 274.083 37.7372 277.452 40.5444L280.013 37.4715ZM266.204 32.368C261.466 32.368 257.357 33.7331 254.012 36.5502L256.589 39.6098C259.121 37.4775 262.281 36.368 266.204 36.368V32.368ZM254.012 36.5502C250.64 39.3896 248.893 43.0347 248.893 47.36H252.893C252.893 44.2613 254.083 41.7198 256.589 39.6098L254.012 36.5502ZM248.893 47.36C248.893 52.1825 251.432 56.3453 255.929 59.8427L258.384 56.6853C254.529 53.6867 252.893 50.5802 252.893 47.36H248.893ZM255.929 59.8427C260.349 63.281 268.319 67.2341 279.618 71.7227L281.095 68.0053C269.812 63.5232 262.316 59.743 258.384 56.6853L255.929 59.8427ZM279.622 71.7243C291.315 76.34 300.294 80.7649 306.623 84.9841L308.842 81.6559C302.179 77.2138 292.907 72.668 281.091 68.0037L279.622 71.7243ZM306.641 84.996C313.074 89.1851 317.509 93.8884 320.096 99.0624L323.673 97.2736C320.692 91.3116 315.692 86.1162 308.824 81.644L306.641 84.996ZM320.127 99.1222C322.871 104.177 324.292 110.404 324.292 117.888H328.292C328.292 109.905 326.775 102.986 323.642 97.2138L320.127 99.1222ZM324.292 117.888C324.292 128.066 321.828 137.051 316.939 144.903L320.334 147.017C325.653 138.474 328.292 128.744 328.292 117.888H324.292ZM316.948 144.888C312.049 152.608 305.294 158.631 296.63 162.963L298.419 166.541C307.697 161.902 315.016 155.398 320.325 147.032L316.948 144.888ZM296.618 162.969C288.112 167.297 278.53 169.48 267.828 169.48V173.48C279.09 173.48 289.305 171.178 298.431 166.535L296.618 162.969ZM402.376 39.704H404.376V37.704H402.376V39.704ZM355.048 39.704H353.048V41.704H355.048V39.704ZM355.048 6.29599V4.29599H353.048V6.29599H355.048ZM486.36 6.29599H488.36V4.29599H486.36V6.29599ZM486.36 39.704V41.704H488.36V39.704H486.36ZM439.264 39.704V37.704H437.264V39.704H439.264ZM439.264 168V170H441.264V168H439.264ZM402.376 168H400.376V170H402.376V168ZM402.376 37.704H355.048V41.704H402.376V37.704ZM357.048 39.704V6.29599H353.048V39.704H357.048ZM355.048 8.29599H486.36V4.29599H355.048V8.29599ZM484.36 6.29599V39.704H488.36V6.29599H484.36ZM486.36 37.704H439.264V41.704H486.36V37.704ZM437.264 39.704V168H441.264V39.704H437.264ZM439.264 166H402.376V170H439.264V166ZM404.376 168V39.704H400.376V168H404.376ZM547.994 165.216L547.148 167.028L547.161 167.034L547.173 167.04L547.994 165.216ZM525.026 147.352L523.449 148.582L523.455 148.59L523.461 148.597L525.026 147.352ZM513.658 120.44L513.173 118.5L511.408 118.941L511.68 120.74L513.658 120.44ZM549.85 111.392L551.843 111.226L551.648 108.881L549.365 109.452L549.85 111.392ZM558.898 132.272L560.221 130.772L558.898 132.272ZM594.858 134.592L593.638 133.007L594.858 134.592ZM594.394 110.928L593.166 112.507L593.198 112.532L593.231 112.555L594.394 110.928ZM572.354 99.56L573.115 97.7106L573.109 97.7081L572.354 99.56ZM544.514 85.408L543.362 87.043L543.375 87.0518L543.387 87.0605L544.514 85.408ZM529.666 69.4L527.877 70.2944L527.886 70.313L527.896 70.3315L529.666 69.4ZM531.754 24.16L530.073 23.0766L530.064 23.0899L530.056 23.1034L531.754 24.16ZM550.314 7.91998L549.447 6.11749L549.44 6.12079L549.434 6.12415L550.314 7.91998ZM608.314 10.008L607.276 11.7176L607.283 11.7216L607.289 11.7256L608.314 10.008ZM629.194 33.44L630.251 35.1375L631.788 34.1802L630.988 32.5563L629.194 33.44ZM599.034 52.232L597.191 53.0081L598.101 55.1698L600.091 53.9295L599.034 52.232ZM589.522 39.008L588.242 40.5444L588.276 40.5732L588.312 40.6003L589.522 39.008ZM566.09 38.08L567.378 39.6098V39.6098L566.09 38.08ZM567.946 58.264L569.174 56.6853V56.6853L567.946 58.264ZM591.146 69.864L590.407 71.7227L590.411 71.7243L591.146 69.864ZM618.522 83.32L617.412 84.9841L617.421 84.9901L617.43 84.996L618.522 83.32ZM632.674 98.168L630.885 99.0624L630.9 99.0926L630.916 99.1222L632.674 98.168ZM629.426 145.96L631.115 147.032L631.119 147.024L631.124 147.017L629.426 145.96ZM608.314 164.752L607.419 162.963L607.407 162.969L608.314 164.752ZM578.618 169.48C567.738 169.48 557.813 167.441 548.815 163.392L547.173 167.04C556.735 171.343 567.226 173.48 578.618 173.48V169.48ZM548.84 163.404C539.823 159.196 532.419 153.429 526.591 146.107L523.461 148.597C529.697 156.432 537.604 162.575 547.148 167.028L548.84 163.404ZM526.603 146.122C520.793 138.674 517.133 130.028 515.635 120.14L511.68 120.74C513.276 131.268 517.195 140.564 523.449 148.582L526.603 146.122ZM514.143 122.38L550.335 113.332L549.365 109.452L513.173 118.5L514.143 122.38ZM547.857 111.558C548.659 121.179 551.816 128.69 557.575 133.772L560.221 130.772C555.463 126.574 552.588 120.165 551.843 111.226L547.857 111.558ZM557.575 133.772C563.266 138.793 570.573 141.232 579.314 141.232V137.232C571.351 137.232 565.047 135.031 560.221 130.772L557.575 133.772ZM579.314 141.232C585.984 141.232 591.627 139.601 596.077 136.177L593.638 133.007C590.046 135.77 585.326 137.232 579.314 137.232V141.232ZM596.077 136.177C600.673 132.642 602.89 127.523 602.89 121.136H598.89C598.89 126.504 597.086 130.355 593.638 133.007L596.077 136.177ZM602.89 121.136C602.89 116.529 600.17 112.596 595.556 109.301L593.231 112.555C597.279 115.447 598.89 118.319 598.89 121.136H602.89ZM595.622 109.349C591.217 105.923 583.654 102.05 573.115 97.7106L571.592 101.409C582.089 105.731 589.219 109.437 593.166 112.507L595.622 109.349ZM573.109 97.7081C561.423 92.9414 552.285 88.2857 545.641 83.7555L543.387 87.0605C550.354 91.8103 559.775 96.5893 571.599 101.412L573.109 97.7081ZM545.666 83.773C539.055 79.1155 534.349 74.0038 531.436 68.4685L527.896 70.3315C531.169 76.5509 536.362 82.1112 543.362 87.043L545.666 83.773ZM531.455 68.5056C528.687 62.9708 527.258 56.1793 527.258 48.056H523.258C523.258 56.6367 524.767 64.0745 527.877 70.2944L531.455 68.5056ZM527.258 48.056C527.258 39.4223 529.337 31.8299 533.452 25.2166L530.056 23.1034C525.509 30.4101 523.258 38.7483 523.258 48.056H527.258ZM533.435 25.2434C537.711 18.6082 543.612 13.4325 551.194 9.71583L549.434 6.12415C541.24 10.1408 534.767 15.7918 530.073 23.0766L533.435 25.2434ZM551.18 9.72249C558.909 6.00705 567.883 4.12 578.154 4.12V0.119995C567.39 0.119995 557.805 2.09959 549.447 6.11749L551.18 9.72249ZM578.154 4.12C589.282 4.12 598.966 6.67258 607.276 11.7176L609.352 8.29841C600.339 2.82607 589.917 0.119995 578.154 0.119995V4.12ZM607.289 11.7256C615.733 16.7623 622.444 24.2627 627.4 34.3237L630.988 32.5563C625.735 21.892 618.526 13.771 609.338 8.29035L607.289 11.7256ZM628.136 31.7425L597.976 50.5345L600.091 53.9295L630.251 35.1375L628.136 31.7425ZM600.877 51.4559C598.308 45.3539 594.952 40.6226 590.732 37.4157L588.312 40.6003C591.825 43.2707 594.81 47.3554 597.191 53.0081L600.877 51.4559ZM590.802 37.4715C586.747 34.0921 582.122 32.368 576.994 32.368V36.368C581.145 36.368 584.873 37.7372 588.242 40.5444L590.802 37.4715ZM576.994 32.368C572.256 32.368 568.147 33.7331 564.802 36.5502L567.378 39.6098C569.91 37.4775 573.071 36.368 576.994 36.368V32.368ZM564.802 36.5502C561.43 39.3896 559.682 43.0347 559.682 47.36H563.682C563.682 44.2613 564.873 41.7198 567.378 39.6098L564.802 36.5502ZM559.682 47.36C559.682 52.1825 562.221 56.3453 566.718 59.8427L569.174 56.6853C565.318 53.6867 563.682 50.5802 563.682 47.36H559.682ZM566.718 59.8427C571.139 63.281 579.109 67.2341 590.407 71.7227L591.884 68.0053C580.602 63.5232 573.105 59.743 569.174 56.6853L566.718 59.8427ZM590.411 71.7243C602.105 76.34 611.084 80.7649 617.412 84.9841L619.631 81.6559C612.968 77.2138 603.696 72.668 591.88 68.0037L590.411 71.7243ZM617.43 84.996C623.864 89.1851 628.298 93.8884 630.885 99.0624L634.463 97.2736C631.482 91.3116 626.481 86.1162 619.613 81.644L617.43 84.996ZM630.916 99.1222C633.66 104.177 635.082 110.404 635.082 117.888H639.082C639.082 109.905 637.565 102.986 634.432 97.2138L630.916 99.1222ZM635.082 117.888C635.082 128.066 632.617 137.051 627.728 144.903L631.124 147.017C636.443 138.474 639.082 128.744 639.082 117.888H635.082ZM627.737 144.888C622.838 152.608 616.083 158.631 607.419 162.963L609.208 166.541C618.486 161.902 625.805 155.398 631.115 147.032L627.737 144.888ZM607.407 162.969C598.902 167.297 589.319 169.48 578.618 169.48V173.48C589.879 173.48 600.094 171.178 609.221 166.535L607.407 162.969ZM771.694 140.624L773.563 139.911L773.072 138.624H771.694V140.624ZM710.91 140.624V138.624H709.533L709.042 139.911L710.91 140.624ZM700.47 168V170H701.848L702.339 168.713L700.47 168ZM660.798 168L658.952 167.232L657.8 170H660.798V168ZM728.078 6.29599V4.29599H726.744L726.232 5.5277L728.078 6.29599ZM754.758 6.29599L756.606 5.52996L756.094 4.29599H754.758V6.29599ZM821.806 168V170H824.801L823.654 167.234L821.806 168ZM782.134 168L780.266 168.713L780.757 170H782.134V168ZM759.167 107.216V109.216H762.061L761.037 106.509L759.167 107.216ZM741.534 60.584L743.405 59.8766L741.547 54.9613L739.667 59.8685L741.534 60.584ZM723.67 107.216L721.803 106.501L720.763 109.216H723.67V107.216ZM771.694 138.624H710.91V142.624H771.694V138.624ZM709.042 139.911L698.602 167.287L702.339 168.713L712.779 141.337L709.042 139.911ZM700.47 166H660.798V170H700.47V166ZM662.645 168.768L729.925 7.06429L726.232 5.5277L658.952 167.232L662.645 168.768ZM728.078 8.29599H754.758V4.29599H728.078V8.29599ZM752.911 7.06203L819.959 168.766L823.654 167.234L756.606 5.52996L752.911 7.06203ZM821.806 166H782.134V170H821.806V166ZM784.003 167.287L773.563 139.911L769.826 141.337L780.266 168.713L784.003 167.287ZM761.037 106.509L743.405 59.8766L739.664 61.2913L757.296 107.923L761.037 106.509ZM739.667 59.8685L721.803 106.501L725.538 107.931L743.402 61.2995L739.667 59.8685ZM723.67 109.216H759.167V105.216H723.67V109.216ZM948.725 168L946.996 169.005L947.574 170H948.725V168ZM911.373 103.736L913.102 102.731L912.524 101.736H911.373V103.736ZM898.845 103.736V101.736H896.845V103.736H898.845ZM898.845 168V170H900.845V168H898.845ZM862.653 168H860.653V170H862.653V168ZM862.653 6.29599V4.29599H860.653V6.29599H862.653ZM968.445 82.392L966.755 81.3227L968.445 82.392ZM947.565 99.328L946.811 97.4754L944.598 98.3759L945.874 100.396L947.565 99.328ZM990.949 168V170H994.578L992.64 166.932L990.949 168ZM933.181 67.544L934.019 69.3599L933.181 67.544ZM928.077 40.4L927.78 42.3779L928.077 40.4ZM898.845 39.704V37.704H896.845V39.704H898.845ZM898.845 70.328H896.845V72.328H898.845V70.328ZM950.454 166.995L913.102 102.731L909.644 104.741L946.996 169.005L950.454 166.995ZM911.373 101.736H902.325V105.736H911.373V101.736ZM902.325 101.736H898.845V105.736H902.325V101.736ZM896.845 103.736V168H900.845V103.736H896.845ZM898.845 166H862.653V170H898.845V166ZM864.653 168V6.29599H860.653V168H864.653ZM862.653 8.29599H919.493V4.29599H862.653V8.29599ZM919.493 8.29599C937.971 8.29599 951.456 12.2351 960.305 19.7669C969.091 27.2462 973.637 38.5574 973.637 54.088H977.637C977.637 37.7572 972.826 25.1724 962.897 16.721C953.031 8.32219 938.444 4.29599 919.493 4.29599V8.29599ZM973.637 54.088C973.637 65.0976 971.301 74.1374 966.755 81.3227L970.135 83.4613C975.179 75.4893 977.637 65.6598 977.637 54.088H973.637ZM966.755 81.3227C962.205 88.5143 955.59 93.9043 946.811 97.4754L948.318 101.181C957.79 97.3277 965.095 91.427 970.135 83.4613L966.755 81.3227ZM945.874 100.396L989.258 169.068L992.64 166.932L949.256 98.2598L945.874 100.396ZM990.949 166H948.725V170H990.949V166ZM915.781 72.328C923.471 72.328 929.611 71.3944 934.019 69.3599L932.343 65.7281C928.708 67.4056 923.248 68.328 915.781 68.328V72.328ZM934.019 69.3599C939.094 67.0178 941.213 61.6681 941.213 54.552H937.213C937.213 61.0465 935.311 64.3582 932.343 65.7281L934.019 69.3599ZM941.213 54.552C941.213 49.6505 940.074 45.6251 937.379 42.9298L934.551 45.7582C936.186 47.3935 937.213 50.1734 937.213 54.552H941.213ZM937.379 42.9298C934.904 40.4549 931.88 38.9481 928.374 38.4221L927.78 42.3779C930.46 42.7798 932.695 43.9024 934.551 45.7582L937.379 42.9298ZM928.374 38.4221C925.14 37.9371 920.931 37.704 915.781 37.704V41.704C920.839 41.704 924.827 41.9348 927.78 42.3779L928.374 38.4221ZM915.781 37.704H898.845V41.704H915.781V37.704ZM896.845 39.704V70.328H900.845V39.704H896.845ZM898.845 72.328H915.781V68.328H898.845V72.328ZM1062.7 39.704H1064.7V37.704H1062.7V39.704ZM1015.37 39.704H1013.37V41.704H1015.37V39.704ZM1015.37 6.29599V4.29599H1013.37V6.29599H1015.37ZM1146.68 6.29599H1148.68V4.29599H1146.68V6.29599ZM1146.68 39.704V41.704H1148.68V39.704H1146.68ZM1099.58 39.704V37.704H1097.58V39.704H1099.58ZM1099.58 168V170H1101.58V168H1099.58ZM1062.7 168H1060.7V170H1062.7V168ZM1062.7 37.704H1015.37V41.704H1062.7V37.704ZM1017.37 39.704V6.29599H1013.37V39.704H1017.37ZM1015.37 8.29599H1146.68V4.29599H1015.37V8.29599ZM1144.68 6.29599V39.704H1148.68V6.29599H1144.68ZM1146.68 37.704H1099.58V41.704H1146.68V37.704ZM1097.58 39.704V168H1101.58V39.704H1097.58ZM1099.58 166H1062.7V170H1099.58V166ZM1064.7 168V39.704H1060.7V168H1064.7ZM1189.75 6.29599V4.29599H1187.75V6.29599H1189.75ZM1226.18 6.29599H1228.18V4.29599H1226.18V6.29599ZM1226.18 168V170H1228.18V168H1226.18ZM1189.75 168H1187.75V170H1189.75V168ZM1189.75 8.29599H1226.18V4.29599H1189.75V8.29599ZM1224.18 6.29599V168H1228.18V6.29599H1224.18ZM1226.18 166H1189.75V170H1226.18V166ZM1191.75 168V6.29599H1187.75V168H1191.75ZM1305.48 165.216L1304.64 167.028L1304.65 167.034L1304.66 167.04L1305.48 165.216ZM1282.51 147.352L1280.94 148.582L1280.94 148.59L1280.95 148.597L1282.51 147.352ZM1271.15 120.44L1270.66 118.5L1268.9 118.941L1269.17 120.74L1271.15 120.44ZM1307.34 111.392L1309.33 111.226L1309.14 108.881L1306.85 109.452L1307.34 111.392ZM1316.39 132.272L1317.71 130.772L1316.39 132.272ZM1352.35 134.592L1351.13 133.007L1352.35 134.592ZM1351.88 110.928L1350.66 112.507L1350.69 112.532L1350.72 112.555L1351.88 110.928ZM1329.84 99.56L1330.6 97.7106L1330.6 97.7081L1329.84 99.56ZM1302 85.408L1300.85 87.043L1300.86 87.0518L1300.88 87.0605L1302 85.408ZM1287.15 69.4L1285.37 70.2944L1285.38 70.313L1285.39 70.3315L1287.15 69.4ZM1289.24 24.16L1287.56 23.0766L1287.55 23.0899L1287.54 23.1034L1289.24 24.16ZM1307.8 7.91998L1306.94 6.11749L1306.93 6.12079L1306.92 6.12415L1307.8 7.91998ZM1365.8 10.008L1364.77 11.7176L1364.77 11.7216L1364.78 11.7256L1365.8 10.008ZM1386.68 33.44L1387.74 35.1375L1389.28 34.1802L1388.48 32.5563L1386.68 33.44ZM1356.52 52.232L1354.68 53.0081L1355.59 55.1698L1357.58 53.9295L1356.52 52.232ZM1347.01 39.008L1345.73 40.5444L1345.77 40.5732L1345.8 40.6003L1347.01 39.008ZM1323.58 38.08L1324.87 39.6098V39.6098L1323.58 38.08ZM1325.43 58.264L1326.66 56.6853V56.6853L1325.43 58.264ZM1348.63 69.864L1347.9 71.7227L1347.9 71.7243L1348.63 69.864ZM1376.01 83.32L1374.9 84.9841L1374.91 84.9901L1374.92 84.996L1376.01 83.32ZM1390.16 98.168L1388.37 99.0624L1388.39 99.0926L1388.41 99.1222L1390.16 98.168ZM1386.91 145.96L1388.6 147.032L1388.61 147.024L1388.61 147.017L1386.91 145.96ZM1365.8 164.752L1364.91 162.963L1364.9 162.969L1365.8 164.752ZM1336.11 169.48C1325.23 169.48 1315.3 167.441 1306.3 163.392L1304.66 167.04C1314.22 171.343 1324.71 173.48 1336.11 173.48V169.48ZM1306.33 163.404C1297.31 159.196 1289.91 153.429 1284.08 146.107L1280.95 148.597C1287.19 156.432 1295.09 162.575 1304.64 167.028L1306.33 163.404ZM1284.09 146.122C1278.28 138.674 1274.62 130.028 1273.12 120.14L1269.17 120.74C1270.76 131.268 1274.68 140.564 1280.94 148.582L1284.09 146.122ZM1271.63 122.38L1307.82 113.332L1306.85 109.452L1270.66 118.5L1271.63 122.38ZM1305.35 111.558C1306.15 121.179 1309.3 128.69 1315.06 133.772L1317.71 130.772C1312.95 126.574 1310.08 120.165 1309.33 111.226L1305.35 111.558ZM1315.06 133.772C1320.76 138.793 1328.06 141.232 1336.8 141.232V137.232C1328.84 137.232 1322.54 135.031 1317.71 130.772L1315.06 133.772ZM1336.8 141.232C1343.47 141.232 1349.12 139.601 1353.57 136.177L1351.13 133.007C1347.54 135.77 1342.82 137.232 1336.8 137.232V141.232ZM1353.57 136.177C1358.16 132.642 1360.38 127.523 1360.38 121.136H1356.38C1356.38 126.504 1354.57 130.355 1351.13 133.007L1353.57 136.177ZM1360.38 121.136C1360.38 116.529 1357.66 112.596 1353.05 109.301L1350.72 112.555C1354.77 115.447 1356.38 118.319 1356.38 121.136H1360.38ZM1353.11 109.349C1348.71 105.923 1341.14 102.05 1330.6 97.7106L1329.08 101.409C1339.58 105.731 1346.71 109.437 1350.66 112.507L1353.11 109.349ZM1330.6 97.7081C1318.91 92.9414 1309.77 88.2857 1303.13 83.7555L1300.88 87.0605C1307.84 91.8103 1317.26 96.5893 1329.09 101.412L1330.6 97.7081ZM1303.15 83.773C1296.54 79.1155 1291.84 74.0038 1288.92 68.4685L1285.39 70.3315C1288.66 76.5509 1293.85 82.1112 1300.85 87.043L1303.15 83.773ZM1288.94 68.5056C1286.18 62.9708 1284.75 56.1793 1284.75 48.056H1280.75C1280.75 56.6367 1282.26 64.0745 1285.37 70.2944L1288.94 68.5056ZM1284.75 48.056C1284.75 39.4223 1286.83 31.8299 1290.94 25.2166L1287.54 23.1034C1283 30.4101 1280.75 38.7483 1280.75 48.056H1284.75ZM1290.92 25.2434C1295.2 18.6082 1301.1 13.4325 1308.68 9.71583L1306.92 6.12415C1298.73 10.1408 1292.26 15.7918 1287.56 23.0766L1290.92 25.2434ZM1308.67 9.72249C1316.4 6.00705 1325.37 4.12 1335.64 4.12V0.119995C1324.88 0.119995 1315.29 2.09959 1306.94 6.11749L1308.67 9.72249ZM1335.64 4.12C1346.77 4.12 1356.46 6.67258 1364.77 11.7176L1366.84 8.29841C1357.83 2.82607 1347.41 0.119995 1335.64 0.119995V4.12ZM1364.78 11.7256C1373.22 16.7623 1379.93 24.2627 1384.89 34.3237L1388.48 32.5563C1383.22 21.892 1376.02 13.771 1366.83 8.29035L1364.78 11.7256ZM1385.63 31.7425L1355.47 50.5345L1357.58 53.9295L1387.74 35.1375L1385.63 31.7425ZM1358.37 51.4559C1355.8 45.3539 1352.44 40.6226 1348.22 37.4157L1345.8 40.6003C1349.31 43.2707 1352.3 47.3554 1354.68 53.0081L1358.37 51.4559ZM1348.29 37.4715C1344.24 34.0921 1339.61 32.368 1334.48 32.368V36.368C1338.63 36.368 1342.36 37.7372 1345.73 40.5444L1348.29 37.4715ZM1334.48 32.368C1329.74 32.368 1325.64 33.7331 1322.29 36.5502L1324.87 39.6098C1327.4 37.4775 1330.56 36.368 1334.48 36.368V32.368ZM1322.29 36.5502C1318.92 39.3896 1317.17 43.0347 1317.17 47.36H1321.17C1321.17 44.2613 1322.36 41.7198 1324.87 39.6098L1322.29 36.5502ZM1317.17 47.36C1317.17 52.1825 1319.71 56.3453 1324.21 59.8427L1326.66 56.6853C1322.81 53.6867 1321.17 50.5802 1321.17 47.36H1317.17ZM1324.21 59.8427C1328.63 63.281 1336.6 67.2341 1347.9 71.7227L1349.37 68.0053C1338.09 63.5232 1330.59 59.743 1326.66 56.6853L1324.21 59.8427ZM1347.9 71.7243C1359.59 76.34 1368.57 80.7649 1374.9 84.9841L1377.12 81.6559C1370.46 77.2138 1361.19 72.668 1349.37 68.0037L1347.9 71.7243ZM1374.92 84.996C1381.35 89.1851 1385.79 93.8884 1388.37 99.0624L1391.95 97.2736C1388.97 91.3116 1383.97 86.1162 1377.1 81.644L1374.92 84.996ZM1388.41 99.1222C1391.15 104.177 1392.57 110.404 1392.57 117.888H1396.57C1396.57 109.905 1395.05 102.986 1391.92 97.2138L1388.41 99.1222ZM1392.57 117.888C1392.57 128.066 1390.11 137.051 1385.22 144.903L1388.61 147.017C1393.93 138.474 1396.57 128.744 1396.57 117.888H1392.57ZM1385.23 144.888C1380.33 152.608 1373.57 158.631 1364.91 162.963L1366.7 166.541C1375.98 161.902 1383.29 155.398 1388.6 147.032L1385.23 144.888ZM1364.9 162.969C1356.39 167.297 1346.81 169.48 1336.11 169.48V173.48C1347.37 173.48 1357.58 171.178 1366.71 166.535L1364.9 162.969ZM1470.65 39.704H1472.65V37.704H1470.65V39.704ZM1423.33 39.704H1421.33V41.704H1423.33V39.704ZM1423.33 6.29599V4.29599H1421.33V6.29599H1423.33ZM1554.64 6.29599H1556.64V4.29599H1554.64V6.29599ZM1554.64 39.704V41.704H1556.64V39.704H1554.64ZM1507.54 39.704V37.704H1505.54V39.704H1507.54ZM1507.54 168V170H1509.54V168H1507.54ZM1470.65 168H1468.65V170H1470.65V168ZM1470.65 37.704H1423.33V41.704H1470.65V37.704ZM1425.33 39.704V6.29599H1421.33V39.704H1425.33ZM1423.33 8.29599H1554.64V4.29599H1423.33V8.29599ZM1552.64 6.29599V39.704H1556.64V6.29599H1552.64ZM1554.64 37.704H1507.54V41.704H1554.64V37.704ZM1505.54 39.704V168H1509.54V39.704H1505.54ZM1507.54 166H1470.65V170H1507.54V166ZM1472.65 168V39.704H1468.65V168H1472.65ZM1616.27 165.216L1615.43 167.028L1615.44 167.034L1615.45 167.04L1616.27 165.216ZM1593.3 147.352L1591.73 148.582L1591.73 148.59L1591.74 148.597L1593.3 147.352ZM1581.94 120.44L1581.45 118.5L1579.69 118.941L1579.96 120.74L1581.94 120.44ZM1618.13 111.392L1620.12 111.226L1619.93 108.881L1617.64 109.452L1618.13 111.392ZM1627.18 132.272L1628.5 130.772L1627.18 132.272ZM1663.14 134.592L1661.92 133.007L1663.14 134.592ZM1662.67 110.928L1661.44 112.507L1661.48 112.532L1661.51 112.555L1662.67 110.928ZM1640.63 99.56L1641.39 97.7106L1641.39 97.7081L1640.63 99.56ZM1612.79 85.408L1611.64 87.043L1611.65 87.0518L1611.67 87.0605L1612.79 85.408ZM1597.94 69.4L1596.16 70.2944L1596.16 70.313L1596.17 70.3315L1597.94 69.4ZM1600.03 24.16L1598.35 23.0766L1598.34 23.0899L1598.33 23.1034L1600.03 24.16ZM1618.59 7.91998L1617.73 6.11749L1617.72 6.12079L1617.71 6.12415L1618.59 7.91998ZM1676.59 10.008L1675.55 11.7176L1675.56 11.7216L1675.57 11.7256L1676.59 10.008ZM1697.47 33.44L1698.53 35.1375L1700.07 34.1802L1699.27 32.5563L1697.47 33.44ZM1667.31 52.232L1665.47 53.0081L1666.38 55.1698L1668.37 53.9295L1667.31 52.232ZM1657.8 39.008L1656.52 40.5444L1656.55 40.5732L1656.59 40.6003L1657.8 39.008ZM1634.37 38.08L1635.66 39.6098V39.6098L1634.37 38.08ZM1636.22 58.264L1637.45 56.6853V56.6853L1636.22 58.264ZM1659.42 69.864L1658.69 71.7227L1658.69 71.7243L1659.42 69.864ZM1686.8 83.32L1685.69 84.9841L1685.7 84.9901L1685.71 84.996L1686.8 83.32ZM1700.95 98.168L1699.16 99.0624L1699.18 99.0926L1699.19 99.1222L1700.95 98.168ZM1697.7 145.96L1699.39 147.032L1699.4 147.024L1699.4 147.017L1697.7 145.96ZM1676.59 164.752L1675.7 162.963L1675.69 162.969L1676.59 164.752ZM1646.9 169.48C1636.02 169.48 1626.09 167.441 1617.09 163.392L1615.45 167.04C1625.01 171.343 1635.5 173.48 1646.9 173.48V169.48ZM1617.12 163.404C1608.1 159.196 1600.7 153.429 1594.87 146.107L1591.74 148.597C1597.98 156.432 1605.88 162.575 1615.43 167.028L1617.12 163.404ZM1594.88 146.122C1589.07 138.674 1585.41 130.028 1583.91 120.14L1579.96 120.74C1581.55 131.268 1585.47 140.564 1591.73 148.582L1594.88 146.122ZM1582.42 122.38L1618.61 113.332L1617.64 109.452L1581.45 118.5L1582.42 122.38ZM1616.14 111.558C1616.94 121.179 1620.09 128.69 1625.85 133.772L1628.5 130.772C1623.74 126.574 1620.87 120.165 1620.12 111.226L1616.14 111.558ZM1625.85 133.772C1631.54 138.793 1638.85 141.232 1647.59 141.232V137.232C1639.63 137.232 1633.33 135.031 1628.5 130.772L1625.85 133.772ZM1647.59 141.232C1654.26 141.232 1659.91 139.601 1664.36 136.177L1661.92 133.007C1658.32 135.77 1653.6 137.232 1647.59 137.232V141.232ZM1664.36 136.177C1668.95 132.642 1671.17 127.523 1671.17 121.136H1667.17C1667.17 126.504 1665.36 130.355 1661.92 133.007L1664.36 136.177ZM1671.17 121.136C1671.17 116.529 1668.45 112.596 1663.83 109.301L1661.51 112.555C1665.56 115.447 1667.17 118.319 1667.17 121.136H1671.17ZM1663.9 109.349C1659.5 105.923 1651.93 102.05 1641.39 97.7106L1639.87 101.409C1650.37 105.731 1657.5 109.437 1661.44 112.507L1663.9 109.349ZM1641.39 97.7081C1629.7 92.9414 1620.56 88.2857 1613.92 83.7555L1611.67 87.0605C1618.63 91.8103 1628.05 96.5893 1639.88 101.412L1641.39 97.7081ZM1613.94 83.773C1607.33 79.1155 1602.63 74.0038 1599.71 68.4685L1596.17 70.3315C1599.45 76.5509 1604.64 82.1112 1611.64 87.043L1613.94 83.773ZM1599.73 68.5056C1596.97 62.9708 1595.54 56.1793 1595.54 48.056H1591.54C1591.54 56.6367 1593.05 64.0745 1596.16 70.2944L1599.73 68.5056ZM1595.54 48.056C1595.54 39.4223 1597.62 31.8299 1601.73 25.2166L1598.33 23.1034C1593.79 30.4101 1591.54 38.7483 1591.54 48.056H1595.54ZM1601.71 25.2434C1605.99 18.6082 1611.89 13.4325 1619.47 9.71583L1617.71 6.12415C1609.52 10.1408 1603.05 15.7918 1598.35 23.0766L1601.71 25.2434ZM1619.46 9.72249C1627.19 6.00705 1636.16 4.12 1646.43 4.12V0.119995C1635.67 0.119995 1626.08 2.09959 1617.73 6.11749L1619.46 9.72249ZM1646.43 4.12C1657.56 4.12 1667.25 6.67258 1675.55 11.7176L1677.63 8.29841C1668.62 2.82607 1658.2 0.119995 1646.43 0.119995V4.12ZM1675.57 11.7256C1684.01 16.7623 1690.72 24.2627 1695.68 34.3237L1699.27 32.5563C1694.01 21.892 1686.8 13.771 1677.62 8.29035L1675.57 11.7256ZM1696.41 31.7425L1666.25 50.5345L1668.37 53.9295L1698.53 35.1375L1696.41 31.7425ZM1669.16 51.4559C1666.59 45.3539 1663.23 40.6226 1659.01 37.4157L1656.59 40.6003C1660.1 43.2707 1663.09 47.3554 1665.47 53.0081L1669.16 51.4559ZM1659.08 37.4715C1655.03 34.0921 1650.4 32.368 1645.27 32.368V36.368C1649.42 36.368 1653.15 37.7372 1656.52 40.5444L1659.08 37.4715ZM1645.27 32.368C1640.53 32.368 1636.43 33.7331 1633.08 36.5502L1635.66 39.6098C1638.19 37.4775 1641.35 36.368 1645.27 36.368V32.368ZM1633.08 36.5502C1629.71 39.3896 1627.96 43.0347 1627.96 47.36H1631.96C1631.96 44.2613 1633.15 41.7198 1635.66 39.6098L1633.08 36.5502ZM1627.96 47.36C1627.96 52.1825 1630.5 56.3453 1635 59.8427L1637.45 56.6853C1633.6 53.6867 1631.96 50.5802 1631.96 47.36H1627.96ZM1635 59.8427C1639.42 63.281 1647.39 67.2341 1658.69 71.7227L1660.16 68.0053C1648.88 63.5232 1641.38 59.743 1637.45 56.6853L1635 59.8427ZM1658.69 71.7243C1670.38 76.34 1679.36 80.7649 1685.69 84.9841L1687.91 81.6559C1681.25 77.2138 1671.97 72.668 1660.16 68.0037L1658.69 71.7243ZM1685.71 84.996C1692.14 89.1851 1696.58 93.8884 1699.16 99.0624L1702.74 97.2736C1699.76 91.3116 1694.76 86.1162 1687.89 81.644L1685.71 84.996ZM1699.19 99.1222C1701.94 104.177 1703.36 110.404 1703.36 117.888H1707.36C1707.36 109.905 1705.84 102.986 1702.71 97.2138L1699.19 99.1222ZM1703.36 117.888C1703.36 128.066 1700.9 137.051 1696.01 144.903L1699.4 147.017C1704.72 138.474 1707.36 128.744 1707.36 117.888H1703.36ZM1696.02 144.888C1691.12 152.608 1684.36 158.631 1675.7 162.963L1677.49 166.541C1686.76 161.902 1694.08 155.398 1699.39 147.032L1696.02 144.888ZM1675.69 162.969C1667.18 167.297 1657.6 169.48 1646.9 169.48V173.48C1658.16 173.48 1668.37 171.178 1677.5 166.535L1675.69 162.969Z" fill="#495561"/>
</svg>
