<svg width="980" height="614" viewBox="0 0 980 614" fill="none" xmlns="http://www.w3.org/2000/svg">
<rect x="249" y="250" width="482" height="132" fill="#DDE2E8"/>
<path d="M437.656 295.392L419.736 340H412.375L394.391 295.392H405.463L416.087 323.296L426.52 295.392H437.656ZM466.648 324.512C466.648 325.195 466.584 326.219 466.456 327.584H445.72C445.933 328.907 446.573 329.973 447.64 330.784C448.707 331.595 450.221 332 452.184 332C453.421 332 454.616 331.744 455.768 331.232C456.963 330.72 457.987 329.952 458.84 328.928L465.496 334.816C462.04 338.741 457.581 340.704 452.12 340.704C448.451 340.704 445.4 339.936 442.968 338.4C440.579 336.864 438.829 334.88 437.72 332.448C436.611 329.973 436.056 327.285 436.056 324.384C436.056 321.568 436.589 318.901 437.656 316.384C438.765 313.824 440.472 311.755 442.776 310.176C445.123 308.555 448.067 307.744 451.608 307.744C456.387 307.744 460.077 309.28 462.68 312.352C465.325 315.424 466.648 319.477 466.648 324.512ZM457.432 320.48C457.389 319.029 456.792 317.877 455.64 317.024C454.531 316.171 453.144 315.744 451.48 315.744C449.645 315.744 448.259 316.213 447.32 317.152C446.424 318.091 445.848 319.2 445.592 320.48H457.432ZM457.368 321.632L457.304 321.696L457.368 321.632ZM491.406 307.744C493.539 307.744 495.651 308.427 497.742 309.792L493.134 318.496C492.664 318.197 492.046 317.941 491.278 317.728C490.51 317.472 489.763 317.344 489.038 317.344C487.288 317.344 485.902 318.005 484.878 319.328C483.896 320.651 483.406 322.656 483.406 325.344V340H473.742V308.448H483.47V313.248C484.195 311.584 485.262 310.261 486.67 309.28C488.12 308.256 489.699 307.744 491.406 307.744ZM511.915 340.704C509.696 340.704 507.648 340.277 505.771 339.424C503.936 338.571 502.379 337.44 501.099 336.032C499.862 334.624 498.987 333.131 498.475 331.552L506.091 328.16C506.475 329.184 506.816 329.995 507.115 330.592C507.414 331.189 507.947 331.744 508.715 332.256C509.483 332.768 510.528 333.024 511.851 333.024C513.088 333.024 513.963 332.811 514.475 332.384C515.03 331.957 515.307 331.467 515.307 330.912C515.307 330.187 514.902 329.611 514.091 329.184C513.323 328.715 512.064 328.203 510.315 327.648C508.267 327.008 506.56 326.368 505.195 325.728C503.83 325.045 502.656 324.043 501.675 322.72C500.694 321.397 500.203 319.691 500.203 317.6C500.203 314.315 501.376 311.861 503.723 310.24C506.07 308.576 508.864 307.744 512.107 307.744C514.923 307.744 517.376 308.363 519.467 309.6C521.558 310.837 523.264 312.544 524.587 314.72L517.163 318.816C516.523 317.621 515.84 316.661 515.115 315.936C514.39 315.211 513.344 314.848 511.979 314.848C511.126 314.848 510.464 315.019 509.995 315.36C509.526 315.659 509.291 316.085 509.291 316.64C509.291 317.323 509.675 317.856 510.443 318.24C511.211 318.624 512.427 319.008 514.091 319.392C516.224 319.947 517.995 320.523 519.403 321.12C520.854 321.717 522.112 322.699 523.179 324.064C524.246 325.429 524.779 327.264 524.779 329.568C524.779 332.043 524.139 334.133 522.859 335.84C521.622 337.504 520 338.741 517.995 339.552C516.032 340.32 514.006 340.704 511.915 340.704ZM581.533 330.912V340H550.045V332.32C555.08 329.333 559.688 325.877 563.869 321.952C568.093 318.027 570.205 313.995 570.205 309.856C570.205 308.192 569.778 306.848 568.925 305.824C568.114 304.757 566.856 304.224 565.149 304.224C561.394 304.224 559.325 306.933 558.941 312.352L549.469 311.584C549.469 308.896 550.088 306.272 551.325 303.712C552.605 301.109 554.44 298.997 556.829 297.376C559.261 295.712 562.12 294.88 565.405 294.88C568.178 294.88 570.653 295.499 572.829 296.736C575.005 297.931 576.712 299.637 577.949 301.856C579.186 304.075 579.805 306.635 579.805 309.536C579.805 312.053 579.186 314.656 577.949 317.344C576.754 320.032 575.069 322.571 572.893 324.96C570.717 327.349 568.242 329.333 565.469 330.912H581.533Z" fill="#293037"/>
<path d="M0 398H980V614H0V398Z" fill="#495561"/>
<path d="M0 0H232.542V382H0V0Z" fill="#495561"/>
<path d="M747.458 0H980V382H747.458V0Z" fill="#495561"/>
<path d="M370.252 477.816H381.556V496.896H401.068V477.816H412.372V528H401.068V507.264H381.556V528H370.252V477.816ZM439.201 528.792C435.505 528.792 432.265 527.952 429.481 526.272C426.697 524.544 424.561 522.264 423.073 519.432C421.633 516.6 420.913 513.528 420.913 510.216C420.913 506.904 421.633 503.856 423.073 501.072C424.561 498.24 426.673 495.984 429.409 494.304C432.193 492.576 435.457 491.712 439.201 491.712C442.897 491.712 446.113 492.552 448.849 494.232C451.633 495.912 453.745 498.168 455.185 501C456.673 503.832 457.417 506.904 457.417 510.216C457.417 513.48 456.673 516.552 455.185 519.432C453.697 522.264 451.561 524.544 448.777 526.272C446.041 527.952 442.849 528.792 439.201 528.792ZM439.201 519.36C441.889 519.36 443.785 518.496 444.889 516.768C445.993 515.04 446.545 512.856 446.545 510.216C446.545 507.576 445.993 505.416 444.889 503.736C443.785 502.008 441.889 501.144 439.201 501.144C436.513 501.144 434.593 502.008 433.441 503.736C432.337 505.416 431.785 507.576 431.785 510.216C431.785 512.808 432.337 514.992 433.441 516.768C434.545 518.496 436.465 519.36 439.201 519.36ZM480.894 528.792C477.198 528.792 473.958 527.952 471.174 526.272C468.39 524.544 466.254 522.264 464.766 519.432C463.326 516.6 462.606 513.528 462.606 510.216C462.606 506.904 463.326 503.856 464.766 501.072C466.254 498.24 468.366 495.984 471.102 494.304C473.886 492.576 477.15 491.712 480.894 491.712C484.59 491.712 487.806 492.552 490.542 494.232C493.326 495.912 495.438 498.168 496.878 501C498.366 503.832 499.11 506.904 499.11 510.216C499.11 513.48 498.366 516.552 496.878 519.432C495.39 522.264 493.254 524.544 490.47 526.272C487.734 527.952 484.542 528.792 480.894 528.792ZM480.894 519.36C483.582 519.36 485.478 518.496 486.582 516.768C487.686 515.04 488.238 512.856 488.238 510.216C488.238 507.576 487.686 505.416 486.582 503.736C485.478 502.008 483.582 501.144 480.894 501.144C478.206 501.144 476.286 502.008 475.134 503.736C474.03 505.416 473.478 507.576 473.478 510.216C473.478 512.808 474.03 514.992 475.134 516.768C476.238 518.496 478.158 519.36 480.894 519.36ZM506.907 477.816H517.779V504.24L528.003 492.504H542.475L529.515 505.896L543.699 528H530.811L521.595 513.168L517.779 517.704V528H506.907V477.816ZM592.441 529.296C587.401 529.296 582.961 528.216 579.121 526.056C575.329 523.848 572.377 520.752 570.265 516.768C568.201 512.784 567.169 508.176 567.169 502.944C567.169 497.664 568.201 493.008 570.265 488.976C572.377 484.944 575.305 481.848 579.049 479.688C582.841 477.48 587.233 476.376 592.225 476.376C597.793 476.376 602.569 477.72 606.553 480.408C610.585 483.096 613.537 486.84 615.409 491.64L604.969 495.744C604.009 492.96 602.425 490.848 600.217 489.408C598.009 487.92 595.345 487.176 592.225 487.176C587.905 487.176 584.521 488.544 582.073 491.28C579.673 493.968 578.473 497.808 578.473 502.8C578.473 507.792 579.697 511.656 582.145 514.392C584.641 517.128 588.073 518.496 592.441 518.496C595.609 518.496 598.273 517.752 600.433 516.264C602.593 514.776 604.105 512.592 604.969 509.712L615.553 513.744C613.777 518.736 610.873 522.576 606.841 525.264C602.857 527.952 598.057 529.296 592.441 529.296Z" fill="white"/>
<path d="M771.161 149.968H779.953V164.808H795.129V149.968H803.921V189H795.129V172.872H779.953V189H771.161V149.968ZM824.789 189.616C821.914 189.616 819.394 188.963 817.229 187.656C815.063 186.312 813.402 184.539 812.245 182.336C811.125 180.133 810.565 177.744 810.565 175.168C810.565 172.592 811.125 170.221 812.245 168.056C813.402 165.853 815.045 164.099 817.173 162.792C819.338 161.448 821.877 160.776 824.789 160.776C827.663 160.776 830.165 161.429 832.293 162.736C834.458 164.043 836.101 165.797 837.221 168C838.378 170.203 838.957 172.592 838.957 175.168C838.957 177.707 838.378 180.096 837.221 182.336C836.063 184.539 834.402 186.312 832.237 187.656C830.109 188.963 827.626 189.616 824.789 189.616ZM824.789 182.28C826.879 182.28 828.354 181.608 829.213 180.264C830.071 178.92 830.501 177.221 830.501 175.168C830.501 173.115 830.071 171.435 829.213 170.128C828.354 168.784 826.879 168.112 824.789 168.112C822.698 168.112 821.205 168.784 820.309 170.128C819.45 171.435 819.021 173.115 819.021 175.168C819.021 177.184 819.45 178.883 820.309 180.264C821.167 181.608 822.661 182.28 824.789 182.28ZM857.216 189.616C854.341 189.616 851.821 188.963 849.656 187.656C847.491 186.312 845.829 184.539 844.672 182.336C843.552 180.133 842.992 177.744 842.992 175.168C842.992 172.592 843.552 170.221 844.672 168.056C845.829 165.853 847.472 164.099 849.6 162.792C851.765 161.448 854.304 160.776 857.216 160.776C860.091 160.776 862.592 161.429 864.72 162.736C866.885 164.043 868.528 165.797 869.648 168C870.805 170.203 871.384 172.592 871.384 175.168C871.384 177.707 870.805 180.096 869.648 182.336C868.491 184.539 866.829 186.312 864.664 187.656C862.536 188.963 860.053 189.616 857.216 189.616ZM857.216 182.28C859.307 182.28 860.781 181.608 861.64 180.264C862.499 178.92 862.928 177.221 862.928 175.168C862.928 173.115 862.499 171.435 861.64 170.128C860.781 168.784 859.307 168.112 857.216 168.112C855.125 168.112 853.632 168.784 852.736 170.128C851.877 171.435 851.448 173.115 851.448 175.168C851.448 177.184 851.877 178.883 852.736 180.264C853.595 181.608 855.088 182.28 857.216 182.28ZM877.449 149.968H885.905V170.52L893.857 161.392H905.113L895.033 171.808L906.065 189H896.041L888.873 177.464L885.905 180.992V189H877.449V149.968ZM927.119 149.968H941.679C945.674 149.968 948.81 150.845 951.087 152.6C953.364 154.355 954.503 156.781 954.503 159.88C954.503 161.56 954.167 163.091 953.495 164.472C952.823 165.816 951.89 166.917 950.695 167.776C954.652 169.493 956.631 172.667 956.631 177.296C956.631 180.917 955.474 183.773 953.159 185.864C950.844 187.955 947.708 189 943.751 189H927.119V149.968ZM941.679 164.584C942.948 164.584 943.938 164.304 944.647 163.744C945.356 163.147 945.711 162.269 945.711 161.112C945.711 159.059 944.367 158.032 941.679 158.032H935.911V164.584H941.679ZM943.023 180.936C946.234 180.936 947.839 179.592 947.839 176.904C947.839 175.149 947.354 174.029 946.383 173.544C945.412 173.059 944.292 172.816 943.023 172.816H935.911V180.936H943.023Z" fill="white"/>
<path d="M22.4033 148.968H31.1953V163.808H46.3713V148.968H55.1633V188H46.3713V171.872H31.1953V188H22.4033V148.968ZM76.0308 188.616C73.1561 188.616 70.6361 187.963 68.4708 186.656C66.3055 185.312 64.6441 183.539 63.4868 181.336C62.3668 179.133 61.8068 176.744 61.8068 174.168C61.8068 171.592 62.3668 169.221 63.4868 167.056C64.6441 164.853 66.2868 163.099 68.4148 161.792C70.5801 160.448 73.1188 159.776 76.0308 159.776C78.9055 159.776 81.4068 160.429 83.5348 161.736C85.7001 163.043 87.3428 164.797 88.4628 167C89.6201 169.203 90.1988 171.592 90.1988 174.168C90.1988 176.707 89.6201 179.096 88.4628 181.336C87.3055 183.539 85.6441 185.312 83.4788 186.656C81.3508 187.963 78.8681 188.616 76.0308 188.616ZM76.0308 181.28C78.1215 181.28 79.5961 180.608 80.4548 179.264C81.3135 177.92 81.7428 176.221 81.7428 174.168C81.7428 172.115 81.3135 170.435 80.4548 169.128C79.5961 167.784 78.1215 167.112 76.0308 167.112C73.9401 167.112 72.4468 167.784 71.5508 169.128C70.6921 170.435 70.2628 172.115 70.2628 174.168C70.2628 176.184 70.6921 177.883 71.5508 179.264C72.4095 180.608 73.9028 181.28 76.0308 181.28ZM108.458 188.616C105.584 188.616 103.064 187.963 100.898 186.656C98.733 185.312 97.0716 183.539 95.9143 181.336C94.7943 179.133 94.2343 176.744 94.2343 174.168C94.2343 171.592 94.7943 169.221 95.9143 167.056C97.0716 164.853 98.7143 163.099 100.842 161.792C103.008 160.448 105.546 159.776 108.458 159.776C111.333 159.776 113.834 160.429 115.962 161.736C118.128 163.043 119.77 164.797 120.89 167C122.048 169.203 122.626 171.592 122.626 174.168C122.626 176.707 122.048 179.096 120.89 181.336C119.733 183.539 118.072 185.312 115.906 186.656C113.778 187.963 111.296 188.616 108.458 188.616ZM108.458 181.28C110.549 181.28 112.024 180.608 112.882 179.264C113.741 177.92 114.17 176.221 114.17 174.168C114.17 172.115 113.741 170.435 112.882 169.128C112.024 167.784 110.549 167.112 108.458 167.112C106.368 167.112 104.874 167.784 103.978 169.128C103.12 170.435 102.69 172.115 102.69 174.168C102.69 176.184 103.12 177.883 103.978 179.264C104.837 180.608 106.33 181.28 108.458 181.28ZM128.691 148.968H137.147V169.52L145.099 160.392H156.355L146.275 170.808L157.307 188H147.283L140.115 176.464L137.147 179.992V188H128.691V148.968ZM200.313 181.392H185.641L183.121 188H173.545L189.785 148.968H196.225L212.409 188H202.833L200.313 181.392ZM197.289 173.328L193.033 162.072L188.721 173.328H197.289Z" fill="white"/>
</svg>
