<svg width="24" height="24" viewBox="0 0 24 24" fill="none" xmlns="http://www.w3.org/2000/svg">
<path d="M13.8086 16.6095L15.5201 14.4698C15.721 14.2194 15.9993 14.0425 16.3113 13.9668C16.6233 13.8911 16.9517 13.9208 17.2451 14.0513L21.6363 16.0013C21.9509 16.1412 22.2056 16.3882 22.3552 16.6983C22.5047 17.0084 22.5394 17.3615 22.4531 17.6948L21.4901 21.4073C21.3996 21.7536 21.1853 22.0547 20.8877 22.2536C20.5901 22.4525 20.2299 22.5354 19.8753 22.4865C15.236 21.835 10.9348 19.6909 7.62214 16.3782C4.30945 13.0655 2.16529 8.76436 1.5138 4.12502C1.46473 3.77031 1.54749 3.40992 1.74641 3.11216C1.94533 2.81441 2.24658 2.59998 2.59305 2.50952L6.30555 1.54652C6.63913 1.45982 6.99266 1.49442 7.30311 1.64415C7.61355 1.79387 7.86072 2.04899 8.00055 2.36402L9.95055 6.75527C10.0809 7.04882 10.1103 7.37724 10.0343 7.6893C9.95836 8.00135 9.78122 8.27947 9.53055 8.48027L7.3908 10.1918C8.22835 11.6168 9.25405 12.9141 10.4354 14.0513" stroke="white" stroke-width="2" stroke-miterlimit="10" stroke-linecap="round" stroke-linejoin="round"/>
</svg>
