<svg width="224" height="59" viewBox="0 0 224 59" fill="none" xmlns="http://www.w3.org/2000/svg">
<path d="M50.8898 53.2069C50.4743 53.4259 50.0754 53.6196 49.6765 53.7965C49.2776 53.9734 48.8621 54.1335 48.43 54.2935C48.1059 54.0492 47.7568 53.9397 47.3746 53.965C46.9923 53.9903 46.6183 53.9397 46.2527 53.8302C46.0781 53.7881 45.9202 53.7291 45.779 53.6533C45.6377 53.5775 45.5047 53.5017 45.3718 53.4427C44.682 53.1311 43.9756 52.811 43.2609 52.474C42.5462 52.1371 41.9063 51.6822 41.3495 51.1094C40.959 50.9999 40.5767 50.8314 40.1944 50.6124C39.8121 50.3934 39.5047 50.1154 39.272 49.7869H38.6487C38.4575 49.5005 38.2165 49.2646 37.934 49.0793C37.6514 48.894 37.3689 48.7087 37.0697 48.5234C36.7789 48.338 36.4963 48.1443 36.2221 47.9506C35.9478 47.7568 35.7151 47.5041 35.524 47.1924C35.4907 47.2093 35.4326 47.2177 35.3744 47.2177C35.2664 47.2177 35.175 47.1924 35.1002 47.1503C35.0254 47.1082 34.934 47.0829 34.8259 47.0829C34.693 46.8639 34.5351 46.6702 34.3356 46.5101C34.1362 46.3501 34.0032 46.1395 33.9118 45.9036C33.7788 45.971 33.6542 46.0047 33.5212 46.0047C33.2636 46.0047 33.0475 45.9121 32.873 45.7267C32.6985 45.5414 32.5073 45.4066 32.2913 45.314C32.0503 45.3982 31.8176 45.4572 31.5766 45.4824C31.3356 45.5077 31.1112 45.5667 30.8951 45.6762C30.7206 45.7436 30.5876 45.8362 30.5045 45.9542C30.4214 46.0721 30.3134 46.1648 30.1804 46.2321C30.0973 46.2743 29.9976 46.2911 29.8896 46.2827C29.7815 46.2743 29.6818 46.2995 29.5987 46.3669C29.5571 46.3922 29.5156 46.4512 29.4824 46.5607C29.4491 46.6702 29.4159 46.7291 29.366 46.7291C29.2995 46.7291 29.2497 46.7123 29.2164 46.6786C29.1832 46.6449 29.1167 46.6281 29.0087 46.6281C28.9422 46.6281 28.8591 46.6702 28.7677 46.7628C28.6679 46.8471 28.5516 46.9397 28.4103 47.0408C28.269 47.1419 28.1028 47.2346 27.9034 47.3188C27.7123 47.403 27.4879 47.4367 27.2552 47.4199C26.4989 48.0095 25.6762 48.4054 24.787 48.6076C24.3549 48.9782 23.8562 49.2731 23.2911 49.4921C22.726 49.7111 22.2607 50.0396 21.895 50.4776H21.7953C21.5127 50.4776 21.28 50.5198 21.0806 50.6124C20.8894 50.6966 20.6817 50.7977 20.4822 50.9072C20.2745 51.0167 20.0584 51.1178 19.834 51.2021C19.6096 51.2863 19.3188 51.3368 18.9698 51.3368C18.8867 51.3368 18.7786 51.4042 18.6456 51.5306C18.5127 51.6569 18.3963 51.7496 18.2883 51.7917C17.9393 51.7917 17.5653 51.8254 17.1498 51.8928C16.7343 51.9602 16.4102 52.1371 16.1775 52.4151C16.003 52.3729 15.87 52.3477 15.7869 52.3477C15.4379 52.3477 15.1137 52.3982 14.798 52.5161C14.4822 52.6256 14.1497 52.6846 13.809 52.6846C13.568 52.6846 13.3187 52.6256 13.0611 52.5161C12.7536 52.5835 12.4461 52.7015 12.122 52.8784C11.6068 52.8362 11.0998 52.7773 10.6095 52.7015C10.1192 52.6256 9.6206 52.6088 9.09705 52.6509C8.6566 52.4488 8.16629 52.2719 7.63442 52.1202C7.10256 51.9686 6.57901 51.8001 6.06377 51.6064C5.54852 51.4211 5.0499 51.1936 4.58452 50.9325C4.11083 50.6714 3.72024 50.3344 3.39614 49.9133C3.15514 49.6016 2.98062 49.2478 2.8809 48.8266C2.77286 48.4054 2.68145 47.9843 2.60666 47.5462C2.53186 47.1082 2.45707 46.6618 2.38228 46.2153C2.30748 45.7689 2.17452 45.3392 2 44.9518C2.04155 44.5559 2.11635 44.1684 2.22438 43.7809C2.33241 43.3934 2.36566 43.0059 2.3241 42.61C2.5651 41.953 2.81442 41.3043 3.08866 40.6726C3.3629 40.0408 3.57897 39.3753 3.75349 38.7015C4.26873 38.1792 4.70087 37.5811 5.03328 36.9072C5.3657 36.2418 5.72304 35.5763 6.0887 34.9193C6.38787 34.6581 6.6538 34.3886 6.88649 34.1106C7.11087 33.8326 7.26877 33.4788 7.36018 33.0408C7.49315 33.0155 7.58456 32.9566 7.63442 32.8639C7.68429 32.7628 7.75077 32.6702 7.80894 32.5691C7.86711 32.468 7.94191 32.3922 8.0167 32.3248C8.09149 32.2574 8.21615 32.2237 8.39067 32.2237C8.63167 31.7015 8.8976 31.1708 9.18846 30.6401C9.47932 30.1094 9.87822 29.6966 10.3768 29.3934C10.5098 29.0396 10.676 28.7195 10.8838 28.4247C11.0915 28.1299 11.3159 27.8519 11.5652 27.5823C11.8145 27.3212 12.0555 27.0516 12.2799 26.7737C12.5043 26.4957 12.6954 26.184 12.845 25.8386C13.4101 25.3753 13.9171 24.8531 14.3907 24.255C14.8561 23.6654 15.3797 23.1347 15.9614 22.6714C16.0279 22.6461 16.0611 22.5871 16.0777 22.4945C16.0861 22.3934 16.0944 22.326 16.0944 22.2839C16.1359 22.2418 16.1775 22.2165 16.2273 22.2165C16.2689 22.2165 16.2938 22.2249 16.3104 22.2334C16.3187 22.2418 16.3437 22.2502 16.3935 22.2502C16.46 22.2502 16.5099 22.2249 16.5597 22.1828C16.5597 21.9891 16.6013 21.829 16.6927 21.7027C16.7758 21.5847 16.8672 21.4584 16.967 21.3405C17.0667 21.2225 17.1498 21.0962 17.2246 20.9782C17.2994 20.8603 17.3492 20.7087 17.3742 20.5318C17.9143 20.1359 18.413 19.7063 18.87 19.2346C19.3271 18.7628 19.7842 18.2911 20.2495 17.8194C20.7149 17.3477 21.2052 16.9012 21.7122 16.4716C22.2191 16.042 22.7842 15.6967 23.4158 15.4355V15.2081C23.4158 15.1407 23.4241 15.0649 23.449 14.9806C23.474 14.8964 23.4989 14.8122 23.5488 14.7532C24.3299 14.7111 24.9532 14.391 25.4352 13.8013C25.8258 13.734 26.2164 13.6244 26.6236 13.456C27.0225 13.2875 27.3632 13.0601 27.6458 12.7484C27.9948 12.7484 28.3355 12.6979 28.6679 12.5799C29.0004 12.4704 29.3328 12.3525 29.6569 12.2346C29.981 12.1166 30.3051 12.0071 30.6292 11.906C30.9533 11.805 31.3023 11.7544 31.668 11.7544C31.7511 11.7544 31.8342 11.7628 31.909 11.7881C31.9838 11.8134 32.0752 11.8218 32.1832 11.8218C32.2913 11.8218 32.391 11.7797 32.4907 11.687C32.5904 11.6028 32.7234 11.5522 32.8979 11.5522C33.2885 11.5522 33.6791 11.6449 34.0697 11.8302C34.4603 12.0155 34.9589 12.0914 35.5655 12.0408C35.5905 12.4788 35.6902 12.8326 35.873 13.0938C36.0559 13.3549 36.2969 13.5571 36.5877 13.7003C36.8786 13.8435 37.2027 13.953 37.5434 14.0288C37.8924 14.1046 38.2332 14.1888 38.5822 14.2731C38.6071 14.7785 38.8149 15.1154 39.2138 15.2755C39.6127 15.4439 40.0282 15.5366 40.4603 15.5534C40.6764 15.9915 41.0254 16.2105 41.4991 16.2105C41.5822 16.2105 41.6737 16.2021 41.7734 16.1936C41.8731 16.1852 41.9728 16.1684 42.0809 16.1431C42.0144 16.2526 41.9811 16.3368 41.9811 16.4042C41.9811 16.5559 42.0642 16.6738 42.2221 16.7496C42.3883 16.8254 42.5296 16.8675 42.6626 16.8675L42.7623 16.8338C42.7872 16.8086 42.8039 16.8001 42.8288 16.8001V16.9349C42.8288 17.0697 42.8371 17.1455 42.8454 17.1792C42.8537 17.2129 42.9036 17.2634 42.995 17.3308C43.1861 17.4825 43.3939 17.6004 43.61 17.6762C43.826 17.752 44.0421 17.8362 44.2582 17.9205C44.4493 18.1395 44.6238 18.3501 44.7651 18.5438C44.9064 18.7376 45.1308 18.8555 45.4299 18.8723C45.6709 19.3778 45.9618 19.8411 46.3191 20.2538C46.6765 20.675 47.0505 21.0793 47.441 21.4752V21.61C47.441 22.0059 47.5408 22.2839 47.7319 22.4524C47.923 22.6208 48.1308 22.8399 48.3469 23.1263C48.3884 23.4379 48.4798 23.7159 48.6211 23.9855C48.7624 24.2466 48.9868 24.4656 49.2859 24.6425C49.261 24.752 49.2527 24.8531 49.2527 24.9373V25.1985C49.2527 25.7713 49.2943 26.3272 49.3857 26.8747C49.4688 27.4223 49.5186 27.9867 49.5186 28.551C49.5186 29.0733 49.4605 29.5703 49.3441 30.0336C49.2278 30.4969 49.0782 30.9518 48.9037 31.3982C48.7291 31.8447 48.5463 32.2911 48.3552 32.7291C48.164 33.1672 47.9729 33.6305 47.8067 34.1106C47.6571 34.1527 47.5325 34.2285 47.4494 34.338L47.1917 34.6329C47.1086 34.7171 47.0089 34.8013 46.9009 34.8772C46.7928 34.953 46.6599 35.0035 46.5103 35.0288C46.4687 35.1636 46.4106 35.2731 46.3358 35.3573C46.261 35.4415 46.2444 35.5763 46.2859 35.7532C45.6543 36.1912 45.0726 36.663 44.5324 37.1684C43.9922 37.6738 43.4354 38.1792 42.8787 38.6846C42.3135 38.9289 41.7817 39.2069 41.2748 39.527C40.7678 39.8471 40.2609 40.184 39.7623 40.5294L38.2664 41.5486C37.7678 41.8772 37.2609 42.1888 36.7373 42.4668C36.7373 42.6184 36.7124 42.7279 36.6542 42.7953C36.596 42.8627 36.5545 42.9469 36.5046 43.0565C36.7872 43.3176 37.0531 43.5871 37.3024 43.8651C37.5517 44.1431 37.8093 44.3874 38.0836 44.6064C38.3578 44.8254 38.6487 45.0192 38.9562 45.1792C39.272 45.3477 39.6459 45.4572 40.0781 45.5246C40.2692 45.9205 40.5268 46.2406 40.8426 46.4764C41.1584 46.7207 41.4908 46.9397 41.8482 47.1503C42.2055 47.3609 42.5546 47.5715 42.9036 47.7905C43.2526 48.0095 43.5518 48.2707 43.8094 48.5823L43.8759 48.616C43.959 48.616 44.0255 48.5908 44.067 48.5318C44.1086 48.4728 44.1751 48.4475 44.2582 48.4475C44.2831 48.4475 44.2997 48.456 44.3247 48.4644C44.3496 48.4728 44.3662 48.4812 44.3911 48.4812C44.7983 48.9445 45.2388 49.3236 45.7042 49.6184C46.1696 49.9133 46.6931 50.1154 47.2748 50.2249C47.3579 50.4439 47.466 50.6124 47.5989 50.7219C47.7319 50.8314 47.8649 50.9157 48.0061 50.9662C48.1474 51.0167 48.297 51.0673 48.4632 51.1178C48.6294 51.1599 48.7956 51.2273 48.9701 51.3116C49.1447 51.2863 49.2693 51.2273 49.3441 51.1347C49.4189 51.0336 49.5186 50.9409 49.6516 50.8567C49.9757 51.1852 50.2499 51.539 50.466 51.9265C50.6488 52.3224 50.7984 52.7436 50.8898 53.2069ZM47.1585 27.7424C47.1585 27.4391 47.1253 27.1359 47.0588 26.8579C46.9923 26.5715 46.984 26.2767 47.0255 25.9734C46.9175 25.8892 46.8427 25.7628 46.8011 25.6112L46.6682 25.1142C46.6266 24.9373 46.5768 24.7773 46.5186 24.6341C46.4604 24.4909 46.369 24.3898 46.2444 24.3224C46.2693 24.255 46.2776 24.1455 46.2776 23.9939C46.2776 23.8001 46.2277 23.6232 46.128 23.4716C46.0283 23.32 45.9202 23.1599 45.8039 22.9915C45.6876 22.823 45.5795 22.663 45.4964 22.4945C45.4133 22.326 45.3801 22.1491 45.3967 21.9554C44.9396 21.4331 44.4826 20.9108 44.0172 20.3886C43.5518 19.8747 43.0033 19.4536 42.38 19.125C42.3385 19.0155 42.3052 18.9145 42.2803 18.8302C42.2554 18.746 42.2138 18.6449 42.1473 18.5354H41.4327C41.3246 18.3417 41.1584 18.19 40.9423 18.0889C40.7263 17.9879 40.5019 17.9036 40.2609 17.8278C40.0199 17.752 39.8038 17.6593 39.5961 17.5667C39.3883 17.4656 39.2304 17.3224 39.1224 17.1202H38.8315C38.2249 17.1202 37.6431 17.0192 37.0946 16.8086C36.5462 16.598 35.9727 16.4295 35.391 16.2947C35.283 16.4042 35.15 16.4885 35.0004 16.539C34.8508 16.598 34.7096 16.6654 34.5766 16.7496C34.319 16.5053 34.0115 16.3453 33.6708 16.2526C33.3217 16.1684 32.9893 16.1178 32.6652 16.1178C32.017 16.1178 31.4187 16.2526 30.8785 16.5137C30.7705 16.4716 30.7123 16.4127 30.7123 16.3453C30.7123 16.2779 30.6541 16.2442 30.5461 16.2442C30.5212 16.2695 30.5045 16.2779 30.4796 16.2779C30.1306 16.3621 29.8065 16.4969 29.5073 16.6738C29.1998 16.8507 29.0336 17.1455 28.992 17.5583C29.125 18.1311 29.3743 18.6281 29.74 19.0577C30.1056 19.4873 30.3965 19.9758 30.6126 20.5234C30.8951 20.6076 31.1195 20.7508 31.2774 20.953C31.4353 21.1551 31.5766 21.3741 31.6846 21.6269C31.7926 21.8796 31.8757 22.1491 31.9422 22.4355C32.0087 22.7219 32.0752 22.9831 32.1334 23.2273C31.9838 23.2021 31.909 23.2526 31.9256 23.379C31.9339 23.4969 31.8841 23.5727 31.776 23.5896C31.1029 23.3284 30.4713 23.0167 29.8729 22.6545C29.2746 22.2923 28.6763 21.9385 28.0696 21.5847C28.0031 21.3657 27.9034 21.1888 27.7621 21.0625C27.6208 20.9277 27.4713 20.8013 27.305 20.6834C27.1388 20.5655 26.9976 20.4307 26.8812 20.2875C26.7649 20.1443 26.6901 19.9421 26.6735 19.681H25.9255C25.884 19.3778 25.7593 19.1335 25.5682 18.9566C25.377 18.7797 25.1444 18.6028 24.8867 18.4343C23.8064 19.2683 22.7427 20.1275 21.6872 21.0204C20.6401 21.9048 19.726 22.9325 18.9448 24.095H18.8119C18.6623 24.095 18.521 24.1287 18.388 24.196C18.388 24.3898 18.3215 24.533 18.1803 24.6088C18.039 24.6846 17.9808 24.8194 18.0058 25.0216C17.6401 25.1563 17.3409 25.3585 17.1165 25.6281C16.8922 25.8976 16.6761 26.1924 16.485 26.4873C16.2938 26.7821 16.0777 27.0685 15.8534 27.3465C15.629 27.6244 15.3381 27.8266 14.9891 27.953C14.8146 28.3489 14.5985 28.7111 14.3409 29.0396C14.0833 29.3681 13.8173 29.6882 13.5431 29.9915C13.2688 30.3031 13.0112 30.6232 12.7619 30.9602C12.5126 31.2971 12.3215 31.6762 12.1968 32.0974C12.1719 32.0974 12.1553 32.0889 12.1303 32.0805C12.1054 32.0721 12.0888 32.0637 12.0638 32.0637C11.9558 32.0637 11.881 32.0974 11.8395 32.1648C11.7979 32.2321 11.7314 32.2827 11.6483 32.3332C11.4073 32.8639 11.1331 33.3525 10.8173 33.7989C10.5015 34.2454 10.1774 34.7003 9.84498 35.1467C9.51256 35.5932 9.18846 36.0565 8.88929 36.5113C8.5818 36.9746 8.3408 37.4632 8.14136 37.9939C7.70922 38.474 7.35187 38.9794 7.06932 39.4933C6.78677 40.0071 6.60394 40.5883 6.52084 41.2201C6.34632 41.3717 6.22166 41.5908 6.14687 41.8603C6.07208 42.1383 5.99728 42.391 5.93911 42.6353C5.69811 42.6353 5.54021 42.669 5.4488 42.7364C5.51528 43.1323 5.56514 43.5534 5.61501 44.0083C5.65656 44.4548 5.72304 44.9012 5.80614 45.3392C5.88925 45.7773 6.0139 46.1985 6.18011 46.6028C6.34632 47.0071 6.56239 47.3693 6.84494 47.6726C7.2106 47.8074 7.59287 47.9421 7.98346 48.0853C8.37405 48.2285 8.69815 48.456 8.95577 48.7592H9.21339C9.45439 48.7592 9.67877 48.7929 9.89484 48.8603C10.1109 48.9277 10.302 49.0456 10.4766 49.2225C10.5846 49.2478 10.6926 49.2562 10.8007 49.2562H11.158C11.6982 49.2562 12.2301 49.2141 12.7619 49.1383C13.2938 49.0625 13.8256 49.0204 14.3658 49.0204C14.4988 49.0204 14.6234 49.0288 14.7398 49.0372C14.8561 49.0456 14.9808 49.0625 15.1137 49.0877C15.2467 49.0456 15.3963 48.9698 15.5874 48.8519C15.7703 48.7424 15.9282 48.6666 16.0611 48.616C16.3187 48.5739 16.5847 48.5318 16.8589 48.4981C17.1332 48.4644 17.4074 48.4139 17.69 48.3465C18.1886 48.2117 18.6706 48.0348 19.1526 47.8158C19.6263 47.5968 20.1083 47.3862 20.582 47.184H21.1969C21.8867 46.8723 22.5931 46.5775 23.3078 46.2911C24.0225 46.0047 24.7371 45.7099 25.4518 45.3982C26.1665 45.0865 26.8563 44.7496 27.5294 44.3874C28.2026 44.0252 28.8508 43.6124 29.474 43.1491C29.1915 43.0396 28.9671 42.9048 28.7926 42.7532L28.3023 42.2562C28.1527 42.0793 27.9782 41.9277 27.787 41.7929C27.5959 41.6581 27.33 41.5655 27.0059 41.4981C26.7482 41.0179 26.3577 40.5968 25.8507 40.2514C25.3438 39.8976 24.8369 39.5522 24.3216 39.2153C23.8147 38.8784 23.3659 38.4909 22.992 38.0613C22.6097 37.6317 22.4269 37.101 22.4269 36.4692C22.4269 36.2249 22.4518 36.0059 22.51 35.7953C22.5598 35.5847 22.6263 35.3657 22.6845 35.1214C22.9255 35.0793 23.1166 34.9698 23.2662 34.7929C23.4158 34.616 23.6152 34.4981 23.8479 34.4307C24.0225 34.5823 24.2551 34.6497 24.5626 34.6244C24.8618 34.5992 25.136 34.616 25.377 34.6581C25.6762 35.054 26.0169 35.4078 26.3826 35.7279C26.7482 36.048 27.1305 36.3513 27.5211 36.6461C27.9117 36.9409 28.2857 37.2442 28.6596 37.5474C29.0253 37.8591 29.3743 38.196 29.6984 38.5667C30.0225 38.6088 30.3217 38.7183 30.5876 38.8784C30.8619 39.0468 31.0613 39.2911 31.186 39.6196H31.3189C31.4685 39.6196 31.5683 39.6702 31.6098 39.7713C31.6514 39.8723 31.7843 39.8976 32.0004 39.8555C31.9755 39.8976 31.9672 39.9397 31.9672 39.9903C31.9672 40.1419 32.017 40.2514 32.1334 40.3019C32.2414 40.3609 32.3162 40.4367 32.3577 40.5462H32.4907C32.7899 40.5462 33.0143 40.6305 33.1555 40.8074C33.2968 40.9843 33.4963 41.1022 33.7539 41.1696C34.2941 40.8663 34.8176 40.5294 35.3162 40.1672C35.8148 39.805 36.38 39.5354 37.0032 39.3585C37.0863 39.2237 37.1777 39.1142 37.2775 39.0131C37.3772 38.9121 37.4769 38.8025 37.585 38.6678H37.7179C37.8924 38.693 38.0171 38.6425 38.1085 38.533C38.1916 38.4235 38.2913 38.314 38.3994 38.2045C38.8066 38.095 39.1639 37.9265 39.4714 37.6906C39.7706 37.4632 40.0698 37.2189 40.344 36.9662C40.6265 36.7135 40.9257 36.4861 41.2332 36.2755C41.549 36.0649 41.923 35.9217 42.3551 35.829C42.4382 35.6942 42.5462 35.551 42.6792 35.3826C42.8122 35.2141 42.9534 35.0625 43.103 34.9024C43.2526 34.7508 43.4188 34.6244 43.5933 34.5402C43.7679 34.456 43.9424 34.4054 44.1086 34.4054C44.3496 33.9674 44.6072 33.5547 44.8898 33.1756C45.1723 32.7881 45.4382 32.4006 45.7042 32.0047C45.9701 31.6088 46.2028 31.196 46.4189 30.7749C46.6349 30.3453 46.8011 29.8735 46.9092 29.3429C46.8843 29.2586 46.8676 29.1744 46.8593 29.1154C46.851 29.048 46.8427 28.9806 46.8427 28.9217C46.8427 28.7448 46.8676 28.551 46.9092 28.3489C46.9507 28.1383 47.0255 27.9614 47.1336 27.8098V27.7424H47.1585ZM38.9728 14.7111C38.9728 14.7364 38.9645 14.7532 38.9395 14.7785L38.8731 14.6437C38.8731 14.5595 38.898 14.5089 38.9395 14.5089C38.9645 14.5595 38.9728 14.6184 38.9728 14.7111Z" fill="#0A0B0D" stroke="#0A0B0D" stroke-width="2"/>
<path d="M72.6873 40.4367C72.6042 40.7652 72.4629 41.0432 72.2634 41.2622C72.0723 41.4812 71.8479 41.6834 71.5986 41.8518C71.3493 42.0287 71.0834 42.1888 70.8008 42.332C70.5183 42.4752 70.2523 42.6352 69.9864 42.8121H69.5626C68.6568 42.8121 67.9587 42.5847 67.4684 42.1382C66.9781 41.6918 66.6041 41.1274 66.3465 40.4619C66.0889 39.7965 65.8977 39.0721 65.7814 38.3055C65.665 37.539 65.5154 36.8398 65.3409 36.1996C65.0833 36.4186 64.8672 36.6798 64.6927 36.9746C64.5182 37.2694 64.3437 37.5642 64.1608 37.8506C63.978 38.137 63.7703 38.3982 63.5459 38.6425C63.3215 38.8867 63.0223 39.0468 62.6567 39.1394C62.5902 39.2911 62.5237 39.4511 62.4489 39.6027C62.3741 39.7544 62.3243 39.9228 62.2993 40.0997C61.8256 40.3609 61.3935 40.6725 61.0029 41.0179C60.6123 41.3717 60.2217 41.7339 59.8311 42.1045C59.4406 42.4752 59.05 42.8374 58.6428 43.1743C58.2439 43.5113 57.7951 43.7977 57.2965 44.0167C57.2716 43.9914 57.23 43.983 57.1635 43.983C56.9059 43.983 56.6649 44.042 56.4488 44.1599C56.2328 44.2778 55.9918 44.3368 55.7341 44.3368C55.5596 44.3368 55.4017 44.3031 55.2605 44.2357C55.1192 44.1683 54.9779 44.0925 54.8366 44.0083C54.6954 43.924 54.5458 43.8567 54.3962 43.8145C54.2466 43.7724 54.0804 43.764 53.9059 43.7808C53.6898 43.3849 53.3989 43.0227 53.0416 42.6774C52.6842 42.3404 52.4599 41.9445 52.3768 41.5065C52.3352 41.3127 52.3103 41.1106 52.2937 40.9C52.2853 40.6894 52.2521 40.4788 52.2106 40.2598C52.1441 39.9313 52.061 39.5943 51.9529 39.2574C51.8449 38.9204 51.7618 38.5751 51.6953 38.2213C51.8033 37.6316 51.9031 36.9746 52.0028 36.267C52.1025 35.551 52.2189 34.8434 52.3601 34.1274C52.5014 33.4114 52.6926 32.7375 52.9419 32.0889C53.1912 31.4403 53.507 30.8843 53.8976 30.4295L53.8643 30.202C53.8643 29.8482 53.9308 29.5197 54.0555 29.2165C54.1884 28.9132 54.3297 28.61 54.4793 28.332C54.6289 28.0456 54.7618 27.7592 54.8699 27.4728C54.9779 27.1864 55.0028 26.8663 54.9364 26.5209C55.194 26.3861 55.4682 26.2766 55.7508 26.1924C56.0333 26.1082 56.3242 26.0576 56.6234 26.0576C56.9059 26.0576 57.1635 26.0997 57.4045 26.1924C57.363 26.3693 57.4378 26.4788 57.6289 26.5209V26.622C57.6289 27.0853 57.5707 27.5317 57.4627 27.9698C57.3547 28.4078 57.2217 28.8458 57.0721 29.267C56.9225 29.6966 56.7729 30.1262 56.6317 30.5474C56.4904 30.977 56.3907 31.4066 56.3242 31.8446C56.2411 31.8699 56.1746 31.912 56.1497 31.9794C56.1247 32.0468 56.0915 32.1142 56.0666 32.1731C56.0416 32.2405 56.0084 32.2911 55.9668 32.3416C55.9253 32.3837 55.8588 32.409 55.7757 32.409C55.6427 33.1755 55.5098 33.9421 55.3685 34.6918C55.2272 35.4499 55.1607 36.208 55.1607 36.9746C55.1607 37.4379 55.2023 37.9096 55.2937 38.3897C55.3768 38.8699 55.543 39.3332 55.784 39.7712L55.917 39.7375C56.158 39.7375 56.3408 39.7965 56.4821 39.906C56.6234 40.0155 56.8145 40.125 57.0472 40.2345C57.2217 40.1924 57.3796 40.1334 57.5375 40.0576C57.6871 39.9818 57.7536 39.847 57.7286 39.6449C58.0112 39.6196 58.2439 39.5522 58.4433 39.4343C58.6345 39.3163 58.809 39.1731 58.9586 39.0215L59.4489 38.5582C59.6234 38.4066 59.8312 38.2971 60.0638 38.2297C60.0638 38.0949 60.0971 38.0023 60.1636 37.9349L60.3547 37.7411C60.4212 37.6737 60.4711 37.6064 60.5043 37.5305C60.5375 37.4547 60.5375 37.3368 60.5209 37.1852C60.7785 37.1599 60.978 37.1009 61.1193 36.9914C61.2605 36.8819 61.3935 36.7556 61.5098 36.6124C61.6262 36.4692 61.7425 36.326 61.8506 36.1659C61.9586 36.0143 62.0999 35.8795 62.2744 35.77C62.424 35.4415 62.6401 35.0035 62.906 34.4559C63.1802 33.9084 63.4462 33.3356 63.7204 32.7459C63.9946 32.1563 64.2273 31.5919 64.4351 31.0528C64.6428 30.5137 64.7426 30.1009 64.7426 29.823C64.7426 29.7135 64.7176 29.6124 64.6595 29.5281C64.6013 29.4439 64.593 29.3428 64.6096 29.2333V29.1322C64.7841 28.9132 64.942 28.6689 65.0833 28.4078C65.2246 28.1467 65.3742 27.894 65.5404 27.6497C65.7066 27.4054 65.8811 27.1864 66.0722 26.9926C66.2634 26.7989 66.5127 26.6388 66.8202 26.5293C67.1692 26.6388 67.5182 26.7147 67.8756 26.7568C68.2329 26.7989 68.5736 26.8916 68.8978 27.0179C68.9227 27.5654 68.9725 28.2056 69.064 28.9301C69.1471 29.6545 69.305 30.2694 69.521 30.7748C69.521 31.0612 69.5127 31.3308 69.5044 31.6003C69.4961 31.8615 69.4878 32.1226 69.4878 32.3922C69.4878 32.8302 69.5044 33.2766 69.5376 33.7399C69.5709 34.2032 69.6374 34.6244 69.7454 35.0203C69.5958 35.3488 69.521 35.7026 69.521 36.0733C69.521 36.5787 69.5958 37.0588 69.7454 37.5053C69.895 37.9517 70.003 38.4319 70.0695 38.9373C70.3521 39.3332 70.7177 39.5269 71.1748 39.5269C71.2828 39.5269 71.3742 39.5185 71.449 39.4932C71.5238 39.468 71.6069 39.4427 71.69 39.3922C71.8645 39.5859 72.0224 39.7796 72.1637 39.965C72.3299 40.1166 72.4961 40.2851 72.6873 40.4367Z" fill="#0A0B0D" stroke="#0A0B0D" stroke-width="2"/>
<path d="M98.7419 43.3681C98.6754 43.6798 98.5424 43.9241 98.3347 44.1094C98.1269 44.2947 97.8859 44.4463 97.6034 44.5558C97.3208 44.6653 97.0383 44.7327 96.7391 44.7664C96.4399 44.8001 96.1823 44.817 95.9413 44.817C95.8333 44.817 95.7335 44.8085 95.6338 44.8001C95.5341 44.7917 95.4344 44.7833 95.3263 44.7833C95.2183 44.7833 95.1601 44.8422 95.1601 44.9518C95.1601 45.0613 95.102 45.1371 94.9939 45.1792C94.8859 45.1371 94.7778 45.1034 94.6698 45.0781C94.5618 45.0528 94.4537 45.0444 94.3457 45.0444C94.1961 45.0444 94.0465 45.0528 93.9053 45.0781C93.764 45.1034 93.631 45.1118 93.4981 45.1118C93.3235 45.1118 93.1989 45.0865 93.1241 45.0444C93.0493 45.0023 92.9828 44.9518 92.9329 44.8928C92.8748 44.8422 92.8249 44.7749 92.7667 44.7159C92.7086 44.6485 92.6338 44.598 92.5257 44.5474C92.3762 44.48 92.2515 44.4716 92.1518 44.5137C92.0521 44.5558 91.9108 44.4885 91.7113 44.32C91.4537 44.101 91.2293 43.8314 91.0465 43.5113C90.8637 43.1912 90.6808 42.8627 90.5146 42.5089C90.3401 42.1551 90.1573 41.8097 89.9661 41.456C89.775 41.1022 89.5423 40.7989 89.2847 40.5378H89.0271C88.6365 40.5378 88.3706 40.7063 88.2127 41.0348C88.1046 40.9674 87.9966 40.8832 87.8886 40.7905C87.7805 40.6894 87.6642 40.6136 87.5312 40.5462C87.0326 40.6978 86.5174 40.8326 85.9689 40.9421C85.4287 41.0516 84.8885 41.1106 84.3483 41.1106H83.8913C83.7583 41.1106 83.617 41.0853 83.4675 41.0432C83.2514 41.1274 83.0519 41.2369 82.8857 41.3549C82.7112 41.4728 82.5201 41.5318 82.304 41.5318C82.171 41.5318 82.0215 41.4897 81.8469 41.397C81.714 41.397 81.6558 41.456 81.6724 41.5655C81.6807 41.675 81.6142 41.7339 81.4647 41.7339H81.1738C80.8663 41.7339 80.5754 41.7424 80.2846 41.7676C79.9937 41.7929 79.6945 41.8013 79.3954 41.8013C78.9799 41.8013 78.5643 41.7508 78.1322 41.6329C78.0242 41.7002 77.9078 41.7339 77.7749 41.7339C77.6918 41.7761 77.6253 41.8519 77.5837 41.9445C77.5422 42.0456 77.5006 42.1298 77.4508 42.2057C77.4092 42.2815 77.351 42.3489 77.2762 42.3994C77.2014 42.4584 77.1017 42.4668 76.9688 42.4499C76.9272 42.7111 76.8192 42.9217 76.6446 43.0733C76.4701 43.2249 76.387 43.4608 76.387 43.764C76.146 43.8988 75.9549 44.0588 75.8053 44.261C75.6557 44.4548 75.4978 44.6653 75.3482 44.8844C75.1986 45.1034 75.0408 45.314 74.8745 45.5077C74.7083 45.7015 74.5089 45.8615 74.2762 45.971C74.1682 46.1058 74.1349 46.3079 74.1765 46.5943C73.9355 46.7881 73.6446 46.965 73.3039 47.1166C72.9549 47.2682 72.6307 47.344 72.3316 47.344C71.7083 47.344 71.2678 47.0071 71.0352 46.3248C71.0352 46.1058 71.0518 45.8699 71.085 45.6172C71.1183 45.3645 71.1681 45.1202 71.2346 44.8928C71.3011 44.6653 71.4008 44.4548 71.5255 44.2694C71.6584 44.0841 71.8413 43.9493 72.074 43.8567C72.074 43.6629 72.0075 43.5197 71.8828 43.4439C71.7498 43.3681 71.7 43.2333 71.7166 43.0312C72.2983 42.7448 72.8136 42.3741 73.2457 41.9108C73.6779 41.4475 74.0768 40.959 74.4341 40.4451C74.7914 39.9313 75.1571 39.409 75.5228 38.8783C75.8884 38.3561 76.3039 37.8844 76.7527 37.4632V36.7724C77.4009 36.0733 77.8247 35.2815 78.0159 34.4054C78.2569 34.3633 78.4064 34.2538 78.4895 34.0769C78.5643 33.9 78.6059 33.6894 78.6059 33.4536C78.7139 33.4536 78.7804 33.403 78.8137 33.3019C78.8469 33.2008 78.9383 33.1756 79.0879 33.2177C79.279 32.6954 79.4951 32.2069 79.7361 31.7688C79.9771 31.3308 80.2098 30.8844 80.4508 30.4379C80.6918 29.9915 80.8996 29.5197 81.0824 29.0396C81.2652 28.5595 81.3982 28.0203 81.4896 27.4307C81.7804 27.4223 81.9467 27.2706 81.9799 27.0011C82.0131 26.7231 82.0464 26.4788 82.0962 26.2598C82.4203 25.9566 82.6613 25.5944 82.8276 25.1732C82.9938 24.7604 83.135 24.3224 83.268 23.8759C83.401 23.4295 83.5422 22.9746 83.7085 22.5282C83.8747 22.0817 84.099 21.6774 84.4065 21.3236V21.2225C84.4065 21.113 84.365 21.0456 84.2736 21.0119C84.1905 20.9782 84.1406 20.9108 84.1406 20.8013C84.1655 20.7761 84.1738 20.7592 84.1738 20.7339C84.4314 20.6244 84.6309 20.4475 84.7556 20.1948C84.8885 19.9421 85.0797 19.7652 85.3373 19.6557C85.7943 20.0264 86.1933 20.2538 86.5423 20.3296C86.8913 20.4054 87.3401 20.4644 87.9052 20.5065C88.1877 20.8182 88.3456 21.1804 88.3789 21.61C88.4121 22.0396 88.4786 22.4608 88.5866 22.8735C88.7612 23.5727 88.9523 24.2634 89.1517 24.9289C89.3595 25.5943 89.5174 26.2851 89.6254 26.9842C89.6919 27.4054 89.8083 27.7929 89.9828 28.172C90.1573 28.5426 90.2736 28.9301 90.3401 29.326C90.3817 29.6377 90.3817 29.983 90.3401 30.3621C90.2986 30.7496 90.3401 31.0781 90.4731 31.3645L90.6975 31.8868C90.8055 32.1311 90.8969 32.3838 90.9717 32.6449C91.0465 32.906 91.1213 33.1672 91.1795 33.4367C91.354 34.0937 91.5119 34.8013 91.6532 35.5595C91.7944 36.3176 92.0188 36.9999 92.318 37.6148C92.426 37.8338 92.5922 37.9854 92.8249 38.0781C93.0493 38.1623 93.3069 38.2297 93.5895 38.255C93.872 38.2887 94.1463 38.2971 94.4205 38.2887C94.6947 38.2803 94.9274 38.2718 95.1186 38.2718H95.4427C95.5756 38.2718 95.7003 38.2971 95.8333 38.3392C95.9164 38.5161 95.9662 38.6678 95.9662 38.8025C95.9662 39.0637 95.8831 39.2743 95.7086 39.4259C95.5341 39.5775 95.451 39.7544 95.451 39.9481C95.451 40.0576 95.4925 40.1756 95.584 40.3104C95.5008 40.2851 95.3679 40.2767 95.1934 40.2767C94.6947 40.2767 94.2044 40.3609 93.7307 40.5378C93.9053 40.9084 94.138 41.2201 94.4288 41.4728C94.7197 41.7255 95.0272 41.9614 95.3513 42.1804C95.5673 42.0035 95.7917 41.9193 96.0327 41.9193C96.2903 41.9193 96.5396 41.9782 96.764 42.0962C96.9884 42.2141 97.2377 42.273 97.4953 42.273C97.6865 42.273 97.8277 42.2394 97.9192 42.172C98.0937 42.3657 98.235 42.5763 98.343 42.7785C98.4344 43.0059 98.5757 43.1912 98.7419 43.3681ZM90.6642 14.0877C90.6393 14.4163 90.5645 14.669 90.4232 14.8459C90.2819 15.0227 90.2155 15.2418 90.2155 15.5029C90.2155 15.6798 90.2487 15.8314 90.3152 15.9662C90.1656 16.0336 90.0908 16.1515 90.0908 16.3284H89.9578C89.7833 16.3284 89.6171 16.3705 89.4509 16.4632C89.2847 16.5474 89.1185 16.598 88.944 16.598C88.3789 16.598 87.9052 16.4463 87.5146 16.1515C87.124 15.8567 86.7002 15.6124 86.2514 15.4102C86.1434 15.3681 86.0353 15.3428 85.9273 15.3428H85.6365C85.4869 15.3428 85.3788 15.3176 85.3124 15.2755C85.2874 15.2333 85.2708 15.1744 85.2625 15.0986C85.2542 15.0227 85.2209 14.9638 85.1794 14.9217C85.1545 14.8964 85.063 14.8627 84.8885 14.8037C84.714 14.7532 84.5229 14.6858 84.3234 14.6268C84.1157 14.5595 83.9162 14.4921 83.7251 14.4163C83.5339 14.3404 83.401 14.2815 83.3345 14.2394C83.2265 14.172 83.135 14.0625 83.0602 13.894C82.9855 13.7255 82.8691 13.6918 82.7195 13.7761C82.7444 13.7087 82.7528 13.6413 82.7528 13.5823C82.7528 13.4728 82.7278 13.3549 82.6697 13.2369C82.6115 13.119 82.5201 13.0601 82.3954 13.0601C82.3539 13.0601 82.304 13.0685 82.2458 13.0937C82.1877 13.119 82.1295 13.1274 82.0713 13.1274C82.0298 13.1274 81.9882 13.1022 81.9383 13.0601C81.7638 12.841 81.581 12.622 81.3899 12.403C81.0408 12.0324 80.6835 11.7039 80.3178 11.4175C79.9522 11.1311 79.6696 10.7351 79.4702 10.2297C79.0796 10.036 78.7472 9.7917 78.4646 9.5053L77.617 8.64609C77.3344 8.35969 77.0352 8.10699 76.7111 7.87112C76.387 7.63526 75.9798 7.45837 75.5061 7.37413V7.13827C75.5061 6.85187 75.5477 6.58232 75.6391 6.31276C75.7222 6.05163 75.7721 5.7905 75.7721 5.52094C75.7721 5.38617 75.7638 5.29351 75.7388 5.22612C76.038 5.11661 76.2374 4.92287 76.3205 4.65331C76.4036 4.37534 76.4535 4.09736 76.4535 3.81096C76.6696 3.56667 76.9521 3.42347 77.3012 3.38135C77.6502 3.33924 77.9577 3.31396 78.2402 3.31396H78.5643C78.6724 3.31396 78.7804 3.32239 78.8884 3.34766C79.4037 3.65933 79.8275 4.03839 80.135 4.50169C80.4508 4.96499 80.6918 5.47883 80.8663 6.05163C81.1655 6.29591 81.4314 6.57389 81.6641 6.91084C81.8968 7.24778 82.196 7.46679 82.6115 7.60157C82.786 8.0396 83.0104 8.42708 83.2929 8.77245C83.5755 9.10939 83.8747 9.43791 84.1988 9.74116C84.5229 10.0528 84.8387 10.3645 85.1545 10.6762C85.4702 10.9963 85.7528 11.3416 86.0187 11.7123C86.3844 11.8639 86.7833 12.0155 87.2237 12.1587C87.6559 12.3019 88.088 12.462 88.5035 12.6389C88.9274 12.8158 89.3263 13.0179 89.7085 13.2454C90.0825 13.4728 90.4066 13.7508 90.6642 14.0877ZM88.5866 38.1034C88.5451 37.7327 88.4703 37.4632 88.3789 37.2947C88.2875 37.1262 88.2044 36.9241 88.1379 36.6882C88.0548 36.385 87.9883 36.0564 87.9634 35.7027C87.9301 35.3489 87.8803 35.0119 87.8138 34.6834C87.6642 33.9421 87.498 33.1924 87.3068 32.4427C87.124 31.7014 86.8913 30.977 86.6088 30.2694C86.6919 30.1347 86.7417 30.0167 86.7417 29.9072V29.8061C86.5506 29.5871 86.4093 29.3176 86.3179 28.9975C86.2348 28.6774 86.1517 28.3657 86.0769 28.0456C86.0021 27.7255 85.9024 27.4307 85.786 27.1611C85.6697 26.8832 85.4786 26.6641 85.2209 26.4872C85.1545 26.622 85.1212 26.7737 85.1212 26.9505C85.1212 27.1022 85.1378 27.2454 85.1711 27.3801C85.2043 27.5149 85.2209 27.6581 85.2209 27.8098C85.0049 27.9193 84.847 28.0877 84.7472 28.3236C84.6475 28.5595 84.4896 28.7363 84.2736 28.8627C84.099 29.5619 83.8497 30.2273 83.5256 30.8507C83.2015 31.474 82.8608 32.0974 82.5035 32.7123C82.1461 33.3272 81.8054 33.9421 81.4813 34.5739C81.1572 35.2057 80.8995 35.8543 80.7001 36.5282C80.4175 36.7219 80.2264 36.9746 80.135 37.2863C80.0353 37.598 79.9854 37.9012 79.9854 38.2045C80.1765 38.314 80.4009 38.3729 80.6502 38.3814C80.8996 38.3898 81.1405 38.3982 81.3815 38.3982C81.6225 38.3982 81.8469 38.4235 82.063 38.4656C82.2791 38.5077 82.4702 38.6172 82.6447 38.7941C82.9273 38.7099 83.2348 38.6425 83.5672 38.6172C83.8996 38.5835 84.1821 38.4909 84.3982 38.3392C84.8304 38.4909 85.2957 38.5667 85.7944 38.5667C86.052 38.5667 86.3096 38.5414 86.5589 38.4993C86.8082 38.4572 87.0492 38.3982 87.2902 38.3308C87.4814 38.3729 87.6392 38.4487 87.7473 38.5414C87.8553 38.6425 88.0215 38.6762 88.2376 38.6593C88.3456 38.5751 88.4121 38.4824 88.4287 38.3814C88.4454 38.2887 88.4952 38.196 88.5866 38.1034Z" fill="#0A0B0D" stroke="#0A0B0D" stroke-width="2"/>
<path d="M141.729 24.6172C141.646 24.9036 141.505 25.1647 141.306 25.409L140.757 26.0998C140.583 26.3188 140.441 26.5546 140.317 26.8073C140.2 27.06 140.159 27.3464 140.2 27.6834C140.159 27.6834 140.101 27.675 140.034 27.6665C139.968 27.6581 139.918 27.6497 139.868 27.6497C139.519 27.6497 139.253 27.7339 139.07 27.894C138.887 28.0625 138.646 28.1972 138.339 28.3067C138.297 28.172 138.239 28.0456 138.173 27.9277C138.106 27.8097 138.006 27.7255 137.882 27.6834C137.367 27.7929 136.843 27.8771 136.319 27.9277C135.804 27.9866 135.281 28.054 134.757 28.1383C134.516 28.1804 134.283 28.2393 134.042 28.3152C133.801 28.391 133.552 28.4668 133.294 28.5258C133.162 28.5679 133.02 28.5847 132.871 28.5763C132.721 28.5679 132.563 28.5679 132.414 28.5931C131.898 28.6184 131.333 28.6521 130.727 28.7111C130.12 28.77 129.58 28.9385 129.106 29.2249C128.89 29.1828 128.666 29.1491 128.425 29.1238C128.184 29.0986 127.951 29.0901 127.71 29.0901C127.195 29.0901 126.621 29.1407 126.006 29.2418C125.391 29.3428 124.843 29.5366 124.369 29.8146C124.261 29.7724 124.145 29.7387 124.028 29.7135C123.912 29.6882 123.771 29.6798 123.621 29.6798C123.58 29.6798 123.546 29.6882 123.521 29.6966C123.497 29.7051 123.463 29.7135 123.422 29.7135C123.397 29.9072 123.43 30.101 123.505 30.2863C123.58 30.4716 123.713 30.6232 123.912 30.7327C123.829 30.977 123.779 31.2381 123.779 31.5245C123.779 31.8952 123.804 32.2742 123.862 32.6449C123.912 33.0155 123.945 33.3946 123.945 33.7652C123.945 34.1864 123.887 34.5149 123.779 34.7508C123.995 35.4078 124.103 36.1154 124.103 36.8567C124.103 37.1178 124.087 37.3789 124.053 37.6316C124.02 37.8844 124.003 38.1539 124.003 38.4403C124.003 38.6846 124.087 38.8699 124.261 39.0131C124.436 39.1563 124.519 39.3501 124.519 39.5859C124.519 39.6702 124.494 39.7628 124.452 39.847C124.751 39.7797 125.051 39.687 125.325 39.5691C125.607 39.4511 125.898 39.3922 126.197 39.3922C126.372 39.3922 126.538 39.4259 126.704 39.4933C126.871 39.5606 127.012 39.6449 127.145 39.7544C127.12 39.8639 127.103 39.9818 127.095 40.1166C127.087 40.2514 127.078 40.3777 127.078 40.5125C127.078 40.7568 127.087 40.9758 127.095 41.1864C127.103 41.397 127.12 41.616 127.145 41.8603C126.97 42.172 126.771 42.4415 126.546 42.6858C126.322 42.9301 126.164 43.2333 126.073 43.604C125.749 43.604 125.458 43.6714 125.208 43.8146C124.959 43.9578 124.726 44.1094 124.51 44.2779C124.294 44.4463 124.078 44.5979 123.862 44.7411C123.646 44.8844 123.405 44.9517 123.148 44.9517C122.823 44.9517 122.599 44.9012 122.466 44.8001C122.333 44.699 122.242 44.5979 122.175 44.4884C122.109 44.3789 122.051 44.2779 122.001 44.1936C121.943 44.1094 121.834 44.0757 121.66 44.0925C121.618 43.8061 121.527 43.5366 121.402 43.2839C121.269 43.0312 121.136 42.7869 120.995 42.5426C120.854 42.2983 120.713 42.054 120.571 41.8013C120.43 41.5486 120.33 41.2875 120.264 41.0264C120.131 40.4535 120.081 39.8639 120.098 39.249C120.123 38.6341 120.023 38.0444 119.807 37.4716C119.848 37.1683 119.882 36.8483 119.906 36.5366C119.931 36.2165 119.94 35.9048 119.94 35.6016C119.94 34.9866 119.923 34.3801 119.89 33.7736C119.857 33.1671 119.832 32.5522 119.807 31.912C119.657 31.7183 119.566 31.4909 119.533 31.2381C119.499 30.9854 119.474 30.7412 119.449 30.4969C119.383 30.4295 119.316 30.3621 119.242 30.3031C119.167 30.2357 119.117 30.1515 119.092 30.042C118.918 29.9999 118.785 29.9746 118.701 29.9746C118.394 29.9746 118.145 30.042 117.937 30.1852C117.729 30.3284 117.538 30.3958 117.372 30.3958C117.197 30.3958 117.039 30.3705 116.882 30.3284C116.732 30.2863 116.574 30.261 116.424 30.261C116.291 30.261 116.225 30.2863 116.217 30.3452C116.208 30.4042 116.159 30.4463 116.067 30.4969C116.001 30.539 115.851 30.5811 115.61 30.6316C115.369 30.6738 115.103 30.7159 114.812 30.7496C114.521 30.7833 114.239 30.8085 113.965 30.8338C113.69 30.8591 113.516 30.8675 113.433 30.8675C113.084 30.8675 112.818 30.8001 112.635 30.6569C112.452 30.5137 112.228 30.3537 111.97 30.1768C112.012 30.042 112.037 29.9578 112.037 29.9156C112.037 29.6966 111.97 29.5197 111.845 29.3765C111.712 29.2333 111.654 29.107 111.654 28.9975C111.654 28.7532 111.746 28.5679 111.929 28.4415C112.111 28.3067 112.219 28.1046 112.236 27.8182C112.735 27.5992 113.242 27.4307 113.765 27.3212C114.28 27.2117 114.812 27.1274 115.352 27.06C115.893 26.9927 116.424 26.9168 116.956 26.8326C117.488 26.7484 118.012 26.6052 118.527 26.403C118.677 26.4283 118.826 26.4451 118.967 26.4535C119.109 26.462 119.25 26.4704 119.408 26.4704C120.056 26.4704 120.704 26.403 121.336 26.2598C121.976 26.1166 122.632 26.0492 123.297 26.0492C123.472 26.0492 123.646 26.0576 123.812 26.0829C123.987 26.1082 124.161 26.1419 124.328 26.184C125.192 26.0492 126.056 25.906 126.912 25.7544C127.768 25.6028 128.649 25.468 129.555 25.3585C129.987 25.3164 130.419 25.2742 130.835 25.2406C131.25 25.2069 131.682 25.1563 132.114 25.0889C132.264 25.0637 132.38 25.03 132.455 24.971C132.53 24.9205 132.571 24.8025 132.571 24.6256C132.763 24.7099 132.979 24.7604 133.22 24.7604C133.585 24.7604 133.943 24.693 134.292 24.5667C134.641 24.4319 134.998 24.3729 135.364 24.3729C135.447 24.3729 135.53 24.3813 135.588 24.3898C135.655 24.3982 135.721 24.4066 135.779 24.4066C135.929 24.4066 136.012 24.3392 136.02 24.196C136.029 24.0528 136.137 23.9602 136.328 23.918C136.477 23.8759 136.693 23.8422 136.976 23.817C137.259 23.7917 137.558 23.7664 137.865 23.7327C138.181 23.699 138.472 23.6569 138.738 23.598C139.012 23.5474 139.211 23.4632 139.336 23.3537L139.56 22.9915C139.951 23.0167 140.234 23.1852 140.425 23.5053C140.608 23.8254 140.707 24.1708 140.732 24.5414C140.815 24.6256 140.94 24.6677 141.106 24.6593C141.272 24.6509 141.414 24.6425 141.547 24.6425H141.729V24.6172Z" fill="#0A0B0D" stroke="#0A0B0D" stroke-width="2"/>
<path d="M162.166 43.3682C162.099 43.6798 161.966 43.9241 161.759 44.1094C161.551 44.2948 161.31 44.4464 161.027 44.5559C160.745 44.6654 160.462 44.7328 160.163 44.7665C159.864 44.8002 159.606 44.817 159.365 44.817C159.257 44.817 159.157 44.8086 159.058 44.8002C158.958 44.7917 158.858 44.7833 158.75 44.7833C158.642 44.7833 158.584 44.8423 158.584 44.9518C158.584 45.0613 158.526 45.1371 158.418 45.1792C158.31 45.1371 158.202 45.1034 158.094 45.0781C157.986 45.0529 157.878 45.0444 157.77 45.0444C157.62 45.0444 157.47 45.0529 157.329 45.0781C157.188 45.1034 157.055 45.1118 156.922 45.1118C156.747 45.1118 156.623 45.0866 156.548 45.0444C156.473 45.0023 156.407 44.9518 156.357 44.8928C156.299 44.8423 156.249 44.7749 156.191 44.7159C156.132 44.6485 156.058 44.598 155.95 44.5475C155.8 44.4801 155.675 44.4716 155.576 44.5138C155.476 44.5559 155.335 44.4885 155.135 44.32C154.878 44.101 154.653 43.8315 154.47 43.5114C154.287 43.1913 154.105 42.8627 153.938 42.509C153.764 42.1552 153.581 41.8098 153.39 41.456C153.199 41.1022 152.966 40.799 152.709 40.5378H152.451C152.06 40.5378 151.794 40.7063 151.636 41.0348C151.528 40.9674 151.42 40.8832 151.312 40.7905C151.204 40.6895 151.088 40.6136 150.955 40.5463C150.456 40.6979 149.941 40.8327 149.393 40.9422C148.853 41.0517 148.312 41.1106 147.772 41.1106H147.315C147.182 41.1106 147.041 41.0854 146.891 41.0432C146.675 41.1275 146.476 41.237 146.31 41.3549C146.135 41.4729 145.944 41.5318 145.728 41.5318C145.595 41.5318 145.445 41.4897 145.271 41.397C145.138 41.397 145.08 41.456 145.096 41.5655C145.105 41.675 145.038 41.734 144.888 41.734H144.598C144.29 41.734 143.999 41.7424 143.708 41.7677C143.418 41.7929 143.118 41.8014 142.819 41.8014C142.404 41.8014 141.988 41.7508 141.556 41.6329C141.448 41.7003 141.332 41.734 141.199 41.734C141.116 41.7761 141.049 41.8519 141.008 41.9446C140.966 42.0457 140.924 42.1299 140.875 42.2057C140.833 42.2815 140.775 42.3489 140.7 42.3994C140.625 42.4584 140.526 42.4668 140.393 42.45C140.351 42.7111 140.243 42.9217 140.068 43.0733C139.894 43.225 139.811 43.4608 139.811 43.7641C139.57 43.8988 139.379 44.0589 139.229 44.2611C139.08 44.4548 138.922 44.6654 138.772 44.8844C138.622 45.1034 138.465 45.314 138.298 45.5077C138.132 45.7015 137.933 45.8615 137.7 45.971C137.592 46.1058 137.559 46.308 137.6 46.5944C137.359 46.7881 137.068 46.965 136.728 47.1167C136.379 47.2683 136.055 47.3441 135.755 47.3441C135.132 47.3441 134.692 47.0071 134.459 46.3248C134.459 46.1058 134.476 45.87 134.509 45.6173C134.542 45.3645 134.592 45.1203 134.658 44.8928C134.725 44.6654 134.825 44.4548 134.949 44.2695C135.082 44.0842 135.265 43.9494 135.498 43.8567C135.498 43.663 135.431 43.5198 135.307 43.444C135.174 43.3682 135.124 43.2334 135.14 43.0312C135.722 42.7448 136.237 42.3742 136.67 41.9109C137.102 41.4476 137.501 40.959 137.858 40.4452C138.215 39.9313 138.581 39.4091 138.947 38.8784C139.312 38.3561 139.728 37.8844 140.177 37.4632V36.7725C140.825 36.0733 141.249 35.2815 141.44 34.4055C141.681 34.3633 141.83 34.2538 141.913 34.0769C141.988 33.9 142.03 33.6895 142.03 33.4536C142.138 33.4536 142.204 33.4031 142.237 33.302C142.271 33.2009 142.362 33.1756 142.512 33.2177C142.703 32.6955 142.919 32.2069 143.16 31.7689C143.401 31.3309 143.634 30.8844 143.875 30.438C144.116 29.9915 144.323 29.5198 144.506 29.0396C144.689 28.5595 144.822 28.0204 144.913 27.4307C145.213 27.4055 145.387 27.2623 145.42 26.9843C145.454 26.7063 145.487 26.462 145.537 26.243C145.861 25.9398 146.102 25.5775 146.268 25.1564C146.434 24.7436 146.575 24.3056 146.708 23.8591C146.841 23.4127 146.983 22.9578 147.149 22.5114C147.315 22.0649 147.539 21.6606 147.847 21.3068V21.2057C147.847 21.0962 147.805 21.0288 147.714 20.9951C147.631 20.9614 147.581 20.894 147.581 20.7845C147.606 20.7593 147.614 20.7424 147.614 20.7171C147.872 20.6076 148.071 20.4307 148.196 20.178C148.329 19.9253 148.52 19.7484 148.778 19.6389C149.235 20.0096 149.634 20.237 149.983 20.3128C150.332 20.3886 150.781 20.4476 151.346 20.4897C151.628 20.8014 151.786 21.1636 151.819 21.5932C151.853 22.0228 151.919 22.444 152.027 22.8567C152.202 23.5559 152.393 24.2466 152.592 24.9121C152.8 25.5775 152.958 26.2683 153.066 26.9674C153.132 27.3886 153.249 27.7761 153.423 28.1552C153.598 28.5258 153.714 28.9133 153.781 29.3092C153.822 29.6209 153.822 29.9662 153.781 30.3453C153.739 30.7328 153.781 31.0613 153.914 31.3477L154.138 31.87C154.246 32.1142 154.337 32.367 154.412 32.6281C154.487 32.8892 154.562 33.1503 154.62 33.4199C154.794 34.0769 154.952 34.7845 155.094 35.5426C155.235 36.3008 155.459 36.9831 155.758 37.598C155.866 37.817 156.033 37.9686 156.265 38.0613C156.49 38.1455 156.747 38.2129 157.03 38.2382C157.312 38.2719 157.587 38.2803 157.861 38.2719C158.135 38.2635 158.368 38.255 158.559 38.255H158.883C159.016 38.255 159.141 38.2803 159.274 38.3224C159.357 38.4993 159.407 38.651 159.407 38.7857C159.407 39.0469 159.324 39.2574 159.149 39.4091C158.975 39.5607 158.891 39.7376 158.891 39.9313C158.891 40.0408 158.933 40.1588 159.024 40.2935C158.941 40.2683 158.808 40.2599 158.634 40.2599C158.135 40.2599 157.645 40.3441 157.171 40.521C157.346 40.8916 157.578 41.2033 157.869 41.456C158.16 41.7087 158.468 41.9446 158.792 42.1636C159.008 41.9867 159.232 41.9025 159.473 41.9025C159.731 41.9025 159.98 41.9614 160.204 42.0793C160.429 42.1973 160.678 42.2562 160.936 42.2562C161.127 42.2562 161.268 42.2226 161.36 42.1552C161.534 42.3489 161.675 42.5595 161.783 42.7617C161.858 43.0059 161.999 43.1913 162.166 43.3682ZM152.01 38.1034C151.969 37.7328 151.894 37.4632 151.803 37.2948C151.711 37.1263 151.628 36.9241 151.562 36.6883C151.479 36.385 151.412 36.0565 151.387 35.7027C151.354 35.3489 151.304 35.012 151.238 34.6834C151.088 33.9422 150.922 33.1925 150.731 32.4428C150.548 31.7015 150.315 30.9771 150.033 30.2695C150.116 30.1347 150.166 30.0168 150.166 29.9073V29.8062C149.974 29.5872 149.833 29.3176 149.742 28.9975C149.659 28.6774 149.576 28.3658 149.501 28.0457C149.426 27.7256 149.326 27.4307 149.21 27.1612C149.094 26.8832 148.902 26.6642 148.645 26.4873C148.578 26.6221 148.545 26.7737 148.545 26.9506C148.545 27.1022 148.562 27.2454 148.595 27.3802C148.628 27.515 148.645 27.6582 148.645 27.8098C148.429 27.9193 148.271 28.0878 148.171 28.3236C148.071 28.5595 147.913 28.7364 147.697 28.8627C147.523 29.5619 147.274 30.2274 146.949 30.8507C146.625 31.4741 146.285 32.0974 145.927 32.7123C145.57 33.3272 145.229 33.9422 144.905 34.5739C144.581 35.2057 144.323 35.8543 144.124 36.5282C143.841 36.7219 143.65 36.9747 143.559 37.2863C143.459 37.598 143.409 37.9012 143.409 38.2045C143.6 38.314 143.825 38.373 144.074 38.3814C144.323 38.3898 144.564 38.3982 144.805 38.3982C145.046 38.3982 145.271 38.4235 145.487 38.4656C145.703 38.5077 145.894 38.6173 146.069 38.7941C146.351 38.7099 146.659 38.6425 146.991 38.6173C147.323 38.5836 147.606 38.4909 147.822 38.3393C148.254 38.4909 148.72 38.5667 149.218 38.5667C149.476 38.5667 149.733 38.5414 149.983 38.4993C150.232 38.4572 150.473 38.3982 150.714 38.3309C150.905 38.373 151.063 38.4488 151.171 38.5414C151.279 38.6425 151.445 38.6762 151.661 38.6594C151.769 38.5751 151.836 38.4825 151.853 38.3814C151.869 38.2887 151.919 38.1961 152.01 38.1034Z" fill="#0A0B0D" stroke="#0A0B0D" stroke-width="2"/>
<path d="M184.097 24.1541C184.056 24.4152 183.998 24.6426 183.923 24.828C183.848 25.0133 183.831 25.2576 183.873 25.5692C183.657 25.5945 183.491 25.6619 183.366 25.7798C183.25 25.8978 183.15 26.041 183.075 26.1926C183 26.3442 182.926 26.5043 182.851 26.6727C182.776 26.8412 182.685 26.9844 182.577 27.1192C182.751 27.911 182.851 28.7112 182.867 29.5199C182.892 30.3286 182.942 31.1288 183.034 31.9206C183.142 32.9315 183.308 33.9254 183.541 34.9026C183.765 35.8797 183.881 36.8737 183.881 37.8845C183.881 38.1962 183.873 38.4742 183.865 38.7437C183.856 39.0049 183.848 39.2828 183.848 39.5692C183.848 39.7461 183.856 39.923 183.865 40.1084C183.873 40.2937 183.881 40.479 183.881 40.6475C183.881 41.2877 183.798 41.9194 183.64 42.5596C183.474 43.1998 183.349 43.8316 183.266 44.4718C183.009 44.7161 182.784 44.9772 182.601 45.2636C182.419 45.55 182.228 45.8111 182.036 46.0554C181.845 46.2997 181.613 46.5103 181.355 46.6956C181.097 46.8809 180.773 47.0073 180.383 47.0747C180.316 47.2937 180.191 47.4621 180.009 47.5716C179.826 47.6812 179.668 47.8328 179.535 48.035H179.468C178.928 48.035 178.463 47.9591 178.072 47.8075C177.682 47.6559 177.316 47.479 176.984 47.2853C176.651 47.0915 176.311 46.8809 175.961 46.6619C175.612 46.4429 175.214 46.266 174.756 46.1396C174.15 45.6342 173.601 45.0783 173.103 44.4802C172.604 43.8737 172.039 43.3346 171.416 42.8544C171.266 42.4164 171.067 42.0542 170.817 41.7678C170.568 41.4814 170.327 41.1529 170.086 40.7822C169.978 40.6306 169.895 40.4874 169.845 40.3526C169.787 40.2179 169.72 40.0662 169.637 39.8893C169.571 39.7124 169.471 39.5945 169.33 39.5271C169.189 39.4597 169.064 39.3839 168.956 39.2997C168.781 38.6174 168.532 37.994 168.208 37.4212C167.884 36.8484 167.502 36.3009 167.069 35.7786C166.936 36.0229 166.837 36.2756 166.762 36.5536C166.687 36.8316 166.612 37.1011 166.554 37.3791C166.488 37.6571 166.405 37.9266 166.313 38.2046C166.213 38.4826 166.089 38.7269 165.939 38.9459V39.047C165.939 39.1565 165.981 39.2239 166.072 39.2407C166.155 39.266 166.205 39.325 166.205 39.4345C166.205 39.4597 166.197 39.4766 166.189 39.5019C166.18 39.5271 166.172 39.544 166.172 39.5692C166.064 39.6535 165.981 39.763 165.931 39.8978C165.873 40.0325 165.765 40.1084 165.59 40.1252C165.615 40.2347 165.623 40.3442 165.623 40.4537V40.7485C165.623 41.3887 165.557 42.0205 165.416 42.6607C165.274 43.3009 165.208 43.9411 165.208 44.5981V45.0277C165.208 45.1794 165.216 45.3226 165.241 45.4573C165.283 45.5921 165.349 45.7185 165.432 45.8532C165.515 45.988 165.565 46.1059 165.565 46.2155C165.565 46.3671 165.499 46.5103 165.374 46.6451C165.524 46.7546 165.698 46.8725 165.889 47.0073C166.08 47.142 166.263 47.2852 166.421 47.4537C166.579 47.6222 166.72 47.7907 166.828 47.976C166.936 48.1613 166.995 48.3635 166.995 48.5825C166.995 48.9531 166.878 49.2143 166.637 49.3743C166.396 49.5259 166.114 49.6523 165.773 49.7365C165.441 49.8208 165.092 49.905 164.734 49.9808C164.377 50.0566 164.078 50.1914 163.845 50.3936H163.745C163.488 50.3936 163.288 50.3177 163.164 50.1661C163.031 50.0145 162.839 49.9387 162.582 49.9387C162.175 49.2564 161.892 48.4982 161.734 47.6559C161.585 46.8135 161.51 46.0049 161.51 45.2383C161.51 44.2949 161.593 43.3514 161.751 42.408C161.917 41.4646 162.108 40.5295 162.332 39.6114C162.557 38.6932 162.806 37.775 163.08 36.8653C163.355 35.9555 163.604 35.0374 163.845 34.1192L163.878 34.0181C163.878 33.9086 163.853 33.8328 163.795 33.7907C163.737 33.7485 163.712 33.6812 163.712 33.5969C163.712 33.5548 163.72 33.5295 163.745 33.5295C163.812 33.3105 163.878 33.0999 163.953 32.9062C164.028 32.7124 164.086 32.4934 164.128 32.2491C164.26 31.6342 164.352 31.0025 164.402 30.3538C164.452 29.7052 164.485 29.065 164.501 28.4248C164.51 27.7931 164.535 27.1445 164.568 26.4958C164.601 25.8472 164.668 25.207 164.776 24.5668C164.95 24.3899 165.108 24.2046 165.266 24.0109C165.416 23.8171 165.615 23.6402 165.848 23.4886C166.28 23.5139 166.712 23.5729 167.144 23.6824C167.576 23.7919 167.992 23.9688 168.374 24.2046C168.632 25.1481 168.815 26.0915 168.906 27.0349C169.006 27.9784 169.172 28.9218 169.413 29.8653V29.9664C169.413 30.0759 169.471 30.1264 169.587 30.118C169.704 30.1096 169.795 30.1433 169.862 30.2359C169.82 30.3033 169.795 30.3791 169.779 30.4633C169.77 30.5476 169.762 30.6402 169.762 30.7245V31.2804C169.804 31.4573 169.862 31.6427 169.928 31.8364C169.995 32.0301 170.136 32.1565 170.352 32.1986C170.46 32.8978 170.626 33.5464 170.842 34.136C171.058 34.7257 171.308 35.2985 171.59 35.846C171.873 36.3936 172.172 36.9411 172.496 37.4718C172.82 38.0109 173.153 38.5753 173.502 39.1649C174.042 39.5861 174.507 40.0578 174.898 40.5969C175.288 41.136 175.679 41.6499 176.086 42.1469C176.485 42.6439 176.942 43.0735 177.449 43.4441C177.956 43.8147 178.621 44.0506 179.444 44.1348C179.552 44.0506 179.626 43.9242 179.668 43.7726L179.834 43.3093C179.901 43.1577 179.967 43.0229 180.042 42.8966C180.117 42.7786 180.233 42.686 180.383 42.6186C180.424 42.0037 180.474 41.3803 180.532 40.7401C180.582 40.1084 180.723 39.5019 180.939 38.9291C180.831 38.7353 180.773 38.491 180.773 38.2046C180.773 37.9856 180.79 37.775 180.823 37.5813C180.856 37.3875 180.873 37.1854 180.873 36.9916C180.873 36.5789 180.79 36.2335 180.615 35.9724C180.615 35.8208 180.624 35.6607 180.649 35.4922C180.673 35.3238 180.732 35.1721 180.84 35.0121C180.665 34.5741 180.532 34.1108 180.432 33.6306C180.333 33.1505 180.283 32.6535 180.283 32.1481C180.283 31.8617 180.316 31.5668 180.383 31.2636C180.25 30.9351 180.167 30.5476 180.125 30.1096L179.992 28.7618C179.95 28.2985 179.884 27.8773 179.801 27.4814C179.718 27.0855 179.552 26.7654 179.311 26.5295C179.444 26.3358 179.502 26.0999 179.502 25.8388C179.502 25.4008 179.435 24.9796 179.311 24.5921C179.186 24.2046 179.119 23.7834 179.119 23.3454C179.119 23.0422 179.186 22.7305 179.311 22.4272C179.784 22.4525 180.258 22.4946 180.723 22.5789C181.189 22.6547 181.646 22.6968 182.103 22.6968C182.236 22.8737 182.385 23.0169 182.56 23.1264C182.734 23.2359 182.917 23.337 183.108 23.4381C183.3 23.5392 183.491 23.6402 183.674 23.7497C183.848 23.8003 183.989 23.9519 184.097 24.1541Z" fill="#0A0B0D" stroke="#0A0B0D" stroke-width="2"/>
<path d="M222 27.5738C221.934 27.7676 221.809 27.9108 221.626 27.9866C221.443 28.0624 221.252 28.1214 221.061 28.1635C220.87 28.2056 220.687 28.2814 220.529 28.3741C220.371 28.4667 220.263 28.6352 220.222 28.8542L220.155 28.8879C220.072 28.8879 220.006 28.8626 219.981 28.8037C219.948 28.7531 219.923 28.6942 219.898 28.6352C219.873 28.5847 219.848 28.5257 219.815 28.4667C219.781 28.4162 219.732 28.3825 219.665 28.3825C219.424 28.3825 219.191 28.4078 218.967 28.4499C218.743 28.492 218.518 28.5173 218.302 28.5173C217.978 28.5173 217.687 28.4752 217.43 28.3825C217.28 28.4246 217.197 28.5257 217.189 28.6773C217.18 28.829 217.105 28.93 216.981 28.9722C216.873 29.0143 216.74 29.0311 216.59 29.0227C216.441 29.0143 216.283 29.0311 216.133 29.0732L215.094 29.3344C214.745 29.4186 214.405 29.4691 214.056 29.4691C213.864 29.4691 213.723 29.4607 213.632 29.4354C213.308 29.6966 212.942 29.8903 212.526 30.0083C212.111 30.1262 211.687 30.2357 211.247 30.3368C210.806 30.4379 210.374 30.5642 209.95 30.7158C209.526 30.8675 209.152 31.1117 208.828 31.4403C208.654 31.3981 208.504 31.3729 208.371 31.3729C208.089 31.3729 207.839 31.4318 207.623 31.5498C207.407 31.6677 207.183 31.7856 206.942 31.8951C206.834 31.9373 206.726 31.9625 206.618 31.9625C206.51 31.9625 206.393 31.9878 206.26 32.0299C206.127 32.072 206.053 32.1478 206.019 32.2405C205.986 32.3332 205.92 32.4342 205.812 32.5185C205.812 33.3103 205.887 34.0937 206.036 34.8687C206.186 35.6436 206.26 36.4354 206.26 37.2188V37.3536C206.302 37.7243 206.427 38.0696 206.618 38.3897C206.809 38.7098 206.909 39.0299 206.909 39.3584C206.909 39.4679 206.884 39.5859 206.842 39.7206C207.407 39.8554 207.781 40.1418 207.964 40.5967C208.147 41.0431 208.297 41.5317 208.421 42.0456C208.538 42.5594 208.704 43.0395 208.911 43.4776C209.119 43.9156 209.526 44.1936 210.125 44.3031C210.166 44.5221 210.2 44.7495 210.225 44.977C210.249 45.2044 210.258 45.4318 210.258 45.6509C210.258 45.9541 210.225 46.2573 210.158 46.5522C210.092 46.847 209.967 47.1166 209.767 47.3608C209.443 47.3861 209.202 47.3945 209.053 47.3945C208.903 47.3945 208.67 47.4619 208.371 47.5883C207.939 47.3271 207.557 47.0239 207.216 46.687C206.884 46.35 206.568 45.9878 206.277 45.6003C205.986 45.2128 205.695 44.8253 205.413 44.4126C205.13 44.0082 204.831 43.6208 204.507 43.2417C203.385 43.5281 202.23 43.7218 201.05 43.8145C199.87 43.9156 198.698 43.9661 197.526 43.9661C197.485 44.0083 197.418 44.0335 197.335 44.0335C197.252 44.0335 197.169 44.0419 197.094 44.0504C197.019 44.0588 196.953 44.0841 196.903 44.1178C196.845 44.1515 196.837 44.2104 196.853 44.2947C196.704 44.2104 196.537 44.143 196.346 44.1178C196.163 44.0841 195.997 44.0672 195.839 44.0672C195.731 44.0672 195.623 44.0756 195.515 44.0841C195.407 44.0925 195.299 44.1346 195.191 44.202C194.368 44.0504 193.571 43.8314 192.806 43.5618C192.041 43.2838 191.252 43.0648 190.454 42.8879C190.454 42.711 190.413 42.5847 190.321 42.5089C190.238 42.433 190.155 42.3151 190.097 42.1635C189.191 41.5907 188.426 40.8999 187.811 40.0913C187.197 39.2826 186.939 38.2971 187.047 37.1262L186.823 36.6629C186.823 36.3091 186.897 36.0564 187.047 35.9048C186.964 35.7531 186.806 35.6015 186.59 35.4415C186.781 35.1382 186.956 34.8181 187.105 34.4896C187.255 34.1611 187.363 33.8073 187.429 33.4367C187.454 33.3271 187.462 33.2261 187.462 33.1418C187.462 33.0576 187.487 32.9565 187.529 32.847C187.57 32.7122 187.629 32.569 187.703 32.4005C187.778 32.2321 187.853 32.0889 187.911 31.9541C188.26 31.2128 188.643 30.4884 189.066 29.7977C189.49 29.1069 190.022 28.5089 190.67 28.0034C190.712 27.6328 190.82 27.3211 190.994 27.0684C191.169 26.8157 191.36 26.5883 191.559 26.3777C191.767 26.1671 191.967 25.9565 192.174 25.7375C192.382 25.5185 192.54 25.2573 192.648 24.9457C193.08 24.575 193.521 24.2128 193.961 23.859C194.402 23.5052 194.776 23.0925 195.083 22.6123C195.474 22.4776 195.839 22.3091 196.188 22.0985C196.537 21.8879 196.828 21.6184 197.061 21.2898C197.576 21.2477 198.091 21.1466 198.607 20.995C199.114 20.8434 199.654 20.7676 200.211 20.7676C200.452 20.7676 200.734 20.8181 201.075 20.9192C201.407 21.0203 201.665 21.1888 201.839 21.433C201.864 21.4752 201.873 21.5341 201.873 21.6015L201.906 21.77C201.931 21.8121 201.956 21.8542 201.989 21.8879C202.022 21.9216 202.08 21.93 202.163 21.9048C202.163 22.3849 202.105 22.8735 201.997 23.3705C201.889 23.8675 201.607 24.2465 201.15 24.5077C200.867 24.4234 200.568 24.3729 200.244 24.3729C199.812 24.3729 199.413 24.4571 199.055 24.6172C198.698 24.7772 198.349 24.9709 198.017 25.1731C197.684 25.3837 197.343 25.5943 196.994 25.7965C196.645 26.007 196.28 26.1502 195.889 26.2429C195.848 26.4198 195.806 26.5799 195.773 26.7231C195.74 26.8663 195.748 27.0263 195.789 27.2032C195.681 27.2032 195.598 27.1864 195.548 27.1527C195.49 27.119 195.415 27.1021 195.307 27.1021C195.158 27.1021 195.05 27.1864 195 27.3632C194.942 27.5401 194.9 27.6833 194.85 27.7928C194.435 27.9697 194.094 28.214 193.828 28.5341C193.554 28.8542 193.313 29.1912 193.08 29.5534C192.848 29.9156 192.607 30.261 192.349 30.5895C192.091 30.918 191.767 31.1707 191.377 31.3476C191.202 32.0468 191.036 32.7375 190.87 33.4198C190.703 34.1021 190.521 34.7844 190.305 35.4583C190.371 35.7194 190.404 35.9974 190.404 36.2838C190.404 36.6376 190.371 36.9493 190.305 37.2357C190.413 37.4126 190.521 37.6232 190.629 37.859L191.019 38.6172C191.152 38.8783 191.285 39.1226 191.426 39.3416C191.568 39.5606 191.701 39.7291 191.834 39.8386C192.075 40.0155 192.44 40.1755 192.939 40.3187C193.438 40.4619 193.878 40.6978 194.269 41.0263C194.31 41.0263 194.368 41.0179 194.435 41.0095C194.501 41.001 194.551 40.9926 194.601 40.9926C194.859 40.9926 195.141 41.06 195.449 41.1863C195.748 41.3211 195.947 41.3801 196.03 41.3801C197.244 41.3801 198.565 41.2959 199.994 41.1358C201.424 40.9758 202.745 40.7652 203.958 40.5293C204 40.3103 204.025 40.125 204.025 39.9734C204.025 39.687 203.983 39.409 203.892 39.131C203.809 38.853 203.668 38.6172 203.468 38.4234C203.468 38.0949 203.476 37.7664 203.485 37.4379C203.493 37.1093 203.501 36.7808 203.501 36.4523C203.501 35.9048 203.476 35.3235 203.435 34.7086C203.393 34.0937 203.285 33.5209 203.111 32.9986H203.044C202.762 32.9986 202.512 33.066 202.28 33.2092C202.055 33.3524 201.823 33.4198 201.582 33.4198C201.449 33.4198 201.341 33.3861 201.258 33.3187C201 33.6304 200.684 33.8578 200.319 34.0095C199.953 34.1611 199.562 34.3043 199.147 34.4222C198.731 34.5401 198.332 34.6665 197.933 34.8013C197.535 34.936 197.169 35.1214 196.845 35.3572C196.67 35.2898 196.512 35.2561 196.355 35.2561C196.205 35.2561 196.055 35.2646 195.914 35.2898C195.773 35.3151 195.615 35.332 195.44 35.3572C194.983 34.9613 194.759 34.4728 194.759 33.8747C194.759 33.5714 194.809 33.2682 194.909 32.9734C195.008 32.6785 195.141 32.4005 195.316 32.131C195.424 32.0636 195.557 32.0299 195.706 32.0131C195.856 32.0046 196.005 31.9794 196.163 31.9457C196.313 31.912 196.438 31.8614 196.537 31.7941C196.637 31.7267 196.695 31.6087 196.712 31.4318C196.778 31.4992 196.828 31.5329 196.878 31.5329C196.92 31.5329 196.961 31.5245 197.011 31.4992C197.053 31.474 197.094 31.4655 197.144 31.4655C197.186 31.4655 197.227 31.4908 197.26 31.5329C197.294 31.575 197.31 31.6172 197.31 31.6677C198.241 31.1623 199.197 30.7327 200.169 30.3873C201.141 30.0335 202.13 29.7218 203.136 29.4354C204.141 29.149 205.155 28.8795 206.169 28.6268C207.183 28.3741 208.188 28.0961 209.186 27.7844C209.335 27.6496 209.502 27.557 209.676 27.4896C209.851 27.4222 210 27.3211 210.133 27.1948C210.283 27.279 210.466 27.3296 210.682 27.3296C210.981 27.3296 211.313 27.2706 211.671 27.1527C212.028 27.0347 212.327 26.8831 212.56 26.7062C212.643 26.7315 212.726 26.7399 212.784 26.7399H213.008C213.441 26.7399 213.848 26.6725 214.222 26.5462C214.604 26.4114 214.97 26.2429 215.344 26.0239H215.51C216.183 26.0239 216.848 25.9481 217.504 25.7965C218.161 25.6448 218.842 25.569 219.532 25.569C220.421 25.569 221.194 25.7965 221.867 26.2598V26.6557C221.867 26.8326 221.876 26.9926 221.884 27.1358C221.901 27.2706 221.942 27.4222 222 27.5738Z" fill="#0A0B0D" stroke="#0A0B0D" stroke-width="2"/>
<path d="M151.039 54.1675C151.039 54.4623 150.989 54.7403 150.881 55.0098C150.773 55.2794 150.657 55.5405 150.515 55.7932L150.108 56.5598C149.975 56.8125 149.867 57.082 149.784 57.36L149.668 57.3263C149.393 57.3263 149.136 57.36 148.878 57.4274C148.621 57.4948 148.371 57.5706 148.122 57.6464C147.873 57.7222 147.615 57.8065 147.349 57.8823C147.083 57.9581 146.817 58.0002 146.551 58.0002C146.51 57.7222 146.427 57.4779 146.302 57.2589C146.177 57.0399 145.945 56.9304 145.62 56.9304C145.562 56.7704 145.529 56.6019 145.521 56.425C145.512 56.2481 145.504 56.0712 145.504 55.9112C145.504 55.7511 145.488 55.5742 145.463 55.4057C145.429 55.2373 145.379 55.0772 145.305 54.9172C145.654 54.6392 145.945 54.3107 146.177 53.9232C146.41 53.5357 146.676 53.1903 146.967 52.8702C147.199 52.9292 147.44 52.9629 147.698 52.9629C147.989 52.9629 148.28 52.9292 148.571 52.8618C148.862 52.7944 149.152 52.7607 149.443 52.7607C149.751 52.7607 150.05 52.8366 150.316 52.9966C150.374 53.0977 150.416 53.2072 150.432 53.3251C150.449 53.4431 150.482 53.5526 150.532 53.6621C150.582 53.7716 150.64 53.8642 150.706 53.94C150.773 54.0159 150.889 54.058 151.039 54.058V54.1675Z" fill="#0A0B0D" stroke="#0A0B0D" stroke-width="2" stroke-miterlimit="10"/>
<path d="M158.608 2C158.367 2.80866 158.159 3.38147 158.001 3.71841C157.843 4.05536 157.652 4.31649 157.486 4.52708C157.312 4.73767 157.162 4.86402 157.037 4.92298C156.913 4.98195 156.755 5.13357 156.564 5.37786C155.874 6.62455 155.159 7.787 154.187 8.79783C153.954 9.03369 153.713 9.26955 153.456 9.49699L152.982 9.90975C152.791 10.0782 152.625 10.2383 152.467 10.3983C152.151 10.71 151.902 10.9795 151.677 11.1817C151.436 11.4007 151.303 11.5187 151.037 11.6787C150.397 12.0746 150.023 12.2515 149.575 12.302C149.101 12.361 148.403 12.2936 147.746 12.1504C147.165 12.0241 146.575 11.8472 145.993 11.6366C145.669 11.5187 145.511 11.4428 145.27 11.3249C145.045 11.2154 144.829 11.0722 144.613 10.929C143.367 10.4489 142.228 9.716 141.173 8.97473C140.109 8.23345 138.879 7.1805 137.616 5.7148C137.757 6.1444 137.824 6.45608 137.807 6.66667C137.799 6.87726 137.741 7.02046 137.633 7.10469C137.525 7.18893 137.433 7.29001 137.35 7.41637C137.267 7.54272 137.284 7.77858 137.383 8.12395C138.538 9.64019 139.353 10.651 139.727 11.3165C140.117 11.9904 140.367 12.4874 140.4 12.8159C141.032 13.3971 141.73 13.9278 142.494 14.3911C142.876 14.6185 143.284 14.8291 143.708 15.006C143.924 15.0987 144.14 15.1829 144.364 15.2503L144.946 15.4272C146.483 15.8484 148.029 16.219 149.907 16.0253C150.879 15.9158 151.843 15.4946 152.508 15.0818L153.023 14.7617C153.223 14.6354 153.414 14.4922 153.589 14.3574C153.938 14.071 154.245 13.7762 154.503 13.5066C154.735 13.2623 154.976 13.018 155.217 12.7738C155.334 12.6558 155.417 12.58 155.558 12.4621L156.015 12.0578C156.613 11.5018 157.195 10.87 157.71 10.1877C157.86 9.99398 158.01 9.80024 158.151 9.6065C158.251 9.07581 158.409 8.40193 158.591 7.60168C158.774 6.79302 158.899 6.0012 158.99 5.20939C159.098 4.42599 159.065 3.69314 159.048 3.06137C159.015 2.4296 158.891 2.08424 158.666 2.01685L158.608 2Z" fill="#0A0B0D" stroke="#0A0B0D" stroke-width="2" stroke-miterlimit="10"/>
</svg>
