<svg width="362" height="58" viewBox="0 0 362 58" fill="none" xmlns="http://www.w3.org/2000/svg">
<path d="M29.9477 12.8812C29.8136 13.0991 29.7215 13.3254 29.6712 13.5684C29.6126 13.8114 29.579 14.046 29.5539 14.289H29.3277C29.1518 14.289 29.001 14.2639 28.8669 14.2052C28.7329 14.1549 28.5821 14.1046 28.4062 14.0544C28.49 14.8839 28.5486 15.7219 28.5737 16.5766C28.5989 17.4313 28.6072 18.2692 28.6072 19.0988C28.6072 20.1462 28.5989 21.1853 28.5737 22.2244C28.5486 23.2634 28.5402 24.3025 28.5402 25.3499C28.5402 25.8527 28.5151 26.3471 28.4564 26.8414C28.3978 27.3358 28.2638 27.8051 28.0459 28.266C28.0878 28.6346 28.1213 28.995 28.1465 29.3301C28.1716 29.6653 28.18 30.0256 28.18 30.3943C28.18 31.4166 28.1213 32.4389 28.0041 33.4528C27.8868 34.4668 27.736 35.4807 27.56 36.4778C27.493 36.8717 27.4344 37.2655 27.3841 37.6761C27.3255 38.0783 27.2501 38.4638 27.1412 38.8408C27.0993 38.9498 27.0406 39.0587 26.9652 39.1676C26.8898 39.2766 26.8312 39.3855 26.7893 39.4944C26.5296 40.0642 26.2364 40.6257 25.918 41.1787C25.5997 41.7318 25.2227 42.2429 24.7871 42.7038C24.4603 42.7289 24.142 42.8127 23.8404 42.9635C23.5304 43.1144 23.254 43.1898 22.9859 43.1898C22.7429 43.1898 22.5502 43.0725 22.3994 42.8295L22.0727 42.9635C21.9638 43.0054 21.8465 43.039 21.7125 43.0641C20.9669 42.7624 20.2632 42.3854 19.6013 41.9496C18.9395 41.5139 18.3866 40.9441 17.9509 40.2486H17.8169C17.6242 40.2486 17.4818 40.2067 17.3896 40.1145C17.2807 40.0056 17.1634 39.8715 17.0462 39.7039C16.9289 39.5363 16.82 39.3939 16.7362 39.2598C16.4765 38.8492 16.1916 38.4302 15.8817 38.0197C15.5717 37.6091 15.2198 37.2571 14.801 36.9722C14.625 36.3186 14.3653 35.7572 14.0135 35.2879C13.6616 34.8187 13.3014 34.3075 12.9328 33.7629C12.6479 32.6736 12.1285 31.6596 11.3578 30.7211C11.4667 30.6122 11.5253 30.5368 11.5253 30.4949C11.5253 30.386 11.4834 30.2938 11.408 30.2184C11.3326 30.143 11.2908 30.0592 11.2908 29.9754C11.2908 29.8916 11.3159 29.8245 11.3578 29.7826C11.0729 29.481 10.8384 29.1374 10.6541 28.752C10.4697 28.3665 10.2938 27.981 10.1346 27.5872C9.97547 27.1934 9.79954 26.7995 9.61523 26.4057C9.43093 26.0119 9.20473 25.6516 8.94503 25.3248C8.70208 25.4756 8.55966 25.6599 8.50101 25.8778C8.44237 26.0957 8.41724 26.3219 8.41724 26.5649C8.41724 26.7409 8.42562 26.9169 8.43399 27.0844C8.44237 27.2604 8.45075 27.4364 8.45075 27.604C8.45075 28.0397 8.40048 28.4671 8.29995 28.8777C8.19942 29.2966 8.1324 29.7156 8.09051 30.1513C8.06538 30.4614 8.06538 30.7966 8.07376 31.1652C8.08213 31.5339 8.07376 31.911 8.04025 32.2797C8.00674 32.6484 7.94809 33.0087 7.86432 33.3607C7.78054 33.7126 7.62137 34.0059 7.40355 34.2405C7.26951 35.4807 7.11033 36.7292 6.90927 37.9694C6.70821 39.2095 6.5239 40.4748 6.35635 41.715C6.31446 41.9329 6.27257 42.2094 6.22231 42.5362C6.18042 42.863 6.13015 43.1982 6.07151 43.5333C6.01287 43.8685 5.97098 44.1953 5.93747 44.5137C5.90396 44.8322 5.8872 45.0835 5.8872 45.2847C5.8872 45.5025 5.93747 45.712 6.05476 45.9215C6.16367 46.131 6.22231 46.3321 6.22231 46.5248C6.22231 46.6756 6.17204 46.7678 6.07151 46.8013C5.97098 46.8349 5.91234 46.9187 5.89558 47.0443C6.04638 47.522 6.12178 48.0666 6.12178 48.6783C6.12178 48.8543 6.1134 49.0303 6.08827 49.2146C6.06313 49.399 6.02962 49.5833 5.98774 49.7509C5.94585 49.8598 5.87045 49.9604 5.76154 50.061C5.65263 50.1615 5.59399 50.2537 5.59399 50.3375C5.59399 50.4213 5.63588 50.4883 5.72803 50.5302C5.60237 50.6894 5.43481 50.7732 5.24213 50.8151C5.04944 50.857 4.90703 50.9827 4.81487 51.1754C4.59705 50.9995 4.37924 50.8402 4.16142 50.6978C3.9436 50.5553 3.73416 50.3961 3.54148 50.2202L3.44095 50.1866C3.29015 50.1866 3.16449 50.2369 3.06395 50.3375C2.96342 50.438 2.83776 50.4883 2.68696 50.4883C2.64507 50.4883 2.60319 50.4799 2.56968 50.4715C2.53617 50.4632 2.50266 50.4548 2.45239 50.4548L2.25971 49.6001C2.19268 49.3236 2.10891 49.0638 2 48.8208C2.17593 48.3599 2.28484 47.8404 2.34348 47.2622C2.39375 46.684 2.46077 46.0975 2.51941 45.5109C2.57805 44.9243 2.68696 44.3629 2.81263 43.8266C2.94667 43.2903 3.18124 42.8295 3.5331 42.4356C3.5331 42.2597 3.47446 42.1424 3.35717 42.0753C3.23988 42.0083 3.18124 41.8658 3.18124 41.648C3.18124 41.6061 3.198 41.5307 3.23151 41.4217C3.26502 41.3128 3.29853 41.1955 3.33204 41.0614C3.36555 40.9273 3.39906 40.8016 3.43257 40.6843C3.46608 40.567 3.49121 40.4748 3.51634 40.4078C3.69227 39.5531 3.82632 38.6816 3.92685 37.7934C4.02738 36.8968 4.29546 36.0672 4.7311 35.3047C4.70596 35.2209 4.69759 35.0868 4.69759 34.9109C4.69759 34.5422 4.7311 34.1819 4.81487 33.8299C4.89027 33.478 4.93216 33.1177 4.93216 32.749C4.93216 32.4473 4.89865 32.1624 4.83163 31.8943C4.89865 31.6513 4.9908 31.4166 5.10809 31.1904C5.22537 30.9641 5.28402 30.7295 5.28402 30.4865C5.28402 30.2686 5.20862 30.1178 5.05782 30.0256C5.16673 29.9418 5.23375 29.8413 5.26726 29.7324C5.30077 29.6234 5.31753 29.5145 5.33428 29.4056C5.34266 29.2966 5.36779 29.1961 5.4013 29.0955C5.43481 28.995 5.51859 28.9196 5.64425 28.8525C5.61912 28.6346 5.60237 28.4252 5.59399 28.2324C5.58561 28.0397 5.57723 27.8302 5.57723 27.6124C5.57723 26.8079 5.61912 26.0035 5.71127 25.2074C5.79505 24.4114 5.84532 23.5986 5.84532 22.769C5.84532 21.9646 5.7783 21.1769 5.65263 20.4144L6.01287 19.6938C5.79505 19.5178 5.65263 19.2329 5.58561 18.839C5.51859 18.4452 5.4767 18.0179 5.45157 17.5654C5.42644 17.1045 5.39293 16.652 5.33428 16.2079C5.27564 15.7638 5.15835 15.3951 4.95729 15.1102V14.8169C4.95729 14.465 4.93216 14.1298 4.89027 13.803C4.84838 13.4762 4.82325 13.1494 4.82325 12.8226V12.5293C4.93216 12.4874 5.01593 12.412 5.0662 12.3031C5.11647 12.1941 5.15835 12.0852 5.18349 11.9763H5.31753C5.57723 11.9763 5.83694 11.9511 6.10502 11.9092C6.36473 11.8673 6.62443 11.8422 6.89252 11.8422H7.31977C7.57948 12.0349 7.81405 12.2695 8.00674 12.5293C8.19942 12.7891 8.44237 13.0321 8.72721 13.2499V13.8365C8.91989 14.0963 9.07907 14.3812 9.18798 14.6912C9.29689 15.0013 9.41417 15.3113 9.53146 15.6381C9.64874 15.9649 9.77441 16.2833 9.90845 16.585C10.0425 16.895 10.2268 17.1548 10.4614 17.3726C10.4027 17.5821 10.3776 17.7581 10.3776 17.8922C10.3776 18.1771 10.4027 18.462 10.4614 18.7469C10.5116 19.0318 10.5535 19.2999 10.5787 19.5681C10.6624 19.677 10.7462 19.8111 10.8049 19.9787C10.8635 20.1462 10.9808 20.2468 11.1316 20.2887C11.2405 21.1434 11.4667 21.9478 11.8018 22.7104C12.1369 23.4729 12.3882 24.2689 12.539 25.0985C12.7149 25.2745 12.8406 25.484 12.9328 25.7354C13.0165 25.9867 13.1087 26.2297 13.2092 26.4727C13.3098 26.7157 13.4187 26.9336 13.5359 27.1431C13.6532 27.3526 13.8375 27.495 14.0721 27.5872C14.2062 28.1067 14.3653 28.6346 14.5664 29.1626C14.7675 29.6905 15.069 30.1346 15.4796 30.5033C15.4796 30.939 15.5466 31.3161 15.689 31.6345C15.8314 31.9529 15.9906 32.2462 16.1833 32.5143C16.3676 32.7909 16.5351 33.0506 16.6943 33.3188C16.8451 33.5785 16.9456 33.8634 16.9875 34.1735C17.2891 34.6343 17.6493 35.0533 18.0515 35.4472C18.4536 35.841 18.8725 36.2181 19.2914 36.5784C19.7102 36.9387 20.1375 37.3074 20.548 37.6761C20.9585 38.0448 21.3439 38.4386 21.6957 38.8576C21.9387 38.8827 22.1397 38.9246 22.2989 39.0084C22.4665 39.0838 22.6508 39.1425 22.8686 39.1844C23.0194 39.0755 23.1451 38.9414 23.2456 38.7738C23.3461 38.6062 23.4383 38.4386 23.522 38.2627C23.6058 38.0867 23.698 37.9191 23.7985 37.7515C23.899 37.5839 24.0247 37.4415 24.1755 37.3074C24.1755 37.2655 24.1671 37.2236 24.1587 37.1901C24.1504 37.1566 24.142 37.123 24.142 37.0728C24.142 36.8298 24.1755 36.6454 24.2593 36.503C24.3347 36.3605 24.4268 36.2013 24.5357 36.0253V35.1706C24.7117 34.8438 24.8289 34.4919 24.896 34.1232C24.963 33.7545 24.9965 33.3858 24.9965 33.0087C24.9965 32.7071 24.9881 32.3887 24.963 32.0786C24.9379 31.7602 24.9295 31.4418 24.9295 31.115C24.9295 30.9222 24.9379 30.7211 24.963 30.5117C24.9881 30.3022 25.03 30.1178 25.097 29.9418C25.1389 29.8999 25.2143 29.8245 25.3232 29.7324C25.4321 29.6318 25.4908 29.5732 25.4908 29.5564C25.4908 29.4475 25.4573 29.3385 25.3902 29.2296C25.3232 29.1207 25.2897 29.0117 25.2897 28.9028C25.2897 28.752 25.3567 28.6263 25.4824 28.5425V28.3497C25.4824 28.2408 25.4656 28.1403 25.4321 28.0397C25.3986 27.9392 25.3316 27.8721 25.2227 27.8302C25.3316 27.6961 25.407 27.5453 25.4489 27.3526C25.4908 27.1682 25.5159 26.9671 25.5327 26.766C25.541 26.5565 25.541 26.3554 25.5327 26.1627C25.5243 25.97 25.5159 25.7772 25.5159 25.6097C25.5159 25.4169 25.5243 25.2074 25.5494 24.9896C25.5746 24.7717 25.6583 24.5874 25.8091 24.4365C25.7421 24.1768 25.7002 23.917 25.6751 23.6656C25.65 23.4142 25.6416 23.1545 25.6416 22.8947C25.6416 22.4338 25.6667 21.9813 25.7086 21.5205C25.7505 21.0596 25.7756 20.5904 25.7756 20.1127C25.7756 19.9368 25.7672 19.7608 25.7421 19.5764C25.717 19.3921 25.7086 19.2077 25.7086 19.0402C25.7086 18.8642 25.7421 18.7804 25.8259 18.7972C25.9013 18.8055 25.9432 18.7636 25.9432 18.6463C25.9432 18.4955 25.9264 18.3447 25.8929 18.1854C25.8594 18.0346 25.8343 17.8838 25.8091 17.7246C25.7672 17.3559 25.7337 16.9788 25.7086 16.5934C25.6835 16.2079 25.6751 15.8224 25.6751 15.4286C25.6751 15.1856 25.6835 14.9426 25.6918 14.6912C25.7002 14.4398 25.7421 14.1968 25.8091 13.9538C25.6751 13.7611 25.5997 13.5684 25.5662 13.384C25.5327 13.1997 25.5075 13.0321 25.4824 12.8729L25.4154 12.3785C25.3902 12.2025 25.3316 12.0265 25.2227 11.8589C25.1976 11.8338 25.1892 11.7752 25.1892 11.6662C25.1892 11.4903 25.2311 11.3646 25.3232 11.2724C25.2143 10.9037 25.0635 10.5434 24.8792 10.1914C24.6949 9.8395 24.5776 9.46242 24.5357 9.04345C24.2928 8.90938 24.1169 8.69989 23.9996 8.40661C23.8823 8.11333 23.8236 7.84518 23.8236 7.60218C23.8236 7.31728 23.899 7.04075 24.0498 6.76423C24.2006 6.48771 24.4436 6.35364 24.7703 6.35364C24.9043 6.35364 25.03 6.39554 25.1473 6.47095C25.2646 6.54637 25.3902 6.63854 25.5075 6.73071C25.6248 6.83127 25.7505 6.91506 25.8678 6.99048C25.9851 7.06589 26.1107 7.10779 26.2448 7.10779C26.3285 7.10779 26.4626 7.08265 26.6385 7.04075C26.8815 7.36755 27.1244 7.66921 27.3757 7.93736C27.6271 8.21388 27.8868 8.4904 28.1465 8.7753C28.1465 9.144 28.2135 9.48756 28.3392 9.78922C28.4732 10.0993 28.6156 10.3842 28.7664 10.6607C28.9172 10.9372 29.0513 11.197 29.1769 11.4651C29.2942 11.7249 29.3445 12.0098 29.3277 12.3198C29.3696 12.4707 29.4618 12.5796 29.5874 12.6466C29.7131 12.7137 29.8388 12.7723 29.9477 12.8812Z" fill="white" stroke="white" stroke-width="2"/>
<path d="M67.6291 25.0575C67.5621 25.2502 67.4365 25.3927 67.2521 25.4681C67.0678 25.5435 66.8752 25.6022 66.6825 25.644C66.4898 25.6859 66.3055 25.7614 66.1463 25.8535C65.9871 25.9457 65.8782 26.1133 65.8363 26.3312L65.7693 26.3647C65.6855 26.3647 65.6185 26.3395 65.5934 26.2809C65.5599 26.2306 65.5347 26.172 65.5096 26.1133C65.4845 26.063 65.4593 26.0044 65.4258 25.9457C65.3923 25.8954 65.3421 25.8619 65.275 25.8619C65.0321 25.8619 64.7975 25.8871 64.5713 25.929C64.3451 25.9708 64.1189 25.996 63.9011 25.996C63.5744 25.996 63.2812 25.9541 63.0215 25.8619C62.8707 25.9038 62.7869 26.0044 62.7785 26.1552C62.7701 26.306 62.6947 26.4066 62.5691 26.4485C62.4602 26.4904 62.3261 26.5071 62.1753 26.4988C62.0245 26.4904 61.8654 26.5071 61.7146 26.549L60.6674 26.8088C60.3155 26.8926 59.972 26.9429 59.6202 26.9429C59.4275 26.9429 59.2851 26.9345 59.1929 26.9093C58.8662 27.1691 58.4976 27.3618 58.0787 27.4792C57.6598 27.5965 57.2325 27.7054 56.7885 27.806C56.3445 27.9065 55.9089 28.0322 55.4816 28.183C55.0544 28.3339 54.6774 28.5769 54.3507 28.9037C54.1747 28.8618 54.0239 28.8366 53.8899 28.8366C53.605 28.8366 53.3537 28.8953 53.1359 29.0126C52.9181 29.1299 52.6919 29.2472 52.4489 29.3562C52.34 29.3981 52.2311 29.4232 52.1222 29.4232C52.0133 29.4232 51.896 29.4483 51.762 29.4902C51.6279 29.5321 51.5525 29.6075 51.519 29.6997C51.4855 29.7919 51.4185 29.8924 51.3096 29.9762C51.3096 30.7639 51.385 31.5432 51.5358 32.3141C51.6866 33.085 51.762 33.8727 51.762 34.652V34.7861C51.8039 35.1547 51.9295 35.4983 52.1222 35.8167C52.3149 36.1351 52.4154 36.4536 52.4154 36.7804C52.4154 36.8893 52.3903 37.0066 52.3484 37.1407C52.9181 37.2748 53.2951 37.5597 53.4794 38.0121C53.6637 38.4563 53.8145 38.9423 53.9401 39.4534C54.0574 39.9646 54.225 40.4422 54.4344 40.8779C54.6439 41.3137 55.0544 41.5902 55.6576 41.6991C55.6994 41.917 55.733 42.1432 55.7581 42.3695C55.7832 42.5957 55.7916 42.822 55.7916 43.0398C55.7916 43.3415 55.7581 43.6432 55.6911 43.9364C55.624 44.2297 55.4984 44.4979 55.2973 44.7409C54.9706 44.766 54.7276 44.7744 54.5768 44.7744C54.426 44.7744 54.1915 44.8414 53.8899 44.9671C53.4542 44.7073 53.0689 44.4057 52.7254 44.0705C52.3903 43.7353 52.0719 43.375 51.7787 42.9896C51.4855 42.6041 51.1923 42.2186 50.9075 41.808C50.6226 41.4058 50.321 41.0204 49.9943 40.6433C48.8633 40.9282 47.6988 41.1209 46.5092 41.2131C45.3196 41.3137 44.1384 41.3639 42.9571 41.3639C42.9152 41.4058 42.8482 41.431 42.7644 41.431C42.6807 41.431 42.5969 41.4394 42.5215 41.4477C42.4461 41.4561 42.3791 41.4812 42.3288 41.5148C42.2702 41.5483 42.2618 41.6069 42.2785 41.6907C42.1277 41.6069 41.9602 41.5399 41.7675 41.5148C41.5832 41.4812 41.4156 41.4645 41.2565 41.4645C41.1476 41.4645 41.0387 41.4729 40.9297 41.4812C40.8208 41.4896 40.7119 41.5315 40.603 41.5986C39.7736 41.4477 38.9694 41.2299 38.1986 40.9617C37.4279 40.6852 36.632 40.4673 35.8278 40.2914C35.8278 40.1154 35.7859 39.9897 35.6937 39.9143C35.61 39.8389 35.5262 39.7216 35.4676 39.5707C34.5544 39.0009 33.7837 38.3138 33.1637 37.5094C32.5438 36.705 32.2841 35.7246 32.393 34.5598L32.1584 34.1241C32.1584 33.7721 32.2338 33.5208 32.3846 33.3699C32.3008 33.2191 32.1416 33.0683 31.9238 32.9091C32.1165 32.6074 32.2924 32.289 32.4432 31.9622C32.594 31.6354 32.7029 31.2834 32.77 30.9147C32.7951 30.8058 32.8035 30.7052 32.8035 30.6215C32.8035 30.5377 32.8286 30.4371 32.8705 30.3282C32.9124 30.1941 32.971 30.0517 33.0464 29.8841C33.1218 29.7165 33.1972 29.574 33.2559 29.4399C33.6077 28.7026 33.9931 27.9819 34.4204 27.2948C34.8476 26.6077 35.3838 26.0127 36.0372 25.51C36.0791 25.1413 36.188 24.8312 36.364 24.5799C36.5399 24.3285 36.7326 24.1022 36.9336 23.8927C37.1431 23.6833 37.3441 23.4738 37.5536 23.2559C37.763 23.038 37.9222 22.7783 38.0311 22.4682C38.4667 22.0995 38.9107 21.7392 39.3548 21.3873C39.7988 21.0353 40.1758 20.6247 40.4857 20.1471C40.8795 20.013 41.2481 19.8455 41.6 19.636C41.9518 19.4265 42.245 19.1583 42.4796 18.8315C42.999 18.7896 43.5184 18.6891 44.0378 18.5383C44.5489 18.3874 45.0934 18.312 45.6547 18.312C45.8977 18.312 46.1825 18.3623 46.526 18.4628C46.8611 18.5634 47.1208 18.731 47.2967 18.974C47.3218 19.0159 47.3302 19.0745 47.3302 19.1416L47.3637 19.3092C47.3889 19.3511 47.414 19.393 47.4475 19.4265C47.481 19.46 47.5397 19.4684 47.6234 19.4432C47.6234 19.9209 47.5648 20.4069 47.4559 20.9013C47.347 21.3957 47.0621 21.7727 46.6014 22.0325C46.3165 21.9487 46.0149 21.8984 45.6882 21.8984C45.2526 21.8984 44.8505 21.9822 44.4902 22.1414C44.13 22.3006 43.7781 22.4934 43.443 22.6945C43.1079 22.904 42.7644 23.1134 42.4126 23.3146C42.0607 23.524 41.6921 23.6665 41.2984 23.7587C41.2565 23.9346 41.2146 24.0938 41.1811 24.2363C41.1476 24.3787 41.1559 24.538 41.1978 24.7139C41.0889 24.7139 41.0051 24.6972 40.9549 24.6637C40.8962 24.6301 40.8208 24.6134 40.7119 24.6134C40.5611 24.6134 40.4522 24.6972 40.402 24.8731C40.3433 25.0491 40.3014 25.1916 40.2512 25.3005C39.8323 25.4765 39.4888 25.7195 39.2207 26.0379C38.9443 26.3563 38.7013 26.6915 38.4667 27.0518C38.2322 27.4121 37.9892 27.7557 37.7295 28.0825C37.4698 28.4093 37.1431 28.6607 36.7493 28.8366C36.5734 29.5321 36.4058 30.2192 36.2383 30.898C36.0707 31.5767 35.8864 32.2555 35.6686 32.9258C35.7356 33.1856 35.7691 33.4621 35.7691 33.747C35.7691 34.0989 35.7356 34.409 35.6686 34.6939C35.7775 34.8698 35.8864 35.0793 35.9953 35.314L36.3891 36.0681C36.5231 36.3279 36.6572 36.5709 36.7996 36.7887C36.942 37.0066 37.076 37.1742 37.2101 37.2831C37.453 37.4591 37.8217 37.6183 38.3243 37.7608C38.827 37.9032 39.271 38.1378 39.6647 38.4646C39.7066 38.4646 39.7653 38.4563 39.8323 38.4479C39.8993 38.4395 39.9496 38.4311 39.9998 38.4311C40.2595 38.4311 40.5444 38.4982 40.8543 38.6238C41.1559 38.7579 41.357 38.8166 41.4408 38.8166C42.6639 38.8166 43.9959 38.7328 45.4369 38.5736C46.8778 38.4144 48.2099 38.2049 49.433 37.9702C49.4749 37.7524 49.5 37.568 49.5 37.4172C49.5 37.1323 49.4581 36.8558 49.366 36.5793C49.2822 36.3027 49.1398 36.0681 48.9387 35.8754C48.9387 35.5486 48.9471 35.2218 48.9555 34.895C48.9639 34.5682 48.9722 34.2414 48.9722 33.9146C48.9722 33.3699 48.9471 32.7917 48.9052 32.18C48.8633 31.5683 48.7544 30.9985 48.5785 30.479H48.5115C48.2266 30.479 47.9753 30.546 47.7407 30.6885C47.5145 30.8309 47.28 30.898 47.037 30.898C46.903 30.898 46.7941 30.8645 46.7103 30.7974C46.4506 31.1075 46.1322 31.3337 45.7636 31.4845C45.395 31.6354 45.0013 31.7778 44.5824 31.8951C44.1635 32.0124 43.7614 32.1381 43.3592 32.2722C42.9571 32.4063 42.5885 32.5906 42.2618 32.8253C42.0859 32.7582 41.9267 32.7247 41.7675 32.7247C41.6167 32.7247 41.4659 32.7331 41.3235 32.7582C41.1811 32.7834 41.0219 32.8001 40.846 32.8253C40.3852 32.4314 40.159 31.9454 40.159 31.3505C40.159 31.0488 40.2093 30.7471 40.3098 30.4539C40.4103 30.1606 40.5444 29.8841 40.7203 29.6159C40.8292 29.5489 40.9633 29.5154 41.114 29.4986C41.2648 29.4902 41.4156 29.4651 41.5748 29.4316C41.7256 29.3981 41.8513 29.3478 41.9518 29.2807C42.0523 29.2137 42.111 29.0964 42.1277 28.9204C42.1948 28.9875 42.245 29.021 42.2953 29.021C42.3372 29.021 42.3791 29.0126 42.4293 28.9875C42.4712 28.9623 42.5131 28.9539 42.5634 28.9539C42.6053 28.9539 42.6472 28.9791 42.6807 29.021C42.7142 29.0629 42.7309 29.1048 42.7309 29.155C43.6692 28.6523 44.6326 28.2249 45.6128 27.8814C46.593 27.5294 47.5899 27.2194 48.6036 26.9345C49.6173 26.6496 50.6394 26.3814 51.6614 26.1301C52.6835 25.8787 53.6972 25.6022 54.7025 25.2921C54.8533 25.158 55.0209 25.0659 55.1968 24.9988C55.3727 24.9318 55.5235 24.8312 55.6576 24.7055C55.8084 24.7893 55.9927 24.8396 56.2105 24.8396C56.5121 24.8396 56.8472 24.781 57.2074 24.6637C57.5676 24.5463 57.8692 24.3955 58.1038 24.2195C58.1876 24.2447 58.2714 24.2531 58.33 24.2531H58.5562C58.9918 24.2531 59.4023 24.186 59.7793 24.0603C60.1647 23.9263 60.5333 23.7587 60.9103 23.5408H61.0779C61.7564 23.5408 62.4267 23.4654 63.0885 23.3146C63.7503 23.1637 64.4373 23.0883 65.1326 23.0883C66.029 23.0883 66.8081 23.3146 67.4867 23.7754V24.1693C67.4867 24.3452 67.4951 24.5044 67.5035 24.6469C67.5286 24.7558 67.5705 24.9067 67.6291 25.0575Z" fill="white" stroke="white" stroke-width="2"/>
<path d="M79.4347 27.8729C79.3509 28.0908 79.2588 28.3003 79.175 28.493C79.0912 28.6857 79.0242 28.912 78.9823 29.1466C78.8315 29.2555 78.664 29.3393 78.4713 29.3896C78.287 29.4483 78.0943 29.4986 77.9016 29.5572C77.7089 29.6159 77.5246 29.6745 77.3655 29.7499C77.1979 29.8254 77.0722 29.9427 76.9885 30.0935C76.9214 30.4203 76.8879 30.7303 76.8879 31.0069C76.8879 31.3756 76.955 31.694 77.0806 31.9537C77.0136 32.1465 76.9717 32.356 76.9466 32.5738C76.9214 32.7917 76.9131 33.0012 76.9131 33.1939C76.9131 33.9145 76.9968 34.6268 77.1728 35.339C77.3487 36.0513 77.4492 36.7636 77.466 37.4842C77.466 37.5931 77.4576 37.7104 77.4325 37.8445C77.4073 37.9786 77.399 38.0959 77.399 38.2048C77.399 38.6657 77.5749 38.9674 77.9184 39.1182C77.8514 39.2271 77.8178 39.3277 77.8178 39.4115C77.8178 39.5874 77.843 39.7383 77.8849 39.8723C77.9268 40.0064 77.9351 40.1489 77.9184 40.2997C78.0273 40.5176 78.1362 40.7103 78.2451 40.8695C78.354 41.0371 78.4294 41.2382 78.4713 41.4728C78.3205 41.7829 78.1362 42.0594 77.9184 42.3108C77.7006 42.5621 77.5498 42.8722 77.4576 43.2409C77.3738 43.2157 77.2733 43.2074 77.1644 43.2074C77.0136 43.2074 76.8879 43.2409 76.8042 43.3079C76.7204 43.375 76.645 43.4587 76.5947 43.5509C76.5361 43.6515 76.4774 43.7437 76.4188 43.8442C76.3601 43.9448 76.268 44.0118 76.1591 44.0537H76.0586C75.9496 44.0788 75.8575 44.0705 75.7821 44.0369C75.7067 44.0034 75.6313 43.9867 75.5726 43.9867C75.5308 43.9867 75.4386 44.0118 75.3129 44.0537C75.137 43.8358 75.0197 43.5761 74.9527 43.2828C74.8857 42.9895 74.8522 42.6962 74.8522 42.4113C74.8522 42.1097 74.8941 41.8331 74.9862 41.5901C74.7433 41.3974 74.6008 41.0957 74.5422 40.7103C74.4836 40.3164 74.4249 39.9896 74.3663 39.7299C74.1903 38.9255 73.9893 38.1378 73.7631 37.3753C73.5369 36.6127 73.3945 35.8251 73.3526 35.0206C73.3275 34.719 73.3191 34.4173 73.3191 34.1408V32.4397C73.3191 32.1548 73.3275 31.8867 73.3526 31.6186C73.3526 31.4258 73.3693 31.2331 73.4029 31.0488C73.4364 30.8644 73.4531 30.6717 73.4531 30.4789C73.4531 30.2192 73.3693 29.9678 73.1934 29.7248C71.6436 29.7918 70.1775 30.0684 68.7952 30.5627C67.4129 31.0571 66.0306 31.6353 64.6566 32.3141C64.5729 32.8168 64.5142 33.3112 64.4891 33.7888C64.464 34.2665 64.4556 34.7609 64.4556 35.2636V36.7049C64.4556 37.2496 64.4807 37.7104 64.5226 38.0791C64.6315 38.716 64.9499 39.1936 65.486 39.5372C66.0222 39.8723 66.5584 40.1321 67.1029 40.3081C67.0778 40.6349 67.0191 40.9114 66.9102 41.146C66.8013 41.3723 66.6673 41.5817 66.4997 41.7661C66.3322 41.9504 66.1562 42.1348 65.9635 42.3024C65.7709 42.4784 65.5698 42.6711 65.3771 42.8889C65.2012 42.78 65.0253 42.7046 64.8577 42.6627C64.6818 42.6208 64.4975 42.5957 64.3048 42.5789C64.1121 42.5705 63.911 42.5538 63.7184 42.5286C63.5257 42.5035 63.3246 42.4616 63.1319 42.3946L62.4114 41.4142C62.1685 41.0874 61.9088 40.7606 61.624 40.4338V40.1405C61.624 39.5539 61.515 38.9841 61.2972 38.4394C61.0794 37.8948 60.9119 37.3417 60.803 36.7719C60.87 36.5792 60.9119 36.3781 60.937 36.1854C60.9621 35.9926 60.9705 35.7832 60.9705 35.5653C60.9705 35.1296 60.9537 34.7022 60.9202 34.2916C60.8867 33.881 60.8951 33.462 60.937 33.0514H60.7694C60.5768 33.0514 60.3673 33.1017 60.1495 33.2023C59.9317 33.3028 59.7222 33.4118 59.5128 33.5291C59.3034 33.6464 59.1107 33.7553 58.9264 33.8559C58.7421 33.9564 58.5829 34.0067 58.4488 34.0067C58.3818 34.0067 58.3148 33.9983 58.2562 33.9732C58.1891 33.948 58.1137 33.9397 58.03 33.9397C57.9211 33.9397 57.787 33.9816 57.6362 34.0737C57.4854 34.1575 57.3179 34.2497 57.1252 34.3503C56.9409 34.4508 56.7482 34.543 56.5555 34.6268C56.3628 34.7106 56.1618 34.7609 55.9691 34.7609C55.6675 34.7609 55.3575 34.6268 55.0559 34.367C55.014 34.1911 54.9973 34.0318 55.0057 33.8726C55.014 33.7218 55.0224 33.5542 55.0224 33.3782C55.0224 33.2023 54.9889 33.0179 54.9219 32.8252C55.0727 32.5403 55.2737 32.3141 55.5251 32.1548C55.7764 31.9873 56.0361 31.8364 56.3126 31.694C56.589 31.5515 56.8655 31.4091 57.1503 31.2666C57.4352 31.1242 57.6697 30.9314 57.8708 30.6968H58.0635C58.3734 30.6968 58.6499 30.6298 58.9012 30.5041C59.1526 30.37 59.4374 30.3197 59.7725 30.3365C59.8814 30.2946 59.9568 30.127 59.9987 29.8421L60.1327 29.8756C60.6103 29.8756 61.0375 29.708 61.4061 29.3812C61.6491 28.0321 61.8418 26.6663 61.9926 25.2921C62.1434 23.9178 62.2188 22.5436 62.2188 21.1694C62.2188 21.0353 62.1769 20.9096 62.0847 20.7755C62.0428 20.5996 62.0177 20.4403 62.0177 20.2811V19.7867C62.0177 19.5437 62.0261 19.2924 62.0512 19.0326C62.0763 18.7728 62.1266 18.5131 62.2188 18.2449C62.4366 18.1109 62.6628 18.0522 62.9057 18.0522C63.1906 18.0522 63.467 18.0941 63.7435 18.1695C64.0199 18.2449 64.2797 18.3036 64.5477 18.3455C64.7404 18.5382 64.8912 18.7644 64.9917 18.9991C65.0923 19.2421 65.1509 19.4851 65.1677 19.7365C65.1928 19.9879 65.1928 20.2392 65.1844 20.4906C65.1761 20.742 65.1677 20.985 65.1677 21.228C65.1677 21.7056 65.2179 22.1749 65.3352 22.6358C65.4441 23.0966 65.5028 23.5407 65.5028 23.9765C65.5028 24.0854 65.4609 24.1692 65.3855 24.2195C65.3101 24.2781 65.2682 24.4206 65.2682 24.6636C65.2682 24.9066 65.2933 25.158 65.3352 25.4177C65.3771 25.6775 65.4022 25.9373 65.4022 26.2054C65.4022 26.5155 65.3604 26.8255 65.2682 27.1523C65.1844 27.4791 65.1007 27.7975 65.042 28.0992C66.3489 27.9902 67.6893 27.8227 69.0633 27.6048C70.4372 27.3869 71.7441 27.035 72.9923 26.5574C73.0175 26.5155 73.0259 26.4484 73.0259 26.3646C73.0259 26.2306 73.0175 26.1049 72.9923 25.9708C72.9672 25.8367 72.9588 25.6943 72.9588 25.5434C72.9588 25.2837 73.0426 25.0742 73.2185 24.9234C73.1096 24.3117 73.0342 23.7 72.9923 23.0883C72.9505 22.4766 72.9253 21.8649 72.9253 21.2532V19.3845C72.9253 18.7728 72.917 18.1611 72.8918 17.5494C73.0678 17.4405 73.2521 17.3818 73.4447 17.3818C73.6877 17.3818 73.9055 17.4405 74.115 17.5578C74.3244 17.6751 74.5673 17.7338 74.8522 17.7338C75.0449 17.7338 75.2124 17.7003 75.3465 17.6332C75.5894 17.8511 75.7486 18.136 75.8407 18.4879C75.9245 18.8399 76.0083 19.2002 76.0669 19.5689C76.134 19.9376 76.201 20.3063 76.2764 20.6666C76.3518 21.0269 76.5109 21.3202 76.7539 21.5381L76.7874 21.6386C76.7874 21.7224 76.7455 21.7894 76.6534 21.8313C76.5696 21.8732 76.5193 21.9654 76.5193 22.0911V22.2252C76.6031 22.5771 76.6701 22.9374 76.712 23.3061C76.7539 23.6748 76.7958 24.0519 76.8293 24.4374C76.8628 24.8228 76.9131 25.1915 76.9801 25.5518C77.0471 25.9121 77.1644 26.2473 77.3403 26.549C77.4492 26.5238 77.5917 26.5155 77.7676 26.5155C78.2032 26.5155 78.5467 26.6663 78.798 26.9596C79.0158 27.2696 79.242 27.5713 79.4347 27.8729Z" fill="white" stroke="white" stroke-width="2"/>
<path d="M106.26 15.3365V15.6633C106.084 15.6633 105.958 15.722 105.883 15.8309C105.807 15.9398 105.749 16.0655 105.715 16.208C105.681 16.3504 105.665 16.5012 105.665 16.6688C105.665 16.8364 105.656 16.9705 105.631 17.0794C105.455 17.2303 105.246 17.3476 105.011 17.423C104.768 17.4984 104.551 17.6241 104.358 17.8001C103.813 17.6492 103.227 17.4397 102.607 17.18C101.987 16.9202 101.392 16.8113 100.822 16.8532C100.63 16.7024 100.412 16.5599 100.186 16.4258C99.9596 16.2918 99.725 16.1661 99.4821 16.032C99.2391 15.8979 99.0129 15.7639 98.7951 15.6214C98.5773 15.479 98.393 15.303 98.2422 15.0851C97.7228 14.9343 97.2452 14.7332 96.8347 14.4818C96.4159 14.2304 96.0305 13.9539 95.6703 13.6438C95.31 13.3422 94.9582 13.007 94.6231 12.6467C94.2879 12.2864 93.9277 11.9177 93.5591 11.549C93.4251 11.549 93.3162 11.5238 93.2324 11.4652C93.1486 11.4149 93.0146 11.4065 92.8386 11.4484C92.7549 11.3144 92.6711 11.1887 92.5957 11.0546C92.5203 10.9205 92.4449 10.7781 92.3862 10.6272C92.3443 10.6524 92.2857 10.6608 92.2187 10.6608C92.0846 10.6608 91.959 10.6272 91.8249 10.5602C91.6909 10.4932 91.5736 10.4596 91.4647 10.4596L91.3307 10.4932C91.1966 10.6272 91.0877 10.7697 91.0039 10.9373C90.9202 11.1049 90.828 11.2725 90.7442 11.4484C90.5683 11.5574 90.3756 11.5909 90.1578 11.549C89.4122 12.7724 88.5325 13.845 87.5105 14.7751C86.4884 15.7052 85.4496 16.6353 84.4024 17.5738C84.3605 17.7246 84.3186 17.8922 84.2851 18.0682C84.2516 18.2442 84.1846 18.3866 84.0757 18.4956C84.0086 18.4956 83.9416 18.5039 83.883 18.5123C83.816 18.5207 83.7657 18.5291 83.7154 18.5291C83.1709 18.5291 82.685 18.3782 82.2577 18.0682C81.8305 17.7665 81.5289 17.356 81.3613 16.8532C81.4283 16.6353 81.4954 16.4007 81.554 16.1493C81.621 15.8979 81.7048 15.6549 81.8137 15.4287C81.9226 15.2024 82.0567 15.0013 82.2242 14.8421C82.3918 14.6829 82.6096 14.5656 82.8944 14.4986C83.3301 14.0209 83.7992 13.5684 84.3019 13.1578C84.8045 12.7472 85.2988 12.3199 85.7931 11.9009C86.2873 11.4819 86.7481 11.0211 87.1838 10.5434C87.6194 10.0658 87.988 9.50439 88.298 8.87593C88.5996 8.74186 88.8509 8.55751 89.0352 8.32288C89.2195 8.07988 89.3871 7.82011 89.5295 7.53521C89.6719 7.25031 89.8311 6.98217 90.007 6.71402C90.1829 6.45426 90.4008 6.23639 90.6605 6.06042C90.8364 6.08556 91.0039 6.10232 91.1715 6.12746C91.339 6.1526 91.5066 6.16098 91.6825 6.16098C91.9003 6.16098 92.1098 6.12746 92.3025 6.06042C92.3444 6.16936 92.4197 6.25315 92.5287 6.32019C92.6376 6.38722 92.713 6.49616 92.7549 6.64699C93.1486 6.71402 93.4837 6.82296 93.7685 6.99055C94.0534 7.15814 94.3215 7.34248 94.5728 7.56035C94.8241 7.77822 95.0671 7.9877 95.31 8.19719C95.553 8.40668 95.8294 8.58265 96.1645 8.73348C96.2064 8.88431 96.2734 9.02676 96.3572 9.14407C96.441 9.26138 96.4996 9.41221 96.5248 9.58818C96.5499 9.56304 96.5918 9.55466 96.6588 9.55466C96.7929 9.55466 96.8934 9.59656 96.9688 9.68874C97.0442 9.77253 97.1615 9.82281 97.3123 9.82281C97.3123 10.0155 97.3793 10.158 97.5049 10.2502C97.639 10.334 97.7311 10.468 97.7982 10.644C98.3176 10.9959 98.837 11.3479 99.3396 11.7082C99.8423 12.0685 100.378 12.3869 100.94 12.6718C101.132 12.7808 101.334 12.8646 101.526 12.9148C101.719 12.9735 101.928 13.0321 102.146 13.0908C102.297 13.1578 102.431 13.2668 102.54 13.4344C102.649 13.6019 102.783 13.7276 102.934 13.8114C103.26 13.8114 103.562 13.7612 103.847 13.6606C104.132 13.5601 104.425 13.493 104.726 13.4511C104.969 14.0209 105.405 14.2891 106.033 14.2723C106.075 14.4483 106.125 14.6242 106.184 14.7918C106.226 14.951 106.26 15.1438 106.26 15.3365ZM103.084 22.3417V22.4758C102.934 22.5177 102.858 22.6266 102.858 22.8026C102.615 22.9115 102.364 22.9953 102.104 23.0456C101.845 23.1043 101.593 23.1797 101.35 23.2886C101.107 23.2635 100.864 23.2551 100.613 23.2383C100.362 23.23 100.119 23.2216 99.8758 23.2216C99.2224 23.2216 98.5689 23.2467 97.9154 23.2886C97.262 23.3305 96.6085 23.3305 95.9551 23.2886C95.6451 23.4646 95.3184 23.5987 94.9582 23.6992C94.5979 23.7998 94.2544 23.85 93.9277 23.85C93.668 23.85 93.4334 23.8165 93.2408 23.7495C92.7213 24.0093 92.1433 24.2271 91.5233 24.4031C90.9034 24.5791 90.2751 24.7466 89.6384 24.9142C89.0017 25.0818 88.3985 25.2662 87.8205 25.4673C87.2424 25.6768 86.7314 25.9617 86.2957 26.3387C86.2538 26.6488 86.2203 26.9421 86.1952 27.2353C86.1701 27.5286 86.1617 27.8219 86.1617 28.1068C86.1617 28.4169 86.1784 28.6934 86.2119 28.9615C86.2455 29.2297 86.3125 29.481 86.4214 29.7492C86.5303 29.7911 86.656 29.8246 86.7984 29.8497C86.9408 29.8749 87.0665 29.8833 87.1754 29.8833C87.2843 29.8833 87.3932 29.8665 87.5021 29.833C87.611 29.7995 87.6864 29.7324 87.7283 29.6235C88.055 29.5816 88.3817 29.5648 88.7085 29.5732C89.0352 29.5816 89.3619 29.59 89.6887 29.59C90.0154 29.59 90.3337 29.5816 90.6521 29.5565C90.9704 29.5313 91.2804 29.481 91.582 29.3889C91.9338 29.3051 92.2773 29.2464 92.6124 29.2213C92.9475 29.1961 93.2826 29.1794 93.6094 29.1542C93.9361 29.1291 94.2712 29.0956 94.6231 29.0369C94.9749 28.9867 95.3351 28.8693 95.7038 28.6934C95.9886 28.8023 96.2734 28.861 96.575 28.861C96.8766 28.861 97.1615 28.8861 97.4463 28.928C97.5971 29.0369 97.7228 29.1542 97.8233 29.2883C97.9238 29.4224 97.9741 29.5732 97.9741 29.7492C97.9741 30.0592 97.8652 30.3609 97.6474 30.6626C97.4295 30.9726 97.2536 31.2491 97.128 31.5173H96.7677C96.2483 31.5173 95.7373 31.5843 95.243 31.7267C94.7487 31.8692 94.2628 32.0368 93.7685 32.2211C93.2743 32.4055 92.7884 32.5731 92.2941 32.7155C91.7998 32.858 91.2971 32.925 90.7694 32.925C90.6856 32.925 90.6353 32.9753 90.6186 33.0758C90.6102 33.1764 90.5767 33.2434 90.5348 33.2853C90.4259 33.2602 90.2583 33.2518 90.0405 33.2518C89.5379 33.2518 89.0603 33.3105 88.5996 33.4194C88.1388 33.5283 87.6697 33.587 87.1921 33.587C87.0581 33.587 86.9324 33.5786 86.7984 33.5702C86.6643 33.5618 86.5387 33.5451 86.4046 33.52C86.2957 33.6959 86.1533 33.8132 85.9774 33.8635C85.8014 33.9222 85.6423 34.0143 85.4831 34.14C85.4161 34.3328 85.3826 34.5758 85.3658 34.8607C85.3574 35.1456 85.3407 35.4305 85.3323 35.7321C85.3239 36.0254 85.2904 36.3019 85.2485 36.5701C85.2066 36.8298 85.1145 37.0393 84.9888 37.1902C85.014 37.2991 85.0977 37.341 85.2485 37.3075C85.3993 37.274 85.4747 37.3494 85.4747 37.517C85.4747 37.7097 85.4496 37.9192 85.4077 38.137C85.3658 38.3549 85.3407 38.5728 85.3407 38.7906C85.3407 39.2096 85.391 39.6621 85.4915 40.1481C85.592 40.6341 85.7428 41.095 85.9522 41.5056C86.1617 41.9246 86.4381 42.2681 86.79 42.5363C87.1419 42.8128 87.5775 42.9469 88.0969 42.9469C88.4488 42.9469 88.7755 42.8798 89.0771 42.7541C89.3787 42.6201 89.63 42.4022 89.8311 42.1005L89.9986 42.067C90.0824 42.067 90.1662 42.0754 90.2416 42.1005C90.317 42.1257 90.4008 42.134 90.4845 42.134C90.6186 42.134 90.7861 42.0503 90.9956 41.891C91.205 41.7234 91.4312 41.5391 91.6825 41.3212C91.9339 41.1034 92.1936 40.8939 92.4533 40.6844C92.713 40.4749 92.9643 40.3325 93.2072 40.2403C93.358 39.9386 93.5088 39.6286 93.6513 39.3269C93.7937 39.0253 94.0031 38.7823 94.288 38.6063V37.6594C94.5058 37.4164 94.7403 37.1985 94.9917 37.0058C95.243 36.8131 95.4357 36.5617 95.5613 36.2517C95.6703 36.2936 95.7708 36.3271 95.8713 36.3522C95.9719 36.3773 96.0724 36.3857 96.1813 36.3857C96.2902 36.3857 96.4075 36.3773 96.5248 36.3522C96.6421 36.3271 96.7593 36.3019 96.8682 36.2517C97.0442 36.4947 97.1782 36.7628 97.2788 37.0561C97.3793 37.3494 97.5049 37.6259 97.6557 37.894C97.4631 38.2879 97.2285 38.7571 96.9688 39.3018C96.7091 39.8465 96.4242 40.3911 96.1143 40.9358C95.8043 41.4804 95.4859 42 95.1508 42.4944C94.8157 42.9888 94.4806 43.3658 94.1539 43.6256C94.0869 43.6926 93.9445 43.768 93.7267 43.8518C93.4837 44.0278 93.2659 44.1954 93.0732 44.363C92.8805 44.5306 92.6878 44.7149 92.5203 44.9328C91.8836 45.1255 91.2804 45.3937 90.7023 45.7205C90.1243 46.0473 89.5546 46.3657 88.9849 46.6673C88.7252 46.6003 88.4404 46.5668 88.1304 46.5668C87.8707 46.5668 87.611 46.5835 87.3429 46.6171C87.0748 46.6506 86.7984 46.6673 86.4884 46.6673C86.4046 46.5584 86.279 46.4914 86.1114 46.4579C85.9439 46.4243 85.8852 46.307 85.9355 46.1143C85.1899 46.0724 84.5951 45.8713 84.1343 45.511C83.6735 45.1507 83.2882 44.7065 82.9698 44.187C82.6515 43.6675 82.4001 43.0977 82.1991 42.486C82.0064 41.8743 81.797 41.2877 81.5791 40.7179V40.6174C81.5791 40.5084 81.621 40.4414 81.7132 40.4246C81.797 40.3995 81.8472 40.3408 81.8472 40.2319C81.8472 40.19 81.8388 40.1565 81.8137 40.1314C81.7467 39.8883 81.6964 39.6872 81.6462 39.5113C81.6043 39.3353 81.5791 39.1258 81.5791 38.8912C81.5791 38.5393 81.6043 38.1957 81.6462 37.8605C81.6881 37.5253 81.7132 37.1818 81.7132 36.8298C81.7132 36.4779 81.6713 36.1762 81.5791 35.9165C81.6629 35.8075 81.7383 35.6567 81.7886 35.4724C81.8472 35.288 81.8807 35.0953 81.9059 34.9026C81.931 34.7098 81.9394 34.5087 81.9561 34.316C81.9645 34.1233 81.9896 33.9473 82.0399 33.7965C81.9561 33.5535 81.8724 33.344 81.8137 33.1596C81.7467 32.9753 81.7132 32.749 81.7132 32.4893V32.263C81.931 31.8943 82.1153 31.5089 82.2661 31.115C82.4169 30.7212 82.5845 30.319 82.7604 29.9V29.7408C82.7604 29.1123 82.7353 28.4755 82.6934 27.8387C82.6515 27.2102 82.6263 26.5734 82.6263 25.9365V25.3164C82.6263 25.0986 82.6347 24.8891 82.6599 24.6964C82.8358 24.6126 82.9614 24.4869 83.0536 24.3361C83.1374 24.1852 83.2714 24.0595 83.4473 23.9757H84.5281L84.7207 23.6489C84.7878 23.54 84.8297 23.4227 84.8548 23.2886C85.0977 23.2216 85.3323 23.1294 85.5585 23.0121C85.7847 22.8948 86.0025 22.7691 86.1952 22.635C86.4968 22.459 86.7816 22.2998 87.033 22.1574C87.2843 22.0149 87.5356 21.8976 87.7869 21.7971C88.0383 21.6965 88.3064 21.6211 88.5912 21.5541C88.876 21.487 89.2028 21.4368 89.5714 21.3865C89.7473 21.3865 89.8562 21.353 89.9149 21.2859C89.9651 21.2189 90.0489 21.1435 90.1578 21.0597C90.4175 21.1016 90.6772 21.1435 90.9453 21.177C91.2134 21.2105 91.4647 21.2273 91.7328 21.2273C92.2522 21.2273 92.7465 21.1267 93.2072 20.934C93.8607 20.934 94.5141 20.9256 95.1508 20.9005C95.7959 20.8753 96.441 20.8669 97.0944 20.8669C97.6641 20.8669 98.2254 20.8921 98.7951 20.934C99.3648 20.9759 99.9177 21.0513 100.462 21.1602C100.655 21.0932 100.873 21.0597 101.116 21.0597C101.375 21.0597 101.643 21.0848 101.92 21.1435C102.196 21.2021 102.456 21.2021 102.724 21.1602C102.749 21.4032 102.808 21.6043 102.9 21.7636C102.992 21.9228 103.084 22.1239 103.084 22.3417Z" fill="white" stroke="white" stroke-width="2"/>
<path d="M134.241 39.0344C134.241 39.4031 134.149 39.7299 133.964 39.9981C133.78 40.2746 133.705 40.6014 133.755 40.9952C133.445 41.1712 133.202 41.3974 133.001 41.6823C132.808 41.9672 132.616 42.2605 132.448 42.5622C131.007 43.5007 129.466 44.2548 127.815 44.833C126.165 45.4112 124.473 45.7045 122.73 45.7045C122.621 45.7045 122.521 45.6542 122.437 45.5537C122.353 45.4531 122.261 45.3525 122.177 45.2436C122.093 45.1347 122.001 45.0341 121.901 44.9336C121.8 44.833 121.691 44.7827 121.557 44.7827C121.406 44.7827 121.281 44.8163 121.197 44.8833C121.197 44.8414 121.205 44.7995 121.214 44.766C121.222 44.7325 121.23 44.6989 121.23 44.6487C121.23 44.3889 121.197 44.1208 121.13 43.8442C121.063 43.5677 121.029 43.308 121.029 43.0398C121.029 42.7382 121.08 42.4868 121.197 42.2857H121.591C121.808 42.2857 122.018 42.2689 122.227 42.2354C122.437 42.2019 122.655 42.1851 122.898 42.1851C123.141 42.1851 123.358 42.2521 123.551 42.3778C124.749 42.3359 125.888 42.1097 126.969 41.7075C128.05 41.3053 129.147 40.903 130.261 40.5092C130.437 40.2662 130.538 39.9981 130.571 39.7048C130.605 39.4115 130.689 39.135 130.814 38.8668C130.245 38.3892 129.675 38.0121 129.097 37.7356C128.519 37.4591 127.849 37.3669 127.086 37.4591C126.626 37.1742 126.14 37.015 125.629 36.9647C125.118 36.9228 124.598 36.8558 124.07 36.772C123.936 36.7468 123.802 36.7217 123.66 36.6882C123.518 36.6547 123.367 36.6379 123.216 36.6379C123.107 36.6379 123.006 36.663 122.906 36.7217C122.805 36.7803 122.78 36.8558 122.822 36.9647C122.713 36.7887 122.562 36.6882 122.378 36.6547C122.194 36.6211 122.035 36.5373 121.901 36.4117C121.205 36.3698 120.594 36.2441 120.066 36.0346C119.547 35.8251 118.96 35.5905 118.332 35.3307C118.156 35.2637 117.988 35.2134 117.821 35.1799C117.653 35.1464 117.502 35.0877 117.343 35.0039C116.949 34.8112 116.631 34.543 116.397 34.2162C116.162 33.8894 115.969 33.5207 115.827 33.1185C115.684 32.7163 115.584 32.2973 115.517 31.8616C115.45 31.4259 115.383 31.0237 115.324 30.6466C115.517 30.2946 115.701 29.9343 115.86 29.5656C116.028 29.1969 116.162 28.8031 116.271 28.3841C116.405 28.3171 116.531 28.2668 116.665 28.2165C116.799 28.1746 116.941 28.116 117.092 28.0489C117.067 28.007 117.058 27.9484 117.058 27.8814C117.058 27.7724 117.092 27.6635 117.176 27.5546C117.251 27.4456 117.268 27.3367 117.226 27.2278C117.703 26.792 118.173 26.3395 118.617 25.8703C119.061 25.401 119.454 24.8815 119.781 24.3117C120.108 24.2028 120.368 24.0352 120.569 23.8173C120.761 23.5994 120.962 23.3732 121.155 23.147C121.348 22.9207 121.566 22.7112 121.808 22.5269C122.051 22.3425 122.353 22.2252 122.722 22.1833C122.805 22.0325 122.931 21.9068 123.082 21.8062C123.233 21.7057 123.383 21.6135 123.543 21.5297C123.693 21.4459 123.836 21.3454 123.97 21.2364C124.104 21.1275 124.196 20.9767 124.263 20.7756C124.615 20.7756 124.933 20.7085 125.227 20.5828C125.52 20.4571 125.813 20.3063 126.098 20.1555C126.383 20.0047 126.667 19.8622 126.969 19.7281C127.271 19.5941 127.589 19.5354 127.933 19.5354C128.016 19.5354 128.108 19.5438 128.192 19.5522C128.276 19.5605 128.377 19.5773 128.485 19.6024C128.636 19.7533 128.745 19.9376 128.795 20.1387C128.846 20.3482 128.888 20.5661 128.913 20.8091C128.938 21.0521 128.946 21.2867 128.963 21.5297C128.971 21.7727 129.013 21.9906 129.08 22.1833C128.888 22.552 128.67 22.9291 128.444 23.2978C128.217 23.6665 127.916 23.9514 127.547 24.1525H127.48C127.329 24.1776 127.187 24.1441 127.053 24.0519C126.919 23.9681 126.768 23.9179 126.592 23.9179C126.483 23.9179 126.399 23.9514 126.332 24.0184L126.165 24.186C126.123 24.2279 126.064 24.2698 125.989 24.3201C125.914 24.362 125.813 24.362 125.679 24.3201C125.369 24.429 125.252 24.6134 125.319 24.8731C124.9 24.915 124.556 25.0407 124.271 25.2502C123.987 25.4597 123.727 25.6859 123.484 25.9373C123.241 26.1887 123.006 26.4149 122.764 26.6244C122.521 26.8339 122.244 26.9429 121.909 26.968C121.54 27.6216 121.088 28.1998 120.552 28.7025C120.016 29.2053 119.572 29.7751 119.228 30.4036C119.295 30.5795 119.337 30.7639 119.362 30.9566C119.387 31.1493 119.412 31.3588 119.463 31.5767C119.655 31.8365 119.89 32.0711 120.166 32.2638C120.443 32.4565 120.703 32.6576 120.971 32.8504H121.071C121.507 32.8504 121.909 32.9342 122.286 33.0934C122.655 33.261 123.048 33.3364 123.467 33.3364C123.685 33.3364 123.869 33.2945 124.02 33.2023C124.59 33.3364 125.151 33.4453 125.704 33.5291C126.257 33.6129 126.818 33.6799 127.388 33.7218C127.673 33.7637 127.958 33.7889 128.259 33.7889C128.561 33.7889 128.829 33.8224 129.097 33.8894C129.34 33.9565 129.575 34.0403 129.817 34.1324C130.06 34.233 130.295 34.3335 130.538 34.4425C131.041 34.6603 131.518 34.9033 131.962 35.1631C132.406 35.4229 132.808 35.7329 133.16 36.0932C133.512 36.4536 133.78 36.8641 133.981 37.3334C134.14 37.8864 134.241 38.4227 134.241 39.0344Z" fill="white" stroke="white" stroke-width="2"/>
<path d="M144.075 38.6741C143.966 38.8501 143.832 39.0093 143.682 39.1517C143.531 39.2942 143.388 39.445 143.254 39.5958C143.103 39.6629 142.936 39.6964 142.743 39.6964C142.559 39.6964 142.383 39.688 142.224 39.6796C142.056 39.6712 141.905 39.6712 141.763 39.6796C141.621 39.688 141.503 39.7383 141.419 39.8305C141.244 39.7886 141.109 39.7048 141.026 39.5875C140.942 39.4701 140.783 39.3947 140.565 39.378C140.481 39.3528 140.389 39.3528 140.305 39.378C139.978 39.0093 139.677 38.6154 139.409 38.1965C139.132 37.7859 138.881 37.392 138.638 37.015C138.613 36.2105 138.554 35.3893 138.445 34.5598C138.42 34.367 138.387 34.1659 138.345 33.9732C138.303 33.7805 138.269 33.5878 138.244 33.4202C138.244 33.2023 138.261 32.9928 138.294 32.7833C138.328 32.5738 138.353 32.3895 138.378 32.2135C138.462 31.5851 138.563 30.9566 138.671 30.3449C138.78 29.7332 138.881 29.1131 138.965 28.4763C139.048 27.9065 139.099 27.3115 139.099 26.6914C139.099 26.0714 138.998 25.4848 138.805 24.9401L138.772 24.7725C138.814 24.5966 138.864 24.4541 138.923 24.3284C138.973 24.2111 139.015 24.0687 139.04 23.9178C139.082 23.6748 139.032 23.5072 138.873 23.3983C138.94 23.2223 139.048 23.1134 139.199 23.0548C139.35 23.0045 139.442 22.8788 139.459 22.6777C139.484 22.5939 139.484 22.5017 139.459 22.4179C139.635 22.3509 139.811 22.2922 139.995 22.2419C140.18 22.1917 140.364 22.1833 140.531 22.2252C140.816 22.2671 141.068 22.3593 141.285 22.5017C141.503 22.6442 141.713 22.8034 141.905 22.9793C142.257 24.0268 142.4 25.1329 142.333 26.2976C142.266 27.4624 142.157 28.6355 142.006 29.817C141.855 30.9985 141.755 32.1465 141.713 33.2693C141.671 34.3922 141.847 35.4312 142.232 36.3949L142.299 36.4284C142.408 36.4535 142.492 36.4116 142.559 36.3111C142.626 36.2105 142.71 36.177 142.819 36.1938C142.902 36.2357 142.961 36.2608 142.986 36.2608C143.07 36.6965 143.212 37.1155 143.413 37.501C143.615 37.8864 143.841 38.2803 144.075 38.6741Z" fill="white" stroke="white" stroke-width="2"/>
<path d="M188.494 41.4896C188.494 41.6656 188.419 41.8081 188.268 41.917C188.117 42.0259 187.941 42.1349 187.749 42.2438L187.162 42.5371C186.97 42.6209 186.836 42.7466 186.768 42.8974C186.526 42.8304 186.291 42.7885 186.065 42.7633C185.839 42.7382 185.612 42.7298 185.395 42.7298C185.11 42.7298 184.817 42.755 184.515 42.8136C184.205 42.8723 183.97 43.0147 183.794 43.2577C183.686 43.2158 183.585 43.1907 183.501 43.1907H183.242C182.915 43.1907 182.58 43.2158 182.245 43.2745C181.909 43.3248 181.574 43.3583 181.248 43.3583C181.072 43.3583 180.904 43.3499 180.737 43.3248C180.569 43.2996 180.427 43.241 180.293 43.132C180.1 43.1991 179.89 43.2326 179.673 43.2326C179.388 43.2326 179.12 43.1907 178.852 43.0985C178.584 43.0063 178.332 42.9058 178.081 42.7885C177.83 42.6712 177.57 42.5538 177.31 42.4449C177.05 42.336 176.791 42.2522 176.523 42.1851L176.296 41.7243C175.945 41.6572 175.626 41.5567 175.333 41.4142C175.04 41.2718 174.747 41.1126 174.462 40.9366C174.177 40.7606 173.901 40.593 173.624 40.4255C173.348 40.2579 173.071 40.1489 172.786 40.0819C172.677 39.9981 172.577 39.9143 172.493 39.8389C172.409 39.7635 172.342 39.6462 172.3 39.4953C172.016 39.4283 171.756 39.3445 171.513 39.2356L170.826 38.8753C170.608 38.7412 170.365 38.6322 170.089 38.5317C169.812 38.4311 169.494 38.3725 169.125 38.3557C168.991 38.163 168.807 37.9703 168.572 37.8027C168.329 37.6267 168.095 37.5429 167.852 37.5429C167.701 37.5429 167.575 37.5764 167.492 37.6435V37.8111C167.492 38.0708 167.567 38.3306 167.718 38.5987C167.869 38.8585 168.07 39.0428 168.304 39.1518C168.279 39.1937 168.271 39.2607 168.271 39.3445C168.271 39.4786 168.296 39.6043 168.355 39.7383C168.405 39.8724 168.514 39.9562 168.665 39.9981C168.581 40.2411 168.472 40.4841 168.338 40.7355C168.204 40.9869 168.045 41.2215 167.844 41.4394C167.651 41.6572 167.433 41.8416 167.207 41.9757C166.981 42.1181 166.721 42.1851 166.436 42.1851C166.352 42.227 166.285 42.2941 166.26 42.3779C166.227 42.4617 166.201 42.5538 166.193 42.6544C166.185 42.7549 166.16 42.8471 166.126 42.9309C166.093 43.0147 166.042 43.0817 165.975 43.1236C165.892 43.1488 165.766 43.1572 165.615 43.1572C165.397 43.1572 165.213 43.1236 165.062 43.0566C164.911 42.9896 164.744 42.9058 164.568 42.7968V42.6628C164.568 42.403 164.518 42.1935 164.417 42.0427C164.317 41.8919 164.208 41.741 164.09 41.5986C163.973 41.4561 163.864 41.3137 163.764 41.1545C163.663 41.0036 163.613 40.7942 163.613 40.5344C163.546 40.5763 163.479 40.6098 163.403 40.6349C163.328 40.6601 163.278 40.702 163.253 40.769C163.211 40.5511 163.186 40.3668 163.186 40.216C163.186 39.7802 163.253 39.3613 163.395 38.9758C163.537 38.582 163.604 38.1714 163.604 37.7356V37.2413C163.604 36.7385 163.596 36.2525 163.571 35.7665C163.546 35.2888 163.537 34.8028 163.537 34.3252C163.537 33.9146 163.546 33.504 163.571 33.1018C163.596 32.6996 163.638 32.289 163.705 31.8784C163.948 30.4371 164.149 29.0042 164.308 27.5713C164.476 26.1385 164.735 24.7223 165.112 23.2978C165.087 23.1889 165.062 23.08 165.029 22.971C164.995 22.8621 164.978 22.7532 164.978 22.6442C164.978 22.5604 164.987 22.5018 165.012 22.4766C165.096 22.0409 165.297 21.6722 165.598 21.3789C165.9 21.0856 166.294 20.9348 166.78 20.9348H166.88C167.14 21.0437 167.341 21.203 167.483 21.4124C167.626 21.6219 167.852 21.7057 168.153 21.6554C168.153 21.6973 168.145 21.7392 168.137 21.7895C168.128 21.8314 168.12 21.8733 168.12 21.9236C168.12 22.1666 168.187 22.3426 168.313 22.4431C168.447 22.552 168.597 22.6694 168.773 22.8034C168.665 23.0213 168.597 23.2727 168.564 23.5576C168.53 23.8425 168.505 24.1274 168.48 24.4123C168.455 24.6972 168.422 24.9653 168.363 25.2335C168.304 25.4932 168.204 25.7111 168.053 25.8871C168.137 26.1049 168.195 26.3228 168.22 26.5407C168.246 26.7585 168.254 26.9848 168.254 27.2278C168.254 27.4708 168.246 27.7138 168.22 27.9652C168.195 28.2166 168.187 28.4763 168.187 28.7361C168.187 28.9791 168.22 29.197 168.288 29.3897C168.765 29.3897 169.041 29.1634 169.109 28.7026C169.678 28.5517 170.181 28.3339 170.633 28.0657C171.077 27.7892 171.513 27.5043 171.923 27.1943C172.334 26.8926 172.744 26.5742 173.147 26.2474C173.549 25.9206 174.001 25.6357 174.504 25.3927V25.3257C174.504 25.2167 174.537 25.1497 174.604 25.1162C174.671 25.0826 174.68 24.9905 174.638 24.8396C174.964 24.7307 175.241 24.5799 175.475 24.3955C175.702 24.2112 175.92 24.0101 176.112 23.7922L176.732 23.1051C176.95 22.8621 177.193 22.661 177.453 22.485C177.629 22.1163 177.788 21.7225 177.93 21.3035C178.073 20.8929 178.265 20.5075 178.5 20.1555C178.91 20.1555 179.371 20.189 179.857 20.2561C180.343 20.3231 180.77 20.4739 181.114 20.7169C181.072 20.8929 181.147 21.0102 181.34 21.0773C181.097 21.9906 180.737 22.8202 180.259 23.5492C179.782 24.2782 179.153 24.8983 178.391 25.4011C178.282 25.6441 178.14 25.8452 177.964 26.0211C177.788 26.1971 177.612 26.3647 177.444 26.5323C177.268 26.6999 177.092 26.8675 176.925 27.0434C176.749 27.2194 176.606 27.4289 176.498 27.6635C176.238 27.7054 176.012 27.7808 175.827 27.8898C175.643 27.9987 175.467 28.1244 175.308 28.2668C175.14 28.4093 174.973 28.5434 174.789 28.6607C174.604 28.778 174.403 28.8702 174.185 28.9372C174.009 29.1551 173.808 29.3394 173.582 29.4902C173.356 29.6411 173.121 29.7919 172.895 29.9344C172.669 30.0768 172.451 30.2276 172.258 30.3952C172.066 30.5628 171.923 30.7723 171.831 31.0321H170.977C170.734 31.451 170.424 31.7946 170.047 32.0627C169.661 32.3393 169.276 32.5907 168.882 32.8337C168.949 33.0934 169.067 33.3113 169.243 33.4705C169.418 33.6381 169.611 33.7805 169.812 33.9146C170.022 34.0487 170.223 34.1828 170.432 34.3252C170.642 34.4677 170.818 34.6352 170.968 34.8364C171.882 35.1883 172.77 35.5821 173.616 36.0346C174.47 36.4787 175.274 37.0234 176.037 37.6519C176.079 37.6267 176.137 37.6183 176.204 37.6183C176.38 37.6183 176.523 37.6686 176.632 37.7692C176.741 37.8697 176.891 37.9032 177.092 37.8865C177.176 38.1043 177.302 38.2552 177.453 38.3306C177.603 38.406 177.763 38.4647 177.93 38.5066C178.098 38.5485 178.248 38.6155 178.408 38.6993C178.558 38.7831 178.667 38.9423 178.734 39.1602C179.061 39.1853 179.363 39.244 179.631 39.3529C179.907 39.4618 180.15 39.6378 180.368 39.8724H180.762C181.457 39.8724 182.136 39.9394 182.789 40.0651C183.443 40.1908 184.113 40.2579 184.783 40.2579C185.135 40.2579 185.47 40.2327 185.797 40.1741C186.123 40.1238 186.442 40.0149 186.743 39.864C186.852 39.9311 186.97 39.9981 187.104 40.0568C187.238 40.1154 187.38 40.1573 187.531 40.1573C187.64 40.1573 187.807 40.1322 188.025 40.0903C188.05 40.3333 188.126 40.5595 188.268 40.7774C188.419 40.9869 188.494 41.2299 188.494 41.4896Z" fill="white" stroke="white" stroke-width="2"/>
<path d="M204.814 27.8729C204.73 28.0908 204.638 28.3003 204.554 28.493C204.47 28.6857 204.403 28.912 204.361 29.1466C204.21 29.2555 204.043 29.3393 203.85 29.3896C203.666 29.4483 203.473 29.4986 203.281 29.5572C203.088 29.6159 202.904 29.6745 202.744 29.7499C202.577 29.8254 202.451 29.9427 202.367 30.0935C202.3 30.4203 202.267 30.7303 202.267 31.0069C202.267 31.3756 202.334 31.694 202.46 31.9537C202.392 32.1465 202.351 32.356 202.325 32.5738C202.3 32.7917 202.292 33.0012 202.292 33.1939C202.292 33.9145 202.376 34.6268 202.552 35.339C202.728 36.0513 202.828 36.7636 202.845 37.4842C202.845 37.5931 202.837 37.7104 202.811 37.8445C202.786 37.9786 202.778 38.0959 202.778 38.2048C202.778 38.6657 202.954 38.9674 203.297 39.1182C203.23 39.2271 203.197 39.3277 203.197 39.4115C203.197 39.5874 203.222 39.7383 203.264 39.8723C203.306 40.0064 203.314 40.1489 203.297 40.2997C203.406 40.5176 203.515 40.7103 203.624 40.8695C203.733 41.0371 203.808 41.2382 203.85 41.4728C203.699 41.7829 203.515 42.0594 203.297 42.3108C203.079 42.5621 202.929 42.8722 202.837 43.2409C202.753 43.2157 202.652 43.2074 202.543 43.2074C202.392 43.2074 202.267 43.2409 202.183 43.3079C202.099 43.375 202.024 43.4587 201.974 43.5509C201.915 43.6515 201.856 43.7437 201.798 43.8442C201.739 43.9448 201.647 44.0118 201.538 44.0537H201.437C201.329 44.0788 201.236 44.0705 201.161 44.0369C201.086 44.0034 201.01 43.9867 200.952 43.9867C200.91 43.9867 200.818 44.0118 200.692 44.0537C200.516 43.8358 200.399 43.5761 200.332 43.2828C200.265 42.9895 200.231 42.6962 200.231 42.4113C200.231 42.1097 200.273 41.8331 200.365 41.5901C200.122 41.3974 199.98 41.0957 199.921 40.7103C199.862 40.3164 199.804 39.9896 199.745 39.7299C199.569 38.9255 199.368 38.1378 199.142 37.3753C198.916 36.6127 198.773 35.8251 198.731 35.0206C198.706 34.719 198.698 34.4173 198.698 34.1408V32.4397C198.698 32.1548 198.706 31.8867 198.731 31.6186C198.731 31.4258 198.748 31.2331 198.782 31.0488C198.815 30.8644 198.832 30.6717 198.832 30.4789C198.832 30.2192 198.748 29.9678 198.572 29.7248C197.022 29.7918 195.556 30.0684 194.174 30.5627C192.792 31.0571 191.409 31.6353 190.036 32.3141C189.952 32.8168 189.893 33.3112 189.868 33.7888C189.843 34.2665 189.834 34.7609 189.834 35.2636V36.7049C189.834 37.2496 189.86 37.7104 189.901 38.0791C190.01 38.716 190.329 39.1936 190.865 39.5372C191.401 39.8723 191.937 40.1321 192.482 40.3081C192.457 40.6349 192.398 40.9114 192.289 41.146C192.18 41.3723 192.046 41.5817 191.879 41.7661C191.711 41.9504 191.535 42.1348 191.342 42.3024C191.15 42.4784 190.949 42.6711 190.756 42.8889C190.58 42.78 190.404 42.7046 190.237 42.6627C190.061 42.6208 189.876 42.5957 189.684 42.5789C189.491 42.5705 189.29 42.5538 189.097 42.5286C188.905 42.5035 188.704 42.4616 188.511 42.3946L187.79 41.4142C187.547 41.0874 187.288 40.7606 187.003 40.4338V40.1405C187.003 39.5539 186.894 38.9841 186.676 38.4394C186.458 37.8948 186.291 37.3417 186.182 36.7719C186.249 36.5792 186.291 36.3781 186.316 36.1854C186.341 35.9926 186.349 35.7832 186.349 35.5653C186.349 35.1296 186.333 34.7022 186.299 34.2916C186.266 33.881 186.274 33.462 186.316 33.0514H186.148C185.956 33.0514 185.746 33.1017 185.528 33.2023C185.311 33.3028 185.101 33.4118 184.892 33.5291C184.682 33.6464 184.49 33.7553 184.305 33.8559C184.121 33.9564 183.962 34.0067 183.828 34.0067C183.761 34.0067 183.694 33.9983 183.635 33.9732C183.568 33.948 183.493 33.9397 183.409 33.9397C183.3 33.9397 183.166 33.9816 183.015 34.0737C182.864 34.1575 182.697 34.2497 182.504 34.3503C182.32 34.4508 182.127 34.543 181.934 34.6268C181.742 34.7106 181.541 34.7609 181.348 34.7609C181.046 34.7609 180.736 34.6268 180.435 34.367C180.393 34.1911 180.376 34.0318 180.385 33.8726C180.393 33.7218 180.401 33.5542 180.401 33.3782C180.401 33.2023 180.368 33.0179 180.301 32.8252C180.452 32.5403 180.653 32.3141 180.904 32.1548C181.155 31.9873 181.415 31.8364 181.691 31.694C181.968 31.5515 182.244 31.4091 182.529 31.2666C182.814 31.1242 183.049 30.9314 183.25 30.6968H183.442C183.752 30.6968 184.029 30.6298 184.28 30.5041C184.531 30.37 184.816 30.3197 185.151 30.3365C185.26 30.2946 185.336 30.127 185.378 29.8421L185.512 29.8756C185.989 29.8756 186.416 29.708 186.785 29.3812C187.028 28.0321 187.221 26.6663 187.371 25.2921C187.522 23.9178 187.598 22.5436 187.598 21.1694C187.598 21.0353 187.556 20.9096 187.464 20.7755C187.422 20.5996 187.397 20.4403 187.397 20.2811V19.7867C187.397 19.5437 187.405 19.2924 187.43 19.0326C187.455 18.7728 187.506 18.5131 187.598 18.2449C187.815 18.1109 188.042 18.0522 188.285 18.0522C188.569 18.0522 188.846 18.0941 189.122 18.1695C189.399 18.2449 189.659 18.3036 189.927 18.3455C190.119 18.5382 190.27 18.7644 190.371 18.9991C190.471 19.2421 190.53 19.4851 190.547 19.7365C190.572 19.9879 190.572 20.2392 190.563 20.4906C190.555 20.742 190.547 20.985 190.547 21.228C190.547 21.7056 190.597 22.1749 190.714 22.6358C190.823 23.0966 190.882 23.5407 190.882 23.9765C190.882 24.0854 190.84 24.1692 190.764 24.2195C190.689 24.2781 190.647 24.4206 190.647 24.6636C190.647 24.9066 190.672 25.158 190.714 25.4177C190.756 25.6775 190.781 25.9373 190.781 26.2054C190.781 26.5155 190.739 26.8255 190.647 27.1523C190.563 27.4791 190.48 27.7975 190.421 28.0992C191.728 27.9902 193.068 27.8227 194.442 27.6048C195.816 27.3869 197.123 27.035 198.371 26.5574C198.396 26.5155 198.405 26.4484 198.405 26.3646C198.405 26.2306 198.396 26.1049 198.371 25.9708C198.346 25.8367 198.338 25.6943 198.338 25.5434C198.338 25.2837 198.422 25.0742 198.597 24.9234C198.489 24.3117 198.413 23.7 198.371 23.0883C198.329 22.4766 198.304 21.8649 198.304 21.2532V19.3845C198.304 18.7728 198.296 18.1611 198.271 17.5494C198.447 17.4405 198.631 17.3818 198.824 17.3818C199.067 17.3818 199.284 17.4405 199.494 17.5578C199.703 17.6751 199.946 17.7338 200.231 17.7338C200.424 17.7338 200.591 17.7003 200.725 17.6332C200.968 17.8511 201.127 18.136 201.22 18.4879C201.303 18.8399 201.387 19.2002 201.446 19.5689C201.513 19.9376 201.58 20.3063 201.655 20.6666C201.731 21.0269 201.89 21.3202 202.133 21.5381L202.166 21.6386C202.166 21.7224 202.124 21.7894 202.032 21.8313C201.948 21.8732 201.898 21.9654 201.898 22.0911V22.2252C201.982 22.5771 202.049 22.9374 202.091 23.3061C202.133 23.6748 202.175 24.0519 202.208 24.4374C202.242 24.8228 202.292 25.1915 202.359 25.5518C202.426 25.9121 202.543 26.2473 202.719 26.549C202.828 26.5238 202.971 26.5155 203.146 26.5155C203.582 26.5155 203.926 26.6663 204.177 26.9596C204.386 27.2696 204.613 27.5713 204.814 27.8729Z" fill="white" stroke="white" stroke-width="2"/>
<path d="M232.091 40.769C232.024 41.079 231.89 41.322 231.681 41.5064C231.471 41.6907 231.228 41.8415 230.943 41.9505C230.658 42.0594 230.374 42.1264 230.072 42.16C229.77 42.1935 229.511 42.2102 229.268 42.2102C229.159 42.2102 229.058 42.2019 228.958 42.1935C228.857 42.1851 228.757 42.1767 228.648 42.1767C228.539 42.1767 228.48 42.2354 228.48 42.3443C228.48 42.4532 228.422 42.5287 228.313 42.5706C228.204 42.5287 228.095 42.4951 227.986 42.47C227.877 42.4449 227.768 42.4365 227.659 42.4365C227.509 42.4365 227.358 42.4449 227.215 42.47C227.073 42.4951 226.939 42.5035 226.805 42.5035C226.629 42.5035 226.503 42.4784 226.428 42.4365C226.352 42.3946 226.285 42.3443 226.235 42.2856C226.176 42.2354 226.126 42.1683 226.068 42.1097C226.009 42.0426 225.934 41.9924 225.825 41.9421C225.674 41.8751 225.548 41.8667 225.448 41.9086C225.347 41.9505 225.205 41.8834 225.004 41.7158C224.744 41.498 224.518 41.2298 224.333 40.9114C224.149 40.593 223.965 40.2662 223.797 39.9143C223.621 39.5623 223.437 39.2188 223.244 38.8668C223.052 38.5149 222.817 38.2132 222.557 37.9535H222.298C221.904 37.9535 221.636 38.1211 221.477 38.4478C221.368 38.3808 221.259 38.297 221.15 38.2048C221.041 38.1043 220.924 38.0289 220.79 37.9618C220.287 38.1127 219.768 38.2467 219.215 38.3557C218.67 38.4646 218.126 38.5233 217.581 38.5233H217.12C216.986 38.5233 216.844 38.4981 216.693 38.4562C216.475 38.54 216.274 38.649 216.107 38.7663C215.931 38.8836 215.738 38.9422 215.52 38.9422C215.386 38.9422 215.235 38.9003 215.059 38.8082C214.925 38.8082 214.867 38.8668 214.883 38.9758C214.892 39.0847 214.825 39.1433 214.674 39.1433H214.381C214.071 39.1433 213.778 39.1517 213.484 39.1769C213.191 39.202 212.89 39.2104 212.588 39.2104C212.169 39.2104 211.75 39.1601 211.315 39.0428C211.206 39.1098 211.088 39.1433 210.954 39.1433C210.871 39.1852 210.804 39.2607 210.762 39.3528C210.72 39.4534 210.678 39.5372 210.628 39.6126C210.586 39.688 210.527 39.7551 210.452 39.8053C210.376 39.864 210.276 39.8724 210.142 39.8556C210.1 40.1154 209.991 40.3249 209.815 40.4757C209.639 40.6265 209.555 40.8611 209.555 41.1628C209.312 41.2969 209.12 41.4561 208.969 41.6572C208.818 41.8499 208.659 42.0594 208.508 42.2773C208.357 42.4951 208.198 42.7046 208.031 42.8974C207.863 43.0901 207.662 43.2493 207.427 43.3582C207.319 43.4923 207.285 43.6934 207.327 43.9783C207.084 44.171 206.791 44.347 206.447 44.4978C206.095 44.6487 205.769 44.7241 205.467 44.7241C204.839 44.7241 204.395 44.3889 204.16 43.7102C204.16 43.4923 204.177 43.2577 204.21 43.0063C204.244 42.7549 204.294 42.5119 204.361 42.2856C204.428 42.0594 204.529 41.8499 204.654 41.6656C204.788 41.4812 204.973 41.3471 205.207 41.255C205.207 41.0622 205.14 40.9198 205.015 40.8444C204.881 40.769 204.83 40.6349 204.847 40.4338C205.434 40.1489 205.953 39.7802 206.389 39.3193C206.824 38.8584 207.226 38.3724 207.587 37.8613C207.947 37.3501 208.315 36.8306 208.684 36.3027C209.053 35.7832 209.472 35.3139 209.924 34.895V34.2078C210.577 33.5123 211.005 32.7247 211.197 31.8532C211.44 31.8113 211.591 31.7024 211.675 31.5264C211.75 31.3504 211.792 31.141 211.792 30.9063C211.901 30.9063 211.968 30.8561 212.002 30.7555C212.035 30.6549 212.127 30.6298 212.278 30.6717C212.471 30.1522 212.689 29.6662 212.931 29.2304C213.174 28.7947 213.409 28.3506 213.652 27.9065C213.895 27.4624 214.104 26.9931 214.289 26.5155C214.473 26.0379 214.607 25.5016 214.699 24.915C215.001 24.8899 215.177 24.7474 215.21 24.4709C215.244 24.1944 215.277 23.9514 215.327 23.7335C215.654 23.4318 215.897 23.0715 216.065 22.6526C216.232 22.242 216.375 21.8062 216.509 21.3621C216.643 20.918 216.785 20.4655 216.953 20.0214C217.12 19.5773 217.347 19.1751 217.656 18.8231V18.7226C217.656 18.6136 217.615 18.5466 217.522 18.5131C217.439 18.4796 217.388 18.4125 217.388 18.3036C217.414 18.2785 217.422 18.2617 217.422 18.2366C217.682 18.1276 217.883 17.9517 218.008 17.7003C218.142 17.4489 218.335 17.2729 218.595 17.164C219.056 17.5327 219.458 17.7589 219.809 17.8344C220.161 17.9098 220.614 17.9684 221.183 18.0103C221.468 18.3204 221.627 18.6807 221.661 19.108C221.694 19.5354 221.761 19.9544 221.87 20.365C222.046 21.0605 222.239 21.7476 222.44 22.4095C222.65 23.0715 222.809 23.7586 222.918 24.4541C222.985 24.8731 223.102 25.2586 223.278 25.6356C223.454 26.0043 223.571 26.3898 223.638 26.7836C223.68 27.0937 223.68 27.4372 223.638 27.8143C223.596 28.1998 223.638 28.5266 223.772 28.8115L223.998 29.331C224.107 29.574 224.199 29.8254 224.275 30.0851C224.35 30.3449 224.426 30.6047 224.484 30.8728C224.66 31.5264 224.819 32.2303 224.962 32.9844C225.104 33.7386 225.33 34.4173 225.632 35.029C225.741 35.2469 225.908 35.3977 226.143 35.4899C226.369 35.5737 226.629 35.6407 226.914 35.6659C227.199 35.6994 227.475 35.7078 227.751 35.6994C228.028 35.691 228.262 35.6826 228.455 35.6826H228.782C228.916 35.6826 229.042 35.7078 229.176 35.7497C229.259 35.9256 229.31 36.0765 229.31 36.2105C229.31 36.4703 229.226 36.6798 229.05 36.8306C228.874 36.9814 228.79 37.1574 228.79 37.3501C228.79 37.4591 228.832 37.5764 228.924 37.7105C228.841 37.6853 228.707 37.6769 228.531 37.6769C228.028 37.6769 227.534 37.7607 227.056 37.9367C227.232 38.3054 227.467 38.6154 227.76 38.8668C228.053 39.1182 228.363 39.3528 228.69 39.5707C228.908 39.3947 229.134 39.3109 229.377 39.3109C229.636 39.3109 229.888 39.3696 230.114 39.4869C230.34 39.6042 230.591 39.6629 230.851 39.6629C231.044 39.6629 231.186 39.6294 231.278 39.5623C231.454 39.7551 231.597 39.9645 231.706 40.1656C231.773 40.4086 231.915 40.593 232.091 40.769ZM221.845 35.5318C221.803 35.1631 221.728 34.895 221.636 34.7274C221.544 34.5598 221.46 34.3587 221.393 34.124C221.309 33.8224 221.242 33.4956 221.217 33.1436C221.183 32.7917 221.133 32.4565 221.066 32.1297C220.915 31.3923 220.748 30.6466 220.555 29.9008C220.371 29.1634 220.136 28.4428 219.851 27.7389C219.935 27.6048 219.985 27.4875 219.985 27.3786V27.278C219.793 27.0602 219.65 26.792 219.558 26.4736C219.474 26.1552 219.391 25.8451 219.315 25.5267C219.24 25.2083 219.139 24.915 219.022 24.6469C218.905 24.3703 218.712 24.1525 218.452 23.9765C218.385 24.1106 218.352 24.2614 218.352 24.4374C218.352 24.5882 218.369 24.7307 218.402 24.8647C218.436 24.9988 218.452 25.1413 218.452 25.2921C218.235 25.401 218.075 25.5686 217.975 25.8032C217.874 26.0379 217.715 26.2138 217.497 26.3395C217.321 27.035 217.07 27.697 216.743 28.3171C216.417 28.9372 216.073 29.5572 215.713 30.1689C215.353 30.7806 215.009 31.3923 214.682 32.0208C214.356 32.6493 214.096 33.2945 213.895 33.9648C213.61 34.1576 213.417 34.4089 213.325 34.719C213.225 35.029 213.174 35.3307 213.174 35.6324C213.367 35.7413 213.593 35.7999 213.845 35.8083C214.096 35.8167 214.339 35.8251 214.582 35.8251C214.825 35.8251 215.051 35.8502 215.269 35.8921C215.487 35.934 215.679 36.0429 215.855 36.2189C216.14 36.1351 216.45 36.0681 216.785 36.0429C217.12 36.0094 217.405 35.9173 217.623 35.7664C218.059 35.9173 218.528 35.9927 219.03 35.9927C219.29 35.9927 219.55 35.9675 219.801 35.9256C220.052 35.8837 220.295 35.8251 220.538 35.758C220.731 35.7999 220.89 35.8754 220.999 35.9675C221.108 36.0681 221.276 36.1016 221.493 36.0848C221.602 36.001 221.669 35.9089 221.686 35.8083C221.703 35.7161 221.761 35.624 221.845 35.5318ZM228.061 3.02783C227.978 3.2038 227.886 3.34625 227.785 3.45518C227.684 3.56412 227.601 3.68143 227.525 3.79874C227.45 3.91606 227.391 4.05851 227.358 4.20934C227.324 4.36017 227.316 4.56128 227.341 4.7959C227.19 5.05566 227.006 5.29867 226.805 5.51653C226.595 5.7344 226.386 5.94389 226.185 6.15337C225.975 6.36286 225.783 6.58073 225.598 6.82373C225.414 7.06674 225.263 7.3265 225.154 7.6114C224.652 7.76223 224.283 8.03038 224.057 8.41583C223.831 8.80129 223.605 9.18674 223.387 9.58058C222.75 9.79844 222.281 10.2174 221.963 10.8207C221.644 11.4324 221.485 12.0441 221.485 12.6558C221.2 12.9659 220.848 13.1502 220.438 13.2089C220.019 13.2759 219.634 13.3094 219.257 13.3094C218.997 13.3094 218.737 13.3011 218.486 13.2927C218.235 13.2843 217.992 13.2675 217.749 13.2424C217.615 13.0497 217.522 12.8402 217.472 12.6223C217.414 12.4045 217.372 12.1782 217.338 11.952C217.305 11.7257 217.271 11.4995 217.238 11.2816C217.204 11.0637 217.137 10.8543 217.028 10.6615C218.268 9.48002 219.466 8.27338 220.614 7.02484C221.761 5.7763 222.876 4.49424 223.965 3.1619C223.94 3.09487 223.931 2.99431 223.931 2.86862C223.931 2.71779 223.956 2.58372 224.015 2.45803C224.065 2.34072 224.116 2.2234 224.166 2.11447C224.208 2.00554 224.25 1.88822 224.283 1.75415C224.317 1.62008 224.317 1.46087 224.3 1.25976C224.719 1.08379 225.129 1 225.548 1C226.176 1 226.713 1.19273 227.148 1.5698C227.584 1.95526 227.886 2.44127 228.061 3.02783Z" fill="white" stroke="white" stroke-width="2"/>
<path d="M257.207 37.2662C257.207 37.4841 257.148 37.6684 257.031 37.8025C256.913 37.945 256.771 38.0707 256.603 38.1796C256.436 38.2885 256.277 38.3891 256.109 38.4729C255.942 38.5567 255.799 38.6656 255.665 38.7997C255.581 38.8835 255.514 38.9924 255.489 39.1097C255.456 39.227 255.397 39.3108 255.313 39.3527C255.179 39.4617 255.037 39.5287 254.886 39.5454C254.735 39.5706 254.576 39.5957 254.408 39.6292C254.241 39.6628 254.09 39.7047 253.931 39.7633C253.78 39.822 253.646 39.9225 253.537 40.0734C252.515 40.1823 251.501 40.3247 250.513 40.5007C249.516 40.6767 248.502 40.7605 247.455 40.7605C247.262 40.7605 247.045 40.7772 246.818 40.8107C246.592 40.8443 246.374 40.8694 246.182 40.8945C245.721 40.9364 245.269 40.97 244.825 40.9951C244.381 41.0202 243.928 41.0286 243.467 41.0286C242.831 41.0286 242.202 41.0035 241.566 40.9448C240.929 40.8945 240.309 40.794 239.697 40.6683C239.547 40.5594 239.371 40.4756 239.178 40.4085C238.985 40.3415 238.776 40.2745 238.575 40.2158C238.365 40.1488 238.173 40.0734 238.005 39.9896C237.829 39.9058 237.695 39.7717 237.611 39.5957C237.285 39.5706 236.991 39.5119 236.74 39.403C236.489 39.2941 236.263 39.1684 236.053 39.0259C235.844 38.8835 235.634 38.741 235.416 38.5818C235.199 38.431 234.947 38.2969 234.662 38.188C234.445 37.8863 234.218 37.5847 233.992 37.2914C233.766 36.9981 233.481 36.7551 233.155 36.554C233.088 36.1434 232.987 35.7244 232.845 35.3138C232.702 34.9032 232.56 34.4926 232.417 34.0904C232.275 33.6882 232.158 33.2776 232.057 32.867C231.957 32.4564 231.906 32.0291 231.906 31.5933C231.906 31.2917 231.948 30.9146 232.04 30.4789C232.124 30.0431 232.241 29.599 232.384 29.1549C232.526 28.7108 232.694 28.2834 232.895 27.898C233.096 27.5125 233.289 27.1857 233.481 26.9511C233.548 26.8841 233.624 26.8338 233.707 26.7835C233.791 26.7416 233.875 26.6746 233.934 26.5908C234.126 26.3729 234.336 26.197 234.554 26.0545C234.771 25.912 234.998 25.7445 235.241 25.5434C235.324 25.4596 235.4 25.359 235.45 25.2501C235.5 25.1411 235.584 25.0406 235.693 24.9568C235.76 24.9149 235.852 24.9065 235.969 24.9233C236.087 24.9484 236.196 24.9233 236.279 24.8562C236.363 24.7892 236.413 24.7138 236.413 24.63C236.413 24.5462 236.447 24.4624 236.514 24.4037C236.539 24.3786 236.598 24.3786 236.707 24.387C236.816 24.3954 236.883 24.4037 236.899 24.4037C237.05 24.4037 237.226 24.3032 237.419 24.0937C237.611 23.8842 237.779 23.7501 237.913 23.6831C238.064 23.5993 238.215 23.5323 238.374 23.5071C238.525 23.4736 238.692 23.415 238.868 23.3312C239.111 23.1971 239.346 23.0965 239.572 23.0211C239.798 22.9457 240.033 22.8535 240.275 22.7446C240.41 22.7027 240.527 22.6273 240.636 22.5184C240.745 22.4094 240.854 22.334 240.962 22.2921C241.155 22.2251 241.373 22.1748 241.599 22.1413C241.825 22.1078 242.043 22.0743 242.253 22.0407C242.462 22.0072 242.663 21.9653 242.873 21.9067C243.082 21.8564 243.266 21.7475 243.442 21.5966H243.702C244.096 21.5966 244.473 21.5463 244.85 21.429C245.218 21.3201 245.604 21.2614 245.997 21.2614C246.106 21.2614 246.274 21.2866 246.492 21.3285C246.668 21.2195 246.86 21.1609 247.078 21.1609C247.447 21.1609 247.815 21.2531 248.192 21.4374C248.561 21.6218 248.946 21.7139 249.34 21.7139H249.533C249.616 21.7139 249.709 21.7056 249.792 21.6804C250.035 21.9234 250.32 22.0491 250.664 22.0743C250.999 22.0994 251.292 22.1916 251.535 22.3675C251.686 22.5016 251.811 22.6524 251.912 22.8284C252.012 23.0044 252.088 23.1887 252.155 23.3814L252.348 23.968C252.415 24.1607 252.498 24.3367 252.607 24.4875C252.498 25.2752 252.18 25.9037 251.644 26.3729C251.108 26.8422 250.437 27.0768 249.633 27.0768C249.323 27.0768 249.072 27.0433 248.863 26.9595C248.653 26.8841 248.469 26.8003 248.31 26.7165C248.142 26.6327 247.974 26.5405 247.799 26.4567C247.623 26.3729 247.43 26.3059 247.212 26.264C247.455 25.8283 247.606 25.359 247.673 24.8562C247.43 24.7473 247.195 24.6719 246.952 24.63C246.709 24.5881 246.483 24.5127 246.265 24.4037C245.679 24.5546 245.101 24.6635 244.548 24.7138C243.995 24.7724 243.476 25.0071 242.99 25.4177C242.881 25.3925 242.764 25.3758 242.646 25.3506C242.529 25.3255 242.412 25.3171 242.303 25.3171C242.169 25.3171 241.909 25.4093 241.515 25.5936C241.122 25.778 240.703 25.9958 240.259 26.2305C239.815 26.4735 239.387 26.7081 238.985 26.9511C238.583 27.1941 238.307 27.3533 238.148 27.4455C237.972 27.5544 237.821 27.6885 237.687 27.8393C237.553 27.9902 237.427 28.1494 237.293 28.317C237.159 28.4845 237.033 28.6354 236.899 28.7778C236.765 28.9203 236.606 29.0208 236.405 29.0879C236.363 29.3309 236.288 29.532 236.179 29.7079C236.07 29.8839 235.953 30.0683 235.819 30.261C235.793 30.6548 235.76 31.0487 235.701 31.4425C235.643 31.8363 235.618 32.2302 235.618 32.624V33.0514C235.618 33.1854 235.643 33.3027 235.685 33.4117C235.902 33.6966 236.078 34.015 236.221 34.3586C236.363 34.7105 236.606 34.9451 236.958 35.0792C236.983 35.163 236.975 35.2216 236.941 35.2468C236.908 35.2719 236.883 35.3222 236.857 35.4144C236.991 35.6574 237.159 35.8417 237.368 35.9842C237.578 36.1266 237.787 36.2691 238.005 36.4115C238.223 36.554 238.432 36.7048 238.625 36.8556C238.818 37.0065 238.977 37.2076 239.086 37.4422C239.413 37.4422 239.723 37.5009 240.016 37.6098C240.309 37.7187 240.594 37.836 240.87 37.9701C241.147 38.1042 241.406 38.2215 241.658 38.3304C241.909 38.4394 242.169 38.498 242.429 38.498C242.671 38.498 242.889 38.4645 243.082 38.3975C243.652 38.5734 244.221 38.6991 244.799 38.7745C245.377 38.85 245.964 38.8919 246.55 38.8919C247.271 38.8919 247.991 38.85 248.712 38.7578C249.432 38.674 250.153 38.5902 250.873 38.5315C251.133 38.4896 251.384 38.4645 251.627 38.4645C251.87 38.4645 252.105 38.4394 252.348 38.3975C252.649 38.3556 252.942 38.2131 253.219 37.9701C253.495 37.7271 253.755 37.5595 254.023 37.4506C254.266 37.6014 254.543 37.6768 254.878 37.6768C255.246 37.6768 255.606 37.6182 255.958 37.5009C256.31 37.3835 256.67 37.3249 257.039 37.3249H257.207V37.2662Z" fill="white" stroke="white" stroke-width="2"/>
<path d="M278.21 27.8729C278.126 28.0908 278.034 28.3003 277.95 28.493C277.867 28.6857 277.8 28.912 277.758 29.1466C277.607 29.2555 277.439 29.3393 277.247 29.3896C277.062 29.4483 276.87 29.4986 276.677 29.5572C276.484 29.6159 276.3 29.6745 276.141 29.7499C275.973 29.8254 275.848 29.9427 275.764 30.0935C275.697 30.4203 275.663 30.7303 275.663 31.0069C275.663 31.3756 275.73 31.694 275.856 31.9537C275.789 32.1465 275.747 32.356 275.722 32.5738C275.697 32.7917 275.688 33.0012 275.688 33.1939C275.688 33.9145 275.772 34.6268 275.948 35.339C276.124 36.0513 276.225 36.7636 276.241 37.4842C276.241 37.5931 276.233 37.7104 276.208 37.8445C276.183 37.9786 276.174 38.0959 276.174 38.2048C276.174 38.6657 276.35 38.9674 276.694 39.1182C276.627 39.2271 276.593 39.3277 276.593 39.4115C276.593 39.5874 276.618 39.7383 276.66 39.8723C276.702 40.0064 276.711 40.1489 276.694 40.2997C276.803 40.5176 276.912 40.7103 277.02 40.8695C277.129 41.0371 277.205 41.2382 277.247 41.4728C277.096 41.7829 276.912 42.0594 276.694 42.3108C276.476 42.5621 276.325 42.8722 276.233 43.2409C276.149 43.2157 276.049 43.2074 275.94 43.2074C275.789 43.2074 275.663 43.2409 275.58 43.3079C275.496 43.375 275.42 43.4587 275.37 43.5509C275.311 43.6515 275.253 43.7437 275.194 43.8442C275.136 43.9448 275.043 44.0118 274.934 44.0537H274.834C274.725 44.0788 274.633 44.0705 274.557 44.0369C274.482 44.0034 274.407 43.9867 274.348 43.9867C274.306 43.9867 274.214 44.0118 274.088 44.0537C273.912 43.8358 273.795 43.5761 273.728 43.2828C273.661 42.9895 273.628 42.6962 273.628 42.4113C273.628 42.1097 273.669 41.8331 273.762 41.5901C273.519 41.3974 273.376 41.0957 273.318 40.7103C273.259 40.3164 273.2 39.9896 273.142 39.7299C272.966 38.9255 272.765 38.1378 272.538 37.3753C272.312 36.6127 272.17 35.8251 272.128 35.0206C272.103 34.719 272.094 34.4173 272.094 34.1408V32.4397C272.094 32.1548 272.103 31.8867 272.128 31.6186C272.128 31.4258 272.145 31.2331 272.178 31.0488C272.212 30.8644 272.228 30.6717 272.228 30.4789C272.228 30.2192 272.145 29.9678 271.969 29.7248C270.419 29.7918 268.953 30.0684 267.571 30.5627C266.188 31.0571 264.806 31.6353 263.432 32.3141C263.348 32.8168 263.29 33.3112 263.264 33.7888C263.239 34.2665 263.231 34.7609 263.231 35.2636V36.7049C263.231 37.2496 263.256 37.7104 263.298 38.0791C263.407 38.716 263.725 39.1936 264.261 39.5372C264.798 39.8723 265.334 40.1321 265.878 40.3081C265.853 40.6349 265.795 40.9114 265.686 41.146C265.577 41.3723 265.443 41.5817 265.275 41.7661C265.108 41.9504 264.932 42.1348 264.739 42.3024C264.546 42.4784 264.345 42.6711 264.153 42.8889C263.977 42.78 263.801 42.7046 263.633 42.6627C263.457 42.6208 263.273 42.5957 263.08 42.5789C262.887 42.5705 262.686 42.5538 262.494 42.5286C262.301 42.5035 262.1 42.4616 261.907 42.3946L261.187 41.4142C260.944 41.0874 260.684 40.7606 260.399 40.4338V40.1405C260.399 39.5539 260.29 38.9841 260.073 38.4394C259.855 37.8948 259.687 37.3417 259.578 36.7719C259.645 36.5792 259.687 36.3781 259.712 36.1854C259.738 35.9926 259.746 35.7832 259.746 35.5653C259.746 35.1296 259.729 34.7022 259.696 34.2916C259.662 33.881 259.67 33.462 259.712 33.0514H259.545C259.352 33.0514 259.143 33.1017 258.925 33.2023C258.707 33.3028 258.498 33.4118 258.288 33.5291C258.079 33.6464 257.886 33.7553 257.702 33.8559C257.517 33.9564 257.358 34.0067 257.224 34.0067C257.157 34.0067 257.09 33.9983 257.032 33.9732C256.965 33.948 256.889 33.9397 256.805 33.9397C256.696 33.9397 256.562 33.9816 256.412 34.0737C256.261 34.1575 256.093 34.2497 255.901 34.3503C255.716 34.4508 255.524 34.543 255.331 34.6268C255.138 34.7106 254.937 34.7609 254.744 34.7609C254.443 34.7609 254.133 34.6268 253.831 34.367C253.789 34.1911 253.773 34.0318 253.781 33.8726C253.789 33.7218 253.798 33.5542 253.798 33.3782C253.798 33.2023 253.764 33.0179 253.697 32.8252C253.848 32.5403 254.049 32.3141 254.3 32.1548C254.552 31.9873 254.811 31.8364 255.088 31.694C255.364 31.5515 255.641 31.4091 255.926 31.2666C256.211 31.1242 256.445 30.9314 256.646 30.6968H256.839C257.149 30.6968 257.425 30.6298 257.677 30.5041C257.928 30.37 258.213 30.3197 258.548 30.3365C258.657 30.2946 258.732 30.127 258.774 29.8421L258.908 29.8756C259.386 29.8756 259.813 29.708 260.182 29.3812C260.424 28.0321 260.617 26.6663 260.768 25.2921C260.919 23.9178 260.994 22.5436 260.994 21.1694C260.994 21.0353 260.952 20.9096 260.86 20.7755C260.818 20.5996 260.793 20.4403 260.793 20.2811V19.7867C260.793 19.5437 260.801 19.2924 260.827 19.0326C260.852 18.7728 260.902 18.5131 260.994 18.2449C261.212 18.1109 261.438 18.0522 261.681 18.0522C261.966 18.0522 262.242 18.0941 262.519 18.1695C262.795 18.2449 263.055 18.3036 263.323 18.3455C263.516 18.5382 263.667 18.7644 263.767 18.9991C263.868 19.2421 263.926 19.4851 263.943 19.7365C263.968 19.9879 263.968 20.2392 263.96 20.4906C263.951 20.742 263.943 20.985 263.943 21.228C263.943 21.7056 263.993 22.1749 264.111 22.6358C264.22 23.0966 264.278 23.5407 264.278 23.9765C264.278 24.0854 264.236 24.1692 264.161 24.2195C264.085 24.2781 264.044 24.4206 264.044 24.6636C264.044 24.9066 264.069 25.158 264.111 25.4177C264.152 25.6775 264.178 25.9373 264.178 26.2054C264.178 26.5155 264.136 26.8255 264.044 27.1523C263.96 27.4791 263.876 27.7975 263.817 28.0992C265.124 27.9902 266.465 27.8227 267.839 27.6048C269.213 27.3869 270.519 27.035 271.768 26.5574C271.793 26.5155 271.801 26.4484 271.801 26.3646C271.801 26.2306 271.793 26.1049 271.768 25.9708C271.743 25.8367 271.734 25.6943 271.734 25.5434C271.734 25.2837 271.818 25.0742 271.994 24.9234C271.885 24.3117 271.81 23.7 271.768 23.0883C271.726 22.4766 271.701 21.8649 271.701 21.2532V19.3845C271.701 18.7728 271.692 18.1611 271.667 17.5494C271.843 17.4405 272.027 17.3818 272.22 17.3818C272.463 17.3818 272.681 17.4405 272.89 17.5578C273.1 17.6751 273.343 17.7338 273.628 17.7338C273.82 17.7338 273.988 17.7003 274.122 17.6332C274.365 17.8511 274.524 18.136 274.616 18.4879C274.7 18.8399 274.784 19.2002 274.842 19.5689C274.909 19.9376 274.976 20.3063 275.052 20.6666C275.127 21.0269 275.286 21.3202 275.529 21.5381L275.563 21.6386C275.563 21.7224 275.521 21.7894 275.429 21.8313C275.345 21.8732 275.295 21.9654 275.295 22.0911V22.2252C275.378 22.5771 275.446 22.9374 275.487 23.3061C275.529 23.6748 275.571 24.0519 275.605 24.4374C275.638 24.8228 275.688 25.1915 275.755 25.5518C275.822 25.9121 275.94 26.2473 276.116 26.549C276.225 26.5238 276.367 26.5155 276.543 26.5155C276.979 26.5155 277.322 26.6663 277.573 26.9596C277.783 27.2696 278.009 27.5713 278.21 27.8729Z" fill="white" stroke="white" stroke-width="2"/>
<path d="M327.201 39.0344C327.092 39.3864 327.059 39.7299 327.101 40.0819C327.034 40.1656 326.958 40.2243 326.875 40.2494C326.791 40.2746 326.699 40.2997 326.615 40.3332C326.531 40.3668 326.456 40.4086 326.405 40.4673C326.347 40.526 326.347 40.6265 326.389 40.7773C325.668 40.8192 324.981 40.9701 324.328 41.2382C323.674 41.5064 323.029 41.7829 322.401 42.0929C322.074 41.984 321.789 41.8499 321.546 41.6991C321.303 41.5483 321.002 41.4477 320.633 41.4058C320.265 40.6684 319.921 39.8807 319.603 39.0679C319.284 38.2467 319.125 37.4256 319.125 36.596C319.125 35.9843 319.234 35.4312 319.452 34.9285C319.452 34.2749 319.502 33.6297 319.62 33.0012C319.728 32.3727 319.854 31.7443 319.997 31.1158C320.139 30.4957 320.265 29.8673 320.374 29.2304C320.482 28.602 320.541 27.9568 320.541 27.3032V26.5825C320.499 26.5825 320.441 26.6328 320.374 26.7334C320.307 26.8339 320.248 26.9428 320.198 27.0602C320.139 27.1775 320.097 27.2948 320.047 27.4037C320.005 27.5126 319.971 27.5797 319.946 27.5964C319.578 27.8813 319.284 28.2333 319.075 28.6606C318.866 29.088 318.648 29.4818 318.405 29.8589C318.095 30.3198 317.776 30.7639 317.441 31.1996C317.106 31.6353 316.679 31.9705 316.185 32.2135V32.2806C316.185 32.3895 316.151 32.4649 316.084 32.5068C316.017 32.5487 316.009 32.6576 316.051 32.8336C315.506 33.0096 314.995 33.261 314.526 33.5878C314.057 33.9146 313.671 34.3335 313.361 34.8279C312.926 34.9369 312.515 35.0877 312.138 35.272C311.753 35.4564 311.368 35.6575 310.974 35.8754C310.798 35.9592 310.614 36.0681 310.421 36.2022C310.228 36.3362 310.027 36.42 309.835 36.4619C309.659 36.529 309.424 36.5709 309.131 36.596C308.838 36.6211 308.528 36.6379 308.218 36.663C307.899 36.6882 307.589 36.6965 307.288 36.6965H306.567C306.458 36.6965 306.316 36.6463 306.14 36.529C305.964 36.42 305.771 36.3027 305.57 36.1686C305.361 36.0346 305.151 35.9089 304.934 35.7916C304.716 35.6743 304.506 35.5905 304.314 35.5486C304.138 34.9788 303.895 34.476 303.576 34.0235C303.258 33.5794 302.923 33.1269 302.58 32.666C302.471 32.1465 302.32 31.5934 302.136 31.032C301.951 30.4622 301.624 29.993 301.172 29.6243C301.281 29.4734 301.34 29.2975 301.34 29.1047C301.34 28.8617 301.281 28.6355 301.172 28.4176C301.063 28.1998 301.005 27.9568 301.005 27.697C301.005 27.521 301.013 27.3953 301.038 27.3032C300.795 27.5629 300.628 27.8981 300.527 28.3003C300.426 28.7025 300.376 29.0712 300.376 29.398C300.376 29.6578 300.41 29.9008 300.477 30.1187C300.259 30.4287 300.125 30.8058 300.066 31.2666C300.008 31.7275 299.982 32.1297 299.982 32.4817C299.982 32.9174 300.016 33.3448 300.083 33.7554C299.731 34.1073 299.564 34.5263 299.564 35.029C299.564 35.3139 299.631 35.5653 299.756 35.7832C299.756 35.867 299.731 35.934 299.689 35.9759C299.647 36.0178 299.597 36.0513 299.538 36.0765C299.48 36.1016 299.43 36.1267 299.371 36.1603C299.312 36.1938 299.287 36.2524 299.287 36.3362C299.287 36.4452 299.296 36.5625 299.304 36.6965C299.312 36.8306 299.321 36.9563 299.321 37.0904C299.321 37.4004 299.312 37.7105 299.287 38.0373C299.262 38.3641 299.254 38.6825 299.254 38.9841C299.254 39.621 299.312 40.0735 299.43 40.3416C299.547 40.6181 299.706 40.8192 299.89 40.9449C300.075 41.079 300.276 41.2047 300.494 41.3388C300.711 41.4728 300.929 41.7242 301.147 42.0929C301.08 42.2857 300.971 42.4449 300.803 42.5706C300.636 42.6879 300.485 42.8136 300.343 42.9309C300.2 43.0482 300.075 43.1906 299.966 43.3415C299.857 43.4923 299.815 43.7102 299.832 43.9951H299.664C299.379 43.9951 299.111 44.037 298.843 44.1291C298.583 44.2129 298.307 44.2632 298.022 44.2632C297.955 44.2632 297.888 44.2548 297.829 44.2464C297.762 44.2381 297.695 44.2297 297.637 44.2297L297.31 44.037C297.201 43.9699 297.092 43.9364 296.983 43.9364C296.874 43.9364 296.732 43.9615 296.556 44.0034C296.246 43.023 296.02 42.0091 295.852 40.9617C295.685 39.9143 295.609 38.892 295.609 37.8864C295.609 37.7775 295.635 37.6602 295.693 37.5429C295.743 37.4256 295.827 37.3837 295.936 37.4256V36.7803C295.936 36.1016 295.995 35.448 296.112 34.8028C296.229 34.1576 296.288 33.4872 296.288 32.7917C296.288 32.599 296.28 32.3979 296.271 32.2052C296.263 32.0124 296.246 31.8197 296.221 31.6521C296.33 31.2834 296.447 30.9063 296.564 30.5209C296.682 30.1354 296.74 29.7416 296.74 29.3226C296.74 29.1466 296.707 28.9372 296.64 28.7025C296.816 28.5685 296.941 28.4009 297.034 28.1914C297.117 27.9819 297.184 27.7557 297.226 27.5043C297.268 27.2529 297.302 27.0099 297.327 26.7669C297.352 26.5239 297.369 26.306 297.394 26.1133C297.612 25.6775 297.729 25.2083 297.754 24.7055C297.779 24.2028 297.888 23.7335 298.081 23.2978C298.056 23.214 298.047 23.0548 298.047 22.8369C298.047 22.4012 298.114 21.9571 298.257 21.5129C298.399 21.0688 298.684 20.7253 299.128 20.4823C299.522 20.6331 299.982 20.7085 300.502 20.7085C301.005 20.7085 301.482 20.6331 301.943 20.4823C302.077 20.5242 302.194 20.5744 302.303 20.6331C302.412 20.6918 302.529 20.742 302.647 20.8007C302.764 20.8593 302.89 20.9012 303.024 20.9348C303.158 20.9683 303.308 20.9767 303.484 20.9515C303.702 21.5884 303.895 22.2252 304.054 22.8788C304.213 23.5324 304.339 24.2028 304.431 24.8731C304.473 25.158 304.49 25.4597 304.481 25.7865C304.473 26.1133 304.49 26.4233 304.532 26.6998C304.557 26.8758 304.607 27.035 304.699 27.1775C304.783 27.3199 304.875 27.4791 304.959 27.6551C305.043 27.8311 305.118 28.0238 305.168 28.2417C305.218 28.4595 305.235 28.7361 305.218 29.0628C305.461 29.6327 305.73 30.1689 306.023 30.6801C306.316 31.1912 306.643 31.7024 306.986 32.2052C307.179 32.2722 307.355 32.356 307.506 32.4482C307.656 32.5487 307.757 32.7079 307.799 32.9258C307.991 32.9258 308.167 32.9593 308.318 33.0263L308.871 33.1939C309.7 32.9342 310.471 32.5822 311.175 32.1465C311.887 31.7108 312.633 31.3421 313.42 31.032C314.384 30.0935 315.205 29.0545 315.908 27.9065C316.604 26.7585 317.307 25.6189 318.003 24.4877V23.767C318.137 23.7 318.246 23.6162 318.346 23.524C318.447 23.4318 318.572 23.3564 318.723 23.3145C318.748 23.0548 318.807 22.795 318.899 22.5436C319 22.2922 319.109 22.0492 319.226 21.823C319.343 21.5967 319.452 21.3621 319.536 21.1359C319.62 20.9096 319.67 20.6582 319.67 20.3985C319.67 20.2476 319.661 20.1136 319.636 20.0046C319.963 19.6778 320.357 19.5103 320.818 19.5103C321.253 19.5103 321.697 19.6108 322.141 19.8203C322.585 20.0298 323.012 20.2225 323.398 20.3901C323.641 20.9096 323.817 21.4627 323.934 22.0409C324.051 22.619 324.135 23.214 324.177 23.8257C324.219 24.4374 324.244 25.0491 324.244 25.6608V27.9819C324.219 28.1579 324.16 28.2836 324.068 28.359C323.968 28.4344 323.901 28.5517 323.859 28.7025V29.0293C323.859 29.1383 323.85 29.2472 323.825 29.3561C323.825 29.817 323.766 30.2946 323.658 30.7974C323.549 31.4342 323.415 32.0711 323.247 32.7163C323.079 33.3615 323.004 34.0067 323.004 34.6603C323.004 34.9033 323.012 35.138 323.038 35.381C323.063 35.624 323.105 35.8586 323.172 36.1016C323.063 36.2943 323.004 36.5457 323.004 36.8558C323.004 37.2077 323.063 37.5261 323.18 37.8194C323.297 38.1127 323.448 38.406 323.624 38.6909C323.926 38.6909 324.236 38.6825 324.537 38.6573C324.839 38.6322 325.157 38.6238 325.484 38.6238C325.785 38.6238 326.07 38.649 326.338 38.7076C326.648 38.7495 326.916 38.8584 327.201 39.0344Z" fill="white" stroke="white" stroke-width="2"/>
<path d="M349.838 24.2106C349.704 24.4033 349.629 24.6296 349.612 24.8642C349.587 25.1072 349.579 25.3251 349.579 25.5178C349.579 25.7776 349.587 26.0373 349.595 26.2887C349.604 26.5401 349.612 26.7831 349.612 27.0261V27.5205C349.57 27.6713 349.503 27.8305 349.419 27.9814C349.336 28.1322 349.269 28.2914 349.227 28.4422C348.917 29.2467 348.766 30.0595 348.766 30.8639V30.9309C348.657 31.1907 348.556 31.4337 348.456 31.6516C348.355 31.8694 348.263 32.0789 348.18 32.2884C348.096 32.4979 348.029 32.7158 347.987 32.942C347.945 33.1683 347.928 33.4364 347.953 33.7465C347.643 34.509 347.241 35.2045 346.739 35.8246C346.236 36.4446 345.742 37.0815 345.264 37.7435C344.803 37.9194 344.384 38.1457 344.007 38.4306C343.622 38.7155 343.262 39.0339 342.91 39.3775C342.231 39.5953 341.57 39.8467 340.916 40.1316C340.263 40.4165 339.676 40.7936 339.148 41.2796C338.73 41.3215 338.319 41.3885 337.909 41.4723C337.49 41.5561 337.088 41.6902 336.694 41.8662H336.3C336.107 41.8662 335.965 41.8243 335.873 41.7321C335.588 41.8829 335.295 41.9918 334.993 42.0421C334.683 42.1008 334.382 42.1259 334.08 42.1259C333.686 42.1259 333.301 42.1008 332.916 42.0421C332.53 41.9918 332.145 41.9248 331.751 41.8662C331.533 41.5645 331.232 41.3299 330.838 41.1623C330.444 40.9947 330.092 40.8439 329.791 40.6847C329.154 39.8132 328.702 38.9669 328.417 38.1457C328.132 37.3245 327.839 36.4027 327.537 35.3804C327.579 35.0788 327.654 34.7771 327.763 34.4838C327.872 34.1906 327.914 33.8638 327.897 33.5202C328.291 32.389 328.811 31.3583 329.456 30.4282C330.101 29.4981 330.838 28.6098 331.667 27.7635C331.667 27.6294 331.692 27.5205 331.751 27.4367C331.801 27.3529 331.81 27.2188 331.768 27.0429C331.793 27.068 331.835 27.0764 331.902 27.0764C332.078 27.0764 332.187 27.0261 332.229 26.9256C332.27 26.825 332.279 26.7161 332.262 26.582C333.05 26.0792 333.762 25.501 334.407 24.8475C335.052 24.1939 335.789 23.6492 336.618 23.2135C336.685 23.0207 336.794 22.8531 336.945 22.7191C337.096 22.585 337.222 22.4342 337.305 22.2582C338.001 22.0655 338.637 21.7638 339.207 21.3783C339.777 20.9845 340.372 20.641 341.008 20.3309C341.36 20.1382 341.687 19.9957 342.005 19.9203C342.324 19.8449 342.667 19.7611 343.036 19.6773C343.17 19.6354 343.287 19.6019 343.396 19.5768C343.505 19.5516 343.622 19.5432 343.756 19.5432C344.15 19.5432 344.527 19.6103 344.904 19.7527C345.272 19.8952 345.658 19.9622 346.052 19.9622C346.161 19.9622 346.253 19.9538 346.328 19.9455C346.403 19.9371 346.487 19.9203 346.571 19.8952C346.94 20.3561 347.409 20.6996 347.978 20.9426C348.113 21.2694 348.263 21.5543 348.456 21.7973C348.64 22.0403 348.833 22.275 349.026 22.5012C349.218 22.7274 349.403 22.9788 349.562 23.2554C349.687 23.5151 349.788 23.8335 349.838 24.2106ZM346.563 25.9116C346.563 25.8027 346.554 25.7022 346.529 25.6184C346.311 25.5513 346.102 25.4675 345.909 25.3586C345.717 25.2497 345.49 25.191 345.256 25.191C345.105 25.191 344.946 25.2245 344.795 25.2916C344.77 25.1407 344.711 25.0318 344.619 24.9648C344.527 24.8977 344.41 24.8391 344.292 24.7888C344.175 24.7385 344.049 24.6882 343.932 24.6547C343.815 24.6212 343.706 24.5625 343.622 24.4788C343.555 24.3028 343.488 24.1268 343.413 23.9425C343.337 23.7581 343.203 23.624 343.002 23.5319C342.809 23.7246 342.575 23.8838 342.315 24.0095C342.055 24.1268 341.787 24.2441 341.511 24.3531C341.234 24.462 340.975 24.5961 340.723 24.7469C340.472 24.8977 340.263 25.0821 340.087 25.2999H339.5C339.366 25.5429 339.182 25.7189 338.947 25.8362C338.704 25.9535 338.503 26.1295 338.327 26.3474C337.976 26.5233 337.657 26.7328 337.364 26.9842C337.071 27.2356 336.778 27.4954 336.493 27.7719C336.208 28.0484 335.931 28.3249 335.655 28.6098C335.379 28.8947 335.094 29.1545 334.784 29.3975C334.499 30.0092 334.189 30.5371 333.854 30.9812C333.519 31.4253 333.2 31.8778 332.907 32.3387C332.614 32.7996 332.363 33.294 332.153 33.8302C331.944 34.3665 331.843 35.0285 331.843 35.8078V36.1346C331.843 36.2435 331.852 36.3525 331.877 36.4614C332.162 36.7714 332.396 37.0982 332.58 37.4418C332.765 37.7937 333.075 38.0451 333.51 38.1959C333.946 38.3719 334.407 38.4473 334.901 38.4222C335.395 38.3971 335.864 38.4557 336.325 38.5898C337.372 38.3971 338.378 38.0703 339.35 37.6261C340.321 37.182 341.243 36.6374 342.114 36.0089C342.248 35.9 342.399 35.7827 342.575 35.6653C342.751 35.548 342.893 35.4223 343.002 35.2883C343.111 35.1793 343.203 35.062 343.279 34.928C343.354 34.7939 343.438 34.6766 343.522 34.5676C343.698 34.2827 343.89 33.9978 344.108 33.7129C344.326 33.428 344.552 33.1683 344.795 32.9253C344.904 32.4476 345.046 31.9784 345.222 31.5343C345.398 31.0902 345.574 30.646 345.742 30.2103C345.918 29.7746 346.06 29.3305 346.186 28.8696C346.303 28.4087 346.362 27.9311 346.362 27.4283C346.362 27.3194 346.353 27.2021 346.345 27.068C346.336 26.9339 346.32 26.8166 346.295 26.7077C346.47 26.4563 346.563 26.1965 346.563 25.9116ZM352.025 14.6496C352 14.9764 351.924 15.2278 351.782 15.4038C351.639 15.5798 351.572 15.7976 351.572 16.0574C351.572 16.2334 351.606 16.3842 351.673 16.5183C351.522 16.5853 351.447 16.7026 351.447 16.8786H351.313C351.137 16.8786 350.969 16.9205 350.802 17.0126C350.634 17.0964 350.467 17.1467 350.291 17.1467C349.721 17.1467 349.243 16.9959 348.85 16.7026C348.456 16.4093 348.029 16.1663 347.576 15.9652C347.467 15.9233 347.358 15.8982 347.25 15.8982H346.956C346.806 15.8982 346.697 15.873 346.63 15.8311C346.605 15.7892 346.588 15.7306 346.579 15.6552C346.571 15.5798 346.537 15.5211 346.496 15.4792C346.47 15.4541 346.378 15.4205 346.202 15.3619C346.026 15.3116 345.834 15.2446 345.633 15.1859C345.423 15.1189 345.222 15.0519 345.03 14.9764C344.837 14.901 344.703 14.8424 344.636 14.8005C344.527 14.7334 344.435 14.6245 344.359 14.4569C344.284 14.2893 344.167 14.2558 344.016 14.3396C344.041 14.2726 344.049 14.2055 344.049 14.1469C344.049 14.0379 344.024 13.9206 343.966 13.8033C343.907 13.686 343.815 13.6273 343.689 13.6273C343.647 13.6273 343.597 13.6357 343.538 13.6609C343.48 13.686 343.421 13.6944 343.362 13.6944C343.321 13.6944 343.279 13.6692 343.228 13.6273C343.052 13.4095 342.868 13.1916 342.675 12.9737C342.324 12.605 341.963 12.2782 341.595 11.9933C341.226 11.7084 340.941 11.3146 340.74 10.8118C340.346 10.6191 340.011 10.3761 339.727 10.0912L338.872 9.2365C338.587 8.9516 338.286 8.70021 337.959 8.46559C337.632 8.23096 337.23 8.08013 336.744 7.98796V7.74495C336.744 7.46005 336.786 7.19191 336.878 6.92377C336.962 6.664 337.012 6.40424 337.012 6.1361C337.012 6.00202 337.004 5.90985 336.979 5.84281C337.28 5.73388 337.481 5.54115 337.565 5.27301C337.649 4.99649 337.699 4.71996 337.699 4.43506C337.917 4.19206 338.202 4.04961 338.554 4.00771C338.906 3.96581 339.215 3.94067 339.5 3.94067H339.827C339.936 3.94067 340.045 3.94905 340.154 3.97419C340.673 4.28423 341.1 4.66131 341.41 5.12218C341.729 5.58305 341.972 6.0942 342.148 6.664C342.449 6.90701 342.717 7.18353 342.952 7.51871C343.186 7.85389 343.505 8.07175 343.915 8.20582C344.091 8.64156 344.317 9.02701 344.602 9.37057C344.887 9.70575 345.189 10.0325 345.515 10.3342C345.842 10.6442 346.161 10.9543 346.479 11.2643C346.797 11.5827 347.082 11.9263 347.35 12.295C347.719 12.4458 348.121 12.5967 348.565 12.7391C349.001 12.8816 349.436 13.0408 349.855 13.2167C350.282 13.3927 350.684 13.5938 351.07 13.8201C351.447 14.0463 351.765 14.3228 352.025 14.6496Z" fill="white" stroke="white" stroke-width="2"/>
<path d="M360.001 38.6741C359.892 38.8501 359.758 39.0093 359.607 39.1517C359.457 39.2942 359.314 39.445 359.18 39.5958C359.029 39.6629 358.862 39.6964 358.669 39.6964C358.485 39.6964 358.309 39.688 358.15 39.6796C357.982 39.6712 357.831 39.6712 357.689 39.6796C357.546 39.688 357.429 39.7383 357.345 39.8305C357.169 39.7886 357.035 39.7048 356.951 39.5875C356.868 39.4701 356.709 39.3947 356.491 39.378C356.407 39.3528 356.315 39.3528 356.231 39.378C355.904 39.0093 355.603 38.6154 355.335 38.1965C355.058 37.7859 354.807 37.392 354.564 37.015C354.539 36.2105 354.48 35.3893 354.371 34.5598C354.346 34.367 354.312 34.1659 354.27 33.9732C354.229 33.7805 354.195 33.5878 354.17 33.4202C354.17 33.2023 354.187 32.9928 354.22 32.7833C354.254 32.5738 354.279 32.3895 354.304 32.2135C354.388 31.5851 354.488 30.9566 354.597 30.3449C354.706 29.7332 354.807 29.1131 354.89 28.4763C354.974 27.9065 355.025 27.3115 355.025 26.6914C355.025 26.0714 354.924 25.4848 354.731 24.9401L354.698 24.7725C354.74 24.5966 354.79 24.4541 354.849 24.3284C354.899 24.2111 354.941 24.0687 354.966 23.9178C355.008 23.6748 354.957 23.5072 354.798 23.3983C354.865 23.2223 354.974 23.1134 355.125 23.0548C355.276 23.0045 355.368 22.8788 355.385 22.6777C355.41 22.5939 355.41 22.5017 355.385 22.4179C355.561 22.3509 355.737 22.2922 355.921 22.2419C356.105 22.1917 356.29 22.1833 356.457 22.2252C356.742 22.2671 356.993 22.3593 357.211 22.5017C357.429 22.6442 357.639 22.8034 357.831 22.9793C358.183 24.0268 358.326 25.1329 358.259 26.2976C358.191 27.4624 358.083 28.6355 357.932 29.817C357.781 30.9985 357.68 32.1465 357.639 33.2693C357.597 34.3922 357.773 35.4312 358.158 36.3949L358.225 36.4284C358.334 36.4535 358.418 36.4116 358.485 36.3111C358.552 36.2105 358.636 36.177 358.744 36.1938C358.828 36.2357 358.887 36.2608 358.912 36.2608C358.996 36.6965 359.138 37.1155 359.339 37.501C359.54 37.8864 359.758 38.2803 360.001 38.6741Z" fill="white" stroke="white" stroke-width="2"/>
<path d="M92.6716 53.1871C92.6716 53.4804 92.6213 53.7568 92.5124 54.0249C92.4035 54.293 92.2862 54.5528 92.1438 54.8041L91.7332 55.5665C91.5992 55.8179 91.4903 56.086 91.4065 56.3625L91.2892 56.329C91.0127 56.329 90.753 56.3625 90.4933 56.4295C90.2335 56.4965 89.9822 56.5719 89.7308 56.6473C89.4795 56.7227 89.2198 56.8065 88.9517 56.8819C88.6836 56.9573 88.4155 56.9992 88.1474 56.9992C88.1055 56.7227 88.0217 56.4798 87.896 56.2619C87.7703 56.0441 87.5357 55.9352 87.209 55.9352C87.1503 55.776 87.1168 55.6084 87.1085 55.4325C87.1001 55.2565 87.0917 55.0806 87.0917 54.9214C87.0917 54.7538 87.0749 54.5863 87.0498 54.4187C87.0247 54.2512 86.966 54.092 86.8906 53.9328C87.2425 53.6563 87.5357 53.3296 87.7703 52.9442C88.0049 52.5588 88.273 52.2153 88.5663 51.8969C88.8009 51.9555 89.0438 51.989 89.3036 51.989C89.5968 51.989 89.89 51.9555 90.1833 51.8885C90.4765 51.8215 90.7697 51.788 91.063 51.788C91.373 51.788 91.6746 51.8634 91.9427 52.0226C92.0013 52.1231 92.0432 52.232 92.06 52.3493C92.0767 52.4666 92.1103 52.5755 92.1605 52.6844C92.2108 52.7933 92.2694 52.8855 92.3365 52.9609C92.4035 53.0363 92.5208 53.0782 92.6716 53.0782V53.1871Z" fill="white" stroke="white" stroke-width="2"/>
<path d="M153.894 11.8932C153.802 12.0356 153.718 12.1697 153.651 12.2702C153.501 12.5216 153.425 12.6891 153.392 12.731C153.341 12.7981 153.291 12.8399 153.241 12.8651C153.14 12.907 152.872 13.0578 152.646 13.217C152.529 13.3007 152.512 13.2589 152.462 13.2672C152.42 13.2589 152.378 13.2421 152.344 13.2253C152.277 13.1835 152.202 13.1583 152.127 13.1164C152.076 13.1164 152.034 13.108 151.993 13.0997C151.984 13.0997 151.993 13.0997 151.976 13.0997H151.917H151.783L151.44 13.1164C151.146 13.1416 150.92 13.1751 150.803 13.1751C150.711 13.1751 150.719 13.1667 150.677 13.1583C150.568 13.1248 150.351 13.0578 150.158 12.9908C149.948 12.9154 149.714 12.8148 149.463 12.7143C149.22 12.6054 148.91 12.5132 148.642 12.4127C148.08 12.22 147.511 12.0189 146.949 11.8513C145.818 11.5162 144.511 11.1559 143.062 11.2146C141.831 11.2565 140.674 11.6167 139.736 12.0105C139.2 12.3791 138.773 12.7227 138.295 13.1583C137.851 13.5772 137.516 14.038 137.24 14.4737C136.695 15.3534 136.159 16.4342 135.656 17.7161C135.891 17.4982 136.092 17.3726 136.243 17.339C136.393 17.2972 136.519 17.3055 136.611 17.3642C136.703 17.4228 136.812 17.4647 136.93 17.4982C137.047 17.5317 137.206 17.4815 137.407 17.3642C138.061 16.3839 138.681 15.898 139.083 15.7388C139.485 15.5796 139.786 15.5796 139.979 15.6634C140.272 15.4707 140.75 15.2194 141.127 15.0267C141.521 14.8256 141.889 14.6664 142.249 14.5491C142.978 14.3145 143.682 14.2642 144.495 14.3815C145.29 14.4905 146.212 14.7837 147.092 15.0602C147.309 15.1272 147.519 15.1942 147.737 15.2696C147.955 15.3367 148.172 15.4121 148.407 15.521C148.893 15.7137 149.396 15.9231 150.057 16.0739C150.108 16.0823 150.166 16.0991 150.225 16.1075C150.468 16.1493 150.711 16.1661 150.962 16.1577C151.188 16.0488 151.389 15.9231 151.565 15.8142C151.657 15.7556 151.724 15.7053 151.833 15.6466C151.934 15.5964 152.06 15.5377 152.202 15.4791C152.512 15.3618 152.864 15.2026 153.107 14.9931C153.366 14.7837 153.526 14.4653 153.651 14.1888C153.735 13.9542 153.886 13.728 153.978 13.4851C154.07 13.2505 154.07 13.0326 154.087 12.8064C154.095 12.7059 154.104 12.6054 154.087 12.5467C154.129 12.2116 154.07 12.0356 153.945 11.9519L153.894 11.8932Z" fill="white" stroke="white" stroke-width="2"/>
<path d="M349.209 20.6915C349.293 20.6915 349.351 20.6999 349.385 20.725C349.402 20.7334 349.41 20.7502 349.419 20.7669V20.7753V20.7837L349.477 20.3229V20.3145L349.486 20.2726C349.502 20.1805 349.519 20.1553 349.511 20.1721C349.502 20.1805 349.477 20.2223 349.469 20.2391C349.452 20.2642 349.418 20.3061 349.301 20.415C349.142 20.5491 348.933 20.725 348.396 21.0434L348.162 21.1775C348.153 21.1775 348.153 21.1775 348.153 21.1858C348.153 21.1942 348.145 21.1942 348.145 21.211C348.145 21.2194 348.145 21.2277 348.145 21.2445V21.2696V21.278C348.606 21.0518 347.106 21.7891 349.184 20.7669L349.176 20.7753L349.142 20.7921C348.773 20.9764 348.371 21.1104 348.086 21.2026C348.036 21.2194 348.061 21.2277 348.061 21.2445C348.07 21.278 348.078 21.3283 348.095 21.3367C348.212 21.3367 348.547 21.3618 348.773 21.3953C349.025 21.4288 349.276 21.5042 349.469 21.5712C349.578 21.6215 349.653 21.6383 349.729 21.6969L349.821 21.7556L349.863 21.7891L349.871 21.7975L349.879 21.8058C351.094 22.8028 348.229 20.4402 348.522 20.6832L348.505 20.7083L348.338 20.968C348.329 20.9848 348.321 20.9931 348.321 20.9931V21.0015L348.547 21.2026L348.757 21.3953L348.907 21.5461C348.983 21.6215 349.041 21.6802 349.092 21.7304C349.251 21.9064 349.217 21.898 349.15 21.7807C349.117 21.7221 349.092 21.655 349.041 21.5461L349.008 21.4707L349 21.4539V21.4456V21.4372C349.268 22.141 349.075 21.6299 349.134 21.7891L349.125 21.7807L349.108 21.7304C349.083 21.6466 349.05 21.5126 349.016 21.2277C349 21.0769 348.983 20.9177 348.966 20.658C348.966 20.6329 348.958 20.6413 348.949 20.6329C348.924 20.6245 348.874 20.6077 348.807 20.591C348.715 20.6664 348.589 20.7418 348.447 20.8256L348.162 21.0769C347.977 21.2529 347.802 21.4372 347.634 21.6215C347.307 22.0069 346.897 22.3337 346.402 22.6101C346.511 22.7693 346.587 22.9285 346.629 23.0961C346.67 23.2636 346.687 23.4312 346.687 23.5988C346.687 23.7663 346.696 23.9339 346.704 24.1098C346.721 24.2858 346.763 24.4534 346.846 24.6125C347.316 24.6125 347.634 24.7215 347.81 24.9393C347.986 25.1571 348.103 25.4001 348.162 25.6766L348.447 25.6682L348.673 25.6514C348.882 25.6347 349.226 25.6179 349.67 25.509C349.896 25.4587 350.139 25.375 350.382 25.266C350.6 25.1655 350.809 25.0482 351.036 24.889C351.496 24.5706 351.815 24.1434 351.932 23.9339C351.999 23.825 352.032 23.7412 352.066 23.6826C352.074 23.6658 352.066 23.6658 352.091 23.6239L352.234 23.4061C352.326 23.2553 352.376 23.1296 352.435 22.9955C352.636 22.4761 352.652 22.0823 352.652 21.7388C352.636 21.0602 352.535 20.5407 352.351 19.904C352.334 19.8118 352.309 19.7113 352.284 19.6024C352.125 19.5689 351.924 19.4432 351.764 19.4264C351.605 19.4013 351.438 19.3594 351.253 19.2924C350.893 19.1751 350.449 19.0494 350.064 19.1332C349.67 19.217 349.502 19.5018 349.36 19.7532C349.226 20.0129 349.176 20.2978 349.184 20.591L349.209 20.6915Z" fill="white" stroke="white" stroke-width="2" stroke-miterlimit="10"/>
</svg>
