<svg width="323" height="59" viewBox="0 0 323 59" fill="none" xmlns="http://www.w3.org/2000/svg">
<path d="M31.3049 49.4427C31.3049 49.6678 31.2962 49.8409 31.2702 49.9535C31.1572 49.9968 31.0703 50.0574 31.0008 50.1353C30.9313 50.2132 30.8184 50.2391 30.662 50.2218C30.6185 50.5594 30.5056 50.8451 30.3231 51.0702C30.1407 51.2953 29.9582 51.503 29.7671 51.6935C29.5759 51.8839 29.3848 52.0917 29.211 52.2994C29.0286 52.5158 28.9156 52.7929 28.8722 53.1305C28.5333 53.3123 28.1945 53.5546 27.873 53.8576C27.5429 54.1606 27.2562 54.3684 27.0042 54.4809C26.8217 54.5675 26.6306 54.6454 26.4308 54.6973C26.2309 54.7493 26.0224 54.8272 25.8226 54.9137C25.1623 55.2081 24.4933 55.5111 23.8069 55.8227C23.1205 56.1343 22.3994 56.2988 21.6522 56.2988H21.4176C21.3307 56.3854 21.2178 56.4546 21.0787 56.4806C20.9397 56.5066 20.8094 56.5412 20.6704 56.5672C20.5314 56.5931 20.4011 56.6191 20.262 56.6711C20.123 56.7143 20.0275 56.7836 19.958 56.8701C19.706 56.7836 19.4367 56.7316 19.1412 56.7316H18.9067C18.5244 56.8182 18.1595 56.8875 17.8206 56.9307C17.4818 56.974 17.1169 57 16.7346 57C16.0569 57 15.3792 56.9567 14.7015 56.8615C14.0238 56.7749 13.3461 56.6884 12.6684 56.6278C12.234 56.2902 11.8865 55.866 11.6171 55.3639C11.3478 54.8618 11.2088 54.3164 11.2088 53.7537C11.2088 53.3209 11.2957 52.9227 11.4781 52.5505C11.6606 52.1782 11.8952 51.8493 12.1906 51.555H12.2948C12.4947 51.555 12.7032 51.5117 12.9204 51.4165C13.1376 51.3299 13.3461 51.2779 13.546 51.2779C13.7719 51.2779 13.9543 51.3645 14.102 51.5463C14.2497 51.7281 14.3627 51.9445 14.4409 52.1869C14.5191 52.4379 14.5712 52.689 14.5972 52.9487C14.6233 53.2084 14.632 53.4161 14.632 53.572C14.884 53.6845 15.1446 53.7538 15.4313 53.7711C15.718 53.797 16.0048 53.8057 16.3002 53.8057C16.5956 53.8057 16.9257 53.7884 17.2819 53.7537C17.6469 53.7191 18.0118 53.6672 18.3854 53.5806C18.759 53.5027 19.1239 53.4075 19.4714 53.2949C19.8189 53.1824 20.123 53.0352 20.375 52.8535C21.6174 52.7409 22.7208 52.4552 23.6679 52.0051C24.6149 51.555 25.6227 51.0269 26.6914 50.4123C26.7349 50.1612 26.8304 49.9708 26.9781 49.8236C27.1258 49.6765 27.1953 49.46 27.1953 49.1657C27.1953 49.1224 27.1866 49.0705 27.178 49.0099C27.1693 48.958 27.1606 48.906 27.1606 48.8541C26.7088 48.2914 26.2396 47.798 25.7531 47.3651C25.2665 46.941 24.641 46.6553 23.8677 46.5168C23.7808 46.3177 23.6331 46.1618 23.4246 46.058C23.2161 45.9541 23.0076 45.8589 22.7817 45.7723C22.5558 45.6857 22.3386 45.5905 22.1387 45.4866C21.9389 45.3828 21.7912 45.2096 21.6956 44.9586C21.0874 44.846 20.4532 44.7075 19.8103 44.5344C19.1673 44.3613 18.6199 44.0583 18.1682 43.6081C17.8032 43.5822 17.4644 43.5129 17.1342 43.3917C16.8041 43.2705 16.4826 43.1407 16.1698 43.0195C15.8484 42.8983 15.5269 42.7857 15.1881 42.6819C14.8492 42.578 14.5017 42.526 14.1368 42.526C14.0499 42.3702 13.9196 42.2404 13.7632 42.1538C13.6068 42.0672 13.433 41.9807 13.2332 41.9201C13.042 41.8508 12.8596 41.7816 12.6945 41.7037C12.5207 41.6258 12.3904 41.5046 12.3035 41.3487C12.2166 41.3747 12.1471 41.418 12.1037 41.4872C12.0603 41.5565 11.9821 41.5911 11.8691 41.5911H11.6867C11.6432 41.4526 11.5476 41.3574 11.4173 41.3055C11.2783 41.2535 11.2001 41.1323 11.1827 40.9505C10.7744 40.9246 10.4095 40.8467 10.0793 40.7168C9.74916 40.5783 9.44506 40.4311 9.16704 40.258C8.88032 40.0849 8.59361 39.929 8.2982 39.7646C8.0028 39.6088 7.67264 39.4789 7.31642 39.3923C7.08184 39.2452 6.87332 39.0547 6.68217 38.8383C6.49103 38.6219 6.24776 38.518 5.95235 38.518C5.88285 38.518 5.76121 38.544 5.57875 38.5873C5.53531 38.1804 5.36155 37.8947 5.06614 37.7216C4.77074 37.5485 4.45796 37.4013 4.11911 37.2628C3.89322 36.6741 3.58912 36.1547 3.20684 35.7046C2.82455 35.2544 2.40751 34.8389 1.94703 34.4494C1.99047 34.3109 2.01654 34.2156 2.01654 34.1464C2.01654 33.9213 1.96441 33.7222 1.84277 33.5577C1.72982 33.3846 1.60818 33.2461 1.46917 33.1336C1.15639 32.1294 1 31.1339 1 30.1643C1 28.8139 1.30409 27.5587 1.90359 26.39C2.50308 25.23 3.45011 24.3557 4.73599 23.767C4.76205 23.5853 4.82287 23.4294 4.91844 23.2909C5.01401 23.1524 5.08352 22.9966 5.1009 22.8148C5.30073 22.8148 5.46581 22.7715 5.57875 22.6763C5.6917 22.5897 5.79596 22.4945 5.90022 22.3906C6.00448 22.2868 6.10874 22.1915 6.22169 22.105C6.33464 22.0184 6.48234 21.9578 6.6648 21.9318C7.52494 21.1874 8.43722 20.5814 9.41031 20.1226C10.3834 19.6638 11.3826 19.179 12.3991 18.6856C12.5989 18.599 12.7727 18.4259 12.9117 18.1748H13.1115C13.3374 18.1748 13.5112 18.1229 13.6415 18.019C13.7632 17.9151 13.9543 17.8892 14.1976 17.9324C14.2845 17.7939 14.4061 17.7074 14.5538 17.6641C14.7015 17.6208 14.8492 17.5775 14.9969 17.5429C15.1446 17.5083 15.2836 17.4563 15.4226 17.3871C15.5617 17.3178 15.6485 17.2139 15.692 17.0841H15.9266C16.3089 17.0841 16.6824 17.0235 17.0474 16.9023C17.4123 16.7811 17.7685 16.6339 18.1334 16.4781H18.3767C18.8285 16.4781 19.2542 16.3916 19.6452 16.2271C20.0448 16.0539 20.4619 15.9414 20.9137 15.8722C21.0961 15.8289 21.2786 15.8202 21.4523 15.8375C21.6348 15.8635 21.8173 15.8722 21.991 15.8722C22.104 15.8722 22.243 15.8635 22.3994 15.8375C22.5558 15.8116 22.6687 15.751 22.7382 15.6384H22.8077C22.9467 15.6384 23.0249 15.6817 23.0423 15.7769C23.0684 15.8635 23.1292 15.9154 23.2421 15.9154C23.3985 15.9154 23.5549 15.8895 23.72 15.8462C23.8764 15.8029 24.0328 15.7769 24.1979 15.7769C24.8756 15.7769 25.5532 15.8462 26.2136 15.976C26.8826 16.1145 27.5429 16.2357 28.2032 16.3483C28.2466 16.6166 28.3683 16.8071 28.5594 16.9196C28.7506 17.0322 28.9591 17.136 29.185 17.2226V17.3611C29.185 17.5429 29.2284 17.6901 29.324 17.8026C29.2371 18.1229 29.072 18.3566 28.8461 18.5124C28.6202 18.6683 28.3683 18.8068 28.0989 18.9193C28.2119 19.0059 28.2814 19.1357 28.2988 19.2915C28.3248 19.4474 28.3335 19.5945 28.3335 19.733V20.1399L28.1597 20.1053C27.7948 20.1053 27.6211 20.2784 27.6211 20.616C27.3257 20.4342 27.0042 20.3217 26.6567 20.2784C26.3091 20.2351 25.9616 20.2092 25.6227 20.2092C25.171 20.2092 24.6931 20.2265 24.1979 20.2611C23.7026 20.2957 23.2161 20.2871 22.7382 20.2438C22.5558 20.4689 22.3299 20.6333 22.0605 20.7372C21.7912 20.8411 21.5219 20.893 21.2438 20.893C20.9484 20.893 20.6704 20.8324 20.3924 20.7112C20.123 20.59 19.9319 20.3996 19.8189 20.1572C19.706 20.1139 19.6017 20.088 19.5148 20.088H19.2108C18.8458 20.088 18.4896 20.1312 18.1421 20.2092C17.7946 20.2871 17.4383 20.3823 17.0734 20.4775C16.7085 20.5814 16.3523 20.6766 16.0048 20.7805C15.6572 20.8844 15.301 20.945 14.9361 20.9623C14.7971 21.1441 14.6146 21.2653 14.3974 21.3345C14.1715 21.4038 13.9891 21.525 13.8587 21.7068C13.3809 21.7933 12.9552 21.9491 12.5729 22.1656C12.1906 22.382 11.817 22.607 11.4521 22.8581L10.4008 23.5679C10.0619 23.793 9.67965 23.9835 9.24523 24.1393C8.92376 24.4769 8.63705 24.7452 8.35902 24.953C8.081 25.1608 7.73346 25.3339 7.30773 25.4897C7.03839 25.5763 6.882 25.7148 6.84725 25.8966C6.8125 26.0784 6.71693 26.2602 6.56054 26.4333C6.42152 26.5891 6.25644 26.7103 6.0653 26.7882C5.87416 26.8661 5.70908 26.996 5.57007 27.1778C5.45712 27.3336 5.37023 27.524 5.3181 27.7318C5.25729 27.9482 5.19647 28.156 5.13565 28.3551C5.07483 28.5542 4.98795 28.7533 4.90106 28.9437C4.81418 29.1342 4.67517 29.2987 4.49271 29.4372C4.49271 29.5237 4.48402 29.619 4.47534 29.7055C4.46665 29.7921 4.45796 29.8787 4.45796 29.9392C4.45796 30.2595 4.49271 30.5798 4.5796 30.9001C4.65779 31.2291 4.70992 31.5494 4.73599 31.861C5.18778 32.6488 5.71777 33.3673 6.33464 34.0079C6.95151 34.6485 7.60314 35.2458 8.30689 35.7825C9.01065 36.3192 9.74047 36.83 10.4964 37.3061C11.2522 37.7822 12.0081 38.241 12.7553 38.6911C13.0247 38.6652 13.2766 38.6998 13.5025 38.7777C13.7284 38.8556 13.963 38.9076 14.215 38.9335C14.4843 39.1326 14.8058 39.2971 15.162 39.4096L16.248 39.7473C16.6129 39.8598 16.9605 39.9896 17.2993 40.1368C17.6382 40.284 17.9249 40.4831 18.1508 40.7255C18.2637 40.7514 18.368 40.7774 18.4549 40.812C18.5418 40.8467 18.646 40.864 18.759 40.864C18.898 40.864 18.9762 40.8207 18.9935 40.7255C20.0101 41.1064 21.0092 41.5305 21.9823 41.9893C22.9554 42.4481 23.9807 42.8031 25.0667 43.0541C25.4924 43.4177 25.9703 43.7293 26.4916 43.9977C27.0129 44.266 27.5342 44.5431 28.0555 44.8287C28.5768 45.1144 29.072 45.4174 29.5499 45.7377C30.0277 46.0666 30.4448 46.4562 30.8097 46.9063C30.8531 47.3392 30.9487 47.746 31.0964 48.1442C31.2354 48.5684 31.3049 48.9839 31.3049 49.4427Z" fill="white" stroke="white" stroke-width="2"/>
<path d="M55.4936 31.1079C55.3546 31.307 55.2764 31.5407 55.259 31.7831C55.2329 32.0342 55.2243 32.2592 55.2243 32.4583C55.2243 32.7267 55.2329 32.9951 55.2416 33.2548C55.2503 33.5145 55.259 33.7655 55.259 34.0165V34.5273C55.2156 34.6831 55.1461 34.8476 55.0592 35.0034C54.9723 35.1592 54.9028 35.3237 54.8593 35.4795C54.5379 36.3106 54.3815 37.1503 54.3815 37.9813V38.0505C54.2685 38.3189 54.1643 38.57 54.06 38.795C53.9558 39.0201 53.8602 39.2365 53.7733 39.4529C53.6864 39.6693 53.6169 39.8944 53.5735 40.1281C53.53 40.3619 53.5127 40.6389 53.5387 40.9592C53.2172 41.7469 52.8002 42.4655 52.2789 43.106C51.7576 43.7466 51.245 44.4045 50.7498 45.0884C50.2719 45.2702 49.8375 45.5039 49.4465 45.7983C49.0468 46.0926 48.6732 46.4215 48.3083 46.7765C47.6046 47.0015 46.9182 47.2612 46.2405 47.5556C45.5628 47.8499 44.9546 48.2394 44.4073 48.7415C43.9729 48.7848 43.5471 48.8541 43.1214 48.9406C42.687 49.0272 42.2699 49.1657 41.8616 49.3475H41.4532C41.2534 49.3475 41.1057 49.3042 41.0101 49.209C40.7147 49.3648 40.4106 49.4774 40.0979 49.5293C39.7764 49.5899 39.4636 49.6159 39.1508 49.6159C38.7425 49.6159 38.3428 49.5899 37.9431 49.5293C37.5435 49.4774 37.1438 49.4081 36.7355 49.3475C36.5096 49.0359 36.1968 48.7935 35.7884 48.6203C35.3801 48.4472 35.0152 48.2914 34.7024 48.1269C34.0421 47.2266 33.5729 46.3523 33.2775 45.5039C32.9821 44.6556 32.678 43.7034 32.3652 42.6472C32.4087 42.3356 32.4869 42.024 32.5998 41.721C32.7128 41.418 32.7562 41.0804 32.7388 40.7255C33.1472 39.5568 33.6859 38.492 34.3549 37.5311C35.0239 36.5703 35.7884 35.6526 36.6486 34.7783C36.6486 34.6398 36.6747 34.5273 36.7355 34.4407C36.7876 34.3541 36.7963 34.2156 36.7528 34.0339C36.7789 34.0598 36.8224 34.0685 36.8919 34.0685C37.0743 34.0685 37.1873 34.0165 37.2307 33.9127C37.2741 33.8088 37.2828 33.6962 37.2655 33.5577C38.0822 33.0383 38.8207 32.441 39.4897 31.7658C40.1587 31.0906 40.9232 30.5279 41.7834 30.0778C41.8529 29.8787 41.9659 29.7055 42.1222 29.567C42.2786 29.4285 42.409 29.2727 42.4958 29.0909C43.217 28.8918 43.8773 28.5801 44.4681 28.1819C45.0589 27.7751 45.6758 27.4202 46.3361 27.0999C46.701 26.9008 47.0398 26.7536 47.37 26.6757C47.7002 26.5978 48.0564 26.5112 48.4387 26.4246C48.5777 26.3814 48.6993 26.3467 48.8123 26.3208C48.9252 26.2948 49.0468 26.2861 49.1859 26.2861C49.5942 26.2861 49.9852 26.3554 50.3762 26.5025C50.7584 26.6497 51.1581 26.719 51.5665 26.719C51.6794 26.719 51.775 26.7103 51.8532 26.7017C51.9314 26.693 52.0183 26.6757 52.1051 26.6497C52.4874 27.1258 52.974 27.4808 53.5648 27.7318C53.7038 28.0694 53.8602 28.3637 54.06 28.6148C54.2512 28.8658 54.451 29.1082 54.6508 29.3419C54.8507 29.5757 55.0418 29.8354 55.2069 30.121C55.3372 30.3981 55.4501 30.727 55.4936 31.1079ZM52.0965 32.8652C52.0965 32.7527 52.0878 32.6488 52.0617 32.5622C51.8358 32.493 51.6186 32.4064 51.4188 32.2939C51.2189 32.1813 50.9843 32.1207 50.7411 32.1207C50.5847 32.1207 50.4196 32.1554 50.2632 32.2246C50.2371 32.0688 50.1763 31.9563 50.0808 31.887C49.9852 31.8177 49.8635 31.7571 49.7419 31.7052C49.6203 31.6533 49.4899 31.6013 49.3683 31.5667C49.2467 31.5321 49.1337 31.4715 49.0468 31.3849C48.9773 31.2031 48.9078 31.0213 48.8296 30.8309C48.7514 30.6404 48.6124 30.5019 48.4039 30.4067C48.2041 30.6058 47.9608 30.7703 47.6915 30.9001C47.4221 31.0213 47.1441 31.1425 46.8574 31.2551C46.5707 31.3676 46.3013 31.5061 46.0407 31.6619C45.78 31.8177 45.5628 32.0082 45.3804 32.2333H44.7722C44.6332 32.4843 44.442 32.6661 44.1988 32.7873C43.9468 32.9085 43.7383 33.0903 43.5558 33.3153C43.1909 33.4971 42.8607 33.7136 42.5567 33.9733C42.2526 34.233 41.9485 34.5013 41.6531 34.787C41.3577 35.0727 41.071 35.3583 40.7842 35.6527C40.4975 35.947 40.2021 36.2153 39.8806 36.4664C39.5852 37.0983 39.2638 37.6437 38.9162 38.1025C38.5687 38.5613 38.2386 39.0288 37.9345 39.5049C37.6304 39.981 37.3697 40.4917 37.1525 41.0458C36.9353 41.5998 36.831 42.2837 36.831 43.0887V43.4263C36.831 43.5389 36.8397 43.6514 36.8658 43.764C37.1612 44.0842 37.4045 44.4219 37.5956 44.7768C37.7868 45.1404 38.1082 45.4001 38.56 45.5559C39.0118 45.7377 39.4897 45.8156 40.0023 45.7896C40.5149 45.7636 41.0014 45.8242 41.4793 45.9627C42.5653 45.7636 43.6079 45.426 44.6158 44.9672C45.6236 44.5084 46.5794 43.9457 47.4829 43.2965C47.622 43.184 47.7783 43.0628 47.9608 42.9416C48.1433 42.8204 48.291 42.6905 48.4039 42.552C48.5169 42.4395 48.6124 42.3183 48.6906 42.1798C48.7688 42.0413 48.8557 41.9201 48.9426 41.8075C49.125 41.5132 49.3249 41.2189 49.5508 40.9246C49.7767 40.6302 50.0112 40.3619 50.2632 40.1108C50.3762 39.6174 50.5239 39.1326 50.7063 38.6738C50.8888 38.215 51.0712 37.7562 51.245 37.3061C51.4275 36.8559 51.5752 36.3971 51.7055 35.921C51.8271 35.4449 51.8879 34.9515 51.8879 34.4321C51.8879 34.3195 51.8792 34.1983 51.8706 34.0598C51.8619 33.9213 51.8445 33.8001 51.8184 33.6876C52.0096 33.4365 52.0965 33.1595 52.0965 32.8652Z" fill="white" stroke="white" stroke-width="2"/>
<path d="M96.6326 34.0166C96.6326 34.2416 96.5544 34.3888 96.398 34.458C96.2416 34.5273 96.1634 34.6571 96.1634 34.8649C96.1634 34.9342 96.1895 34.9861 96.233 35.038C96.2764 35.0813 96.3025 35.1506 96.3025 35.2371V35.3756C96.0331 36.6828 95.6421 37.8255 95.1295 38.795C94.6169 39.7646 94.0261 40.6562 93.3484 41.4699C92.6707 42.2837 91.9062 43.0455 91.0547 43.7726C90.2032 44.4911 89.291 45.2529 88.3266 46.0407C88.0572 46.2657 87.7792 46.4908 87.4925 46.7159C87.2058 46.941 86.9451 47.1747 86.6932 47.4257L85.946 48.1356C85.9199 48.1615 85.7983 48.2048 85.5724 48.2914C85.3465 48.3693 85.2075 48.4212 85.164 48.4472C84.8425 48.5857 84.5124 48.7415 84.1649 48.9233C83.8173 49.1051 83.5132 49.3302 83.2613 49.5986C82.8095 49.5986 82.4272 49.6678 82.1057 49.7977C81.7842 49.9362 81.4367 50.118 81.0544 50.3344C80.9415 50.3344 80.8459 50.3084 80.7677 50.2651C80.6895 50.2218 80.6026 50.1786 80.5157 50.1266C80.4289 50.0833 80.3333 50.0574 80.229 50.04C80.1248 50.0314 79.9944 50.0487 79.8381 50.092C79.5687 49.6418 79.2733 49.2609 78.9518 48.9406C78.6304 48.629 78.2047 48.4299 77.666 48.3693C77.5965 47.9884 77.4401 47.6854 77.1881 47.469C76.9362 47.2526 76.6929 47.0275 76.4409 46.7765C76.3975 46.638 76.3627 46.4822 76.3367 46.3004C76.3106 46.1186 76.2672 45.9541 76.1976 45.7896C76.1281 45.6338 76.0413 45.4953 75.9283 45.3828C75.8154 45.2702 75.659 45.2096 75.4505 45.2096C75.4244 45.0711 75.4852 45.0105 75.6242 45.0105C75.7632 45.0105 75.824 44.9586 75.824 44.8374C75.824 44.6989 75.798 44.569 75.7545 44.4305C75.7111 44.292 75.685 44.1449 75.685 43.989C75.685 43.8765 75.6937 43.7726 75.7198 43.6861C75.7459 43.5995 75.7719 43.4956 75.824 43.3831C75.7545 42.7771 75.7198 42.1538 75.7198 41.5219C75.7198 40.3013 75.8067 39.1067 75.9718 37.9207C76.1368 36.7347 76.2237 35.5401 76.2237 34.3195C76.2237 33.7828 76.1976 33.2374 76.1368 32.6921C76.076 32.1554 75.9717 31.6187 75.8154 31.0992C75.2941 31.2118 74.7728 31.3416 74.2515 31.4888C73.7302 31.636 73.2436 31.8351 72.7918 32.0775C72.5399 31.9216 72.2792 31.8264 71.9925 31.7918C71.7058 31.7572 71.4364 31.6966 71.1584 31.61C71.002 31.2984 70.9238 30.9694 70.9238 30.6318C70.9238 30.3202 70.9846 30.0085 71.0976 29.7228L71.4364 28.8399C71.9751 28.7273 72.5138 28.5542 73.0525 28.3291C73.5825 28.104 74.1211 27.9049 74.6685 27.7232C74.851 27.6799 75.0768 27.6193 75.3636 27.55C75.6503 27.4808 75.8414 27.4288 75.9544 27.3769C76.1108 27.3076 76.2237 27.1778 76.2758 26.9873C76.328 26.7969 76.4149 26.6324 76.5278 26.4939H77.1012C77.2402 26.4939 77.3879 26.5026 77.5443 26.5112C77.7007 26.5199 77.8484 26.5632 77.9874 26.6324C78.8041 26.4333 79.6208 26.3035 80.4289 26.2429C81.2456 26.1909 82.0796 26.1044 82.9398 25.9918C83.0267 25.9918 83.1657 25.9832 83.3481 25.9572L83.9216 25.8533C84.1214 25.81 84.3126 25.7667 84.4776 25.7321C84.6427 25.6975 84.7643 25.6802 84.8339 25.6802C84.9034 25.6802 84.9381 25.7148 84.9381 25.7841H85.5115C86.4846 25.7841 87.4317 25.9052 88.3613 26.1563L91.1416 26.9008C91.5239 27.2211 91.9062 27.524 92.2971 27.8097C92.6794 28.104 93.1138 28.3637 93.583 28.5888C93.696 28.9524 93.8697 29.2381 94.113 29.4545C94.3476 29.6709 94.6169 29.896 94.9123 30.147C95.0253 30.4413 95.1817 30.753 95.3728 31.0733C95.564 31.4022 95.7551 31.7312 95.9289 32.0688C96.1113 32.4064 96.2677 32.744 96.4067 33.0643C96.5631 33.4192 96.6326 33.7222 96.6326 34.0166ZM93.4788 34.5273C93.2268 34.0079 92.9922 33.4712 92.7663 32.8998C92.5404 32.3372 92.2537 31.8264 91.9148 31.3763C91.5065 31.2637 91.0981 31.1252 90.6724 30.9521C90.2554 30.779 89.9687 30.4846 89.8036 30.0518C89.7601 30.0778 89.6819 30.0864 89.569 30.0864C89.3692 30.0864 89.1867 30.0085 89.0303 29.8527C88.8739 29.6969 88.6915 29.593 88.4916 29.5497C88.3092 29.5237 88.0659 29.4978 87.7618 29.4458C87.4577 29.4025 87.1363 29.3679 86.7974 29.3419C86.4586 29.316 86.1197 29.2987 85.7983 29.2727C85.4681 29.2467 85.2161 29.2381 85.0337 29.2381C84.8512 29.2381 84.6688 29.2467 84.4776 29.2554C84.2865 29.264 84.0867 29.2813 83.8868 29.3073C83.7044 29.3073 83.5914 29.3333 83.548 29.3939C83.5045 29.4545 83.409 29.4978 83.2786 29.5497C83.1657 29.5064 83.0441 29.4805 82.905 29.4805H82.4967C82.0188 29.4805 81.5497 29.5497 81.0892 29.6969C80.6287 29.844 80.1682 30.0431 79.7164 30.2855V30.424C79.7164 30.6058 79.7946 30.7097 79.951 30.727C80.1074 30.753 80.203 30.8396 80.2203 30.9954C80.1074 30.9954 80.0205 31.004 79.951 31.0127C79.8815 31.0213 79.8467 31.1079 79.8467 31.2637C79.8467 31.4888 79.8728 31.7398 79.9336 32.0082C79.9858 32.2766 80.0205 32.5449 80.0205 32.8219C80.0205 33.021 79.9945 33.2634 79.951 33.5318C79.9076 33.8001 79.7946 34.0166 79.6122 34.1724C79.8381 34.3715 79.951 34.6485 79.951 34.9861C79.951 35.2112 79.9076 35.4449 79.812 35.6959C79.7251 35.947 79.6122 36.1547 79.4731 36.3365C79.4297 37.2801 79.3341 38.241 79.2038 39.2106C79.0648 40.1801 79.004 41.141 79.004 42.0846C79.004 42.5607 79.03 43.0195 79.0909 43.4696C79.143 43.9198 79.2473 44.3699 79.3776 44.8201C79.6295 45.0711 79.8902 45.2616 80.1769 45.3914C80.4636 45.5299 80.759 45.6598 81.0805 45.7983V45.9022C81.0805 45.9714 81.0371 46.0407 80.9415 46.1013C80.8546 46.1705 80.8025 46.2571 80.8025 46.3696C80.8025 46.4562 80.8459 46.5081 80.9415 46.5081C81.8885 46.2398 82.7834 45.9108 83.6262 45.5299C84.4603 45.149 85.2422 44.6296 85.972 43.9717C86.0415 43.9025 86.111 43.8678 86.1719 43.8678C86.2153 43.8678 86.2761 43.8765 86.3543 43.9025C86.4325 43.9284 86.5107 43.9458 86.5715 43.9717L86.5368 43.8332C86.5368 43.6947 86.5715 43.5735 86.6584 43.461C86.7366 43.3484 86.8322 43.2446 86.9451 43.158L87.284 42.855C87.3969 42.7425 87.4838 42.6299 87.5533 42.5174C87.7358 42.4741 87.8661 42.3789 87.9443 42.249C88.0225 42.1105 88.1615 42.0499 88.37 42.0499C88.4134 41.7989 88.5438 41.6171 88.7436 41.4959C88.9434 41.3747 89.0738 41.1843 89.1172 40.9419C89.569 40.6908 89.9687 40.3879 90.3249 40.0329C90.6724 39.6694 91.0026 39.2885 91.3067 38.8816C91.6108 38.4747 91.8975 38.0506 92.1755 37.6177C92.4535 37.1849 92.7316 36.7521 93.027 36.3539V36.2153C93.027 35.8518 93.0878 35.5661 93.2094 35.3324C93.3137 35.1159 93.4092 34.8389 93.4788 34.5273Z" fill="white" stroke="white" stroke-width="2"/>
<path d="M120.482 31.1079C120.343 31.307 120.265 31.5407 120.247 31.7831C120.221 32.0342 120.213 32.2592 120.213 32.4583C120.213 32.7267 120.221 32.9951 120.23 33.2548C120.239 33.5145 120.247 33.7655 120.247 34.0165V34.5273C120.204 34.6831 120.134 34.8476 120.047 35.0034C119.961 35.1592 119.891 35.3237 119.848 35.4795C119.526 36.3106 119.37 37.1503 119.37 37.9813V38.0506C119.257 38.3189 119.153 38.57 119.048 38.795C118.944 39.0201 118.848 39.2365 118.762 39.4529C118.675 39.6694 118.605 39.8944 118.562 40.1282C118.518 40.3619 118.501 40.6389 118.527 40.9592C118.206 41.747 117.788 42.4655 117.267 43.1061C116.746 43.7466 116.233 44.4045 115.738 45.0884C115.26 45.2702 114.826 45.5039 114.435 45.7983C114.035 46.0926 113.662 46.4216 113.297 46.7765C112.593 47.0016 111.906 47.2613 111.229 47.5556C110.551 47.8499 109.943 48.2395 109.396 48.7415C108.961 48.7848 108.535 48.8541 108.11 48.9406C107.675 49.0272 107.258 49.1657 106.85 49.3475H106.442C106.242 49.3475 106.094 49.3042 105.998 49.209C105.703 49.3648 105.399 49.4774 105.086 49.5293C104.765 49.5899 104.452 49.6159 104.139 49.6159C103.731 49.6159 103.331 49.5899 102.931 49.5293C102.532 49.4774 102.132 49.4081 101.724 49.3475C101.498 49.0359 101.185 48.7935 100.777 48.6203C100.368 48.4472 100.003 48.2914 99.6907 48.1269C99.0304 47.2266 98.5612 46.3523 98.2658 45.5039C97.9704 44.6556 97.6663 43.7034 97.3535 42.6472C97.397 42.3356 97.4751 42.024 97.5881 41.721C97.701 41.418 97.7445 41.0804 97.7271 40.7255C98.1355 39.5568 98.6741 38.492 99.3431 37.5312C100.012 36.5703 100.777 35.6527 101.637 34.7783C101.637 34.6398 101.663 34.5273 101.724 34.4407C101.776 34.3542 101.785 34.2157 101.741 34.0339C101.767 34.0598 101.811 34.0685 101.88 34.0685C102.063 34.0685 102.176 34.0165 102.219 33.9127C102.262 33.8088 102.271 33.6962 102.254 33.5577C103.07 33.0383 103.809 32.441 104.478 31.7658C105.147 31.0906 105.912 30.5279 106.772 30.0778C106.841 29.8787 106.954 29.7055 107.111 29.567C107.267 29.4285 107.397 29.2727 107.484 29.0909C108.205 28.8918 108.866 28.5802 109.456 28.1819C110.047 27.7751 110.664 27.4202 111.324 27.0999C111.689 26.9008 112.028 26.7536 112.358 26.6757C112.688 26.5978 113.045 26.5112 113.427 26.4246C113.566 26.3814 113.688 26.3467 113.801 26.3208C113.913 26.2948 114.035 26.2861 114.174 26.2861C114.582 26.2861 114.973 26.3554 115.364 26.5026C115.747 26.6497 116.146 26.719 116.555 26.719C116.668 26.719 116.763 26.7103 116.841 26.7017C116.92 26.693 117.007 26.6757 117.093 26.6497C117.476 27.1258 117.962 27.4808 118.553 27.7318C118.692 28.0694 118.848 28.3637 119.048 28.6148C119.239 28.8658 119.439 29.1082 119.639 29.3419C119.839 29.5757 120.03 29.8354 120.195 30.121C120.325 30.3981 120.43 30.727 120.482 31.1079ZM117.085 32.8652C117.085 32.7527 117.076 32.6488 117.05 32.5622C116.824 32.493 116.607 32.4064 116.407 32.2939C116.207 32.1813 115.973 32.1207 115.729 32.1207C115.573 32.1207 115.408 32.1554 115.251 32.2246C115.225 32.0688 115.165 31.9563 115.069 31.887C114.973 31.8178 114.852 31.7572 114.73 31.7052C114.609 31.6533 114.478 31.6013 114.357 31.5667C114.235 31.5321 114.122 31.4715 114.035 31.3849C113.966 31.2031 113.896 31.0213 113.818 30.8309C113.74 30.6404 113.601 30.5019 113.392 30.4067C113.192 30.6058 112.949 30.7703 112.68 30.9001C112.41 31.0213 112.132 31.1425 111.846 31.2551C111.559 31.3676 111.29 31.5061 111.029 31.6619C110.768 31.8178 110.551 32.0082 110.369 32.2333H109.76C109.621 32.4843 109.43 32.6661 109.187 32.7873C108.935 32.9085 108.727 33.0903 108.544 33.3154C108.179 33.4971 107.849 33.7136 107.545 33.9733C107.241 34.233 106.937 34.5013 106.641 34.787C106.346 35.0727 106.059 35.3583 105.773 35.6527C105.486 35.947 105.19 36.2153 104.869 36.4664C104.574 37.0983 104.252 37.6437 103.905 38.1025C103.557 38.5613 103.227 39.0288 102.923 39.5049C102.619 39.981 102.358 40.4917 102.141 41.0458C101.924 41.5998 101.819 42.2837 101.819 43.0887V43.4263C101.819 43.5389 101.828 43.6514 101.854 43.764C102.149 44.0843 102.393 44.4219 102.584 44.7768C102.775 45.1404 103.097 45.4001 103.548 45.5559C104 45.7377 104.478 45.8156 104.991 45.7896C105.503 45.7636 105.99 45.8242 106.468 45.9628C107.554 45.7636 108.596 45.426 109.604 44.9672C110.612 44.5084 111.568 43.9457 112.471 43.2965C112.61 43.184 112.767 43.0628 112.949 42.9416C113.132 42.8204 113.279 42.6905 113.392 42.552C113.505 42.4395 113.601 42.3183 113.679 42.1798C113.757 42.0413 113.844 41.9201 113.931 41.8076C114.113 41.5132 114.313 41.2189 114.539 40.9246C114.765 40.6302 115 40.3619 115.251 40.1108C115.364 39.6174 115.512 39.1326 115.695 38.6738C115.877 38.215 116.06 37.7562 116.233 37.3061C116.416 36.8559 116.563 36.3971 116.694 35.921C116.815 35.4449 116.876 34.9515 116.876 34.4321C116.876 34.3195 116.868 34.1983 116.859 34.0598C116.85 33.9213 116.833 33.8001 116.807 33.6876C116.989 33.4366 117.085 33.1595 117.085 32.8652ZM128.553 21.9491V22.2868C128.371 22.2868 128.241 22.3474 128.162 22.4599C128.084 22.5724 128.023 22.7023 127.989 22.8494C127.954 22.9966 127.936 23.1524 127.936 23.3256C127.936 23.4987 127.928 23.6372 127.902 23.7497C127.719 23.9056 127.502 24.0267 127.259 24.1047C127.007 24.1826 126.781 24.3124 126.581 24.4942C126.016 24.3384 125.408 24.122 124.765 23.8536C124.122 23.5853 123.505 23.4727 122.915 23.516C122.715 23.3602 122.489 23.213 122.254 23.0745C122.02 22.936 121.776 22.8062 121.524 22.6677C121.273 22.5291 121.038 22.3906 120.812 22.2435C120.586 22.0963 120.395 21.9145 120.239 21.6894C119.7 21.5336 119.205 21.3259 118.779 21.0662C118.345 20.8065 117.945 20.5208 117.571 20.2005C117.198 19.8889 116.833 19.5426 116.485 19.1704C116.138 18.7981 115.764 18.4172 115.382 18.0363C115.243 18.0363 115.13 18.0104 115.043 17.9498C114.956 17.8978 114.817 17.8892 114.635 17.9324C114.548 17.7939 114.461 17.6641 114.383 17.5256C114.304 17.3871 114.226 17.2399 114.165 17.0841C114.122 17.1101 114.061 17.1187 113.992 17.1187C113.853 17.1187 113.722 17.0841 113.583 17.0148C113.444 16.9456 113.323 16.911 113.21 16.911L113.079 16.9456C112.94 17.0841 112.827 17.2313 112.741 17.4044C112.654 17.5775 112.558 17.7507 112.471 17.9324C112.289 18.045 112.089 18.0796 111.863 18.0363C111.09 19.3002 110.178 20.4083 109.118 21.3691C108.058 22.33 106.98 23.2909 105.894 24.2605C105.851 24.4163 105.807 24.5894 105.773 24.7712C105.738 24.953 105.668 25.1002 105.555 25.2127C105.486 25.2127 105.416 25.2214 105.355 25.23C105.286 25.2387 105.234 25.2473 105.182 25.2473C104.617 25.2473 104.113 25.0915 103.67 24.7712C103.227 24.4596 102.914 24.0354 102.74 23.516C102.81 23.2909 102.879 23.0485 102.94 22.7888C103.01 22.5291 103.097 22.2781 103.209 22.0444C103.322 21.8106 103.461 21.6029 103.635 21.4384C103.809 21.2739 104.035 21.1527 104.33 21.0835C104.782 20.59 105.269 20.1226 105.79 19.6984C106.311 19.2742 106.824 18.8327 107.336 18.3999C107.849 17.9671 108.327 17.491 108.779 16.9975C109.23 16.5041 109.613 15.9241 109.934 15.2749C110.247 15.1363 110.508 14.9459 110.699 14.7035C110.89 14.4525 111.064 14.1841 111.211 13.8898C111.359 13.5955 111.524 13.3184 111.707 13.0414C111.889 12.7731 112.115 12.548 112.384 12.3662C112.567 12.3922 112.741 12.4095 112.914 12.4355C113.088 12.4614 113.262 12.4701 113.444 12.4701C113.67 12.4701 113.887 12.4355 114.087 12.3662C114.131 12.4787 114.209 12.5653 114.322 12.6346C114.435 12.7038 114.513 12.8164 114.556 12.9722C114.965 13.0414 115.312 13.154 115.608 13.3271C115.903 13.5002 116.181 13.6907 116.442 13.9158C116.702 14.1408 116.954 14.3572 117.206 14.5737C117.458 14.7901 117.745 14.9719 118.093 15.1277C118.136 15.2835 118.206 15.4307 118.292 15.5519C118.379 15.6731 118.44 15.8289 118.466 16.0107C118.492 15.9847 118.536 15.976 118.605 15.976C118.744 15.976 118.848 16.0193 118.927 16.1146C119.005 16.2011 119.126 16.2531 119.283 16.2531C119.283 16.4522 119.352 16.5993 119.483 16.6945C119.622 16.7811 119.717 16.9196 119.787 17.1014C120.325 17.465 120.864 17.8286 121.385 18.2008C121.907 18.573 122.463 18.902 123.045 19.1963C123.245 19.3089 123.453 19.3954 123.653 19.4474C123.853 19.508 124.07 19.5686 124.296 19.6292C124.452 19.6984 124.591 19.8109 124.704 19.9841C124.817 20.1572 124.956 20.2871 125.113 20.3736C125.452 20.3736 125.764 20.3217 126.06 20.2178C126.355 20.1139 126.659 20.0447 126.972 20.0014C127.224 20.59 127.676 20.8671 128.327 20.8497C128.371 21.0315 128.423 21.2133 128.484 21.3865C128.527 21.5509 128.553 21.7414 128.553 21.9491Z" fill="white" stroke="white" stroke-width="2"/>
<path d="M156.765 46.4302C156.765 46.8111 156.669 47.1487 156.478 47.4257C156.287 47.7114 156.209 48.049 156.261 48.4559C155.939 48.6377 155.687 48.8714 155.479 49.1657C155.279 49.46 155.079 49.763 154.905 50.0747C153.411 51.0442 151.812 51.8233 150.101 52.4206C148.389 53.0179 146.634 53.3209 144.827 53.3209C144.714 53.3209 144.61 53.269 144.523 53.1651C144.436 53.0612 144.34 52.9573 144.254 52.8448C144.167 52.7323 144.071 52.6284 143.967 52.5245C143.863 52.4206 143.75 52.3687 143.611 52.3687C143.454 52.3687 143.324 52.4033 143.237 52.4726C143.237 52.4293 143.246 52.386 143.254 52.3514C143.263 52.3167 143.272 52.2821 143.272 52.2302C143.272 51.9618 143.237 51.6848 143.168 51.3991C143.098 51.1135 143.063 50.8451 143.063 50.5681C143.063 50.2565 143.115 49.9968 143.237 49.789H143.645C143.871 49.789 144.088 49.7717 144.306 49.7371C144.523 49.7024 144.749 49.6851 145.001 49.6851C145.253 49.6851 145.479 49.7544 145.678 49.8842C146.921 49.8409 148.102 49.6072 149.223 49.1917C150.344 48.7762 151.482 48.3606 152.638 47.9538C152.82 47.7027 152.925 47.4257 152.959 47.1227C152.994 46.8198 153.081 46.5341 153.211 46.2571C152.62 45.7636 152.03 45.3741 151.43 45.0884C150.831 44.8027 150.136 44.7075 149.345 44.8028C148.867 44.5084 148.363 44.3439 147.833 44.292C147.303 44.2487 146.764 44.1795 146.217 44.0929C146.078 44.0669 145.939 44.041 145.791 44.0063C145.644 43.9717 145.487 43.9544 145.331 43.9544C145.218 43.9544 145.114 43.9804 145.009 44.041C144.905 44.1016 144.879 44.1795 144.923 44.292C144.81 44.1102 144.653 44.0063 144.462 43.9717C144.271 43.9371 144.106 43.8505 143.967 43.7207C143.246 43.6774 142.611 43.5475 142.064 43.3311C141.525 43.1147 140.917 42.8723 140.266 42.604C140.083 42.5347 139.909 42.4828 139.736 42.4481C139.562 42.4135 139.405 42.3529 139.24 42.2663C138.832 42.0672 138.502 41.7902 138.259 41.4526C138.015 41.115 137.815 40.7341 137.668 40.3186C137.52 39.9031 137.416 39.4702 137.346 39.0201C137.277 38.5699 137.207 38.1544 137.146 37.7649C137.346 37.4013 137.537 37.0291 137.703 36.6482C137.876 36.2673 138.015 35.8604 138.128 35.4276C138.267 35.3583 138.398 35.3064 138.537 35.2544C138.676 35.2112 138.823 35.1506 138.98 35.0813C138.954 35.038 138.945 34.9774 138.945 34.9082C138.945 34.7956 138.98 34.6831 139.067 34.5706C139.145 34.458 139.162 34.3455 139.119 34.233C139.614 33.7828 140.101 33.3153 140.561 32.8306C141.021 32.3458 141.43 31.8091 141.769 31.2204C142.108 31.1079 142.377 30.9348 142.585 30.7097C142.785 30.4846 142.994 30.2509 143.194 30.0172C143.393 29.7834 143.619 29.567 143.871 29.3766C144.123 29.1861 144.436 29.0649 144.818 29.0216C144.905 28.8658 145.036 28.736 145.192 28.6321C145.348 28.5282 145.505 28.433 145.67 28.3464C145.826 28.2599 145.974 28.156 146.113 28.0434C146.252 27.9309 146.347 27.7751 146.417 27.5673C146.782 27.5673 147.112 27.4981 147.416 27.3682C147.72 27.2384 148.024 27.0825 148.32 26.9267C148.615 26.7709 148.911 26.6237 149.223 26.4852C149.536 26.3467 149.866 26.2861 150.222 26.2861C150.309 26.2861 150.405 26.2948 150.492 26.3034C150.579 26.3121 150.683 26.3294 150.796 26.3554C150.952 26.5112 151.065 26.7017 151.117 26.9094C151.169 27.1258 151.213 27.3509 151.239 27.6019C151.265 27.853 151.274 28.0954 151.291 28.3464C151.3 28.5975 151.343 28.8225 151.413 29.0216C151.213 29.4025 150.987 29.7921 150.752 30.173C150.518 30.5539 150.205 30.8482 149.823 31.056H149.753C149.597 31.0819 149.449 31.0473 149.31 30.9521C149.171 30.8655 149.015 30.8136 148.832 30.8136C148.719 30.8136 148.632 30.8482 148.563 30.9175L148.389 31.0906C148.346 31.1339 148.285 31.1772 148.207 31.2291C148.129 31.2724 148.024 31.2724 147.885 31.2291C147.564 31.3416 147.442 31.5321 147.512 31.8004C147.077 31.8437 146.721 31.9736 146.426 32.19C146.13 32.4064 145.861 32.6401 145.609 32.8998C145.357 33.1595 145.114 33.3933 144.862 33.6097C144.61 33.8261 144.323 33.9386 143.976 33.9646C143.593 34.6398 143.124 35.2371 142.568 35.7565C142.012 36.2759 141.551 36.8646 141.195 37.5138C141.265 37.6956 141.308 37.8861 141.334 38.0852C141.36 38.2843 141.386 38.5007 141.439 38.7258C141.638 38.9941 141.882 39.2365 142.168 39.4356C142.455 39.6347 142.724 39.8425 143.002 40.0416H143.107C143.558 40.0416 143.976 40.1281 144.366 40.2926C144.749 40.4658 145.157 40.5437 145.592 40.5437C145.817 40.5437 146.009 40.5004 146.165 40.4052C146.756 40.5437 147.338 40.6562 147.911 40.7428C148.485 40.8293 149.067 40.8986 149.658 40.9419C149.953 40.9852 150.248 41.0111 150.561 41.0111C150.874 41.0111 151.152 41.0458 151.43 41.115C151.682 41.1843 151.925 41.2708 152.177 41.3661C152.429 41.4699 152.673 41.5738 152.925 41.6864C153.446 41.9114 153.941 42.1625 154.402 42.4308C154.862 42.6992 155.279 43.0195 155.644 43.3917C156.009 43.764 156.287 44.1881 156.495 44.6729C156.66 45.2442 156.765 45.7983 156.765 46.4302Z" fill="white" stroke="white" stroke-width="2"/>
<path d="M184.889 48.2222C184.819 48.5425 184.68 48.7935 184.463 48.984C184.246 49.1744 183.994 49.3303 183.698 49.4428C183.403 49.5553 183.108 49.6246 182.795 49.6592C182.482 49.6938 182.213 49.7111 181.961 49.7111C181.848 49.7111 181.744 49.7025 181.639 49.6938C181.535 49.6852 181.431 49.6765 181.318 49.6765C181.205 49.6765 181.144 49.7371 181.144 49.8497C181.144 49.9622 181.083 50.0401 180.97 50.0834C180.857 50.0401 180.744 50.0055 180.632 49.9795C180.519 49.9535 180.406 49.9449 180.293 49.9449C180.136 49.9449 179.98 49.9535 179.832 49.9795C179.684 50.0055 179.545 50.0141 179.406 50.0141C179.224 50.0141 179.094 49.9882 179.015 49.9449C178.937 49.9016 178.868 49.8497 178.816 49.7891C178.755 49.7371 178.703 49.6679 178.642 49.6073C178.581 49.538 178.503 49.4861 178.39 49.4341C178.234 49.3649 178.103 49.3562 177.999 49.3995C177.895 49.4428 177.747 49.3735 177.538 49.2004C177.269 48.9753 177.035 48.6983 176.843 48.3694C176.652 48.0404 176.461 47.7028 176.287 47.3392C176.105 46.9756 175.914 46.6207 175.714 46.2571C175.514 45.8936 175.271 45.5819 175.001 45.3136H174.732C174.324 45.3136 174.046 45.4867 173.881 45.8243C173.768 45.7551 173.655 45.6685 173.542 45.5733C173.429 45.4694 173.307 45.3915 173.168 45.3222C172.647 45.478 172.108 45.6165 171.535 45.7291C170.97 45.8416 170.405 45.9022 169.841 45.9022H169.363C169.224 45.9022 169.076 45.8762 168.92 45.833C168.694 45.9195 168.485 46.0321 168.311 46.1533C168.129 46.2744 167.929 46.335 167.703 46.335C167.564 46.335 167.408 46.2918 167.225 46.1965C167.086 46.1965 167.026 46.2571 167.043 46.3697C167.052 46.4822 166.982 46.5428 166.826 46.5428H166.522C166.2 46.5428 165.896 46.5515 165.592 46.5774C165.288 46.6034 164.975 46.6121 164.662 46.6121C164.228 46.6121 163.794 46.5601 163.342 46.4389C163.229 46.5082 163.107 46.5428 162.968 46.5428C162.881 46.5861 162.812 46.664 162.768 46.7592C162.725 46.8631 162.681 46.9497 162.629 47.0276C162.586 47.1055 162.525 47.1747 162.447 47.2267C162.369 47.2873 162.264 47.2959 162.125 47.2786C162.082 47.547 161.969 47.7634 161.787 47.9192C161.604 48.075 161.517 48.3174 161.517 48.6291C161.265 48.7676 161.065 48.932 160.909 49.1398C160.753 49.3389 160.588 49.5553 160.431 49.7804C160.275 50.0055 160.11 50.2219 159.936 50.421C159.762 50.6201 159.554 50.7846 159.31 50.8971C159.197 51.0356 159.163 51.2434 159.206 51.5377C158.954 51.7368 158.65 51.9186 158.294 52.0744C157.929 52.2302 157.59 52.3081 157.277 52.3081C156.626 52.3081 156.165 51.9619 155.922 51.2607C155.922 51.0356 155.939 50.7932 155.974 50.5335C156.009 50.2738 156.061 50.0228 156.13 49.7891C156.2 49.5553 156.304 49.3389 156.434 49.1485C156.573 48.958 156.765 48.8195 157.008 48.7243C157.008 48.5252 156.938 48.378 156.808 48.3001C156.669 48.2222 156.617 48.0837 156.634 47.8759C157.243 47.5816 157.781 47.2007 158.233 46.7246C158.685 46.2485 159.102 45.7464 159.475 45.2183C159.849 44.6903 160.231 44.1536 160.614 43.6082C160.996 43.0715 161.43 42.5867 161.899 42.1539V41.444C162.577 40.7255 163.02 39.9118 163.22 39.0115C163.472 38.9682 163.628 38.8557 163.715 38.6739C163.794 38.4921 163.837 38.2757 163.837 38.0333C163.95 38.0333 164.019 37.9814 164.054 37.8775C164.089 37.7736 164.184 37.7476 164.341 37.7909C164.541 37.2542 164.767 36.7521 165.019 36.302C165.271 35.8518 165.514 35.393 165.766 34.9342C166.018 34.4754 166.235 33.9906 166.426 33.4972C166.617 33.0038 166.756 32.4497 166.852 31.8438C167.165 31.8178 167.347 31.6706 167.382 31.385C167.417 31.0993 167.451 30.8483 167.503 30.6232C167.842 30.3115 168.094 29.9393 168.268 29.5065C168.442 29.0823 168.589 28.6322 168.728 28.1733C168.868 27.7145 169.015 27.2471 169.189 26.7883C169.363 26.3295 169.597 25.914 169.919 25.5504V25.4465C169.919 25.334 169.875 25.2647 169.78 25.2301C169.693 25.1955 169.641 25.1262 169.641 25.0137C169.667 24.9877 169.676 24.9704 169.676 24.9444C169.945 24.8319 170.153 24.6501 170.284 24.3904C170.423 24.1307 170.623 23.9489 170.892 23.8364C171.37 24.2173 171.787 24.451 172.152 24.5289C172.517 24.6068 172.986 24.6674 173.577 24.7107C173.872 25.031 174.037 25.4032 174.072 25.8447C174.107 26.2862 174.176 26.719 174.289 27.1432C174.471 27.8617 174.671 28.5716 174.88 29.2554C175.097 29.9393 175.262 30.6492 175.375 31.3677C175.445 31.8005 175.566 32.1987 175.749 32.5883C175.931 32.9691 176.053 33.3674 176.122 33.7742C176.166 34.0945 176.166 34.4494 176.122 34.839C176.079 35.2372 176.122 35.5748 176.261 35.8691L176.496 36.4058C176.609 36.6569 176.704 36.9166 176.783 37.1849C176.861 37.4533 176.939 37.7217 177 37.9987C177.182 38.6739 177.347 39.4011 177.495 40.1802C177.643 40.9593 177.877 41.6604 178.19 42.2924C178.303 42.5175 178.477 42.6733 178.72 42.7685C178.955 42.8551 179.224 42.9243 179.519 42.9503C179.815 42.9849 180.102 42.9936 180.388 42.9849C180.675 42.9763 180.918 42.9676 181.118 42.9676H181.457C181.596 42.9676 181.726 42.9936 181.865 43.0369C181.952 43.2186 182.004 43.3745 182.004 43.513C182.004 43.7813 181.917 43.9977 181.735 44.1536C181.552 44.3094 181.466 44.4912 181.466 44.6903C181.466 44.8028 181.509 44.924 181.605 45.0625C181.518 45.0365 181.379 45.0279 181.196 45.0279C180.675 45.0279 180.162 45.1145 179.667 45.2962C179.85 45.6771 180.093 45.9974 180.397 46.2571C180.701 46.5168 181.022 46.7592 181.361 46.9843C181.587 46.8025 181.822 46.7159 182.074 46.7159C182.343 46.7159 182.604 46.7765 182.838 46.8977C183.073 47.0189 183.334 47.0795 183.603 47.0795C183.803 47.0795 183.95 47.0449 184.046 46.9756C184.228 47.1747 184.376 47.3912 184.489 47.5989C184.559 47.8413 184.706 48.0404 184.889 48.2222ZM185.367 20.5641V20.9017C185.184 20.9017 185.054 20.9623 184.976 21.0749C184.897 21.1874 184.837 21.3173 184.802 21.4644C184.767 21.6116 184.75 21.7674 184.75 21.9405C184.75 22.1137 184.741 22.2522 184.715 22.3647C184.533 22.5205 184.315 22.6417 184.072 22.7196C183.82 22.7976 183.594 22.9274 183.394 23.1092C182.83 22.9534 182.221 22.737 181.579 22.4686C180.936 22.2002 180.319 22.0877 179.728 22.131C179.528 21.9752 179.302 21.828 179.068 21.6895C178.833 21.551 178.59 21.4211 178.338 21.2826C178.086 21.1441 177.851 21.0056 177.625 20.8585C177.399 20.7113 177.208 20.5295 177.052 20.3044C176.513 20.1486 176.018 19.9409 175.592 19.6812C175.158 19.4215 174.758 19.1358 174.385 18.8155C174.011 18.5038 173.646 18.1576 173.299 17.7853C172.951 17.4131 172.577 17.0322 172.195 16.6513C172.056 16.6513 171.943 16.6253 171.856 16.5648C171.769 16.5128 171.63 16.5042 171.448 16.5474C171.361 16.4089 171.274 16.2791 171.196 16.1406C171.118 16.0021 171.04 15.8549 170.979 15.6991C170.935 15.7251 170.875 15.7337 170.805 15.7337C170.666 15.7337 170.536 15.6991 170.397 15.6298C170.258 15.5606 170.136 15.526 170.023 15.526L169.884 15.5606C169.745 15.6991 169.632 15.8463 169.545 16.0194C169.458 16.1925 169.363 16.3657 169.276 16.5474C169.093 16.66 168.894 16.6946 168.668 16.6513C167.894 17.9152 166.982 19.0232 165.922 19.9841C164.862 20.945 163.785 21.9059 162.699 22.8755C162.655 23.0313 162.612 23.2044 162.577 23.3862C162.542 23.568 162.473 23.7152 162.36 23.8277C162.29 23.8277 162.221 23.8364 162.16 23.845C162.091 23.8537 162.038 23.8623 161.986 23.8623C161.422 23.8623 160.918 23.7065 160.475 23.3862C160.031 23.0746 159.719 22.6504 159.545 22.131C159.614 21.9059 159.684 21.6635 159.745 21.4038C159.814 21.1441 159.901 20.8931 160.014 20.6594C160.127 20.4256 160.266 20.2179 160.44 20.0534C160.614 19.8889 160.839 19.7677 161.135 19.6985C161.587 19.205 162.073 18.7376 162.595 18.3134C163.116 17.8892 163.628 17.4477 164.141 17.0149C164.654 16.5821 165.132 16.106 165.583 15.6125C166.035 15.1191 166.417 14.5391 166.739 13.8898C167.052 13.7513 167.312 13.5609 167.503 13.3185C167.695 13.0675 167.868 12.7991 168.016 12.5048C168.164 12.2104 168.329 11.9334 168.511 11.6564C168.694 11.3881 168.92 11.163 169.189 10.9812C169.371 11.0072 169.545 11.0245 169.719 11.0505C169.893 11.0764 170.066 11.0851 170.249 11.0851C170.475 11.0851 170.692 11.0505 170.892 10.9812C170.935 11.0937 171.014 11.1803 171.126 11.2496C171.239 11.3188 171.318 11.4313 171.361 11.5872C171.769 11.6564 172.117 11.769 172.412 11.9421C172.708 12.1152 172.986 12.3057 173.246 12.5307C173.507 12.7558 173.759 12.9722 174.011 13.1887C174.263 13.4051 174.55 13.5869 174.897 13.7427C174.941 13.8985 175.01 14.0457 175.097 14.1669C175.184 14.288 175.245 14.4439 175.271 14.6257C175.297 14.5997 175.34 14.591 175.41 14.591C175.549 14.591 175.653 14.6343 175.731 14.7295C175.809 14.8161 175.931 14.868 176.088 14.868C176.088 15.0671 176.157 15.2143 176.287 15.3095C176.426 15.3961 176.522 15.5346 176.591 15.7164C177.13 16.08 177.669 16.4436 178.19 16.8158C178.711 17.188 179.267 17.517 179.85 17.8113C180.049 17.9239 180.258 18.0104 180.458 18.0624C180.658 18.123 180.875 18.1836 181.101 18.2441C181.257 18.3134 181.396 18.4259 181.509 18.5991C181.622 18.7722 181.761 18.9021 181.917 18.9886C182.256 18.9886 182.569 18.9367 182.864 18.8328C183.16 18.7289 183.464 18.6597 183.777 18.6164C184.029 19.205 184.48 19.4821 185.132 19.4647C185.176 19.6465 185.228 19.8283 185.288 20.0015C185.332 20.1659 185.367 20.3564 185.367 20.5641ZM174.263 42.8118C174.22 42.4309 174.141 42.1539 174.046 41.9807C173.95 41.8076 173.863 41.5998 173.794 41.3575C173.707 41.0458 173.637 40.7082 173.611 40.3446C173.577 39.981 173.524 39.6348 173.455 39.2972C173.299 38.5354 173.125 37.7649 172.925 36.9945C172.734 36.2327 172.491 35.4882 172.195 34.7611C172.282 34.6226 172.334 34.5014 172.334 34.3888V34.285C172.134 34.0599 171.987 33.7829 171.891 33.4539C171.804 33.125 171.717 32.8047 171.639 32.4757C171.561 32.1468 171.457 31.8438 171.335 31.5668C171.213 31.2811 171.014 31.056 170.744 30.8742C170.675 31.0127 170.64 31.1686 170.64 31.3503C170.64 31.5062 170.657 31.6533 170.692 31.7918C170.727 31.9303 170.744 32.0775 170.744 32.2333C170.518 32.3459 170.353 32.519 170.249 32.7614C170.145 33.0038 169.98 33.1856 169.754 33.3154C169.571 34.0339 169.311 34.7178 168.972 35.3584C168.633 35.999 168.277 36.6396 167.903 37.2715C167.53 37.9034 167.173 38.5354 166.834 39.1846C166.496 39.8339 166.226 40.5004 166.018 41.193C165.722 41.3921 165.522 41.6518 165.427 41.9721C165.323 42.2924 165.271 42.604 165.271 42.9157C165.47 43.0282 165.705 43.0888 165.966 43.0975C166.226 43.1061 166.478 43.1148 166.73 43.1148C166.982 43.1148 167.217 43.1407 167.443 43.184C167.669 43.2273 167.868 43.3398 168.051 43.5216C168.346 43.4351 168.668 43.3658 169.015 43.3398C169.363 43.3052 169.658 43.21 169.884 43.0542C170.336 43.21 170.822 43.2879 171.344 43.2879C171.613 43.2879 171.882 43.2619 172.143 43.2186C172.404 43.1754 172.656 43.1148 172.908 43.0455C173.107 43.0888 173.272 43.1667 173.385 43.2619C173.498 43.3658 173.672 43.4004 173.898 43.3831C174.011 43.2966 174.08 43.2013 174.098 43.0975C174.115 42.9936 174.176 42.8983 174.263 42.8118Z" fill="white" stroke="white" stroke-width="2"/>
<path d="M207.818 28.4763C207.775 28.7446 207.714 28.9784 207.636 29.1688C207.557 29.3593 207.54 29.6103 207.583 29.9306C207.358 29.9566 207.184 30.0258 207.053 30.147C206.932 30.2682 206.828 30.4154 206.749 30.5712C206.671 30.727 206.593 30.8915 206.515 31.0646C206.437 31.2378 206.341 31.3849 206.228 31.5234C206.411 32.3372 206.515 33.1595 206.532 33.9906C206.558 34.8216 206.61 35.644 206.706 36.4577C206.819 37.4965 206.993 38.518 207.236 39.5222C207.47 40.5264 207.592 41.5478 207.592 42.5866C207.592 42.9069 207.583 43.1926 207.575 43.4696C207.566 43.738 207.557 44.0237 207.557 44.318C207.557 44.4998 207.566 44.6816 207.575 44.872C207.583 45.0625 207.592 45.2529 207.592 45.426C207.592 46.0839 207.505 46.7332 207.34 47.3911C207.166 48.049 207.036 48.6983 206.949 49.3562C206.68 49.6072 206.445 49.8756 206.254 50.1699C206.063 50.4642 205.863 50.7326 205.663 50.9836C205.463 51.2347 205.22 51.4511 204.951 51.6415C204.682 51.832 204.343 51.9618 203.934 52.0311C203.865 52.2562 203.735 52.4293 203.543 52.5418C203.352 52.6544 203.187 52.8102 203.048 53.0179H202.979C202.414 53.0179 201.927 52.94 201.519 52.7842C201.111 52.6284 200.728 52.4466 200.381 52.2475C200.033 52.0484 199.677 51.832 199.312 51.6069C198.947 51.3818 198.53 51.2 198.052 51.0702C197.418 50.5508 196.845 49.9794 196.323 49.3648C195.802 48.7415 195.211 48.1875 194.56 47.6941C194.403 47.2439 194.195 46.8717 193.934 46.5774C193.673 46.283 193.421 45.9454 193.169 45.5645C193.057 45.4087 192.97 45.2616 192.918 45.1231C192.857 44.9845 192.787 44.8287 192.7 44.6469C192.631 44.4651 192.527 44.344 192.379 44.2747C192.231 44.2054 192.101 44.1275 191.988 44.041C191.805 43.3398 191.545 42.6992 191.206 42.1105C190.867 41.5219 190.467 40.9592 190.016 40.4225C189.877 40.6735 189.772 40.9332 189.694 41.2189C189.616 41.5046 189.538 41.7816 189.477 42.0673C189.407 42.3529 189.321 42.6299 189.225 42.9156C189.121 43.2013 188.99 43.4523 188.834 43.6774V43.7813C188.834 43.8938 188.877 43.9631 188.973 43.9804C189.06 44.0063 189.112 44.0669 189.112 44.1795C189.112 44.2054 189.103 44.2228 189.095 44.2487C189.086 44.2747 189.077 44.292 189.077 44.318C188.964 44.4046 188.877 44.5171 188.825 44.6556C188.764 44.7941 188.652 44.872 188.469 44.8893C188.495 45.0019 188.504 45.1144 188.504 45.2269V45.5299C188.504 46.1878 188.434 46.8371 188.287 47.495C188.139 48.1529 188.069 48.8108 188.069 49.486V49.9275C188.069 50.0833 188.078 50.2305 188.104 50.369C188.148 50.5075 188.217 50.6374 188.304 50.7759C188.391 50.9144 188.443 51.0356 188.443 51.1481C188.443 51.3039 188.374 51.4511 188.243 51.5896C188.4 51.7021 188.582 51.8233 188.782 51.9618C188.982 52.1003 189.173 52.2475 189.338 52.4206C189.503 52.5938 189.651 52.7669 189.764 52.9573C189.877 53.1478 189.937 53.3555 189.937 53.5806C189.937 53.9615 189.816 54.2299 189.564 54.3943C189.312 54.5502 189.016 54.68 188.66 54.7666C188.313 54.8532 187.948 54.9397 187.574 55.0176C187.201 55.0955 186.888 55.234 186.645 55.4418H186.54C186.271 55.4418 186.062 55.3639 185.932 55.2081C185.793 55.0523 185.593 54.9743 185.324 54.9743C184.898 54.2732 184.603 53.4941 184.438 52.6284C184.281 51.7627 184.203 50.9317 184.203 50.1439C184.203 49.1744 184.29 48.2048 184.455 47.2353C184.629 46.2657 184.829 45.3048 185.063 44.3613C185.298 43.4177 185.559 42.4741 185.845 41.5392C186.132 40.6043 186.393 39.6607 186.645 38.7171L186.679 38.6132C186.679 38.5007 186.653 38.4228 186.592 38.3795C186.532 38.3362 186.506 38.267 186.506 38.1804C186.506 38.1371 186.514 38.1112 186.54 38.1112C186.61 37.8861 186.679 37.6697 186.757 37.4706C186.836 37.2715 186.897 37.0464 186.94 36.7953C187.079 36.1634 187.175 35.5142 187.227 34.8476C187.279 34.181 187.314 33.5231 187.331 32.8652C187.34 32.216 187.366 31.5494 187.4 30.8828C187.435 30.2163 187.505 29.5584 187.618 28.9005C187.8 28.7187 187.965 28.5282 188.13 28.3291C188.287 28.13 188.495 27.9482 188.738 27.7924C189.19 27.8184 189.642 27.879 190.094 27.9915C190.546 28.104 190.98 28.2858 191.38 28.5282C191.649 29.4978 191.84 30.4673 191.936 31.4369C192.04 32.4064 192.214 33.376 192.466 34.3455V34.4494C192.466 34.5619 192.527 34.6139 192.648 34.6052C192.77 34.5965 192.865 34.6312 192.935 34.7264C192.891 34.7956 192.865 34.8736 192.848 34.9601C192.839 35.0467 192.831 35.1419 192.831 35.2285V35.7998C192.874 35.9816 192.935 36.1721 193.004 36.3712C193.074 36.5703 193.222 36.7001 193.448 36.7434C193.56 37.4619 193.734 38.1285 193.96 38.7344C194.186 39.3404 194.447 39.9291 194.742 40.4917C195.037 41.0544 195.35 41.6171 195.689 42.1625C196.028 42.7165 196.375 43.2965 196.74 43.9025C197.305 44.3353 197.792 44.8201 198.2 45.3741C198.608 45.9281 199.017 46.4562 199.442 46.9669C199.86 47.4777 200.337 47.9192 200.867 48.3001C201.397 48.6809 202.092 48.9233 202.953 49.0099C203.066 48.9233 203.144 48.7935 203.187 48.6377L203.361 48.1615C203.43 48.0057 203.5 47.8672 203.578 47.7374C203.656 47.6162 203.778 47.521 203.934 47.4517C203.978 46.8198 204.03 46.1792 204.091 45.5213C204.143 44.872 204.291 44.2487 204.516 43.6601C204.404 43.461 204.343 43.2099 204.343 42.9156C204.343 42.6905 204.36 42.4741 204.395 42.275C204.43 42.0759 204.447 41.8681 204.447 41.669C204.447 41.2449 204.36 40.8899 204.178 40.6216C204.178 40.4658 204.186 40.3013 204.212 40.1282C204.238 39.955 204.299 39.7992 204.412 39.6347C204.23 39.1846 204.091 38.7085 203.986 38.215C203.882 37.7216 203.83 37.2109 203.83 36.6915C203.83 36.3971 203.865 36.0941 203.934 35.7825C203.795 35.4449 203.708 35.0467 203.665 34.5965L203.526 33.2115C203.483 32.7354 203.413 32.3025 203.326 31.8957C203.239 31.4888 203.066 31.1598 202.814 30.9175C202.953 30.7184 203.013 30.476 203.013 30.2076C203.013 29.7575 202.944 29.3246 202.814 28.9264C202.683 28.5282 202.614 28.0954 202.614 27.6452C202.614 27.3336 202.683 27.0133 202.814 26.7017C203.309 26.7276 203.804 26.7709 204.291 26.8575C204.777 26.9354 205.255 26.9787 205.733 26.9787C205.872 27.1605 206.028 27.3076 206.211 27.4202C206.393 27.5327 206.584 27.6366 206.784 27.7405C206.984 27.8443 207.184 27.9482 207.375 28.0608C207.549 28.1127 207.705 28.2685 207.818 28.4763Z" fill="white" stroke="white" stroke-width="2"/>
<path d="M254.048 48.9665C254.048 49.1483 253.97 49.2955 253.814 49.408C253.657 49.5205 253.475 49.6331 253.275 49.7456L252.667 50.0486C252.467 50.1352 252.328 50.265 252.258 50.4208C252.006 50.3516 251.763 50.3083 251.529 50.2823C251.294 50.2564 251.059 50.2477 250.834 50.2477C250.538 50.2477 250.234 50.2737 249.921 50.3343C249.6 50.3949 249.357 50.542 249.174 50.7931C249.061 50.7498 248.957 50.7238 248.87 50.7238H248.601C248.262 50.7238 247.914 50.7498 247.567 50.8104C247.219 50.8623 246.872 50.8969 246.533 50.8969C246.35 50.8969 246.177 50.8883 246.003 50.8623C245.829 50.8364 245.681 50.7758 245.542 50.6632C245.343 50.7325 245.125 50.7671 244.899 50.7671C244.604 50.7671 244.326 50.7238 244.048 50.6286C243.77 50.5334 243.509 50.4295 243.249 50.3083C242.988 50.1871 242.719 50.0659 242.449 49.9534C242.18 49.8408 241.911 49.7543 241.633 49.685L241.398 49.2089C241.033 49.1396 240.703 49.0358 240.399 48.8886C240.095 48.7414 239.791 48.577 239.495 48.3952C239.2 48.2134 238.913 48.0402 238.626 47.8671C238.34 47.694 238.053 47.5814 237.758 47.5122C237.645 47.4256 237.54 47.3391 237.454 47.2611C237.367 47.1832 237.297 47.062 237.254 46.9062C236.958 46.837 236.689 46.7504 236.437 46.6379L235.725 46.2656C235.499 46.1271 235.247 46.0146 234.96 45.9107C234.673 45.8068 234.343 45.7462 233.961 45.7289C233.822 45.5298 233.631 45.3307 233.387 45.1576C233.135 44.9758 232.892 44.8892 232.64 44.8892C232.484 44.8892 232.353 44.9238 232.267 44.9931V45.1662C232.267 45.4346 232.345 45.7029 232.501 45.98C232.658 46.2483 232.866 46.4388 233.109 46.5513C233.083 46.5946 233.075 46.6638 233.075 46.7504C233.075 46.8889 233.101 47.0188 233.161 47.1573C233.214 47.2958 233.327 47.3823 233.483 47.4256C233.396 47.6767 233.283 47.9277 233.144 48.1874C233.005 48.4471 232.84 48.6895 232.631 48.9146C232.432 49.1396 232.206 49.3301 231.971 49.4686C231.737 49.6158 231.467 49.685 231.172 49.685C231.085 49.7283 231.015 49.7976 230.989 49.8841C230.955 49.9707 230.929 50.0659 230.92 50.1698C230.911 50.2737 230.885 50.3689 230.85 50.4555C230.816 50.542 230.763 50.6113 230.694 50.6546C230.607 50.6805 230.477 50.6892 230.32 50.6892C230.094 50.6892 229.903 50.6546 229.747 50.5853C229.591 50.5161 229.417 50.4295 229.234 50.3169V50.1784C229.234 49.9101 229.182 49.6937 229.078 49.5379C228.974 49.382 228.861 49.2262 228.739 49.079C228.617 48.9319 228.505 48.7847 228.4 48.6202C228.296 48.4644 228.244 48.248 228.244 47.9796C228.174 48.0229 228.105 48.0576 228.027 48.0835C227.948 48.1095 227.896 48.1528 227.87 48.222C227.827 47.997 227.801 47.8065 227.801 47.6507C227.801 47.2006 227.87 46.7677 228.018 46.3695C228.166 45.9626 228.235 45.5385 228.235 45.0883V44.5776C228.235 44.0582 228.227 43.5561 228.2 43.054C228.174 42.5606 228.166 42.0585 228.166 41.5651C228.166 41.1409 228.174 40.7167 228.2 40.3012C228.227 39.8857 228.27 39.4615 228.339 39.0373C228.591 37.5484 228.8 36.0681 228.965 34.5878C229.139 33.1075 229.408 31.6445 229.799 30.1729C229.773 30.0603 229.747 29.9478 229.712 29.8353C229.677 29.7227 229.66 29.6102 229.66 29.4977C229.66 29.4111 229.669 29.3505 229.695 29.3245C229.782 28.8744 229.99 28.4935 230.303 28.1905C230.616 27.8875 231.024 27.7317 231.528 27.7317H231.632C231.902 27.8442 232.11 28.0087 232.258 28.2251C232.406 28.4415 232.64 28.5281 232.953 28.4762C232.953 28.5195 232.944 28.5627 232.936 28.6147C232.927 28.658 232.918 28.7012 232.918 28.7532C232.918 29.0042 232.988 29.186 233.118 29.2899C233.257 29.4024 233.413 29.5236 233.596 29.6621C233.483 29.8872 233.413 30.1469 233.379 30.4412C233.344 30.7356 233.318 31.0299 233.292 31.3242C233.266 31.6185 233.231 31.8956 233.17 32.1726C233.109 32.4409 233.005 32.666 232.849 32.8478C232.936 33.0729 232.996 33.2979 233.022 33.523C233.049 33.7481 233.057 33.9818 233.057 34.2329C233.057 34.4839 233.049 34.7349 233.022 34.9946C232.996 35.2543 232.988 35.5227 232.988 35.7911C232.988 36.0421 233.022 36.2672 233.092 36.4663C233.587 36.4663 233.874 36.2325 233.943 35.7564C234.534 35.6006 235.056 35.3755 235.525 35.0985C235.985 34.8129 236.437 34.5185 236.863 34.1982C237.288 33.8866 237.714 33.5576 238.131 33.22C238.548 32.8824 239.017 32.5881 239.539 32.337V32.2591C239.539 32.1466 239.573 32.0773 239.643 32.0427C239.712 32.0081 239.721 31.9129 239.678 31.757C240.017 31.6445 240.303 31.4887 240.547 31.2982C240.781 31.1078 241.007 30.9 241.207 30.675L241.85 29.9651C242.076 29.7141 242.328 29.5063 242.597 29.3245C242.779 28.9436 242.945 28.5368 243.092 28.1039C243.24 27.6798 243.44 27.2815 243.683 26.918C244.109 26.918 244.587 26.9526 245.091 27.0218C245.594 27.0911 246.038 27.2469 246.394 27.498C246.35 27.6798 246.429 27.8009 246.628 27.8702C246.376 28.8138 246.003 29.6708 245.508 30.4239C245.012 31.1771 244.361 31.8176 243.57 32.337C243.457 32.5881 243.309 32.7958 243.127 32.9776C242.945 33.1594 242.762 33.3326 242.588 33.5057C242.406 33.6788 242.223 33.852 242.05 34.0338C241.867 34.2155 241.719 34.432 241.607 34.6743C241.337 34.7176 241.103 34.7955 240.911 34.9081C240.72 35.0206 240.538 35.1505 240.373 35.2976C240.199 35.4448 240.025 35.5833 239.834 35.7045C239.643 35.8257 239.434 35.9209 239.209 35.9902C239.026 36.2152 238.818 36.4057 238.583 36.5615C238.348 36.7173 238.105 36.8731 237.871 37.0203C237.636 37.1675 237.41 37.3233 237.21 37.4964C237.01 37.6696 236.863 37.886 236.767 38.1543H235.881C235.629 38.5872 235.308 38.9421 234.917 39.2191C234.517 39.5048 234.117 39.7645 233.709 40.0155C233.778 40.2839 233.9 40.5089 234.082 40.6734C234.265 40.8466 234.465 40.9937 234.673 41.1322C234.89 41.2707 235.099 41.4092 235.316 41.5564C235.533 41.7036 235.716 41.8767 235.872 42.0845C236.819 42.448 237.74 42.8549 238.618 43.3224C239.504 43.7812 240.338 44.3438 241.129 44.9931C241.172 44.9671 241.233 44.9585 241.302 44.9585C241.485 44.9585 241.633 45.0104 241.746 45.1143C241.859 45.2182 242.015 45.2528 242.223 45.2355C242.31 45.4606 242.441 45.6164 242.597 45.6943C242.753 45.7722 242.918 45.8328 243.092 45.8761C243.266 45.9194 243.422 45.9886 243.587 46.0752C243.744 46.1617 243.857 46.3262 243.926 46.5513C244.265 46.5773 244.578 46.6379 244.856 46.7504C245.143 46.8629 245.395 47.0447 245.621 47.2871H246.029C246.75 47.2871 247.454 47.3564 248.131 47.4862C248.809 47.6161 249.504 47.6853 250.199 47.6853C250.564 47.6853 250.912 47.6594 251.251 47.5988C251.589 47.5468 251.92 47.4343 252.232 47.2785C252.345 47.3477 252.467 47.417 252.606 47.4776C252.745 47.5382 252.893 47.5814 253.049 47.5814C253.162 47.5814 253.336 47.5555 253.562 47.5122C253.588 47.7632 253.666 47.997 253.814 48.222C253.979 48.4471 254.048 48.6982 254.048 48.9665Z" fill="white" stroke="white" stroke-width="2"/>
<path d="M270.973 34.8997C270.886 35.1248 270.79 35.3412 270.704 35.5403C270.617 35.7394 270.547 35.9731 270.504 36.2155C270.347 36.328 270.174 36.4146 269.974 36.4665C269.783 36.5271 269.583 36.5791 269.383 36.6397C269.183 36.7003 268.992 36.7609 268.827 36.8388C268.653 36.9167 268.523 37.0379 268.436 37.1937C268.366 37.5313 268.332 37.8516 268.332 38.1373C268.332 38.5182 268.401 38.8471 268.531 39.1155C268.462 39.3146 268.418 39.531 268.392 39.7561C268.366 39.9811 268.358 40.1976 268.358 40.3967C268.358 41.1411 268.445 41.877 268.627 42.6128C268.809 43.3486 268.914 44.0844 268.931 44.8289C268.931 44.9414 268.922 45.0626 268.896 45.2011C268.87 45.3396 268.862 45.4608 268.862 45.5734C268.862 46.0495 269.044 46.3611 269.4 46.5169C269.331 46.6295 269.296 46.7333 269.296 46.8199C269.296 47.0017 269.322 47.1575 269.366 47.296C269.409 47.4345 269.418 47.5817 269.4 47.7375C269.513 47.9626 269.626 48.1617 269.739 48.3262C269.852 48.4993 269.93 48.7071 269.974 48.9495C269.817 49.2698 269.626 49.5554 269.4 49.8151C269.174 50.0748 269.018 50.3951 268.922 50.776C268.836 50.75 268.731 50.7414 268.618 50.7414C268.462 50.7414 268.332 50.776 268.245 50.8453C268.158 50.9145 268.08 51.0011 268.028 51.0963C267.967 51.2002 267.906 51.2954 267.845 51.3993C267.784 51.5032 267.689 51.5724 267.576 51.6157H267.471C267.359 51.6417 267.263 51.633 267.185 51.5984C267.107 51.5638 267.028 51.5465 266.968 51.5465C266.924 51.5465 266.829 51.5724 266.698 51.6157C266.516 51.3906 266.394 51.1223 266.325 50.8193C266.255 50.5163 266.22 50.2133 266.22 49.919C266.22 49.6074 266.264 49.3217 266.359 49.0706C266.107 48.8715 265.96 48.5599 265.899 48.1617C265.838 47.7548 265.777 47.4172 265.716 47.1489C265.534 46.3178 265.325 45.5041 265.091 44.7163C264.856 43.9286 264.709 43.1149 264.665 42.2838C264.639 41.9722 264.63 41.6605 264.63 41.3749V39.6176C264.63 39.3232 264.639 39.0462 264.665 38.7692C264.665 38.5701 264.682 38.371 264.717 38.1806C264.752 37.9901 264.769 37.791 264.769 37.5919C264.769 37.3235 264.682 37.0638 264.5 36.8128C262.893 36.8821 261.372 37.1677 259.939 37.6785C258.505 38.1892 257.072 38.7865 255.647 39.4877C255.56 40.0071 255.499 40.5179 255.473 41.0113C255.447 41.5047 255.438 42.0155 255.438 42.5349V44.0238C255.438 44.5865 255.464 45.0626 255.508 45.4435C255.621 46.1014 255.951 46.5948 256.507 46.9498C257.063 47.296 257.619 47.5644 258.184 47.7462C258.158 48.0838 258.097 48.3695 257.984 48.6118C257.871 48.8456 257.732 49.062 257.558 49.2524C257.384 49.4429 257.202 49.6333 257.002 49.8065C256.802 49.9883 256.594 50.1874 256.394 50.4124C256.211 50.2999 256.029 50.222 255.855 50.1787C255.673 50.1354 255.482 50.1094 255.282 50.0921C255.082 50.0835 254.873 50.0662 254.674 50.0402C254.474 50.0142 254.265 49.9709 254.065 49.9017L253.318 48.8889C253.066 48.5512 252.797 48.2136 252.501 47.876V47.5817C252.501 46.9757 252.388 46.3871 252.163 45.8244C251.937 45.2617 251.763 44.6904 251.65 44.1017C251.719 43.9026 251.763 43.6949 251.789 43.4958C251.815 43.2966 251.824 43.0802 251.824 42.8552C251.824 42.405 251.806 41.9635 251.772 41.5393C251.737 41.1152 251.746 40.6823 251.789 40.2582H251.615C251.415 40.2582 251.198 40.3101 250.972 40.414C250.746 40.5179 250.529 40.6304 250.312 40.7516C250.095 40.8728 249.895 40.9853 249.704 41.0892C249.513 41.1931 249.348 41.245 249.209 41.245C249.139 41.245 249.07 41.2364 249.009 41.2104C248.939 41.1844 248.861 41.1758 248.774 41.1758C248.661 41.1758 248.522 41.219 248.366 41.3143C248.209 41.4008 248.036 41.4961 247.836 41.5999C247.645 41.7038 247.445 41.799 247.245 41.8856C247.045 41.9722 246.837 42.0241 246.637 42.0241C246.324 42.0241 246.003 41.8856 245.69 41.6173C245.646 41.4355 245.629 41.271 245.638 41.1065C245.646 40.9507 245.655 40.7776 245.655 40.5958C245.655 40.414 245.62 40.2235 245.551 40.0244C245.707 39.7301 245.916 39.4964 246.176 39.3319C246.437 39.1588 246.706 39.0029 246.993 38.8558C247.28 38.7086 247.566 38.5614 247.862 38.4143C248.157 38.2671 248.401 38.068 248.609 37.8256H248.809C249.13 37.8256 249.417 37.7564 249.678 37.6265C249.938 37.488 250.234 37.4361 250.581 37.4534C250.694 37.4101 250.772 37.237 250.816 36.9426L250.955 36.9773C251.45 36.9773 251.893 36.8041 252.276 36.4665C252.528 35.0728 252.727 33.6618 252.884 32.2421C253.04 30.8224 253.118 29.4027 253.118 27.983C253.118 27.8445 253.075 27.7146 252.979 27.5761C252.936 27.3943 252.91 27.2299 252.91 27.0654V26.546C252.91 26.2949 252.919 26.0352 252.945 25.7669C252.971 25.4985 253.023 25.2302 253.118 24.9532C253.344 24.8147 253.579 24.7541 253.831 24.7541C254.126 24.7541 254.413 24.7973 254.7 24.8753C254.986 24.9532 255.256 25.0138 255.534 25.057C255.734 25.2561 255.89 25.4899 255.994 25.7323C256.098 25.9833 256.159 26.2343 256.177 26.494C256.203 26.7537 256.203 27.0134 256.194 27.2731C256.185 27.5328 256.177 27.7839 256.177 28.0349C256.177 28.5284 256.229 29.0131 256.35 29.4893C256.463 29.9654 256.524 30.4242 256.524 30.8743C256.524 30.9869 256.481 31.0734 256.403 31.1254C256.324 31.186 256.281 31.3331 256.281 31.5842C256.281 31.8352 256.307 32.0949 256.35 32.3633C256.394 32.6316 256.42 32.9 256.42 33.177C256.42 33.4973 256.376 33.8176 256.281 34.1552C256.194 34.4928 256.107 34.8218 256.046 35.1334C257.402 35.0209 258.792 34.8477 260.217 34.6227C261.642 34.3976 262.997 34.034 264.292 33.5406C264.318 33.4973 264.326 33.428 264.326 33.3415C264.326 33.203 264.318 33.0731 264.292 32.9346C264.265 32.7961 264.257 32.6489 264.257 32.4931C264.257 32.2248 264.344 32.0083 264.526 31.8525C264.413 31.2206 264.335 30.5887 264.292 29.9567C264.248 29.3248 264.222 28.6928 264.222 28.0609V26.1305C264.222 25.4985 264.213 24.8666 264.187 24.2347C264.37 24.1221 264.561 24.0615 264.761 24.0615C265.013 24.0615 265.239 24.1221 265.456 24.2433C265.673 24.3645 265.925 24.4251 266.22 24.4251C266.42 24.4251 266.594 24.3905 266.733 24.3212C266.985 24.5463 267.15 24.8406 267.246 25.2042C267.332 25.5678 267.419 25.94 267.48 26.3209C267.55 26.7018 267.619 27.0827 267.697 27.4549C267.776 27.8272 267.941 28.1302 268.193 28.3552L268.227 28.4591C268.227 28.5457 268.184 28.6149 268.088 28.6582C268.001 28.7015 267.949 28.7967 267.949 28.9266V29.0651C268.036 29.4287 268.106 29.8009 268.149 30.1818C268.193 30.5627 268.236 30.9522 268.271 31.3504C268.306 31.7486 268.358 32.1295 268.427 32.5018C268.497 32.874 268.618 33.2203 268.801 33.5319C268.914 33.506 269.061 33.4973 269.244 33.4973C269.696 33.4973 270.052 33.6531 270.313 33.9561C270.53 34.2764 270.764 34.5794 270.973 34.8997Z" fill="white" stroke="white" stroke-width="2"/>
<path d="M299.262 48.2222C299.192 48.5425 299.053 48.7935 298.836 48.984C298.619 49.1744 298.367 49.3303 298.072 49.4428C297.776 49.5553 297.481 49.6246 297.168 49.6592C296.855 49.6938 296.586 49.7111 296.334 49.7111C296.221 49.7111 296.117 49.7025 296.012 49.6938C295.908 49.6852 295.804 49.6765 295.691 49.6765C295.578 49.6765 295.517 49.7371 295.517 49.8497C295.517 49.9622 295.456 50.0401 295.343 50.0834C295.23 50.0401 295.118 50.0055 295.005 49.9795C294.892 49.9535 294.779 49.9449 294.666 49.9449C294.509 49.9449 294.353 49.9535 294.205 49.9795C294.058 50.0055 293.919 50.0141 293.779 50.0141C293.597 50.0141 293.467 49.9882 293.389 49.9449C293.31 49.9016 293.241 49.8497 293.189 49.7891C293.128 49.7371 293.076 49.6679 293.015 49.6073C292.954 49.538 292.876 49.4861 292.763 49.4341C292.607 49.3649 292.476 49.3562 292.372 49.3995C292.268 49.4428 292.12 49.3735 291.911 49.2004C291.642 48.9753 291.408 48.6983 291.216 48.3694C291.025 48.0404 290.834 47.7028 290.66 47.3392C290.478 46.9756 290.287 46.6207 290.087 46.2571C289.887 45.8936 289.644 45.5819 289.375 45.3136H289.105C288.697 45.3136 288.419 45.4867 288.254 45.8243C288.141 45.7551 288.028 45.6685 287.915 45.5733C287.802 45.4694 287.68 45.3915 287.541 45.3222C287.02 45.478 286.481 45.6165 285.908 45.7291C285.343 45.8416 284.778 45.9022 284.214 45.9022H283.736C283.597 45.9022 283.449 45.8762 283.293 45.833C283.067 45.9195 282.858 46.0321 282.684 46.1533C282.502 46.2744 282.302 46.335 282.076 46.335C281.937 46.335 281.781 46.2918 281.598 46.1965C281.459 46.1965 281.399 46.2571 281.416 46.3697C281.425 46.4822 281.355 46.5428 281.199 46.5428H280.895C280.573 46.5428 280.269 46.5515 279.965 46.5774C279.661 46.6034 279.348 46.6121 279.035 46.6121C278.601 46.6121 278.167 46.5601 277.715 46.4389C277.602 46.5082 277.48 46.5428 277.341 46.5428C277.254 46.5861 277.185 46.664 277.141 46.7592C277.098 46.8631 277.054 46.9497 277.002 47.0276C276.959 47.1055 276.898 47.1747 276.82 47.2267C276.742 47.2873 276.637 47.2959 276.498 47.2786C276.455 47.547 276.342 47.7634 276.16 47.9192C275.977 48.075 275.89 48.3174 275.89 48.6291C275.638 48.7676 275.438 48.932 275.282 49.1398C275.126 49.3389 274.961 49.5553 274.804 49.7804C274.648 50.0055 274.483 50.2219 274.309 50.421C274.135 50.6201 273.927 50.7846 273.683 50.8971C273.57 51.0356 273.536 51.2434 273.579 51.5377C273.327 51.7368 273.023 51.9186 272.667 52.0744C272.302 52.2302 271.963 52.3081 271.65 52.3081C270.999 52.3081 270.538 51.9619 270.295 51.2607C270.295 51.0356 270.312 50.7932 270.347 50.5335C270.382 50.2738 270.434 50.0228 270.503 49.7891C270.573 49.5553 270.677 49.3389 270.808 49.1485C270.947 48.958 271.138 48.8195 271.381 48.7243C271.381 48.5252 271.311 48.378 271.181 48.3001C271.042 48.2222 270.99 48.0837 271.007 47.8759C271.616 47.5816 272.154 47.2007 272.606 46.7246C273.058 46.2485 273.475 45.7464 273.848 45.2183C274.222 44.6903 274.604 44.1536 274.987 43.6082C275.369 43.0715 275.803 42.5867 276.272 42.1539V41.444C276.95 40.7255 277.393 39.9118 277.593 39.0115C277.845 38.9682 278.001 38.8557 278.088 38.6739C278.167 38.4921 278.21 38.2757 278.21 38.0333C278.323 38.0333 278.392 37.9814 278.427 37.8775C278.462 37.7736 278.558 37.7476 278.714 37.7909C278.914 37.2542 279.14 36.7521 279.392 36.302C279.644 35.8518 279.887 35.393 280.139 34.9342C280.391 34.4754 280.608 33.9906 280.799 33.4972C280.99 33.0038 281.129 32.4497 281.225 31.8438C281.538 31.8178 281.72 31.6706 281.755 31.385C281.79 31.0993 281.824 30.8483 281.876 30.6232C282.215 30.3115 282.467 29.9393 282.641 29.5065C282.815 29.0823 282.963 28.6322 283.102 28.1733C283.241 27.7145 283.388 27.2471 283.562 26.7883C283.736 26.3295 283.97 25.914 284.292 25.5504V25.4465C284.292 25.334 284.248 25.2647 284.153 25.2301C284.066 25.1955 284.014 25.1262 284.014 25.0137C284.04 24.9877 284.049 24.9704 284.049 24.9444C284.318 24.8319 284.526 24.6501 284.657 24.3904C284.796 24.1307 284.996 23.9489 285.265 23.8364C285.743 24.2173 286.16 24.451 286.525 24.5289C286.89 24.6068 287.359 24.6674 287.95 24.7107C288.245 25.031 288.41 25.4032 288.445 25.8447C288.48 26.2862 288.549 26.719 288.662 27.1432C288.845 27.8617 289.044 28.5716 289.253 29.2554C289.47 29.9393 289.635 30.6492 289.748 31.3677C289.818 31.8005 289.939 32.1987 290.122 32.5883C290.304 32.9691 290.426 33.3674 290.495 33.7742C290.539 34.0945 290.539 34.4494 290.495 34.839C290.452 35.2372 290.495 35.5748 290.634 35.8691L290.869 36.4058C290.982 36.6569 291.077 36.9166 291.156 37.1849C291.234 37.4533 291.312 37.7217 291.373 37.9987C291.555 38.6739 291.72 39.4011 291.868 40.1802C292.016 40.9593 292.25 41.6604 292.563 42.2924C292.676 42.5175 292.85 42.6733 293.093 42.7685C293.328 42.8551 293.597 42.9243 293.892 42.9503C294.188 42.9849 294.475 42.9936 294.761 42.9849C295.048 42.9763 295.291 42.9676 295.491 42.9676H295.83C295.969 42.9676 296.099 42.9936 296.238 43.0369C296.325 43.2186 296.377 43.3745 296.377 43.513C296.377 43.7813 296.29 43.9977 296.108 44.1536C295.926 44.3094 295.839 44.4912 295.839 44.6903C295.839 44.8028 295.882 44.924 295.978 45.0625C295.891 45.0365 295.752 45.0279 295.569 45.0279C295.048 45.0279 294.535 45.1145 294.04 45.2962C294.223 45.6771 294.466 45.9974 294.77 46.2571C295.074 46.5168 295.396 46.7592 295.734 46.9843C295.96 46.8025 296.195 46.7159 296.447 46.7159C296.716 46.7159 296.977 46.7765 297.211 46.8977C297.446 47.0189 297.707 47.0795 297.976 47.0795C298.176 47.0795 298.323 47.0449 298.419 46.9756C298.602 47.1747 298.749 47.3912 298.862 47.5989C298.932 47.8413 299.079 48.0404 299.262 48.2222ZM299.74 20.5641V20.9017C299.557 20.9017 299.427 20.9623 299.349 21.0749C299.271 21.1874 299.21 21.3173 299.175 21.4644C299.14 21.6116 299.123 21.7674 299.123 21.9405C299.123 22.1137 299.114 22.2522 299.088 22.3647C298.906 22.5205 298.688 22.6417 298.445 22.7196C298.193 22.7976 297.967 22.9274 297.767 23.1092C297.203 22.9534 296.595 22.737 295.952 22.4686C295.309 22.2002 294.692 22.0877 294.101 22.131C293.901 21.9752 293.675 21.828 293.441 21.6895C293.206 21.551 292.963 21.4211 292.711 21.2826C292.459 21.1441 292.224 21.0056 291.998 20.8585C291.772 20.7113 291.581 20.5295 291.425 20.3044C290.886 20.1486 290.391 19.9409 289.965 19.6812C289.531 19.4215 289.131 19.1358 288.758 18.8155C288.384 18.5038 288.019 18.1576 287.672 17.7853C287.324 17.4131 286.95 17.0322 286.568 16.6513C286.429 16.6513 286.316 16.6253 286.229 16.5648C286.142 16.5128 286.003 16.5042 285.821 16.5474C285.734 16.4089 285.647 16.2791 285.569 16.1406C285.491 16.0021 285.413 15.8549 285.352 15.6991C285.308 15.7251 285.248 15.7337 285.178 15.7337C285.039 15.7337 284.909 15.6991 284.77 15.6298C284.631 15.5606 284.509 15.526 284.396 15.526L284.257 15.5606C284.118 15.6991 284.005 15.8463 283.918 16.0194C283.831 16.1925 283.736 16.3657 283.649 16.5474C283.466 16.66 283.267 16.6946 283.041 16.6513C282.267 17.9152 281.355 19.0232 280.295 19.9841C279.235 20.945 278.158 21.9059 277.072 22.8755C277.028 23.0313 276.985 23.2044 276.95 23.3862C276.915 23.568 276.846 23.7152 276.733 23.8277C276.663 23.8277 276.594 23.8364 276.533 23.845C276.464 23.8537 276.411 23.8623 276.359 23.8623C275.795 23.8623 275.291 23.7065 274.848 23.3862C274.404 23.0746 274.092 22.6504 273.918 22.131C273.987 21.9059 274.057 21.6635 274.118 21.4038C274.187 21.1441 274.274 20.8931 274.387 20.6594C274.5 20.4256 274.639 20.2179 274.813 20.0534C274.987 19.8889 275.213 19.7677 275.508 19.6985C275.96 19.205 276.446 18.7376 276.968 18.3134C277.489 17.8892 278.001 17.4477 278.514 17.0149C279.027 16.5821 279.505 16.106 279.956 15.6125C280.408 15.1191 280.79 14.5391 281.112 13.8898C281.425 13.7513 281.685 13.5609 281.876 13.3185C282.068 13.0675 282.241 12.7991 282.389 12.5048C282.537 12.2104 282.702 11.9334 282.884 11.6564C283.067 11.3881 283.293 11.163 283.562 10.9812C283.744 11.0072 283.918 11.0245 284.092 11.0505C284.266 11.0764 284.44 11.0851 284.622 11.0851C284.848 11.0851 285.065 11.0505 285.265 10.9812C285.308 11.0937 285.387 11.1803 285.5 11.2496C285.612 11.3188 285.691 11.4313 285.734 11.5872C286.142 11.6564 286.49 11.769 286.785 11.9421C287.081 12.1152 287.359 12.3057 287.619 12.5307C287.88 12.7558 288.132 12.9722 288.384 13.1887C288.636 13.4051 288.923 13.5869 289.27 13.7427C289.314 13.8985 289.383 14.0457 289.47 14.1669C289.557 14.288 289.618 14.4439 289.644 14.6257C289.67 14.5997 289.713 14.591 289.783 14.591C289.922 14.591 290.026 14.6343 290.104 14.7295C290.183 14.8161 290.304 14.868 290.461 14.868C290.461 15.0671 290.53 15.2143 290.66 15.3095C290.799 15.3961 290.895 15.5346 290.964 15.7164C291.503 16.08 292.042 16.4436 292.563 16.8158C293.084 17.188 293.64 17.517 294.223 17.8113C294.422 17.9239 294.631 18.0104 294.831 18.0624C295.031 18.123 295.248 18.1836 295.474 18.2441C295.63 18.3134 295.769 18.4259 295.882 18.5991C295.995 18.7722 296.134 18.9021 296.29 18.9886C296.629 18.9886 296.942 18.9367 297.237 18.8328C297.533 18.7289 297.837 18.6597 298.15 18.6164C298.402 19.205 298.853 19.4821 299.505 19.4647C299.549 19.6465 299.601 19.8283 299.661 20.0015C299.705 20.1659 299.74 20.3564 299.74 20.5641ZM288.636 42.8118C288.593 42.4309 288.514 42.1539 288.419 41.9807C288.323 41.8076 288.236 41.5998 288.167 41.3575C288.08 41.0458 288.01 40.7082 287.984 40.3446C287.95 39.981 287.897 39.6348 287.828 39.2972C287.672 38.5354 287.498 37.7649 287.298 36.9945C287.107 36.2327 286.864 35.4882 286.568 34.7611C286.655 34.6226 286.707 34.5014 286.707 34.3888V34.285C286.507 34.0599 286.36 33.7829 286.264 33.4539C286.177 33.125 286.09 32.8047 286.012 32.4757C285.934 32.1468 285.83 31.8438 285.708 31.5668C285.586 31.2811 285.387 31.056 285.117 30.8742C285.048 31.0127 285.013 31.1686 285.013 31.3503C285.013 31.5062 285.03 31.6533 285.065 31.7918C285.1 31.9303 285.117 32.0775 285.117 32.2333C284.891 32.3459 284.726 32.519 284.622 32.7614C284.518 33.0038 284.353 33.1856 284.127 33.3154C283.944 34.0339 283.684 34.7178 283.345 35.3584C283.006 35.999 282.65 36.6396 282.276 37.2715C281.903 37.9034 281.546 38.5354 281.207 39.1846C280.869 39.8339 280.599 40.5004 280.391 41.193C280.095 41.3921 279.896 41.6518 279.8 41.9721C279.696 42.2924 279.644 42.604 279.644 42.9157C279.843 43.0282 280.078 43.0888 280.339 43.0975C280.599 43.1061 280.851 43.1148 281.103 43.1148C281.355 43.1148 281.59 43.1407 281.816 43.184C282.042 43.2273 282.241 43.3398 282.424 43.5216C282.719 43.4351 283.041 43.3658 283.388 43.3398C283.736 43.3052 284.031 43.21 284.257 43.0542C284.709 43.21 285.195 43.2879 285.717 43.2879C285.986 43.2879 286.255 43.2619 286.516 43.2186C286.777 43.1754 287.029 43.1148 287.281 43.0455C287.48 43.0888 287.646 43.1667 287.758 43.2619C287.871 43.3658 288.045 43.4004 288.271 43.3831C288.384 43.2966 288.454 43.2013 288.471 43.0975C288.488 42.9936 288.549 42.8983 288.636 42.8118Z" fill="white" stroke="white" stroke-width="2"/>
<path d="M320.999 45.2096C320.913 45.5472 320.765 45.8328 320.556 46.0579C320.357 46.283 320.122 46.4907 319.861 46.6639C319.601 46.8457 319.323 47.0101 319.027 47.1573C318.732 47.3045 318.454 47.4689 318.176 47.6507H317.733C316.786 47.6507 316.056 47.417 315.543 46.9582C315.031 46.4994 314.64 45.9194 314.37 45.2355C314.101 44.5516 313.901 43.8072 313.779 43.0194C313.658 42.2317 313.501 41.5132 313.319 40.8552C313.05 41.0803 312.824 41.3487 312.641 41.6517C312.459 41.9546 312.276 42.2576 312.085 42.552C311.894 42.8463 311.677 43.1146 311.442 43.3657C311.208 43.6167 310.895 43.7812 310.513 43.8764C310.443 44.0322 310.374 44.1967 310.295 44.3525C310.217 44.5084 310.165 44.6815 310.139 44.8633C309.644 45.1316 309.192 45.4519 308.784 45.8069C308.375 46.1704 307.967 46.5427 307.559 46.9236C307.15 47.3045 306.742 47.6767 306.316 48.023C305.899 48.3692 305.43 48.6636 304.909 48.8886C304.883 48.8627 304.839 48.854 304.77 48.854C304.5 48.854 304.248 48.9146 304.022 49.0358C303.797 49.157 303.545 49.2176 303.275 49.2176C303.093 49.2176 302.928 49.183 302.78 49.1137C302.632 49.0445 302.485 48.9665 302.337 48.88C302.189 48.7934 302.033 48.7242 301.876 48.6809C301.72 48.6376 301.546 48.6289 301.364 48.6462C301.138 48.2394 300.834 47.8672 300.46 47.5122C300.087 47.166 299.852 46.7591 299.765 46.309C299.722 46.1098 299.696 45.9021 299.678 45.6857C299.67 45.4693 299.635 45.2528 299.591 45.0278C299.522 44.6902 299.435 44.3439 299.322 43.9976C299.209 43.6514 299.122 43.2964 299.053 42.9328C299.166 42.3269 299.27 41.6517 299.374 40.9245C299.478 40.1887 299.6 39.4615 299.748 38.7257C299.896 37.9899 300.095 37.2974 300.356 36.6308C300.617 35.9642 300.947 35.3929 301.355 34.9254L301.32 34.6917C301.32 34.3281 301.39 33.9905 301.52 33.6789C301.659 33.3672 301.807 33.0556 301.963 32.7699C302.12 32.4756 302.259 32.1813 302.372 31.8869C302.485 31.5926 302.511 31.2637 302.441 30.9087C302.711 30.7702 302.997 30.6577 303.293 30.5711C303.588 30.4846 303.892 30.4326 304.205 30.4326C304.5 30.4326 304.77 30.4759 305.022 30.5711C304.978 30.7529 305.056 30.8655 305.256 30.9087V31.0126C305.256 31.4887 305.195 31.9475 305.082 32.3977C304.969 32.8478 304.83 33.298 304.674 33.7308C304.518 34.1723 304.361 34.6138 304.214 35.0466C304.066 35.4881 303.962 35.9296 303.892 36.3797C303.805 36.4057 303.736 36.449 303.71 36.5183C303.684 36.5875 303.649 36.6568 303.623 36.7174C303.597 36.7866 303.562 36.8386 303.519 36.8905C303.475 36.9338 303.406 36.9597 303.319 36.9597C303.18 37.7475 303.041 38.5353 302.893 39.3057C302.745 40.0848 302.676 40.8639 302.676 41.6517C302.676 42.1278 302.719 42.6126 302.815 43.106C302.902 43.5994 303.075 44.0755 303.327 44.5257L303.466 44.491C303.718 44.491 303.91 44.5516 304.057 44.6642C304.205 44.7767 304.405 44.8893 304.648 45.0018C304.83 44.9585 304.996 44.8979 305.161 44.82C305.317 44.7421 305.387 44.6036 305.36 44.3958C305.656 44.3699 305.899 44.3006 306.108 44.1794C306.308 44.0582 306.49 43.9111 306.646 43.7552L307.159 43.2791C307.341 43.1233 307.559 43.0108 307.802 42.9415C307.802 42.803 307.837 42.7078 307.906 42.6385L308.106 42.4394C308.176 42.3702 308.228 42.3009 308.262 42.223C308.297 42.1451 308.297 42.0239 308.28 41.8681C308.549 41.8421 308.758 41.7815 308.905 41.669C309.053 41.5564 309.192 41.4266 309.314 41.2794C309.435 41.1323 309.557 40.9851 309.67 40.8206C309.783 40.6648 309.931 40.5263 310.113 40.4138C310.269 40.0761 310.495 39.626 310.773 39.0633C311.06 38.5006 311.338 37.912 311.625 37.306C311.911 36.7 312.155 36.12 312.372 35.566C312.589 35.012 312.693 34.5878 312.693 34.3021C312.693 34.1896 312.667 34.0857 312.607 33.9992C312.546 33.9126 312.537 33.8087 312.554 33.6962V33.5923C312.737 33.3672 312.902 33.1162 313.05 32.8478C313.197 32.5795 313.354 32.3198 313.528 32.0687C313.701 31.8177 313.884 31.5926 314.084 31.3935C314.283 31.1944 314.544 31.0299 314.866 30.9174C315.23 31.0299 315.595 31.1078 315.969 31.1511C316.343 31.1944 316.699 31.2896 317.038 31.4195C317.064 31.9822 317.116 32.6401 317.211 33.3845C317.298 34.129 317.463 34.761 317.689 35.2804C317.689 35.5747 317.681 35.8517 317.672 36.1287C317.663 36.3971 317.654 36.6654 317.654 36.9424C317.654 37.3926 317.672 37.8514 317.707 38.3275C317.741 38.8036 317.811 39.2365 317.924 39.6433C317.767 39.9809 317.689 40.3445 317.689 40.7254C317.689 41.2448 317.767 41.7382 317.924 42.197C318.08 42.6558 318.193 43.1493 318.263 43.6687C318.558 44.0755 318.94 44.2746 319.418 44.2746C319.531 44.2746 319.627 44.266 319.705 44.24C319.783 44.214 319.87 44.1881 319.957 44.1361C320.139 44.3352 320.304 44.5343 320.452 44.7248C320.626 44.8806 320.8 45.0537 320.999 45.2096Z" fill="white" stroke="white" stroke-width="2"/>
<path d="M56.8397 19.9408C57.3263 19.9581 57.6564 20.01 57.8389 20.0879C58.03 20.1659 58.1777 20.2524 58.2907 20.3476C58.4036 20.4429 58.4731 20.5294 58.4905 20.616C58.5166 20.7026 58.5861 20.7891 58.6904 20.893C58.8294 20.9709 58.951 21.0488 59.0726 21.1354C59.1943 21.222 59.3246 21.3345 59.3246 21.3518C59.368 21.4211 59.4115 21.473 59.4028 21.5423C59.4028 21.5769 59.3854 21.6029 59.3767 21.6375L59.1769 22.1396C58.9771 22.6676 58.8467 23.1784 58.7338 23.6891L58.5861 24.3903C58.5513 24.5548 58.5079 24.702 58.4471 24.8491C58.3341 25.1348 58.1691 25.3858 57.9518 25.6109C57.5869 26.0091 57.0309 26.3121 56.4227 26.5545C56.2489 26.6843 56.0752 26.8055 55.9101 26.9354L55.6494 27.1172L55.328 27.3336C54.9022 27.6279 54.5547 27.9482 54.268 28.2598C53.6685 28.8745 53.1124 29.5843 52.1133 30.1383C52.3826 30.1297 52.5825 30.1557 52.7128 30.2076C52.8431 30.2595 52.93 30.3374 52.9734 30.4327C53.0169 30.5279 53.0777 30.6145 53.1559 30.701C53.2341 30.7876 53.3905 30.8309 53.6424 30.8049C54.6677 30.2162 55.2671 29.8786 55.6581 29.8354C56.0404 29.7834 56.3011 29.8354 56.4488 29.9565L57.0396 29.7228C57.2655 29.6276 57.4914 29.5324 57.7173 29.4198C58.1691 29.2034 58.6208 28.9437 59.0553 28.6148C59.9241 27.9828 60.7147 27.0479 61.097 26.0178C61.2969 25.5243 61.4098 24.927 61.4619 24.5981C61.5314 24.2172 61.6183 23.8449 61.7139 23.4987C61.766 23.3255 61.8182 23.1524 61.879 22.9879C61.9311 22.8494 62.1049 22.4599 62.2091 22.1396C62.435 21.4903 62.409 20.7459 61.9919 20.1659C61.8877 19.9927 61.7573 19.8369 61.627 19.6811C61.1926 19.4906 60.6539 19.2656 60.15 19.1703C59.62 19.0578 59.0987 19.0405 58.6122 19.0924C58.1256 19.1444 57.7086 19.2569 57.361 19.3954C57.0048 19.5339 56.831 19.7071 56.831 19.8888L56.8397 19.9408Z" fill="white" stroke="white" stroke-width="2" stroke-miterlimit="10"/>
<path d="M128.814 12.0632C128.788 12.4008 128.71 12.6605 128.562 12.8423C128.415 13.0241 128.345 13.2492 128.345 13.5175C128.345 13.6993 128.38 13.8552 128.449 13.9937C128.293 14.0629 128.215 14.1841 128.215 14.3659H128.076C127.893 14.3659 127.72 14.4092 127.546 14.5044C127.372 14.591 127.198 14.6429 127.016 14.6429C126.425 14.6429 125.93 14.4871 125.521 14.1841C125.113 13.8811 124.67 13.6301 124.201 13.4223C124.088 13.379 123.975 13.3531 123.862 13.3531H123.558C123.401 13.3531 123.289 13.3271 123.219 13.2838C123.193 13.2405 123.176 13.1799 123.167 13.102C123.158 13.0241 123.123 12.9635 123.08 12.9202C123.054 12.8943 122.958 12.8596 122.776 12.799C122.593 12.7471 122.394 12.6778 122.185 12.6173C121.968 12.548 121.759 12.4787 121.56 12.4008C121.36 12.3229 121.221 12.2623 121.151 12.219C121.038 12.1498 120.943 12.0373 120.865 11.8641C120.786 11.691 120.665 11.6564 120.508 11.7429C120.534 11.6737 120.543 11.6044 120.543 11.5438C120.543 11.4313 120.517 11.3101 120.456 11.1889C120.395 11.0677 120.3 11.0071 120.169 11.0071C120.126 11.0071 120.074 11.0158 120.013 11.0417C119.952 11.0677 119.891 11.0764 119.831 11.0764C119.787 11.0764 119.744 11.0504 119.692 11.0071C119.509 10.782 119.318 10.557 119.118 10.3319C118.753 9.951 118.38 9.61339 117.997 9.31906C117.615 9.02473 117.32 8.61787 117.111 8.09847C116.703 7.89937 116.355 7.64832 116.06 7.354L115.174 6.47102C114.878 6.17669 114.565 5.91699 114.227 5.6746C113.888 5.43222 113.471 5.2764 112.967 5.18117V4.93013C112.967 4.6358 113.01 4.35879 113.106 4.08177C113.193 3.81342 113.245 3.54506 113.245 3.26805C113.245 3.12954 113.236 3.03432 113.21 2.96506C113.523 2.85253 113.731 2.65342 113.818 2.37641C113.905 2.09074 113.957 1.80507 113.957 1.51074C114.183 1.2597 114.479 1.11254 114.843 1.06925C115.208 1.02597 115.53 1 115.825 1H116.164C116.277 1 116.39 1.00866 116.503 1.03463C117.042 1.35492 117.485 1.74447 117.806 2.22059C118.136 2.69671 118.388 3.22476 118.571 3.81342C118.884 4.06446 119.162 4.35013 119.405 4.6964C119.648 5.04267 119.978 5.26774 120.404 5.40625C120.586 5.85639 120.821 6.2546 121.116 6.60952C121.412 6.95579 121.725 7.2934 122.063 7.60504C122.402 7.92534 122.732 8.24563 123.063 8.56593C123.393 8.89488 123.688 9.24981 123.966 9.6307C124.349 9.78652 124.766 9.94234 125.226 10.0895C125.678 10.2367 126.13 10.4011 126.564 10.5829C127.007 10.7647 127.424 10.9725 127.824 11.2062C128.206 11.4399 128.545 11.7256 128.814 12.0632Z" fill="white" stroke="white" stroke-width="2"/>
<path d="M304.441 3.1728C304.354 3.35459 304.258 3.50175 304.154 3.61429C304.05 3.72682 303.963 3.84802 303.885 3.96921C303.806 4.0904 303.746 4.23757 303.711 4.39339C303.676 4.54921 303.667 4.75697 303.693 4.99935C303.537 5.26771 303.346 5.51875 303.137 5.74383C302.92 5.9689 302.703 6.18532 302.494 6.40173C302.277 6.61815 302.077 6.84322 301.886 7.09427C301.695 7.34531 301.539 7.61367 301.426 7.90799C300.904 8.06381 300.522 8.34083 300.288 8.73904C300.053 9.13724 299.818 9.53545 299.593 9.94231C298.932 10.1674 298.446 10.6002 298.115 11.2235C297.785 11.8554 297.62 12.4874 297.62 13.1193C297.325 13.4396 296.96 13.6301 296.534 13.6906C296.1 13.7599 295.7 13.7945 295.309 13.7945C295.04 13.7945 294.77 13.7859 294.51 13.7772C294.249 13.7686 293.997 13.7512 293.745 13.7253C293.606 13.5262 293.511 13.3098 293.459 13.0847C293.398 12.8596 293.354 12.6259 293.32 12.3921C293.285 12.1584 293.25 11.9247 293.215 11.6996C293.181 11.4745 293.111 11.2581 292.998 11.059C294.284 9.83843 295.526 8.59187 296.717 7.30203C297.907 6.01218 299.063 4.68771 300.192 3.3113C300.166 3.24205 300.157 3.13817 300.157 3.00832C300.157 2.8525 300.183 2.71399 300.244 2.58414C300.296 2.46295 300.348 2.34175 300.401 2.22922C300.444 2.11668 300.487 1.99549 300.522 1.85698C300.557 1.71847 300.557 1.554 300.54 1.34624C300.965 1.16445 301.4 1.07788 301.825 1.07788C302.477 1.07788 303.033 1.27698 303.485 1.66653C303.945 2.06474 304.258 2.56683 304.441 3.1728Z" fill="white" stroke="white" stroke-width="2"/>
<path d="M83.3657 39.6172C83.1745 39.6778 83.0008 39.7211 82.8531 39.7211C82.6967 39.7298 82.549 39.7471 82.41 39.7817C82.2623 39.8163 82.1233 39.8769 81.9929 39.9635C81.8539 40.0501 81.7062 40.1886 81.5498 40.379C81.2457 40.4569 80.933 40.5002 80.6289 40.5089C80.3161 40.5175 80.012 40.5175 79.7079 40.5175C79.4038 40.5175 79.091 40.5348 78.7869 40.5781C78.4742 40.6214 78.1701 40.6993 77.8833 40.8292C77.4055 40.5781 76.9363 40.5002 76.4932 40.6128C76.0414 40.7253 75.5983 40.8465 75.1465 40.9677C74.521 40.6647 73.8693 40.6214 73.1916 40.8378C72.5139 41.0542 71.9492 41.3832 71.4974 41.8333C71.063 41.8507 70.672 41.7295 70.3245 41.4784C69.9683 41.2274 69.6642 40.959 69.3862 40.6907C69.195 40.5002 69.0126 40.3098 68.8301 40.1193C68.6563 39.9289 68.4826 39.7384 68.3262 39.548C68.3783 39.3056 68.4565 39.0892 68.5781 38.8901C68.6998 38.691 68.8301 38.4919 68.9778 38.3014C69.1255 38.111 69.2645 37.9205 69.3948 37.7387C69.5339 37.557 69.6294 37.3492 69.6989 37.1328C71.4714 37.1847 73.2351 37.1674 74.9901 37.0981C76.7452 37.0289 78.5089 36.899 80.2813 36.7259C80.3161 36.6653 80.3769 36.5787 80.4725 36.4835C80.5854 36.371 80.7071 36.2931 80.8287 36.2411C80.959 36.1892 81.072 36.1459 81.1849 36.094C81.2979 36.042 81.4108 35.9901 81.5324 35.9122C81.6541 35.8429 81.7757 35.7217 81.906 35.5659C82.3405 35.7391 82.7054 35.9814 83.0095 36.2844C83.4699 36.7432 83.7219 37.2799 83.7654 37.8773C83.8001 38.4746 83.6698 39.0546 83.3657 39.6172Z" fill="white" stroke="white" stroke-width="2"/>
</svg>
