<svg width="335" height="59" viewBox="0 0 335 59" fill="none" xmlns="http://www.w3.org/2000/svg">
<path d="M33.993 36.7299C33.993 37.179 33.9237 37.5418 33.7766 37.8268C33.6294 38.1118 33.4648 38.4314 33.283 38.7855C33.2397 38.7596 33.1791 38.7509 33.1098 38.7509C32.9713 38.7509 32.8501 38.7855 32.7375 38.8546C32.625 38.9236 32.5124 38.9755 32.3999 39.0273C31.7418 39.7441 31.0751 40.4437 30.3911 41.1174C29.7071 41.791 28.9451 42.3869 28.1053 42.9051C27.8801 43.0433 27.655 43.1729 27.4299 43.2938C27.2048 43.4147 26.971 43.5356 26.7199 43.6479C26.6333 43.6911 26.5467 43.7343 26.4688 43.7688C26.3909 43.8034 26.313 43.8379 26.2523 43.8897C26.0965 43.9761 25.932 44.1229 25.7588 44.3302C25.5856 44.5375 25.3952 44.7361 25.1874 44.952C24.9709 45.1679 24.7458 45.3493 24.4947 45.4875C24.2436 45.6343 23.9752 45.6948 23.6808 45.6689C23.499 45.7811 23.3431 45.928 23.2046 46.1093C23.066 46.2907 22.9102 46.4721 22.7284 46.6448C21.7586 46.9816 20.8754 47.4221 20.0702 47.9748C19.2736 48.5276 18.4424 49.0631 17.5852 49.5813C17.0657 49.9181 16.5462 50.1858 16.0267 50.3931C15.9141 50.4363 15.7843 50.4708 15.6371 50.4968C15.4899 50.5227 15.334 50.5486 15.1782 50.6004C14.4335 50.7818 13.6803 50.9286 12.927 51.0409C12.1737 51.1531 11.4117 51.2136 10.6411 51.2136C9.69737 51.2136 8.77957 51.1013 7.90507 50.8768C7.90507 50.8077 7.87909 50.7645 7.8358 50.7386C7.79251 50.7127 7.74056 50.6954 7.67995 50.6695C7.61934 50.6436 7.57605 50.6177 7.5241 50.5831C7.48081 50.5486 7.48081 50.4881 7.5241 50.4017C7.03057 50.3586 6.59764 50.229 6.22533 50.0304C5.85301 49.8317 5.61058 49.469 5.49802 48.9508C5.42875 48.994 5.3768 49.0544 5.32485 49.1235C5.28156 49.1926 5.20363 49.2099 5.09107 49.1926C4.77071 48.7435 4.42437 48.329 4.0434 47.9403C3.66242 47.5603 3.3767 47.0939 3.19487 46.5584C3.15158 46.4462 3.1256 46.3425 3.10828 46.2389C3.09962 46.1352 3.08231 46.0316 3.05633 45.9193C2.94377 45.5998 2.73597 45.4443 2.45024 45.4443C2.49353 45.3579 2.51951 45.2457 2.51951 45.1075C2.51951 45.0384 2.51085 44.9693 2.50219 44.9088C2.49353 44.8397 2.48487 44.7707 2.48487 44.7102C2.48487 44.5979 2.51951 44.4856 2.58878 44.3734C2.38097 43.8379 2.22512 43.3197 2.13854 42.8188C2.04329 42.3092 2 41.791 2 41.2469C2 40.5473 2.03463 39.8564 2.1039 39.1741C2.17317 38.4918 2.2078 37.8009 2.2078 37.1013C2.34634 36.8336 2.45024 36.514 2.52817 36.1599C2.60609 35.7972 2.74463 35.5122 2.95243 35.279C2.92646 35.1408 2.88316 35.0717 2.8139 35.0631C2.74463 35.0544 2.70999 34.994 2.70999 34.8817C2.70999 34.4758 2.78792 34.0353 2.94377 33.5689C3.09962 33.0939 3.17755 32.6103 3.17755 32.118C3.3767 32.0057 3.50657 31.833 3.56718 31.6084C3.61913 31.3839 3.74035 31.2025 3.92218 31.0729V30.9002C3.92218 30.5634 3.95681 30.2265 4.0434 29.8897C4.12132 29.5529 4.19925 29.2247 4.27718 28.8965C4.3551 28.5683 4.42437 28.2488 4.47632 27.9206C4.52827 27.5924 4.54559 27.2728 4.52827 26.9619C4.57156 26.8928 4.63217 26.7633 4.7101 26.5732C4.78802 26.3832 4.86595 26.176 4.94388 25.9687C5.0218 25.7528 5.09107 25.5455 5.14302 25.3468C5.19497 25.1482 5.22961 25.0014 5.22961 24.9064C5.22961 24.7682 5.20363 24.6473 5.16034 24.535C5.11705 24.4227 5.09107 24.3018 5.09107 24.1636C5.09107 24.0513 5.1257 23.8872 5.19497 23.6713C5.26424 23.4554 5.31619 23.2827 5.36814 23.1445C5.45473 22.7645 5.54131 22.3672 5.61924 21.944C5.69716 21.5294 5.77509 21.1322 5.8357 20.7435C6.03484 19.5085 6.18204 18.2648 6.27728 17.0125C6.36386 15.7602 6.42447 14.5079 6.45045 13.2469C6.76215 13.0655 7.09983 12.9014 7.44617 12.7373C7.79251 12.5819 8.16482 12.5042 8.5458 12.5042C8.65836 12.5042 8.77092 12.5128 8.88348 12.5387C8.99604 12.5646 9.1086 12.5992 9.22116 12.6423C9.35103 13.0914 9.53286 13.4455 9.7753 13.7219C10.0264 13.9897 10.2515 14.3178 10.4507 14.6979C10.3121 15.0606 10.2255 15.432 10.1822 15.812L10.0783 16.9607C10.0524 17.3407 10.0091 17.7207 9.93981 18.0921C9.87054 18.4634 9.75798 18.8175 9.60213 19.1544C9.64542 19.2666 9.6714 19.3789 9.6714 19.4912V19.828C9.6714 20.1476 9.64542 20.4499 9.58481 20.7349C9.5242 21.0285 9.46359 21.3222 9.40298 21.6331C9.34237 21.944 9.28177 22.2376 9.22981 22.5313C9.18652 22.8249 9.18652 23.1186 9.22981 23.4122C9.16055 23.5245 9.09128 23.6109 9.03067 23.6627C8.9614 23.7232 8.91811 23.8009 8.89213 23.9132L8.82287 24.5523C8.77957 24.8027 8.73628 25.0446 8.70165 25.2777C8.66701 25.5109 8.63238 25.7528 8.58043 26.0032C8.42458 26.6769 8.25141 27.3505 8.05226 28.0242C7.86178 28.6979 7.76653 29.3974 7.76653 30.1143V30.3129C7.56739 30.6325 7.40288 31.0125 7.29032 31.4789C7.19508 31.9452 7.16044 32.3684 7.21239 32.7484C6.9613 33.4048 6.72752 34.0439 6.5024 34.6744C6.27728 35.3049 6.16472 35.9526 6.16472 36.6349C6.16472 36.7472 6.17338 36.8681 6.18204 36.989C6.19069 37.11 6.20801 37.2309 6.23399 37.3431C6.05216 37.7922 5.9396 38.25 5.89631 38.7077C5.85301 39.1655 5.82704 39.6232 5.82704 40.0723C5.82704 40.3919 5.84436 40.7546 5.87899 41.1692C5.91362 41.5837 5.96557 42.0156 6.05216 42.4474C6.13009 42.8879 6.22533 43.3111 6.33789 43.7083C6.45045 44.1143 6.57167 44.4425 6.7102 44.6843C7.22971 45.5134 7.91373 46.1698 8.7536 46.6621C9.60213 47.1457 10.4939 47.4567 11.4464 47.5862C11.8274 47.448 12.1391 47.3703 12.3728 47.353C12.6066 47.3271 12.9443 47.3271 13.3686 47.353C13.7322 47.1716 14.0959 47.0335 14.4682 46.9471C14.8405 46.8607 15.2215 46.7571 15.6024 46.6448C15.715 46.6016 15.8362 46.5584 15.9574 46.5066C16.0787 46.4634 16.1912 46.4203 16.2778 46.3684C16.3904 46.3253 16.5116 46.2216 16.6501 46.0662C16.7887 45.9107 16.9099 45.7725 17.0224 45.6602C17.4986 45.522 17.9489 45.3407 18.3731 45.1075C18.7974 44.8743 19.2217 44.6325 19.6286 44.382L20.8841 43.6393C21.3084 43.3888 21.7673 43.1815 22.2348 43.0001C22.4167 42.9311 22.5206 42.836 22.5552 42.7151C22.5898 42.5942 22.6504 42.4388 22.737 42.2574C22.7803 42.3006 22.8496 42.3265 22.9362 42.3265C23.2046 42.3265 23.3951 42.2401 23.5076 42.076C23.6202 41.9033 23.7587 41.7306 23.9146 41.5492C24.209 41.506 24.486 41.4196 24.7631 41.2987C25.0315 41.1778 25.2393 40.9792 25.3692 40.7114C25.932 40.5992 26.4255 40.4005 26.8584 40.1069C27.2827 39.8132 27.707 39.4937 28.1139 39.1482C28.5209 38.8027 28.9278 38.4659 29.3348 38.1377C29.7417 37.8095 30.2006 37.5504 30.7201 37.3431C30.7894 37.2309 30.8327 37.1272 30.8587 37.0409C30.8846 36.9545 30.9106 36.8509 30.9626 36.7386C31.3435 36.6954 31.6466 36.5831 31.8717 36.419C32.0968 36.2463 32.3566 36.0736 32.651 35.8922C33.2744 35.9526 33.7246 36.229 33.993 36.7299Z" fill="white" stroke="white" stroke-width="2"/>
<path d="M52.9199 24.9234C52.7814 25.122 52.7035 25.3552 52.6861 25.5971C52.6602 25.8475 52.6515 26.0721 52.6515 26.2707C52.6515 26.5385 52.6602 26.8062 52.6688 27.0653C52.6775 27.3244 52.6861 27.5749 52.6861 27.8253V28.3349C52.6428 28.4903 52.5736 28.6544 52.487 28.8099C52.4004 28.9654 52.3311 29.1295 52.2878 29.2849C51.9675 30.114 51.8116 30.9518 51.8116 31.7809V31.85C51.6991 32.1177 51.5952 32.3682 51.4913 32.5927C51.3874 32.8173 51.2921 33.0332 51.2055 33.2491C51.119 33.465 51.0497 33.6896 51.0064 33.9228C50.9631 34.156 50.9458 34.4324 50.9718 34.7519C50.6514 35.5378 50.2358 36.2547 49.7163 36.8938C49.1968 37.5329 48.6859 38.1893 48.1924 38.8716C47.7162 39.053 47.2833 39.2861 46.8936 39.5798C46.4953 39.8734 46.123 40.2016 45.7594 40.5557C45.058 40.7803 44.374 41.0394 43.6987 41.333C43.0233 41.6267 42.4172 42.0153 41.8717 42.5162C41.4388 42.5594 41.0145 42.6285 40.5903 42.7149C40.1573 42.8013 39.7417 42.9394 39.3348 43.1208H38.9278C38.7287 43.1208 38.5815 43.0776 38.4863 42.9826C38.1919 43.1381 37.8888 43.2504 37.5771 43.3022C37.2568 43.3626 36.9451 43.3886 36.6334 43.3886C36.2264 43.3886 35.8281 43.3626 35.4298 43.3022C35.0315 43.2504 34.6332 43.1813 34.2263 43.1208C34.0012 42.8099 33.6895 42.5681 33.2825 42.3953C32.8756 42.2226 32.5119 42.0671 32.2002 41.903C31.5422 41.0048 31.0746 40.1325 30.7802 39.2861C30.4858 38.4398 30.1828 37.4897 29.8711 36.4361C29.9144 36.1251 29.9923 35.8142 30.1049 35.5119C30.2174 35.2096 30.2607 34.8728 30.2434 34.5187C30.6504 33.3528 31.1872 32.2905 31.8539 31.3318C32.5206 30.3731 33.2825 29.4576 34.1397 28.5853C34.1397 28.4472 34.1657 28.3349 34.2263 28.2485C34.2783 28.1621 34.2869 28.024 34.2436 27.8426C34.2696 27.8685 34.3129 27.8771 34.3822 27.8771C34.564 27.8771 34.6765 27.8253 34.7198 27.7217C34.7631 27.618 34.7718 27.5058 34.7545 27.3676C35.5684 26.8494 36.3043 26.2534 36.971 25.5798C37.6377 24.9061 38.3997 24.3447 39.2569 23.8956C39.3261 23.697 39.4387 23.5243 39.5945 23.3861C39.7504 23.2479 39.8803 23.0924 39.9669 22.9111C40.6855 22.7124 41.3436 22.4015 41.9323 22.0042C42.5211 21.5983 43.1359 21.2442 43.7939 20.9246C44.1576 20.726 44.4952 20.5792 44.8243 20.5014C45.1533 20.4237 45.5083 20.3373 45.8892 20.251C46.0278 20.2078 46.149 20.1733 46.2616 20.1473C46.3741 20.1214 46.4953 20.1128 46.6339 20.1128C47.0408 20.1128 47.4305 20.1819 47.8201 20.3287C48.2011 20.4755 48.5993 20.5446 49.0063 20.5446C49.1189 20.5446 49.2141 20.536 49.292 20.5274C49.3699 20.5187 49.4565 20.5014 49.5431 20.4755C49.9241 20.9505 50.409 21.3046 50.9977 21.5551C51.1363 21.8919 51.2921 22.1856 51.4913 22.4361C51.6818 22.6865 51.8809 22.9283 52.08 23.1615C52.2792 23.3947 52.4697 23.6538 52.6342 23.9388C52.7727 24.2066 52.8766 24.5348 52.9199 24.9234ZM49.5431 26.6766C49.5431 26.5644 49.5345 26.4607 49.5085 26.3744C49.2834 26.3053 49.0669 26.2189 48.8678 26.1066C48.6686 25.9943 48.4348 25.9339 48.1924 25.9339C48.0365 25.9339 47.872 25.9684 47.7162 26.0375C47.6902 25.8821 47.6296 25.7698 47.5344 25.7007C47.4391 25.6316 47.3179 25.5712 47.1967 25.5193C47.0755 25.4675 46.9456 25.4157 46.8244 25.3811C46.7031 25.3466 46.5906 25.2861 46.504 25.1998C46.4347 25.0184 46.3655 24.837 46.2875 24.647C46.2096 24.457 46.0711 24.3188 45.8633 24.2238C45.6641 24.4225 45.4217 24.5866 45.1533 24.7161C44.8849 24.837 44.6078 24.958 44.3221 25.0702C44.0363 25.1825 43.7679 25.3207 43.5082 25.4762C43.2484 25.6316 43.032 25.8216 42.8501 26.0462H42.244C42.1055 26.2966 41.915 26.478 41.6726 26.5989C41.4215 26.7198 41.2137 26.9012 41.0319 27.1257C40.6682 27.3071 40.3392 27.523 40.0361 27.7821C39.7331 28.0412 39.43 28.309 39.1356 28.594C38.8413 28.879 38.5555 29.164 38.2698 29.4576C37.9841 29.7513 37.6897 30.019 37.3693 30.2695C37.0749 30.9 36.7546 31.4441 36.4082 31.9018C36.0619 32.3596 35.7329 32.8259 35.4298 33.301C35.1268 33.776 34.867 34.2855 34.6506 34.8383C34.4341 35.391 34.3302 36.0733 34.3302 36.8765V37.2134C34.3302 37.3256 34.3389 37.4379 34.3648 37.5502C34.6592 37.8697 34.9017 38.2066 35.0921 38.5607C35.2826 38.9234 35.603 39.1825 36.0532 39.338C36.5035 39.5193 36.9797 39.5971 37.4905 39.5712C38.0014 39.5452 38.4863 39.6057 38.9625 39.7439C40.0448 39.5452 41.0838 39.2084 42.0882 38.7507C43.0926 38.2929 44.045 37.7315 44.9455 37.0838C45.084 36.9715 45.2399 36.8506 45.4217 36.7297C45.6035 36.6088 45.7507 36.4792 45.8633 36.341C45.9758 36.2288 46.0711 36.1079 46.149 35.9697C46.2269 35.8315 46.3135 35.7106 46.4001 35.5983C46.5819 35.3047 46.7811 35.011 47.0062 34.7174C47.2313 34.4237 47.4651 34.156 47.7162 33.9055C47.8287 33.4132 47.9759 32.9296 48.1578 32.4718C48.3396 32.0141 48.5214 31.5563 48.6946 31.1072C48.8764 30.6581 49.0236 30.2004 49.1535 29.7254C49.2747 29.2504 49.3353 28.7581 49.3353 28.2399C49.3353 28.1276 49.3267 28.0067 49.318 27.8685C49.3093 27.7303 49.292 27.6094 49.266 27.4971C49.4479 27.238 49.5431 26.9703 49.5431 26.6766Z" fill="white" stroke="white" stroke-width="2"/>
<path d="M81.2853 41.9896C81.216 42.3091 81.0775 42.5596 80.861 42.7496C80.6446 42.9396 80.3934 43.0951 80.0991 43.2073C79.8047 43.3196 79.5103 43.3887 79.1986 43.4233C78.8869 43.4578 78.6185 43.4751 78.3674 43.4751C78.2548 43.4751 78.1509 43.4664 78.047 43.4578C77.9431 43.4492 77.8392 43.4405 77.7266 43.4405C77.6141 43.4405 77.5535 43.501 77.5535 43.6133C77.5535 43.7255 77.4929 43.8033 77.3803 43.8465C77.2677 43.8033 77.1552 43.7687 77.0426 43.7428C76.9301 43.7169 76.8175 43.7083 76.7049 43.7083C76.5491 43.7083 76.3932 43.7169 76.246 43.7428C76.0989 43.7687 75.9603 43.7774 75.8218 43.7774C75.64 43.7774 75.5101 43.7515 75.4322 43.7083C75.3542 43.6651 75.285 43.6133 75.233 43.5528C75.1724 43.501 75.1204 43.4319 75.0598 43.3714C74.9992 43.3024 74.9213 43.2505 74.8087 43.1987C74.6529 43.1296 74.523 43.121 74.4191 43.1642C74.3152 43.2073 74.168 43.1383 73.9602 42.9655C73.6918 42.741 73.458 42.4646 73.2675 42.1364C73.0771 41.8082 72.8866 41.4714 72.7134 41.1086C72.5316 40.7459 72.3411 40.3918 72.1419 40.0291C71.9428 39.6663 71.7004 39.3554 71.4319 39.0877H71.1635C70.7566 39.0877 70.4795 39.2604 70.315 39.5972C70.2024 39.5281 70.0899 39.4418 69.9773 39.3468C69.8648 39.2431 69.7435 39.1654 69.605 39.0963C69.0855 39.2518 68.5487 39.39 67.9772 39.5022C67.4144 39.6145 66.8516 39.675 66.2888 39.675H65.8126C65.6741 39.675 65.5269 39.6491 65.371 39.6059C65.1459 39.6922 64.9381 39.8045 64.7649 39.9254C64.5831 40.0463 64.384 40.1068 64.1588 40.1068C64.0203 40.1068 63.8645 40.0636 63.6826 39.9686C63.5441 39.9686 63.4835 40.0291 63.5008 40.1413C63.5095 40.2536 63.4402 40.3141 63.2843 40.3141H62.9813C62.6609 40.3141 62.3579 40.3227 62.0548 40.3486C61.7518 40.3745 61.4401 40.3832 61.1284 40.3832C60.6955 40.3832 60.2625 40.3313 59.8123 40.2104C59.6997 40.2795 59.5785 40.3141 59.44 40.3141C59.3534 40.3573 59.2841 40.435 59.2408 40.53C59.1975 40.6336 59.1542 40.72 59.1023 40.7977C59.059 40.8755 58.9984 40.9445 58.9205 40.9964C58.8425 41.0568 58.7386 41.0655 58.6001 41.0482C58.5568 41.3159 58.4443 41.5318 58.2624 41.6873C58.0806 41.8428 57.994 42.0846 57.994 42.3955C57.7429 42.5337 57.5438 42.6978 57.3879 42.9051C57.2321 43.1037 57.0676 43.3196 56.9117 43.5442C56.7559 43.7687 56.5913 43.9846 56.4182 44.1833C56.245 44.3819 56.0372 44.546 55.7948 44.6583C55.6822 44.7965 55.6476 45.0038 55.6909 45.2974C55.4398 45.4961 55.1367 45.6774 54.7817 45.8329C54.4181 45.9883 54.0804 46.0661 53.7687 46.0661C53.1193 46.0661 52.6604 45.7206 52.418 45.021C52.418 44.7965 52.4353 44.5547 52.4699 44.2956C52.5046 44.0365 52.5565 43.786 52.6258 43.5528C52.695 43.3196 52.7989 43.1037 52.9288 42.9137C53.0674 42.7237 53.2578 42.5855 53.5003 42.4905C53.5003 42.2919 53.431 42.145 53.3011 42.0673C53.1626 41.9896 53.1106 41.8514 53.128 41.6441C53.7341 41.3505 54.2709 40.9705 54.7211 40.4954C55.1714 40.0204 55.587 39.5195 55.9593 38.9927C56.3316 38.4658 56.7126 37.9304 57.0935 37.3863C57.4745 36.8508 57.9074 36.3671 58.375 35.9353V35.2271C59.0503 34.5103 59.4919 33.6984 59.6911 32.8002C59.9422 32.757 60.098 32.6447 60.1846 32.4634C60.2625 32.282 60.3058 32.0661 60.3058 31.8243C60.4184 31.8243 60.4877 31.7724 60.5223 31.6688C60.5569 31.5652 60.6522 31.5392 60.808 31.5824C61.0072 31.047 61.2323 30.546 61.4834 30.0969C61.7345 29.6478 61.9769 29.1901 62.228 28.7323C62.4791 28.2746 62.6956 27.7909 62.886 27.2987C63.0765 26.8064 63.2151 26.2536 63.3103 25.6491C63.622 25.6231 63.8038 25.4763 63.8385 25.1913C63.8731 24.9063 63.9077 24.6558 63.9597 24.4313C64.2974 24.1204 64.5485 23.749 64.7216 23.3172C64.8948 22.894 65.042 22.4449 65.1805 21.9871C65.3191 21.5294 65.4663 21.063 65.6394 20.6053C65.8126 20.1475 66.0464 19.733 66.3667 19.3702V19.2666C66.3667 19.1543 66.3235 19.0852 66.2282 19.0507C66.1416 19.0161 66.0897 18.947 66.0897 18.8347C66.1156 18.8088 66.1243 18.7916 66.1243 18.7656C66.3927 18.6534 66.6005 18.472 66.7304 18.2129C66.8689 17.9538 67.0681 17.7724 67.3365 17.6602C67.8127 18.0402 68.2283 18.2734 68.592 18.3511C68.9556 18.4288 69.4232 18.4893 70.012 18.5325C70.3063 18.852 70.4709 19.2234 70.5055 19.6639C70.5401 20.1043 70.6094 20.5362 70.722 20.9594C70.9038 21.6762 71.1029 22.3844 71.3107 23.0667C71.5272 23.749 71.6917 24.4572 71.8043 25.174C71.8735 25.6059 71.9947 26.0032 72.1766 26.3918C72.3584 26.7718 72.4796 27.1691 72.5489 27.575C72.5922 27.8946 72.5922 28.2487 72.5489 28.6373C72.5056 29.0346 72.5489 29.3714 72.6874 29.6651L72.9212 30.2006C73.0338 30.451 73.129 30.7101 73.2069 30.9779C73.2849 31.2456 73.3628 31.5133 73.4234 31.7897C73.6052 32.4634 73.7697 33.1888 73.9169 33.9661C74.0641 34.7434 74.2979 35.443 74.6096 36.0735C74.7222 36.298 74.8953 36.4535 75.1378 36.5485C75.3715 36.6349 75.64 36.704 75.9343 36.7299C76.2287 36.7644 76.5145 36.7731 76.8002 36.7644C77.0859 36.7558 77.3284 36.7471 77.5275 36.7471H77.8652C78.0037 36.7471 78.1336 36.7731 78.2721 36.8162C78.3587 36.9976 78.4107 37.1531 78.4107 37.2912C78.4107 37.559 78.3241 37.7749 78.1423 37.9304C77.9604 38.0858 77.8738 38.2672 77.8738 38.4658C77.8738 38.5781 77.9171 38.699 78.0124 38.8372C77.9258 38.8113 77.7873 38.8027 77.6054 38.8027C77.0859 38.8027 76.5751 38.889 76.0815 39.0704C76.2634 39.4504 76.5058 39.77 76.8089 40.0291C77.1119 40.2882 77.4323 40.53 77.7699 40.7545C77.9951 40.5732 78.2288 40.4868 78.4799 40.4868C78.7483 40.4868 79.0081 40.5473 79.2419 40.6682C79.4757 40.7891 79.7354 40.8495 80.0038 40.8495C80.203 40.8495 80.3502 40.815 80.4454 40.7459C80.6272 40.9445 80.7744 41.1605 80.887 41.3677C80.9563 41.6182 81.1034 41.8082 81.2853 41.9896ZM70.696 36.5917C70.6527 36.2117 70.5748 35.9353 70.4795 35.7626C70.3843 35.5898 70.2977 35.3825 70.2284 35.1407C70.1418 34.8298 70.0726 34.493 70.0466 34.1302C70.012 33.7675 69.96 33.422 69.8907 33.0852C69.7349 32.3252 69.5617 31.5565 69.3626 30.7879C69.1721 30.0278 68.9297 29.2851 68.6353 28.5596C68.7218 28.4214 68.7738 28.3005 68.7738 28.1882V28.0846C68.5747 27.86 68.4275 27.5837 68.3322 27.2555C68.2456 26.9273 68.159 26.6077 68.0811 26.2795C68.0032 25.9513 67.8993 25.6491 67.7781 25.3727C67.6569 25.0877 67.4577 24.8631 67.1893 24.6817C67.12 24.8199 67.0854 24.9754 67.0854 25.1568C67.0854 25.3122 67.1027 25.459 67.1374 25.5972C67.172 25.7354 67.1893 25.8822 67.1893 26.0377C66.9642 26.15 66.7997 26.3227 66.6958 26.5645C66.5919 26.8064 66.4274 26.9877 66.2022 27.1173C66.0204 27.8341 65.7607 28.5164 65.423 29.1555C65.0853 29.7946 64.7303 30.4338 64.358 31.0642C63.9857 31.6947 63.6307 32.3252 63.293 32.9729C62.9553 33.6207 62.6869 34.2857 62.4791 34.9766C62.1847 35.1753 61.9856 35.4344 61.8903 35.7539C61.7864 36.0735 61.7345 36.3844 61.7345 36.6953C61.9336 36.8076 62.1674 36.8681 62.4271 36.8767C62.6869 36.8853 62.938 36.894 63.1891 36.894C63.4402 36.894 63.674 36.9199 63.8991 36.9631C64.1242 37.0062 64.3234 37.1185 64.5052 37.2999C64.7996 37.2135 65.1199 37.1444 65.4663 37.1185C65.8126 37.084 66.107 36.989 66.3321 36.8335C66.7824 36.989 67.2672 37.0667 67.7867 37.0667C68.0552 37.0667 68.3236 37.0408 68.5833 36.9976C68.8431 36.9544 69.0942 36.894 69.3453 36.8249C69.5444 36.8681 69.7089 36.9458 69.8215 37.0408C69.934 37.1444 70.1072 37.179 70.3323 37.1617C70.4449 37.0753 70.5142 36.9803 70.5315 36.8767C70.5488 36.7817 70.6094 36.6867 70.696 36.5917Z" fill="white" stroke="white" stroke-width="2"/>
<path d="M89.1903 39.8305C89.0778 40.0119 88.9393 40.176 88.7834 40.3228C88.6276 40.4696 88.4804 40.6251 88.3418 40.7805C88.186 40.8496 88.0128 40.8842 87.8137 40.8842C87.6232 40.8842 87.4413 40.8755 87.2768 40.8669C87.1037 40.8583 86.9478 40.8583 86.8006 40.8669C86.6534 40.8755 86.5322 40.9274 86.4456 41.0224C86.2638 40.9792 86.1253 40.8928 86.0387 40.7719C85.9521 40.651 85.7876 40.5733 85.5625 40.556C85.4759 40.5301 85.3806 40.5301 85.294 40.556C84.9564 40.176 84.6447 39.77 84.3676 39.3382C84.0819 38.915 83.8221 38.5091 83.571 38.1204C83.545 37.2913 83.4844 36.4449 83.3719 35.5899C83.3459 35.3913 83.3113 35.184 83.268 34.9853C83.2247 34.7867 83.19 34.5881 83.1641 34.4153C83.1641 34.1908 83.1814 33.9749 83.216 33.7589C83.2507 33.543 83.2766 33.353 83.3026 33.1717C83.3892 32.5239 83.4931 31.8762 83.6056 31.2457C83.7182 30.6152 83.8221 29.9761 83.9087 29.3197C83.9953 28.7324 84.0472 28.1192 84.0472 27.4801C84.0472 26.841 83.9433 26.2364 83.7442 25.675L83.7095 25.5023C83.7528 25.3209 83.8048 25.1741 83.8654 25.0446C83.9174 24.9237 83.9606 24.7768 83.9866 24.6214C84.0299 24.3709 83.978 24.1982 83.8134 24.0859C83.8827 23.9045 83.9953 23.7923 84.1511 23.7318C84.307 23.68 84.4022 23.5504 84.4195 23.3431C84.4455 23.2568 84.4455 23.1618 84.4195 23.0754C84.6014 23.0063 84.7832 22.9459 84.9737 22.894C85.1642 22.8422 85.3547 22.8336 85.5278 22.8768C85.8222 22.92 86.082 23.015 86.3071 23.1618C86.5322 23.3086 86.7487 23.4727 86.9478 23.6541C87.3115 24.7336 87.4587 25.8737 87.3894 27.0742C87.3201 28.2747 87.2076 29.4838 87.0517 30.7016C86.8959 31.9193 86.792 33.1026 86.7487 34.2599C86.7054 35.4172 86.8872 36.4881 87.2855 37.4813L87.3548 37.5159C87.4673 37.5418 87.5539 37.4986 87.6232 37.395C87.6924 37.2913 87.779 37.2568 87.8916 37.2741C87.9782 37.3172 88.0388 37.3432 88.0648 37.3432C88.1513 37.7923 88.2985 38.2241 88.5063 38.6214C88.7141 39.0187 88.9393 39.4246 89.1903 39.8305Z" fill="white" stroke="white" stroke-width="2"/>
<path d="M126.907 20.4324C126.907 20.8124 126.89 21.1837 126.855 21.5292C126.821 21.8747 126.751 22.246 126.639 22.6261C126.44 22.7815 126.258 22.9715 126.102 23.1961L125.626 23.8352C125.47 24.0338 125.297 24.2325 125.115 24.4225C124.933 24.6125 124.708 24.7679 124.44 24.8802C124.214 25.8734 123.937 26.8235 123.608 27.7303C123.279 28.6372 123.037 29.5958 122.881 30.5804C122.613 31.0727 122.396 31.6168 122.24 32.2041C122.085 32.7914 121.92 33.3787 121.747 33.9746C121.574 34.5705 121.392 35.1406 121.193 35.676C120.994 36.2115 120.708 36.7038 120.344 37.127C120.162 37.6625 119.98 38.2497 119.807 38.8629C119.626 39.4848 119.322 39.9943 118.898 40.4003C118.924 40.4435 118.933 40.5125 118.933 40.5989C118.933 40.8666 118.864 41.1257 118.734 41.3589C118.604 41.5921 118.535 41.834 118.535 42.0844C118.171 42.3522 117.833 42.6717 117.504 43.0258C117.175 43.3886 116.846 43.7427 116.508 44.1054C116.171 44.4681 115.807 44.7791 115.426 45.0468C115.045 45.3145 114.63 45.4959 114.171 45.5823C113.85 45.3577 113.565 45.1072 113.288 44.8222C113.019 44.5372 112.699 44.3127 112.344 44.1313C112.162 43.1208 112.058 42.1276 112.023 41.143C111.989 40.1584 111.902 39.1911 111.772 38.2238C111.686 37.6625 111.539 37.1183 111.348 36.6001C111.158 36.082 111.062 35.5551 111.062 35.011C111.062 34.8987 111.071 34.7778 111.08 34.6569C111.088 34.536 111.106 34.4151 111.132 34.3028C110.906 34.0523 110.759 33.7501 110.69 33.3787C110.621 33.0073 110.569 32.6273 110.517 32.23C110.474 31.8327 110.413 31.4527 110.335 31.0641C110.257 30.684 110.119 30.3559 109.911 30.0881C109.997 30.0018 110.049 29.8722 110.049 29.7167C110.049 29.6045 110.032 29.4922 109.997 29.3799C109.963 29.2676 109.945 29.1554 109.945 29.0431C109.945 28.9567 109.98 28.8531 110.049 28.7408C109.867 28.5162 109.746 28.309 109.694 28.119C109.634 27.929 109.599 27.739 109.573 27.5489C109.547 27.3589 109.53 27.1603 109.521 26.9617C109.512 26.763 109.478 26.5471 109.434 26.3225C109.391 26.1671 109.313 26.0462 109.218 25.9684C109.114 25.8907 109.062 25.8303 109.062 25.7871C109.062 25.6748 109.105 25.5884 109.201 25.5193C108.88 25.0702 108.629 24.5952 108.421 24.1029C108.222 23.6106 107.989 23.1097 107.746 22.6174C107.772 22.367 107.859 22.177 108.015 22.0474C108.17 21.9179 108.283 21.7365 108.352 21.5119H109.434C110.43 23.4465 111.184 25.4502 111.72 27.5317C112.248 29.6131 112.716 31.7118 113.123 33.8278C113.236 34.4324 113.339 35.0456 113.443 35.6501C113.547 36.2547 113.66 36.8765 113.798 37.507C113.842 37.6452 113.911 37.792 113.998 37.9475C114.084 38.1029 114.136 38.267 114.136 38.4225C114.136 38.5607 114.101 38.6902 114.032 38.8284C114.171 38.9148 114.275 39.0443 114.352 39.1998C114.43 39.3552 114.5 39.5193 114.552 39.6921C114.604 39.8648 114.656 40.0289 114.707 40.2016C114.751 40.3744 114.82 40.5212 114.907 40.6594C115.175 40.6335 115.417 40.5126 115.617 40.288C115.816 40.0634 116.006 39.7957 116.171 39.4934C116.335 39.1911 116.5 38.8889 116.647 38.5866C116.794 38.2843 116.967 38.0425 117.175 37.8611C117.201 37.6106 117.244 37.3688 117.331 37.1356C117.409 36.9024 117.452 36.6606 117.452 36.4101C117.677 36.0301 117.876 35.6674 118.058 35.3306C118.24 34.9937 118.353 34.5878 118.396 34.1128C118.509 34.0264 118.578 33.9487 118.595 33.8969C118.621 33.8451 118.716 33.8364 118.898 33.8796C118.898 33.275 118.993 32.6791 119.184 32.1091C119.374 31.5391 119.643 30.995 119.98 30.4768C120.024 29.9586 120.136 29.4404 120.301 28.9049C120.474 28.3781 120.665 27.8512 120.89 27.333C120.959 27.1776 121.045 26.9876 121.158 26.7803C121.271 26.5644 121.331 26.3744 121.331 26.193C121.331 26.1066 121.314 26.0203 121.279 25.9425C121.245 25.8648 121.227 25.7784 121.227 25.6921C121.227 25.5107 121.297 25.3552 121.426 25.2171C121.556 25.0789 121.686 24.9493 121.799 24.8111C121.799 24.2929 121.851 23.7747 121.972 23.2565C122.085 22.7383 122.31 22.2892 122.647 21.9092C122.76 21.1492 122.907 20.3978 123.089 19.6637C123.271 18.9296 123.53 18.23 123.868 17.5563H125.089C125.089 17.1332 125.279 16.9172 125.66 16.9172C125.886 16.9172 126.137 16.9777 126.405 17.09C126.587 17.5823 126.717 18.1436 126.795 18.7568C126.864 19.3441 126.907 19.9142 126.907 20.4324Z" fill="white" stroke="white" stroke-width="2"/>
<path d="M149.117 22.9977V23.1359C148.961 23.1791 148.883 23.2913 148.883 23.4727C148.632 23.585 148.372 23.6713 148.104 23.7232C147.835 23.7836 147.576 23.8614 147.325 23.9736C147.073 23.9477 146.822 23.9391 146.563 23.9218C146.303 23.9132 146.052 23.9045 145.801 23.9045C145.125 23.9045 144.45 23.9304 143.775 23.9736C143.099 24.0168 142.424 24.0168 141.749 23.9736C141.428 24.155 141.09 24.2932 140.718 24.3968C140.346 24.5005 139.991 24.5523 139.653 24.5523C139.385 24.5523 139.142 24.5177 138.943 24.4486C138.406 24.7164 137.809 24.9409 137.168 25.1223C136.527 25.3037 135.878 25.4764 135.22 25.6491C134.562 25.8219 133.939 26.0119 133.341 26.2192C132.744 26.4351 132.216 26.7287 131.765 27.1174C131.722 27.4369 131.687 27.7392 131.661 28.0415C131.635 28.3438 131.627 28.6461 131.627 28.9397C131.627 29.2593 131.644 29.5443 131.679 29.8206C131.713 30.097 131.783 30.3561 131.895 30.6325C132.008 30.6757 132.138 30.7102 132.285 30.7361C132.432 30.762 132.562 30.7707 132.674 30.7707C132.787 30.7707 132.9 30.7534 133.012 30.7189C133.125 30.6843 133.203 30.6152 133.246 30.5029C133.584 30.4598 133.921 30.4425 134.259 30.4511C134.597 30.4598 134.934 30.4684 135.272 30.4684C135.61 30.4684 135.939 30.4598 136.268 30.4338C136.597 30.4079 136.917 30.3561 137.229 30.2611C137.592 30.1747 137.947 30.1143 138.294 30.0884C138.64 30.0625 138.986 30.0452 139.324 30.0193C139.662 29.9934 140.008 29.9588 140.372 29.8984C140.735 29.8465 141.108 29.7256 141.489 29.5443C141.783 29.6565 142.078 29.717 142.389 29.717C142.701 29.717 142.995 29.7429 143.29 29.7861C143.446 29.8984 143.575 30.0193 143.679 30.1575C143.783 30.2957 143.835 30.4511 143.835 30.6325C143.835 30.952 143.723 31.263 143.498 31.5739C143.272 31.8934 143.091 32.1784 142.961 32.4548H142.588C142.052 32.4548 141.523 32.5239 141.013 32.6707C140.502 32.8176 140 32.9903 139.489 33.1803C138.978 33.3703 138.476 33.543 137.965 33.6899C137.454 33.8367 136.934 33.9058 136.389 33.9058C136.302 33.9058 136.25 33.9576 136.233 34.0612C136.224 34.1649 136.19 34.234 136.147 34.2771C136.034 34.2512 135.861 34.2426 135.636 34.2426C135.116 34.2426 134.623 34.3031 134.146 34.4153C133.67 34.5276 133.185 34.5881 132.692 34.5881C132.553 34.5881 132.423 34.5794 132.285 34.5708C132.146 34.5622 132.016 34.5449 131.878 34.519C131.765 34.7003 131.618 34.8213 131.436 34.8731C131.254 34.9335 131.09 35.0285 130.925 35.1581C130.856 35.3567 130.822 35.6072 130.804 35.9008C130.796 36.1945 130.778 36.4881 130.77 36.799C130.761 37.1013 130.726 37.3863 130.683 37.6627C130.64 37.9305 130.544 38.1464 130.415 38.3018C130.441 38.4141 130.527 38.4573 130.683 38.4227C130.839 38.3882 130.917 38.4659 130.917 38.6387C130.917 38.8373 130.891 39.0532 130.848 39.2778C130.804 39.5023 130.778 39.7269 130.778 39.9514C130.778 40.3833 130.83 40.8496 130.934 41.3506C131.038 41.8515 131.194 42.3265 131.41 42.7497C131.627 43.1815 131.913 43.5356 132.276 43.812C132.64 44.097 133.09 44.2352 133.627 44.2352C133.991 44.2352 134.328 44.1661 134.64 44.0366C134.952 43.8984 135.211 43.6738 135.419 43.3629L135.592 43.3284C135.679 43.3284 135.766 43.337 135.843 43.3629C135.921 43.3888 136.008 43.3974 136.095 43.3974C136.233 43.3974 136.406 43.3111 136.623 43.147C136.839 42.9743 137.073 42.7842 137.333 42.5597C137.592 42.3351 137.861 42.1192 138.129 41.9033C138.398 41.6874 138.657 41.5406 138.909 41.4456C139.064 41.1346 139.22 40.8151 139.367 40.5042C139.515 40.1933 139.731 39.9428 140.026 39.7614V38.7855C140.251 38.535 140.493 38.3105 140.753 38.1118C141.013 37.9132 141.212 37.6541 141.342 37.3345C141.454 37.3777 141.558 37.4123 141.662 37.4382C141.766 37.4641 141.87 37.4727 141.982 37.4727C142.095 37.4727 142.216 37.4641 142.337 37.4382C142.459 37.4123 142.58 37.3863 142.692 37.3345C142.874 37.585 143.013 37.8614 143.117 38.1636C143.22 38.4659 143.35 38.7509 143.506 39.0273C143.307 39.4332 143.065 39.9169 142.796 40.4783C142.528 41.0396 142.233 41.601 141.913 42.1624C141.593 42.7238 141.264 43.2593 140.917 43.7688C140.571 44.2784 140.225 44.667 139.887 44.9348C139.818 45.0039 139.671 45.0816 139.445 45.168C139.194 45.3493 138.969 45.5221 138.77 45.6948C138.571 45.8675 138.372 46.0575 138.199 46.2821C137.541 46.4807 136.917 46.7571 136.32 47.0939C135.722 47.4308 135.133 47.759 134.545 48.0699C134.276 48.0008 133.982 47.9662 133.662 47.9662C133.393 47.9662 133.125 47.9835 132.848 48.0181C132.571 48.0526 132.285 48.0699 131.964 48.0699C131.878 47.9576 131.748 47.8885 131.575 47.854C131.402 47.8194 131.341 47.6985 131.393 47.4999C130.622 47.4567 130.008 47.2494 129.531 46.878C129.055 46.5066 128.657 46.0489 128.328 45.5134C127.999 44.978 127.739 44.3907 127.531 43.7602C127.332 43.1297 127.116 42.5251 126.891 41.9379V41.8342C126.891 41.7219 126.934 41.6528 127.029 41.6356C127.116 41.6097 127.168 41.5492 127.168 41.4369C127.168 41.3937 127.159 41.3592 127.133 41.3333C127.064 41.0828 127.012 40.8755 126.96 40.6942C126.917 40.5128 126.891 40.2969 126.891 40.0551C126.891 39.6923 126.917 39.3382 126.96 38.9928C127.003 38.6473 127.029 38.2932 127.029 37.9304C127.029 37.5677 126.986 37.2568 126.891 36.9891C126.977 36.8768 127.055 36.7213 127.107 36.5313C127.168 36.3413 127.202 36.1427 127.228 35.944C127.254 35.7454 127.263 35.5381 127.28 35.3395C127.289 35.1408 127.315 34.9594 127.367 34.804C127.28 34.5535 127.194 34.3376 127.133 34.1476C127.064 33.9576 127.029 33.7244 127.029 33.4567V33.2235C127.254 32.8435 127.445 32.4462 127.601 32.0403C127.756 31.6343 127.93 31.2198 128.111 30.7879V30.6238C128.111 29.9761 128.085 29.3197 128.042 28.6633C127.999 28.0156 127.973 27.3592 127.973 26.7028V26.0637C127.973 25.8391 127.982 25.6232 128.008 25.4246C128.189 25.3382 128.319 25.2087 128.415 25.0532C128.501 24.8978 128.64 24.7682 128.821 24.6818H129.938L130.138 24.345C130.207 24.2327 130.25 24.1118 130.276 23.9736C130.527 23.9045 130.77 23.8095 131.003 23.6886C131.237 23.5677 131.462 23.4382 131.661 23.3C131.973 23.1186 132.268 22.9545 132.527 22.8077C132.787 22.6609 133.047 22.5399 133.307 22.4363C133.566 22.3327 133.843 22.2549 134.138 22.1858C134.432 22.1168 134.77 22.0649 135.151 22.0131C135.333 22.0131 135.445 21.9786 135.506 21.9095C135.558 21.8404 135.644 21.7626 135.757 21.6763C136.025 21.7195 136.294 21.7626 136.571 21.7972C136.848 21.8317 137.108 21.849 137.385 21.849C137.921 21.849 138.432 21.7454 138.909 21.5467C139.584 21.5467 140.259 21.5381 140.917 21.5122C141.584 21.4863 142.251 21.4776 142.926 21.4776C143.515 21.4776 144.095 21.5036 144.684 21.5467C145.273 21.5899 145.844 21.6676 146.407 21.7799C146.606 21.7108 146.831 21.6763 147.082 21.6763C147.351 21.6763 147.628 21.7022 147.913 21.7627C148.199 21.8231 148.467 21.8231 148.745 21.7799C148.771 22.0304 148.831 22.2377 148.926 22.4018C149.022 22.5659 149.117 22.7731 149.117 22.9977ZM146.641 7.51219C146.554 7.69356 146.459 7.84038 146.355 7.95266C146.251 8.06493 146.164 8.18585 146.086 8.30676C146.009 8.42767 145.948 8.57449 145.913 8.72995C145.879 8.88541 145.87 9.09269 145.896 9.33452C145.74 9.60225 145.55 9.85272 145.342 10.0773C145.125 10.3018 144.909 10.5177 144.701 10.7337C144.485 10.9496 144.285 11.1741 144.095 11.4246C143.904 11.675 143.749 11.9428 143.636 12.2364C143.117 12.3919 142.736 12.6683 142.502 13.0655C142.268 13.4628 142.034 13.8601 141.809 14.266C141.151 14.4906 140.666 14.9224 140.337 15.5443C140.008 16.1747 139.844 16.8052 139.844 17.4357C139.549 17.7552 139.186 17.9453 138.761 18.0057C138.328 18.0748 137.93 18.1093 137.541 18.1093C137.272 18.1093 137.004 18.1007 136.744 18.0921C136.484 18.0834 136.233 18.0662 135.982 18.0403C135.843 17.8416 135.748 17.6257 135.696 17.4011C135.636 17.1766 135.592 16.9434 135.558 16.7102C135.523 16.477 135.488 16.2438 135.454 16.0193C135.419 15.7947 135.35 15.5788 135.237 15.3802C136.519 14.1624 137.757 12.9187 138.943 11.6319C140.129 10.345 141.281 9.0236 142.407 7.65037C142.381 7.58128 142.372 7.47764 142.372 7.34809C142.372 7.19263 142.398 7.05445 142.459 6.9249C142.51 6.80398 142.562 6.68307 142.614 6.57079C142.658 6.45852 142.701 6.3376 142.736 6.19942C142.77 6.06123 142.77 5.89713 142.753 5.68986C143.177 5.50849 143.61 5.42212 144.034 5.42212C144.684 5.42212 145.238 5.62076 145.688 6.00941C146.147 6.4067 146.467 6.90762 146.641 7.51219Z" fill="white" stroke="white" stroke-width="2"/>
<path d="M197.62 31.3318C197.55 31.5132 197.464 31.66 197.351 31.7896C197.239 31.9105 197.117 32.04 196.996 32.1782C196.875 32.3164 196.762 32.4546 196.676 32.6014C196.589 32.7482 196.529 32.921 196.503 33.1283C195.827 33.5774 195.204 34.0869 194.624 34.6483C194.052 35.2097 193.472 35.7538 192.883 36.272H192.814C192.771 36.272 192.719 36.2893 192.658 36.3238C192.598 36.3584 192.537 36.3843 192.476 36.4102L192.373 36.272C191.992 36.5916 191.628 36.937 191.29 37.317C190.953 37.697 190.632 38.0857 190.346 38.4657H190.147C189.965 38.4657 189.818 38.5175 189.688 38.6212C189.567 38.7248 189.411 38.7507 189.23 38.7075C189.004 38.863 188.831 39.0703 188.701 39.3121C188.58 39.5626 188.39 39.7612 188.147 39.9167C188.554 40.1671 188.944 40.4435 189.316 40.7458C189.688 41.0481 189.983 41.4194 190.217 41.8426C190.442 41.8858 190.658 41.9722 190.857 42.0931C191.056 42.214 191.256 42.3436 191.429 42.4817C191.611 42.6199 191.792 42.7408 191.983 42.8531C192.173 42.9654 192.39 43.0431 192.641 43.0863C192.953 43.6218 193.438 43.9845 194.096 44.1659C194.684 44.6409 195.135 45.2714 195.446 46.0573C195.758 46.8433 195.922 47.6206 195.922 48.3892C195.922 48.9247 195.836 49.4602 195.654 49.9956C195.472 50.5225 195.195 51.0061 194.806 51.4293C194.944 51.4984 195.005 51.5848 195.005 51.697C195.005 51.8093 194.996 51.9043 194.97 51.9821C194.944 52.0598 194.935 52.1548 194.935 52.2671C194.615 52.5607 194.199 52.7075 193.68 52.7075C193.498 52.7075 193.308 52.6903 193.108 52.6557C192.909 52.6212 192.702 52.5866 192.502 52.5348V52.198C192.502 51.9993 192.494 51.7921 192.468 51.5934C192.442 51.3948 192.433 51.1961 192.433 51.0234C192.433 50.7297 192.468 50.5311 192.537 50.4188C192.606 50.3065 192.676 50.2029 192.753 50.1165C192.831 50.0302 192.909 49.9093 192.97 49.7624C193.039 49.6156 193.074 49.3652 193.074 49.0024C193.074 48.821 193.057 48.5879 193.022 48.2942C192.987 48.0006 192.918 47.7242 192.823 47.4478C192.728 47.1714 192.589 46.9469 192.416 46.7569C192.243 46.5669 192.035 46.4719 191.792 46.4719C191.723 46.1782 191.602 45.945 191.42 45.7637C191.238 45.5823 191.03 45.4268 190.797 45.2887C190.563 45.1505 190.32 45.0209 190.087 44.9C189.853 44.7791 189.645 44.615 189.463 44.4077C189.351 44.4077 189.264 44.4336 189.195 44.4768C189.126 44.52 189.039 44.5459 188.926 44.5459H188.753C188.684 44.5718 188.623 44.5459 188.571 44.4768C188.511 44.4077 188.45 44.3386 188.39 44.2782L188.216 44.045C188.173 43.9586 188.113 43.9068 188.043 43.9068C188 43.9068 187.948 43.9154 187.887 43.9413C187.827 43.9673 187.784 43.9759 187.732 43.9759C187.645 43.9759 187.558 43.9068 187.498 43.76C187.429 43.6131 187.359 43.5095 187.299 43.4404C187.1 43.259 186.822 43.0949 186.485 42.9309C186.147 42.7754 185.844 42.6977 185.576 42.6977C185.255 42.6977 185.013 42.8013 184.831 42.9999C184.649 43.1986 184.502 43.4318 184.389 43.6736H184.286C184.147 43.6477 184.034 43.6822 183.948 43.7772C183.861 43.8636 183.723 43.8895 183.541 43.8463C183.203 44.1832 182.866 44.5286 182.528 44.8741C182.19 45.2196 181.922 45.6341 181.714 46.1091C181.515 46.1091 181.35 46.161 181.22 46.2646C181.099 46.3682 180.987 46.4805 180.883 46.6187C180.779 46.7569 180.684 46.8778 180.58 46.9901C180.476 47.1024 180.363 47.1628 180.225 47.1628C180.138 47.1628 180.069 47.1369 180.026 47.0937C179.757 47.5169 179.437 47.9056 179.064 48.2424C178.692 48.5792 178.303 48.8901 177.896 49.1838L176.675 50.0906C176.268 50.4016 175.887 50.7384 175.523 51.1011C175.549 51.2134 175.592 51.2739 175.679 51.2825C175.757 51.2911 175.8 51.3516 175.8 51.4639L175.766 51.5675C175.722 51.6107 175.679 51.6366 175.627 51.6366C175.584 51.6366 175.54 51.6193 175.489 51.5848C175.445 51.5502 175.376 51.533 175.289 51.533C175.246 51.533 175.211 51.533 175.185 51.533L175.151 51.5675C174.882 51.8352 174.562 52.0598 174.19 52.2412C173.817 52.4225 173.445 52.5953 173.073 52.768C172.701 52.9407 172.354 53.1307 172.042 53.3553C171.722 53.5798 171.48 53.8735 171.298 54.2362C171.185 54.1671 171.081 54.1326 170.995 54.1326C170.77 54.1326 170.622 54.2276 170.553 54.4176C170.484 54.6076 170.371 54.7026 170.216 54.7026C170.172 54.7026 170.12 54.694 170.06 54.6853C169.999 54.6767 169.956 54.6681 169.904 54.6681C169.878 54.694 169.861 54.7026 169.835 54.7026C169.722 54.7717 169.618 54.8667 169.532 54.9876C169.445 55.1085 169.35 55.2294 169.263 55.3417C169.177 55.454 169.081 55.5404 168.977 55.6094C168.873 55.6785 168.761 55.6958 168.622 55.6785C168.51 55.7649 168.441 55.8945 168.406 56.0672C168.371 56.2399 168.319 56.3781 168.25 56.4904C168.112 56.4645 168.016 56.4213 167.947 56.3522C167.878 56.2831 167.774 56.2486 167.644 56.2486C167.324 56.499 166.969 56.6631 166.562 56.7581C166.155 56.8445 165.739 56.9049 165.306 56.9309C164.873 56.9568 164.44 56.9568 164.007 56.9481C163.566 56.9395 163.168 56.9568 162.804 56.9999C162.129 56.7754 161.514 56.4817 160.96 56.119C160.405 55.7563 160.007 55.2381 159.756 54.5644C159.713 54.478 159.661 54.3312 159.6 54.1412C159.548 53.9512 159.514 53.813 159.514 53.718C159.514 53.0185 159.592 52.3362 159.747 51.6798C159.903 51.0148 160.111 50.367 160.354 49.7193C160.605 49.0801 160.882 48.4497 161.185 47.8278C161.488 47.206 161.774 46.5928 162.051 45.9882C162.25 45.9882 162.397 45.9191 162.475 45.7896C162.553 45.6514 162.691 45.5996 162.899 45.6168V44.7705H163.375C163.375 44.7273 163.367 44.6841 163.358 44.6323C163.349 44.5891 163.341 44.5459 163.341 44.4941C163.341 44.2263 163.401 44.0104 163.523 43.855C163.644 43.6995 163.774 43.5613 163.912 43.4318C164.051 43.3109 164.163 43.1813 164.267 43.0431C164.371 42.9049 164.397 42.7149 164.354 42.4731C164.622 42.3349 164.865 42.1795 165.064 41.9808C165.263 41.7908 165.462 41.5835 165.653 41.3763C165.843 41.1603 166.051 40.9703 166.259 40.789C166.475 40.6076 166.726 40.478 167.021 40.383C167.064 40.2967 167.081 40.2189 167.073 40.1671C167.064 40.1153 167.055 40.0289 167.055 39.9167C167.055 39.8044 167.09 39.6921 167.159 39.5798C168.467 38.5003 169.748 37.412 170.995 36.3065C172.25 35.2011 173.549 34.1128 174.9 33.0333V32.9296C174.874 32.8173 174.891 32.7223 174.952 32.6446C175.004 32.5669 175.038 32.4719 175.038 32.3596C175.038 32.2041 174.978 32.0314 174.865 31.8328C174.753 31.6428 174.614 31.4528 174.441 31.28C174.268 31.0987 174.095 30.9346 173.913 30.7877C173.731 30.6409 173.575 30.5373 173.436 30.4682C173.393 29.9759 173.255 29.57 173.012 29.2677C172.77 28.9654 172.467 28.689 172.086 28.4386V27.6872C171.653 27.1949 171.306 26.6335 171.038 26.0203C170.77 25.3985 170.545 24.7594 170.363 24.0943C170.181 23.4293 170.016 22.7643 169.852 22.1079C169.696 21.4429 169.514 20.8124 169.315 20.1992C169.341 20.061 169.367 19.9315 169.419 19.8106C169.462 19.6896 169.488 19.5601 169.488 19.4219C169.488 19.1974 169.384 19.0851 169.185 19.0851C169.341 18.8864 169.436 18.6273 169.471 18.3078C169.506 17.9969 169.54 17.6687 169.592 17.3491C169.635 17.0209 169.722 16.7273 169.843 16.4509C169.964 16.1832 170.198 16.0104 170.536 15.9413C170.536 15.7427 170.588 15.5786 170.709 15.4491C170.822 15.3281 170.882 15.1727 170.882 14.9913C171.246 14.7408 171.618 14.5336 172.016 14.3522C172.415 14.1708 172.735 13.9031 172.978 13.5404C173.159 13.5144 173.324 13.4799 173.471 13.4194C173.618 13.3676 173.766 13.2985 173.913 13.2381C174.06 13.169 174.207 13.1172 174.372 13.0653C174.527 13.0222 174.709 13.0135 174.908 13.0308C175.16 12.8321 175.445 12.6681 175.774 12.5558C176.103 12.4435 176.424 12.3485 176.735 12.2708C177.047 12.193 177.359 12.098 177.662 12.003C177.965 11.908 178.216 11.7612 178.424 11.5798C178.623 11.6057 178.831 11.623 179.03 11.6317C179.229 11.6403 179.437 11.6489 179.636 11.6489C179.974 11.6489 180.32 11.6403 180.666 11.6144C181.013 11.5885 181.359 11.5798 181.697 11.5798C181.878 11.8044 182.095 11.9685 182.355 12.0721C182.614 12.1758 182.883 12.2535 183.169 12.3226C183.454 12.3917 183.731 12.4608 184.017 12.5385C184.303 12.6162 184.545 12.7371 184.744 12.8926C184.944 13.0481 185.073 13.2553 185.134 13.4972C185.186 13.7476 185.342 13.9117 185.593 14.0067V14.2054C185.593 14.5854 185.636 14.9395 185.731 15.2677C185.818 15.5959 185.931 15.9241 186.069 16.2609V16.7014C186.069 17.5564 186 18.3855 185.87 19.1801C185.731 19.9747 185.567 20.7606 185.376 21.5206C185.186 22.2893 184.987 23.0579 184.788 23.8352C184.589 24.6125 184.415 25.4071 184.277 26.2103C183.844 26.6162 183.524 27.1085 183.316 27.6785C183.099 28.2486 182.926 28.8186 182.788 29.38C182.467 29.5181 182.268 29.7341 182.182 30.0363C182.095 30.3386 181.93 30.6064 181.705 30.8309C181.662 30.8741 181.601 30.9173 181.523 30.9691C181.446 31.0123 181.368 31.0555 181.307 31.1073C181.039 31.2887 180.779 31.4873 180.545 31.7119C180.311 31.9364 180.129 32.2041 180.017 32.5237C180.086 32.8433 180.19 33.1283 180.337 33.3874C180.484 33.6465 180.64 33.8883 180.813 34.1128C180.987 34.3374 181.16 34.5619 181.342 34.7865C181.523 35.011 181.679 35.2615 181.818 35.5292H182.294C182.363 35.5983 182.398 35.6761 182.415 35.7624C182.424 35.8488 182.433 35.9352 182.433 35.9956C182.744 36.0647 183.004 36.1943 183.195 36.4016C183.385 36.6002 183.576 36.8161 183.766 37.0234C183.956 37.2393 184.173 37.4207 184.407 37.5761C184.641 37.7316 184.961 37.8093 185.368 37.8093C185.524 37.4984 185.731 37.222 185.991 36.9975C186.251 36.7729 186.519 36.557 186.805 36.3411C187.091 36.1252 187.342 35.9006 187.584 35.6674C187.827 35.4342 188.009 35.132 188.139 34.7692C188.589 34.6138 188.996 34.3892 189.359 34.0956C189.723 33.8019 190 33.4305 190.208 32.9814C190.52 32.8433 190.814 32.6705 191.074 32.4546C191.334 32.2387 191.533 31.9623 191.663 31.6255C191.888 31.6255 192.044 31.5737 192.121 31.4528C192.199 31.3405 192.329 31.2368 192.511 31.1505C192.554 30.8568 192.641 30.615 192.762 30.4077C192.883 30.2091 193.022 30.0191 193.169 29.855C193.316 29.6822 193.472 29.5095 193.645 29.3281C193.818 29.1468 193.966 28.9481 194.104 28.7236C194.173 28.7236 194.243 28.7149 194.303 28.7063C194.373 28.6977 194.425 28.689 194.477 28.689C194.658 28.689 194.814 28.7063 194.953 28.7408C195.091 28.7754 195.247 28.7927 195.429 28.7927C195.542 28.7927 195.663 28.7668 195.801 28.7236C196.026 28.974 196.269 29.1986 196.529 29.3972C196.788 29.5959 197.074 29.7772 197.394 29.9327C197.325 30.0709 197.291 30.2177 197.291 30.3732C197.291 30.5545 197.325 30.7186 197.412 30.8655C197.481 31.0555 197.55 31.1937 197.62 31.3318ZM182.199 40.2708C182.173 40.0894 182.104 39.9598 181.982 39.8648C181.861 39.7785 181.801 39.6403 181.801 39.4589C181.801 39.3898 181.809 39.338 181.818 39.2862C181.827 39.243 181.835 39.1998 181.835 39.148C181.428 38.9666 181.065 38.7248 180.753 38.4225C180.433 38.1202 180.129 37.8093 179.826 37.4984C179.523 37.1875 179.194 36.8938 178.848 36.6175C178.502 36.3497 178.086 36.1425 177.61 36.0129V35.9093C177.61 35.7106 177.541 35.5811 177.393 35.5206C177.246 35.4688 177.082 35.4342 176.9 35.4342C176.562 35.6847 176.225 35.9179 175.904 36.1425C175.575 36.367 175.229 36.6002 174.874 36.8507C174.718 36.9629 174.545 37.0666 174.346 37.1529C174.155 37.2393 173.991 37.3429 173.852 37.4552C173.765 37.5243 173.688 37.6366 173.636 37.8093C173.575 37.9821 173.532 38.1116 173.48 38.198C173.073 38.2412 172.752 38.3793 172.519 38.6039C172.285 38.8284 171.991 39.0098 171.653 39.1394V39.6489C171.332 39.8303 171.073 40.0635 170.856 40.3399C170.64 40.6249 170.432 40.9012 170.233 41.1863C170.034 41.4713 169.817 41.739 169.592 42.0154C169.367 42.2831 169.081 42.5077 168.744 42.689C168.744 42.8445 168.718 42.9568 168.657 43.0259C168.596 43.0949 168.596 43.2159 168.64 43.3972C168.259 43.6477 167.904 43.8895 167.592 44.1227C167.272 44.3559 167.098 44.7359 167.055 45.2541C166.536 45.6773 166.129 46.2041 165.834 46.826C165.54 47.4478 165.211 48.0437 164.856 48.631C164.83 48.9247 164.761 49.2011 164.639 49.4602C164.518 49.7193 164.38 49.9697 164.233 50.2029C164.085 50.4361 163.947 50.6779 163.826 50.9284C163.704 51.1788 163.644 51.4379 163.644 51.7057C163.644 51.8871 163.678 52.0684 163.765 52.2412C163.843 52.4225 163.938 52.5866 164.051 52.7507H164.155C164.31 52.7507 164.449 52.7075 164.562 52.6298C164.674 52.5521 164.778 52.4571 164.865 52.3621C164.951 52.2584 165.046 52.1634 165.133 52.0771C165.22 51.9907 165.332 51.9389 165.471 51.9389C165.583 51.9389 165.67 51.9648 165.739 52.008L165.704 51.8093C165.704 51.723 165.722 51.628 165.756 51.5416C165.791 51.4552 165.86 51.4034 165.973 51.4034C166.129 51.4034 166.233 51.4293 166.276 51.4898C166.319 51.5416 166.414 51.5934 166.544 51.6452C167.263 51.3084 167.973 50.937 168.657 50.5311C169.341 50.1252 170.06 49.7624 170.804 49.4515C170.891 49.2011 171.003 49.0197 171.142 48.916C171.281 48.8038 171.428 48.7174 171.601 48.6656C171.774 48.6051 171.93 48.5619 172.094 48.5101C172.25 48.4669 172.397 48.3892 172.536 48.2769C172.649 48.1647 172.709 48.0092 172.709 47.8192C172.709 47.6292 172.735 47.4996 172.778 47.4305C172.891 47.3874 172.995 47.3442 173.099 47.2924C173.203 47.2492 173.307 47.2233 173.419 47.2233C173.488 47.2233 173.592 47.2492 173.722 47.2924C174.216 46.8864 174.744 46.5064 175.315 46.161C175.878 45.8155 176.32 45.3491 176.631 44.7618C177.168 44.425 177.688 44.0968 178.19 43.7859C178.684 43.475 179.168 43.1381 179.627 42.7927C180.086 42.4472 180.536 42.0672 180.961 41.6613C181.376 41.2467 181.792 40.789 182.199 40.2708ZM182.329 17.4614C182.329 17.1246 182.285 16.7877 182.208 16.4509C182.13 16.1141 181.965 15.8204 181.714 15.57C181.801 15.57 181.853 15.5268 181.853 15.4318C181.853 15.3627 181.827 15.3022 181.766 15.2504C181.705 15.1986 181.697 15.1122 181.714 14.9999C181.394 14.8618 181.073 14.8013 180.736 14.8013C180.259 14.8013 179.783 14.8704 179.298 14.9999C178.813 15.1381 178.32 15.1727 177.826 15.1036C177.376 15.4231 176.874 15.665 176.32 15.8463C175.766 16.0277 175.246 16.235 174.761 16.4682C174.276 16.7014 173.869 17.0209 173.54 17.4096C173.211 17.8069 173.047 18.3682 173.047 19.111V19.4824C173.047 19.5946 173.056 19.7069 173.081 19.8192C173.151 19.9315 173.203 20.0697 173.237 20.2424C173.272 20.4151 173.341 20.5533 173.454 20.6656C173.411 20.8038 173.35 20.8988 173.281 20.9679C173.211 21.037 173.194 21.1406 173.211 21.2701C173.367 21.4083 173.445 21.5897 173.445 21.8056C173.445 21.9611 173.402 22.1511 173.307 22.3756C173.488 22.7125 173.653 23.0061 173.817 23.2566C173.973 23.507 174.051 23.8525 174.051 24.3016C174.276 24.6816 174.519 25.053 174.779 25.3985C175.038 25.7439 175.246 26.1499 175.402 26.599C175.653 26.7803 175.852 27.0394 176.008 27.3763C176.164 27.7131 176.328 28.0499 176.502 28.3867C176.675 28.7236 176.848 29.0259 177.038 29.2936C177.229 29.5613 177.48 29.7082 177.8 29.7341C177.939 29.6477 178.034 29.5354 178.103 29.4145C178.173 29.2936 178.242 29.1727 178.32 29.0604C178.398 28.9481 178.493 28.8618 178.606 28.8099C178.718 28.7581 178.891 28.7408 179.116 28.7581V28.1881C179.541 27.8945 179.878 27.5058 180.129 27.0049C180.381 26.5126 180.588 25.9944 180.77 25.4503C180.952 24.9148 181.134 24.3621 181.307 23.818C181.489 23.2652 181.723 22.7902 182.017 22.3843C181.904 21.9784 181.844 21.607 181.844 21.2701C181.844 20.6224 181.913 19.9833 182.06 19.3615C182.259 18.7482 182.329 18.1178 182.329 17.4614Z" fill="white" stroke="white" stroke-width="2"/>
<path d="M249.917 25.7958C249.848 25.9944 249.718 26.1413 249.528 26.219C249.337 26.2967 249.138 26.3572 248.939 26.4004C248.74 26.4435 248.549 26.5213 248.385 26.6163C248.22 26.7113 248.108 26.884 248.064 27.1086L247.995 27.1431C247.908 27.1431 247.839 27.1172 247.813 27.0567C247.778 27.0049 247.753 26.9445 247.727 26.884C247.701 26.8322 247.675 26.7717 247.64 26.7113C247.605 26.6595 247.553 26.6249 247.484 26.6249C247.233 26.6249 246.991 26.6508 246.757 26.694C246.523 26.7372 246.289 26.7631 246.064 26.7631C245.726 26.7631 245.423 26.7199 245.155 26.6249C244.999 26.6681 244.913 26.7717 244.904 26.9272C244.895 27.0827 244.817 27.1863 244.687 27.2295C244.575 27.2727 244.436 27.2899 244.28 27.2813C244.125 27.2727 243.96 27.2899 243.804 27.3331L242.722 27.6009C242.358 27.6872 242.003 27.739 241.64 27.739C241.44 27.739 241.293 27.7304 241.198 27.7045C240.86 27.9722 240.479 28.1709 240.046 28.2918C239.614 28.4127 239.172 28.525 238.713 28.6286C238.254 28.7323 237.804 28.8618 237.362 29.0173C236.921 29.1727 236.531 29.4232 236.193 29.76C236.012 29.7168 235.856 29.6909 235.717 29.6909C235.423 29.6909 235.163 29.7514 234.938 29.8723C234.713 29.9932 234.479 30.1141 234.228 30.2264C234.115 30.2696 234.003 30.2955 233.89 30.2955C233.778 30.2955 233.657 30.3214 233.518 30.3646C233.379 30.4078 233.302 30.4855 233.267 30.5805C233.232 30.6755 233.163 30.7791 233.05 30.8655C233.05 31.6773 233.128 32.4806 233.284 33.2751C233.44 34.0697 233.518 34.8815 233.518 35.6847V35.8229C233.561 36.2029 233.691 36.5571 233.89 36.8852C234.089 37.2134 234.193 37.5416 234.193 37.8785C234.193 37.9907 234.167 38.1116 234.124 38.2498C234.713 38.388 235.103 38.6817 235.293 39.148C235.483 39.6058 235.639 40.1067 235.769 40.6335C235.89 41.1604 236.064 41.6527 236.28 42.1018C236.497 42.5509 236.921 42.8359 237.544 42.9482C237.587 43.1727 237.622 43.4059 237.648 43.6391C237.674 43.8723 237.683 44.1055 237.683 44.33C237.683 44.6409 237.648 44.9519 237.579 45.2542C237.51 45.5564 237.38 45.8328 237.172 46.0833C236.834 46.1092 236.583 46.1178 236.427 46.1178C236.271 46.1178 236.029 46.1869 235.717 46.3165C235.267 46.0487 234.869 45.7378 234.514 45.3923C234.167 45.0469 233.838 44.6755 233.535 44.2782C233.232 43.8809 232.929 43.4836 232.635 43.0604C232.34 42.6459 232.029 42.2486 231.691 41.86C230.522 42.1536 229.319 42.3522 228.089 42.4472C226.86 42.5509 225.639 42.6027 224.418 42.6027C224.375 42.6459 224.305 42.6718 224.219 42.6718C224.132 42.6718 224.046 42.6804 223.968 42.6891C223.89 42.6977 223.821 42.7236 223.769 42.7582C223.708 42.7927 223.699 42.8532 223.717 42.9395C223.561 42.8532 223.388 42.7841 223.188 42.7582C222.998 42.7236 222.825 42.7063 222.66 42.7063C222.548 42.7063 222.435 42.715 222.323 42.7236C222.21 42.7323 222.098 42.7754 221.985 42.8445C221.128 42.6891 220.297 42.4645 219.5 42.1881C218.703 41.9031 217.881 41.6786 217.05 41.4972C217.05 41.3158 217.006 41.1863 216.911 41.1086C216.825 41.0308 216.738 40.9099 216.677 40.7545C215.734 40.1672 214.937 39.459 214.296 38.6298C213.656 37.8007 213.387 36.7902 213.5 35.5897L213.266 35.1147C213.266 34.752 213.344 34.4929 213.5 34.3374C213.413 34.182 213.249 34.0265 213.023 33.8624C213.223 33.5515 213.404 33.2233 213.56 32.8865C213.716 32.5496 213.829 32.1869 213.898 31.8069C213.924 31.6946 213.933 31.591 213.933 31.5046C213.933 31.4182 213.959 31.3146 214.002 31.2023C214.045 31.0641 214.106 30.9173 214.184 30.7446C214.262 30.5719 214.34 30.425 214.4 30.2868C214.764 29.5268 215.162 28.7841 215.604 28.0759C216.045 27.3677 216.599 26.7545 217.275 26.2363C217.318 25.8562 217.431 25.5367 217.612 25.2776C217.794 25.0185 217.993 24.7853 218.201 24.5694C218.418 24.3535 218.625 24.1376 218.842 23.913C219.058 23.6885 219.223 23.4207 219.335 23.1012C219.786 22.7211 220.245 22.3498 220.703 21.987C221.162 21.6243 221.552 21.2011 221.872 20.7088C222.279 20.5706 222.66 20.3979 223.024 20.182C223.388 19.9661 223.691 19.6897 223.933 19.3529C224.47 19.3097 225.007 19.206 225.544 19.0506C226.072 18.8951 226.635 18.8174 227.215 18.8174C227.466 18.8174 227.76 18.8692 228.115 18.9728C228.461 19.0765 228.73 19.2492 228.912 19.4997C228.938 19.5429 228.946 19.6033 228.946 19.6724L228.981 19.8451C229.007 19.8883 229.033 19.9315 229.068 19.9661C229.102 20.0006 229.163 20.0092 229.249 19.9833C229.249 20.4756 229.189 20.9765 229.076 21.4861C228.964 21.9957 228.669 22.3843 228.193 22.6521C227.899 22.5657 227.587 22.5139 227.249 22.5139C226.799 22.5139 226.383 22.6002 226.011 22.7643C225.639 22.9284 225.275 23.1271 224.929 23.3343C224.582 23.5503 224.227 23.7662 223.864 23.9735C223.5 24.1894 223.119 24.3362 222.712 24.4312C222.669 24.6126 222.626 24.7767 222.591 24.9235C222.556 25.0703 222.565 25.2344 222.608 25.4158C222.496 25.4158 222.409 25.3985 222.357 25.364C222.297 25.3294 222.219 25.3121 222.106 25.3121C221.95 25.3121 221.838 25.3985 221.786 25.5799C221.725 25.7612 221.682 25.9081 221.63 26.0203C221.197 26.2017 220.842 26.4522 220.565 26.7804C220.279 27.1086 220.028 27.454 219.786 27.8254C219.543 28.1968 219.292 28.5509 219.024 28.8877C218.755 29.2245 218.418 29.4836 218.011 29.665C217.829 30.3818 217.656 31.0901 217.483 31.7896C217.309 32.4892 217.119 33.1888 216.894 33.8797C216.963 34.1474 216.998 34.4324 216.998 34.7261C216.998 35.0888 216.963 35.4084 216.894 35.702C217.006 35.8834 217.119 36.0993 217.231 36.3411L217.638 37.1184C217.777 37.3862 217.915 37.6366 218.063 37.8612C218.21 38.0857 218.348 38.2585 218.487 38.3707C218.738 38.5521 219.119 38.7162 219.639 38.863C220.158 39.0099 220.617 39.2517 221.024 39.5885C221.067 39.5885 221.128 39.5799 221.197 39.5712C221.266 39.5626 221.318 39.554 221.37 39.554C221.639 39.554 221.933 39.6231 222.253 39.7526C222.565 39.8908 222.773 39.9513 222.859 39.9513C224.124 39.9513 225.5 39.8649 226.99 39.7008C228.479 39.5367 229.855 39.3208 231.12 39.079C231.163 38.8544 231.189 38.6644 231.189 38.5089C231.189 38.2153 231.146 37.9303 231.05 37.6453C230.964 37.3603 230.817 37.1184 230.609 36.9198C230.609 36.583 230.617 36.2461 230.626 35.9093C230.635 35.5725 230.643 35.2356 230.643 34.8988C230.643 34.3374 230.617 33.7415 230.574 33.111C230.531 32.4806 230.418 31.8933 230.236 31.3578H230.167C229.873 31.3578 229.613 31.4269 229.371 31.5737C229.137 31.7205 228.894 31.7896 228.643 31.7896C228.505 31.7896 228.392 31.7551 228.306 31.686C228.037 32.0055 227.708 32.2387 227.327 32.3942C226.946 32.5496 226.539 32.6965 226.106 32.8174C225.673 32.9383 225.258 33.0678 224.842 33.206C224.427 33.3442 224.046 33.5342 223.708 33.7761C223.526 33.707 223.362 33.6724 223.197 33.6724C223.041 33.6724 222.885 33.681 222.738 33.707C222.591 33.7329 222.427 33.7501 222.245 33.7761C221.768 33.3701 221.535 32.8692 221.535 32.256C221.535 31.9451 221.587 31.6342 221.691 31.3319C221.794 31.0296 221.933 30.7446 222.115 30.4682C222.227 30.3991 222.366 30.3646 222.522 30.3473C222.678 30.3387 222.833 30.3128 222.998 30.2782C223.154 30.2437 223.284 30.1918 223.388 30.1228C223.492 30.0537 223.552 29.9327 223.569 29.7514C223.639 29.8205 223.691 29.855 223.743 29.855C223.786 29.855 223.829 29.8464 223.881 29.8205C223.924 29.7946 223.968 29.7859 224.02 29.7859C224.063 29.7859 224.106 29.8118 224.141 29.855C224.176 29.8982 224.193 29.9414 224.193 29.9932C225.163 29.475 226.158 29.0345 227.171 28.6804C228.184 28.3177 229.215 27.9981 230.262 27.7045C231.31 27.4108 232.366 27.1345 233.423 26.8754C234.479 26.6163 235.527 26.3313 236.566 26.0117C236.722 25.8735 236.895 25.7785 237.077 25.7094C237.258 25.6403 237.414 25.5367 237.553 25.4071C237.709 25.4935 237.899 25.5453 238.124 25.5453C238.436 25.5453 238.782 25.4849 239.155 25.364C239.527 25.243 239.839 25.0876 240.081 24.9062C240.168 24.9321 240.254 24.9408 240.315 24.9408H240.549C240.999 24.9408 241.423 24.8717 241.813 24.7421C242.211 24.6039 242.592 24.4312 242.982 24.2067H243.155C243.856 24.2067 244.549 24.1289 245.233 23.9735C245.917 23.818 246.627 23.7403 247.346 23.7403C248.272 23.7403 249.077 23.9735 249.779 24.4485V24.8544C249.779 25.0358 249.787 25.1999 249.796 25.3467C249.805 25.4849 249.848 25.6403 249.917 25.7958Z" fill="white" stroke="white" stroke-width="2"/>
<path d="M248.315 39.8305C248.203 40.0119 248.064 40.176 247.908 40.3228C247.753 40.4696 247.605 40.6251 247.467 40.7805C247.311 40.8496 247.138 40.8842 246.939 40.8842C246.748 40.8842 246.566 40.8755 246.402 40.8669C246.229 40.8583 246.073 40.8583 245.926 40.8669C245.778 40.8755 245.657 40.9274 245.571 41.0224C245.389 40.9792 245.25 40.8928 245.164 40.7719C245.077 40.651 244.913 40.5733 244.687 40.556C244.601 40.5301 244.506 40.5301 244.419 40.556C244.081 40.176 243.77 39.77 243.493 39.3382C243.207 38.915 242.947 38.5091 242.696 38.1204C242.67 37.2913 242.609 36.4449 242.497 35.5899C242.471 35.3913 242.436 35.184 242.393 34.9853C242.35 34.7867 242.315 34.5881 242.289 34.4153C242.289 34.1908 242.306 33.9749 242.341 33.7589C242.376 33.543 242.402 33.353 242.428 33.1717C242.514 32.5239 242.618 31.8762 242.731 31.2457C242.843 30.6152 242.947 29.9761 243.034 29.3197C243.12 28.7324 243.172 28.1192 243.172 27.4801C243.172 26.841 243.068 26.2364 242.869 25.675L242.835 25.5023C242.878 25.3209 242.93 25.1741 242.99 25.0446C243.042 24.9237 243.086 24.7768 243.112 24.6214C243.155 24.3709 243.103 24.1982 242.938 24.0859C243.008 23.9045 243.12 23.7923 243.276 23.7318C243.432 23.68 243.527 23.5504 243.545 23.3431C243.571 23.2568 243.571 23.1618 243.545 23.0754C243.726 23.0063 243.908 22.9459 244.099 22.894C244.289 22.8422 244.48 22.8336 244.653 22.8768C244.947 22.92 245.207 23.015 245.432 23.1618C245.657 23.3086 245.874 23.4727 246.073 23.6541C246.436 24.7336 246.584 25.8737 246.514 27.0742C246.445 28.2747 246.333 29.4838 246.177 30.7016C246.021 31.9193 245.917 33.1026 245.874 34.2599C245.83 35.4172 246.012 36.4881 246.41 37.4813L246.48 37.5159C246.592 37.5418 246.679 37.4986 246.748 37.395C246.817 37.2913 246.904 37.2568 247.017 37.2741C247.103 37.3172 247.164 37.3432 247.19 37.3432C247.276 37.7923 247.424 38.2241 247.631 38.6214C247.839 39.0187 248.064 39.4246 248.315 39.8305Z" fill="white" stroke="white" stroke-width="2"/>
<path d="M277.555 41.9895C277.486 42.3091 277.347 42.5595 277.131 42.7495C276.914 42.9395 276.663 43.095 276.369 43.2073C276.074 43.3196 275.78 43.3887 275.468 43.4232C275.156 43.4577 274.888 43.475 274.637 43.475C274.524 43.475 274.42 43.4664 274.317 43.4577C274.213 43.4491 274.109 43.4405 273.996 43.4405C273.884 43.4405 273.823 43.5009 273.823 43.6132C273.823 43.7255 273.762 43.8032 273.65 43.8464C273.537 43.8032 273.425 43.7687 273.312 43.7428C273.2 43.7168 273.087 43.7082 272.974 43.7082C272.819 43.7082 272.663 43.7168 272.516 43.7428C272.368 43.7687 272.23 43.7773 272.091 43.7773C271.909 43.7773 271.78 43.7514 271.702 43.7082C271.624 43.665 271.554 43.6132 271.503 43.5527C271.442 43.5009 271.39 43.4318 271.329 43.3714C271.269 43.3023 271.191 43.2505 271.078 43.1986C270.922 43.1296 270.793 43.1209 270.689 43.1641C270.585 43.2073 270.438 43.1382 270.23 42.9655C269.961 42.7409 269.728 42.4645 269.537 42.1363C269.347 41.8081 269.156 41.4713 268.983 41.1086C268.801 40.7458 268.611 40.3917 268.411 40.029C268.212 39.6663 267.97 39.3553 267.701 39.0876H267.433C267.026 39.0876 266.749 39.2603 266.585 39.5972C266.472 39.5281 266.359 39.4417 266.247 39.3467C266.134 39.2431 266.013 39.1653 265.875 39.0962C265.355 39.2517 264.818 39.3899 264.247 39.5022C263.684 39.6144 263.121 39.6749 262.558 39.6749H262.082C261.944 39.6749 261.796 39.649 261.641 39.6058C261.415 39.6922 261.208 39.8044 261.034 39.9254C260.853 40.0463 260.653 40.1067 260.428 40.1067C260.29 40.1067 260.134 40.0635 259.952 39.9685C259.814 39.9685 259.753 40.029 259.77 40.1413C259.779 40.2536 259.71 40.314 259.554 40.314H259.251C258.93 40.314 258.627 40.3226 258.324 40.3486C258.021 40.3745 257.71 40.3831 257.398 40.3831C256.965 40.3831 256.532 40.3313 256.082 40.2104C255.969 40.2795 255.848 40.314 255.709 40.314C255.623 40.3572 255.554 40.4349 255.51 40.5299C255.467 40.6336 255.424 40.7199 255.372 40.7977C255.329 40.8754 255.268 40.9445 255.19 40.9963C255.112 41.0568 255.008 41.0654 254.87 41.0481C254.826 41.3159 254.714 41.5318 254.532 41.6872C254.35 41.8427 254.264 42.0845 254.264 42.3954C254.012 42.5336 253.813 42.6977 253.657 42.905C253.502 43.1036 253.337 43.3196 253.181 43.5441C253.025 43.7687 252.861 43.9846 252.688 44.1832C252.515 44.3819 252.307 44.546 252.064 44.6582C251.952 44.7964 251.917 45.0037 251.96 45.2974C251.709 45.496 251.406 45.6774 251.051 45.8328C250.688 45.9883 250.35 46.066 250.038 46.066C249.389 46.066 248.93 45.7206 248.688 45.021C248.688 44.7964 248.705 44.5546 248.739 44.2955C248.774 44.0364 248.826 43.7859 248.895 43.5527C248.965 43.3196 249.068 43.1036 249.198 42.9136C249.337 42.7236 249.527 42.5854 249.77 42.4904C249.77 42.2918 249.701 42.145 249.571 42.0672C249.432 41.9895 249.38 41.8513 249.398 41.6441C250.004 41.3504 250.54 40.9704 250.991 40.4954C251.441 40.0204 251.856 39.5194 252.229 38.9926C252.601 38.4658 252.982 37.9303 253.363 37.3862C253.744 36.8507 254.177 36.3671 254.645 35.9352V35.227C255.32 34.5102 255.761 33.6983 255.961 32.8001C256.212 32.7569 256.368 32.6447 256.454 32.4633C256.532 32.2819 256.575 32.066 256.575 31.8242C256.688 31.8242 256.757 31.7724 256.792 31.6687C256.826 31.5651 256.922 31.5392 257.078 31.5824C257.277 31.0469 257.502 30.546 257.753 30.0969C258.004 29.6478 258.246 29.19 258.498 28.7323C258.749 28.2745 258.965 27.7909 259.156 27.2986C259.346 26.8063 259.485 26.2536 259.58 25.649C259.892 25.6231 260.073 25.4763 260.108 25.1912C260.143 24.9062 260.177 24.6558 260.229 24.4312C260.567 24.1203 260.818 23.7489 260.991 23.3171C261.164 22.8939 261.312 22.4448 261.45 21.987C261.589 21.5293 261.736 21.0629 261.909 20.6052C262.082 20.1474 262.316 19.7329 262.636 19.3701V19.2665C262.636 19.1542 262.593 19.0851 262.498 19.0506C262.411 19.016 262.359 18.9469 262.359 18.8347C262.385 18.8088 262.394 18.7915 262.394 18.7656C262.662 18.6533 262.87 18.4719 263 18.2128C263.138 17.9537 263.338 17.7724 263.606 17.6601C264.082 18.0401 264.498 18.2733 264.861 18.351C265.225 18.4287 265.693 18.4892 266.281 18.5324C266.576 18.8519 266.74 19.2233 266.775 19.6638C266.81 20.1043 266.879 20.5361 266.991 20.9593C267.173 21.6761 267.372 22.3843 267.58 23.0666C267.797 23.7489 267.961 24.4571 268.074 25.174C268.143 25.6058 268.264 26.0031 268.446 26.3917C268.628 26.7717 268.749 27.169 268.818 27.575C268.862 27.8945 268.862 28.2486 268.818 28.6373C268.775 29.0345 268.818 29.3714 268.957 29.665L269.191 30.2005C269.303 30.451 269.399 30.7101 269.476 30.9778C269.554 31.2455 269.632 31.5133 269.693 31.7896C269.875 32.4633 270.039 33.1888 270.186 33.9661C270.334 34.7434 270.567 35.4429 270.879 36.0734C270.992 36.298 271.165 36.4534 271.407 36.5484C271.641 36.6348 271.909 36.7039 272.204 36.7298C272.498 36.7643 272.784 36.773 273.07 36.7643C273.355 36.7557 273.598 36.7471 273.797 36.7471H274.135C274.273 36.7471 274.403 36.773 274.542 36.8162C274.628 36.9975 274.68 37.153 274.68 37.2912C274.68 37.5589 274.594 37.7748 274.412 37.9303C274.23 38.0858 274.143 38.2671 274.143 38.4658C274.143 38.578 274.187 38.699 274.282 38.8371C274.195 38.8112 274.057 38.8026 273.875 38.8026C273.355 38.8026 272.845 38.889 272.351 39.0703C272.533 39.4503 272.775 39.7699 273.078 40.029C273.381 40.2881 273.702 40.5299 274.039 40.7545C274.265 40.5731 274.498 40.4867 274.749 40.4867C275.018 40.4867 275.278 40.5472 275.511 40.6681C275.745 40.789 276.005 40.8495 276.273 40.8495C276.472 40.8495 276.62 40.8149 276.715 40.7458C276.897 40.9445 277.044 41.1604 277.157 41.3677C277.226 41.6181 277.373 41.8081 277.555 41.9895ZM266.965 36.5916C266.922 36.2116 266.844 35.9352 266.749 35.7625C266.654 35.5898 266.567 35.3825 266.498 35.1407C266.411 34.8297 266.342 34.4929 266.316 34.1302C266.281 33.7674 266.23 33.422 266.16 33.0851C266.004 32.3251 265.831 31.5565 265.632 30.7878C265.442 30.0278 265.199 29.285 264.905 28.5595C264.991 28.4213 265.043 28.3004 265.043 28.1882V28.0845C264.844 27.86 264.697 27.5836 264.602 27.2554C264.515 26.9272 264.429 26.6077 264.351 26.2795C264.273 25.9513 264.169 25.649 264.048 25.3726C263.926 25.0876 263.727 24.8631 263.459 24.6817C263.39 24.8199 263.355 24.9753 263.355 25.1567C263.355 25.3122 263.372 25.459 263.407 25.5972C263.442 25.7354 263.459 25.8822 263.459 26.0376C263.234 26.1499 263.069 26.3226 262.965 26.5645C262.861 26.8063 262.697 26.9877 262.472 27.1172C262.29 27.8341 262.03 28.5163 261.692 29.1555C261.355 29.7946 261 30.4337 260.628 31.0642C260.255 31.6946 259.9 32.3251 259.563 32.9729C259.225 33.6206 258.956 34.2856 258.749 34.9766C258.454 35.1752 258.255 35.4343 258.16 35.7539C258.056 36.0734 258.004 36.3843 258.004 36.6953C258.203 36.8075 258.437 36.868 258.697 36.8766C258.956 36.8853 259.208 36.8939 259.459 36.8939C259.71 36.8939 259.944 36.9198 260.169 36.963C260.394 37.0062 260.593 37.1185 260.775 37.2998C261.069 37.2135 261.389 37.1444 261.736 37.1185C262.082 37.0839 262.377 36.9889 262.602 36.8334C263.052 36.9889 263.537 37.0666 264.056 37.0666C264.325 37.0666 264.593 37.0407 264.853 36.9975C265.113 36.9544 265.364 36.8939 265.615 36.8248C265.814 36.868 265.978 36.9457 266.091 37.0407C266.204 37.1444 266.377 37.1789 266.602 37.1616C266.714 37.0753 266.784 36.9803 266.801 36.8766C266.818 36.7816 266.879 36.6866 266.965 36.5916ZM273.399 3.09007C273.312 3.27144 273.217 3.41826 273.113 3.53054C273.009 3.64281 272.923 3.76373 272.845 3.88464C272.767 4.00555 272.706 4.15238 272.671 4.30784C272.637 4.46329 272.628 4.67057 272.654 4.9124C272.498 5.18014 272.308 5.4306 272.1 5.65515C271.884 5.8797 271.667 6.09562 271.459 6.31154C271.243 6.52745 271.044 6.75201 270.853 7.00247C270.663 7.25293 270.507 7.52067 270.394 7.81431C269.875 7.96977 269.494 8.24615 269.26 8.64343C269.026 9.04072 268.792 9.438 268.567 9.84392C267.909 10.0685 267.424 10.5003 267.095 11.1221C266.766 11.7526 266.602 12.3831 266.602 13.0136C266.307 13.3331 265.944 13.5231 265.52 13.5836C265.087 13.6527 264.688 13.6872 264.299 13.6872C264.03 13.6872 263.762 13.6786 263.502 13.67C263.242 13.6613 262.991 13.644 262.74 13.6181C262.602 13.4195 262.506 13.2036 262.454 12.979C262.394 12.7545 262.351 12.5213 262.316 12.2881C262.281 12.0549 262.247 11.8217 262.212 11.5972C262.177 11.3726 262.108 11.1567 261.996 10.9581C263.277 9.74028 264.515 8.49661 265.701 7.20975C266.888 5.92289 268.039 4.60148 269.165 3.22825C269.139 3.15916 269.13 3.05552 269.13 2.92597C269.13 2.77051 269.156 2.63233 269.217 2.50278C269.269 2.38186 269.321 2.26095 269.373 2.14867C269.416 2.0364 269.459 1.91548 269.494 1.7773C269.528 1.63911 269.528 1.47502 269.511 1.26774C269.935 1.08637 270.36 1 270.793 1C271.442 1 271.996 1.19864 272.446 1.58729C272.897 1.98458 273.217 2.4855 273.399 3.09007Z" fill="white" stroke="white" stroke-width="2"/>
<path d="M311.792 20.4324C311.792 20.8124 311.775 21.1837 311.74 21.5292C311.705 21.8747 311.636 22.246 311.524 22.6261C311.324 22.7815 311.143 22.9715 310.987 23.1961L310.511 23.8352C310.355 24.0338 310.182 24.2325 310 24.4225C309.818 24.6125 309.593 24.7679 309.324 24.8802C309.099 25.8734 308.822 26.8235 308.493 27.7303C308.164 28.6372 307.922 29.5958 307.766 30.5804C307.497 31.0727 307.281 31.6168 307.125 32.2041C306.969 32.7914 306.805 33.3787 306.632 33.9746C306.458 34.5705 306.277 35.1406 306.077 35.676C305.878 36.2115 305.593 36.7038 305.229 37.127C305.047 37.6625 304.865 38.2497 304.692 38.8629C304.51 39.4848 304.207 39.9943 303.783 40.4003C303.809 40.4435 303.818 40.5125 303.818 40.5989C303.818 40.8666 303.748 41.1257 303.618 41.3589C303.489 41.5921 303.419 41.834 303.419 42.0844C303.056 42.3522 302.718 42.6717 302.389 43.0258C302.06 43.3886 301.731 43.7427 301.393 44.1054C301.056 44.4681 300.692 44.7791 300.311 45.0468C299.93 45.3145 299.514 45.4959 299.055 45.5823C298.735 45.3577 298.449 45.1072 298.172 44.8222C297.904 44.5372 297.583 44.3127 297.228 44.1313C297.047 43.1208 296.943 42.1276 296.908 41.143C296.874 40.1584 296.787 39.1911 296.657 38.2238C296.57 37.6625 296.423 37.1183 296.233 36.6001C296.042 36.082 295.947 35.5551 295.947 35.011C295.947 34.8987 295.956 34.7778 295.964 34.6569C295.973 34.536 295.99 34.4151 296.016 34.3028C295.791 34.0523 295.644 33.7501 295.575 33.3787C295.505 33.0073 295.454 32.6273 295.402 32.23C295.358 31.8327 295.298 31.4527 295.22 31.0641C295.142 30.684 295.003 30.3559 294.795 30.0881C294.882 30.0018 294.934 29.8722 294.934 29.7167C294.934 29.6045 294.917 29.4922 294.882 29.3799C294.847 29.2676 294.83 29.1554 294.83 29.0431C294.83 28.9567 294.865 28.8531 294.934 28.7408C294.752 28.5162 294.631 28.309 294.579 28.119C294.518 27.929 294.484 27.739 294.458 27.5489C294.432 27.3589 294.414 27.1603 294.406 26.9617C294.397 26.763 294.363 26.5471 294.319 26.3225C294.276 26.1671 294.198 26.0462 294.103 25.9684C293.999 25.8907 293.947 25.8303 293.947 25.7871C293.947 25.6748 293.99 25.5884 294.085 25.5193C293.765 25.0702 293.514 24.5952 293.306 24.1029C293.107 23.6106 292.873 23.1097 292.631 22.6174C292.657 22.367 292.743 22.177 292.899 22.0474C293.055 21.9179 293.168 21.7365 293.237 21.5119H294.319C295.315 23.4465 296.068 25.4502 296.605 27.5317C297.133 29.6131 297.601 31.7118 298.008 33.8278C298.12 34.4324 298.224 35.0456 298.328 35.6501C298.432 36.2547 298.545 36.8765 298.683 37.507C298.726 37.6452 298.796 37.792 298.882 37.9475C298.969 38.1029 299.021 38.267 299.021 38.4225C299.021 38.5607 298.986 38.6902 298.917 38.8284C299.055 38.9148 299.159 39.0443 299.237 39.1998C299.315 39.3552 299.384 39.5193 299.436 39.6921C299.488 39.8648 299.54 40.0289 299.592 40.2016C299.636 40.3744 299.705 40.5212 299.791 40.6594C300.06 40.6335 300.302 40.5126 300.501 40.288C300.701 40.0634 300.891 39.7957 301.056 39.4934C301.22 39.1911 301.385 38.8889 301.532 38.5866C301.679 38.2843 301.852 38.0425 302.06 37.8611C302.086 37.6106 302.129 37.3688 302.216 37.1356C302.294 36.9024 302.337 36.6606 302.337 36.4101C302.562 36.0301 302.761 35.6674 302.943 35.3306C303.125 34.9937 303.237 34.5878 303.281 34.1128C303.393 34.0264 303.463 33.9487 303.48 33.8969C303.506 33.8451 303.601 33.8364 303.783 33.8796C303.783 33.275 303.878 32.6791 304.069 32.1091C304.259 31.5391 304.528 30.995 304.865 30.4768C304.909 29.9586 305.021 29.4404 305.186 28.9049C305.359 28.3781 305.549 27.8512 305.774 27.333C305.844 27.1776 305.93 26.9876 306.043 26.7803C306.155 26.5644 306.216 26.3744 306.216 26.193C306.216 26.1066 306.199 26.0203 306.164 25.9425C306.129 25.8648 306.112 25.7784 306.112 25.6921C306.112 25.5107 306.181 25.3552 306.311 25.2171C306.441 25.0789 306.571 24.9493 306.684 24.8111C306.684 24.2929 306.735 23.7747 306.857 23.2565C306.969 22.7383 307.194 22.2892 307.532 21.9092C307.645 21.1492 307.792 20.3978 307.974 19.6637C308.155 18.9296 308.415 18.23 308.753 17.5563H309.974C309.974 17.1332 310.164 16.9172 310.545 16.9172C310.77 16.9172 311.021 16.9777 311.29 17.09C311.472 17.5823 311.602 18.1436 311.679 18.7568C311.749 19.3441 311.792 19.9142 311.792 20.4324Z" fill="white" stroke="white" stroke-width="2"/>
<path d="M334 22.9977V23.1359C333.844 23.1791 333.766 23.2913 333.766 23.4727C333.515 23.585 333.255 23.6713 332.987 23.7232C332.718 23.7836 332.459 23.8614 332.207 23.9736C331.956 23.9477 331.705 23.9391 331.445 23.9218C331.186 23.9132 330.935 23.9045 330.684 23.9045C330.008 23.9045 329.333 23.9304 328.657 23.9736C327.982 24.0168 327.307 24.0168 326.631 23.9736C326.311 24.155 325.973 24.2932 325.601 24.3968C325.229 24.5005 324.874 24.5523 324.536 24.5523C324.268 24.5523 324.025 24.5177 323.826 24.4486C323.289 24.7164 322.692 24.9409 322.051 25.1223C321.41 25.3037 320.761 25.4764 320.103 25.6491C319.445 25.8219 318.821 26.0119 318.224 26.2192C317.627 26.4351 317.098 26.7287 316.648 27.1174C316.605 27.4369 316.57 27.7392 316.544 28.0415C316.518 28.3438 316.51 28.6461 316.51 28.9397C316.51 29.2593 316.527 29.5443 316.562 29.8206C316.596 30.097 316.665 30.3561 316.778 30.6325C316.891 30.6757 317.02 30.7102 317.168 30.7361C317.315 30.762 317.445 30.7707 317.557 30.7707C317.67 30.7707 317.782 30.7534 317.895 30.7189C318.008 30.6843 318.085 30.6152 318.129 30.5029C318.466 30.4598 318.804 30.4425 319.142 30.4511C319.479 30.4598 319.817 30.4684 320.155 30.4684C320.493 30.4684 320.822 30.4598 321.151 30.4338C321.48 30.4079 321.8 30.3561 322.112 30.2611C322.475 30.1747 322.83 30.1143 323.177 30.0884C323.523 30.0625 323.869 30.0452 324.207 30.0193C324.545 29.9934 324.891 29.9588 325.255 29.8984C325.618 29.8465 325.991 29.7256 326.372 29.5443C326.666 29.6565 326.96 29.717 327.272 29.717C327.584 29.717 327.878 29.7429 328.173 29.7861C328.328 29.8984 328.458 30.0193 328.562 30.1575C328.666 30.2957 328.718 30.4511 328.718 30.6325C328.718 30.952 328.606 31.263 328.38 31.5739C328.155 31.8934 327.973 32.1784 327.844 32.4548H327.471C326.934 32.4548 326.406 32.5239 325.895 32.6707C325.385 32.8176 324.882 32.9903 324.372 33.1803C323.861 33.3703 323.358 33.543 322.848 33.6899C322.337 33.8367 321.817 33.9058 321.272 33.9058C321.185 33.9058 321.133 33.9576 321.116 34.0612C321.107 34.1649 321.073 34.234 321.029 34.2771C320.917 34.2512 320.744 34.2426 320.518 34.2426C319.999 34.2426 319.505 34.3031 319.029 34.4153C318.553 34.5276 318.068 34.5881 317.575 34.5881C317.436 34.5881 317.306 34.5794 317.168 34.5708C317.029 34.5622 316.899 34.5449 316.761 34.519C316.648 34.7003 316.501 34.8213 316.319 34.8731C316.137 34.9335 315.973 35.0285 315.808 35.1581C315.739 35.3567 315.704 35.6072 315.687 35.9008C315.678 36.1945 315.661 36.4881 315.652 36.799C315.644 37.1013 315.609 37.3863 315.566 37.6627C315.523 37.9305 315.427 38.1464 315.297 38.3018C315.323 38.4141 315.41 38.4573 315.566 38.4227C315.722 38.3882 315.8 38.4659 315.8 38.6387C315.8 38.8373 315.774 39.0532 315.73 39.2778C315.687 39.5023 315.661 39.7269 315.661 39.9514C315.661 40.3833 315.713 40.8496 315.817 41.3506C315.921 41.8515 316.077 42.3265 316.293 42.7497C316.51 43.1815 316.795 43.5356 317.159 43.812C317.523 44.097 317.973 44.2352 318.51 44.2352C318.873 44.2352 319.211 44.1661 319.523 44.0366C319.834 43.8984 320.094 43.6738 320.302 43.3629L320.475 43.3284C320.562 43.3284 320.648 43.337 320.726 43.3629C320.804 43.3888 320.891 43.3974 320.977 43.3974C321.116 43.3974 321.289 43.3111 321.506 43.147C321.722 42.9743 321.956 42.7842 322.216 42.5597C322.475 42.3351 322.744 42.1192 323.012 41.9033C323.281 41.6874 323.54 41.5406 323.791 41.4456C323.947 41.1346 324.103 40.8151 324.25 40.5042C324.397 40.1933 324.614 39.9428 324.908 39.7614V38.7855C325.133 38.535 325.376 38.3105 325.636 38.1118C325.895 37.9132 326.095 37.6541 326.224 37.3345C326.337 37.3777 326.441 37.4123 326.545 37.4382C326.649 37.4641 326.753 37.4727 326.865 37.4727C326.978 37.4727 327.099 37.4641 327.22 37.4382C327.341 37.4123 327.463 37.3863 327.575 37.3345C327.757 37.585 327.896 37.8614 327.999 38.1636C328.103 38.4659 328.233 38.7509 328.389 39.0273C328.19 39.4332 327.947 39.9169 327.679 40.4783C327.411 41.0396 327.116 41.601 326.796 42.1624C326.476 42.7238 326.146 43.2593 325.8 43.7688C325.454 44.2784 325.107 44.667 324.77 44.9348C324.701 45.0039 324.553 45.0816 324.328 45.168C324.077 45.3493 323.852 45.5221 323.653 45.6948C323.454 45.8675 323.255 46.0575 323.081 46.2821C322.423 46.4807 321.8 46.7571 321.203 47.0939C320.605 47.4308 320.016 47.759 319.428 48.0699C319.159 48.0008 318.865 47.9662 318.544 47.9662C318.276 47.9662 318.008 47.9835 317.73 48.0181C317.453 48.0526 317.168 48.0699 316.847 48.0699C316.761 47.9576 316.631 47.8885 316.458 47.854C316.284 47.8194 316.224 47.6985 316.276 47.4999C315.505 47.4567 314.89 47.2494 314.414 46.878C313.938 46.5066 313.54 46.0489 313.211 45.5134C312.882 44.978 312.622 44.3907 312.414 43.7602C312.215 43.1297 311.999 42.5251 311.773 41.9379V41.8342C311.773 41.7219 311.817 41.6528 311.912 41.6356C311.999 41.6097 312.051 41.5492 312.051 41.4369C312.051 41.3937 312.042 41.3592 312.016 41.3333C311.947 41.0828 311.895 40.8755 311.843 40.6942C311.799 40.5128 311.773 40.2969 311.773 40.0551C311.773 39.6923 311.799 39.3382 311.843 38.9928C311.886 38.6473 311.912 38.2932 311.912 37.9304C311.912 37.5677 311.869 37.2568 311.773 36.9891C311.86 36.8768 311.938 36.7213 311.99 36.5313C312.051 36.3413 312.085 36.1427 312.111 35.944C312.137 35.7454 312.146 35.5381 312.163 35.3395C312.172 35.1408 312.198 34.9594 312.25 34.804C312.163 34.5535 312.076 34.3376 312.016 34.1476C311.947 33.9576 311.912 33.7244 311.912 33.4567V33.2235C312.137 32.8435 312.328 32.4462 312.483 32.0403C312.639 31.6343 312.812 31.2198 312.994 30.7879V30.6238C312.994 29.9761 312.968 29.3197 312.925 28.6633C312.882 28.0156 312.856 27.3592 312.856 26.7028V26.0637C312.856 25.8391 312.864 25.6232 312.89 25.4246C313.072 25.3382 313.202 25.2087 313.297 25.0532C313.384 24.8978 313.522 24.7682 313.704 24.6818H314.821L315.02 24.345C315.09 24.2327 315.133 24.1118 315.159 23.9736C315.41 23.9045 315.652 23.8095 315.886 23.6886C316.12 23.5677 316.345 23.4382 316.544 23.3C316.856 23.1186 317.15 22.9545 317.41 22.8077C317.67 22.6609 317.93 22.5399 318.189 22.4363C318.449 22.3327 318.726 22.2549 319.021 22.1858C319.315 22.1168 319.653 22.0649 320.034 22.0131C320.215 22.0131 320.328 21.9786 320.389 21.9095C320.441 21.8404 320.527 21.7626 320.64 21.6763C320.908 21.7195 321.177 21.7626 321.454 21.7972C321.731 21.8317 321.99 21.849 322.268 21.849C322.804 21.849 323.315 21.7454 323.791 21.5467C324.467 21.5467 325.142 21.5381 325.8 21.5122C326.467 21.4863 327.134 21.4776 327.809 21.4776C328.398 21.4776 328.978 21.5036 329.567 21.5467C330.155 21.5899 330.727 21.6676 331.29 21.7799C331.489 21.7108 331.714 21.6763 331.965 21.6763C332.233 21.6763 332.51 21.7022 332.796 21.7627C333.082 21.8231 333.35 21.8231 333.627 21.7799C333.653 22.0304 333.714 22.2377 333.809 22.4018C333.904 22.5659 334 22.7731 334 22.9977ZM331.532 7.51219C331.445 7.69356 331.35 7.84038 331.246 7.95266C331.142 8.06493 331.056 8.18585 330.978 8.30676C330.9 8.42767 330.839 8.57449 330.805 8.72995C330.77 8.88541 330.761 9.09269 330.787 9.33452C330.632 9.60225 330.441 9.85272 330.233 10.0773C330.017 10.3018 329.8 10.5177 329.593 10.7337C329.376 10.9496 329.177 11.1741 328.986 11.4246C328.796 11.675 328.64 11.9428 328.528 12.2364C328.008 12.3919 327.627 12.6683 327.393 13.0655C327.16 13.4628 326.926 13.8601 326.701 14.266C326.043 14.4906 325.558 14.9224 325.229 15.5443C324.9 16.1747 324.735 16.8052 324.735 17.4357C324.441 17.7552 324.077 17.9453 323.653 18.0057C323.22 18.0748 322.822 18.1093 322.432 18.1093C322.164 18.1093 321.895 18.1007 321.635 18.0921C321.376 18.0834 321.125 18.0662 320.873 18.0403C320.735 17.8416 320.64 17.6257 320.588 17.4011C320.527 17.1766 320.484 16.9434 320.449 16.7102C320.415 16.477 320.38 16.2438 320.345 16.0193C320.311 15.7947 320.241 15.5788 320.129 15.3802C321.41 14.1624 322.648 12.9187 323.835 11.6319C325.021 10.345 326.172 9.0236 327.298 7.65037C327.272 7.58128 327.263 7.47764 327.263 7.34809C327.263 7.19263 327.289 7.05445 327.35 6.9249C327.402 6.80398 327.454 6.68307 327.506 6.57079C327.549 6.45852 327.592 6.3376 327.627 6.19942C327.662 6.06123 327.662 5.89713 327.644 5.68986C328.069 5.50849 328.502 5.42212 328.926 5.42212C329.575 5.42212 330.129 5.62076 330.58 6.00941C331.03 6.4067 331.35 6.90762 331.532 7.51219Z" fill="white" stroke="white" stroke-width="2"/>
<path d="M69.4919 53.0617C69.4919 53.364 69.44 53.649 69.3274 53.9254C69.2148 54.2017 69.0936 54.4695 68.9464 54.7286L68.5222 55.5145C68.3836 55.7736 68.2711 56.05 68.1845 56.335L68.0633 56.3004C67.7775 56.3004 67.5091 56.335 67.2407 56.4041C66.9723 56.4732 66.7125 56.5509 66.4528 56.6286C66.193 56.7064 65.9246 56.7927 65.6476 56.8705C65.3705 56.9482 65.0934 56.9914 64.8163 56.9914C64.7731 56.7064 64.6865 56.4559 64.5566 56.2314C64.4267 56.0068 64.1843 55.8945 63.8466 55.8945C63.786 55.7304 63.7514 55.5577 63.7427 55.3763C63.734 55.195 63.7254 55.0136 63.7254 54.8495C63.7254 54.6768 63.7081 54.504 63.6821 54.3313C63.6561 54.1586 63.5955 53.9945 63.5176 53.8304C63.8812 53.5454 64.1843 53.2085 64.4267 52.8112C64.6691 52.414 64.9462 52.0599 65.2493 51.7317C65.4917 51.7921 65.7428 51.8267 66.0112 51.8267C66.3143 51.8267 66.6173 51.7921 66.9204 51.723C67.2234 51.6539 67.5264 51.6194 67.8295 51.6194C68.1499 51.6194 68.4616 51.6971 68.7386 51.8612C68.7992 51.9648 68.8425 52.0771 68.8598 52.198C68.8772 52.319 68.9118 52.4312 68.9637 52.5435C69.0157 52.6558 69.0763 52.7508 69.1456 52.8285C69.2148 52.9062 69.3361 52.9494 69.4919 52.9494V53.0617Z" fill="white" stroke="white" stroke-width="2" stroke-miterlimit="10"/>
</svg>
